<?xml version="1.0" encoding="UTF-8"?>
<svg id="Layer_1" xmlns="http://www.w3.org/2000/svg" version="1.1" viewBox="0 0 211.9 202.1">
  <!-- Generator: Adobe Illustrator 29.0.1, SVG Export Plug-In . SVG Version: 2.1.0 Build 192)  -->
  <defs>
    <style>
      .st0 {
        stroke: #231f20;
        stroke-miterlimit: 10;
        stroke-width: .7px;
      }

      .st1 {
        fill: #f97f06;
      }
    </style>
  </defs>
  <path class="st1" d="M56.5,179.5l4.5-3-1-1.7-.8-1.4h0c0,0-.5-.4-1.1-1-.3-.3-.7-.7-1.2-1.1-1-.9-2-2-2.9-3-.5-.6-.9-1.2-1.1-1.6,0,0,0,0,0,0,0,0,0,0,0,0-.3-.3-.5-.7-.7-1-.2-.4-.3-.9-.5-1.4-.2.4-.3.7-.5.9-.1.2-.3.4-.5.4-.5,0-1.1,0-1.6,0-.1,0-.3-.2-.4-.4,0-.1,0-.3,0-.6-.2.2-.2.4-.3.5-.2.4-.4.8-.7,1.2-.4.7-1.1,1.1-1.9,1.1s-1.2,0-1.7-.1c-1.1-.2-1.5-.9-1.4-2,0,0,0,0,0,0,0,0,0,0,0,0,0-.5.2-1.1.6-1.5.6-.6,1.2-1.3,1.8-1.9.4-.5.9-.9,1.3-1.3.3-.3.5-.6.5-1.1-.2,0-.3.1-.5.2-.5.3-1.1.6-1.7.9-.7.4-1.5.4-2.3.2-.2,0-.4-.2-.4-.3s0,0,0,0c0,0,0,0,0,0,0-.2.1-.4.2-.5.4-.2.8-.4,1.1-.5.5-.2,1-.4,1.4-.6.2,0,.3-.2.5-.3-.5-.3-1-.3-1.5-.2-2.1.5-4.3.4-6.4,0-.3,0-.5-.1-.8-.2-.2,0-.4-.2-.4-.4,0-.2,0-.3.1-.5.2-.3.5-.5.8-.7,1.5-1,3-1.6,4.8-1.6.8,0,1.6,0,2.3,0,1.5,0,2,.4,2.5,1.8.2.6.4,1.3.5,2,.8.1,1.4.6,2.1,1.1.7.4,1.3.9,1.9,1.3.3-.6.5-1.3.5-1.8,0-1.7-1.3-3-2.9-3.2-.3,0-.6,0-.9,0-.4,0-.5,0-.4-.3,0,0,0-.2,0-.3,0,0,0-.1,0-.2-.1,0-.2-.1-.4-.2-1.2-.4-2.4-.8-3.5-1.2-.6-.2-1.1-.6-1.7-.9-.2,0-.3-.3-.5-.5,0,0,0,0,0,0,0,0,0,0,0,0,.3,0,.4,0,.6.1,1.1.4,2.3.8,3.4,1.2.6.2,1.2.5,1.7,1,.3.3.8.3,1.2.3,0,0,0-.1,0-.1-.5-.2-.8-.4-1-.9,0,0,0,0,0,0,0,0,0,0,0,0-6.9-4.3-14.7-3.8-6.4-3.9.6,0,1.2,0,1.9,0,0,0-2-3.2-5.6-6-3.3-2.6-7.8-4.7-13.2-3.3-.4,0-.7.2-1.1.3-2.2.7-3.3,2.2-3.7,4.1-.3,1.2-.2,2.5,0,3.9.6,4,2.8,8.4,3.8,10,0,0,0,.1.1.2,0,.1.1.2.2.3,0,0,0,.1.1.2l6.3,4.9c0,.2.1.4.2.6l3.5,9.5s0,0,0,0c.2.2,2,2.1,4,3.8,1.4,1.1,2.9,2,4.2,2.1,1.8.2,2.7.6,4.1.6.1,0,.2,0,.3,0h.4s0,0,0,0c.5,0,1-.1,1.6-.3,0,0,0,0,0,0,.2,0,.4,0,.6-.1.1,0,.2,0,.3-.1.6-.2,1.3-.4,2-.6.6-.2,1.1-.4,1.6-.5,3.6-1.1,3.5-.4,3.4-.2,0,0,0,0,0,0Z"/>
  <g id="Layer_2">
    <g>
      <path class="st0" d="M85,98.5c0,3.8,0,7.6-.1,11.4,0,3.8-.2,7.5-.2,11.3,0,0,0,0,.1,0,0-.3.1-.7.2-1,.5-4.8,2.4-9,5.7-12.6.4-.4.8-.8,1.2-1.2.5-.4,1-.7,1.7-.7.6,0,1,.2,1.1.8.1.4.2.8.2,1.2,0,2.1,0,4.1,0,6.2,0,1.5,0,3.1-.1,4.6,0,.1,0,.2.2.4.1-.8.3-1.6.4-2.3.5-3,1.9-5.5,3.8-7.8.7-.9,1.7-1.6,2.7-2.2.2,0,.4-.2.6-.3,1.2-.5,2.1,0,2.4,1.2.1.7.2,1.4.1,2.1-.2,2.6-.5,5.2-.8,7.8-.2,2.2-.4,4.4-.6,6.6-.1,1.4-.2,2.8-.2,4.1,0,.2,0,.4,0,.5,0,.6.4.8.9.4.8-.6,1.5-1.3,2.2-2,.1,0,.2-.2.4-.3.2,0,.4,0,.5,0,0,.2,0,.4,0,.6,0,0-.1.1-.2.2-.8.7-1.5,1.3-2.3,2-.4.4-.9.7-1.6.4-.7-.3-.9-.9-.8-1.5.1-1.9.2-3.8.3-5.7.3-2.9.6-5.9.9-8.8.2-1.5.3-3,.4-4.5,0-.6,0-1.2-.2-1.8-.2-.7-.6-.9-1.2-.6-1.2.5-2.2,1.3-3,2.3-1.9,2.4-3.1,5-3.6,8-.5,3.1-.8,6.3-1.1,9.5,0,.6,0,1.2-.2,1.7,0,.2,0,.4-.2.6,0,.1-.3.2-.4.2-.1,0-.3-.1-.3-.3,0-.2,0-.5,0-.7,0-3.8,0-7.6.2-11.3,0-2.7.1-5.4.2-8.1,0-.6,0-1.2-.1-1.8,0-.6-.3-.8-.9-.5-.3.2-.6.4-.9.6-3.4,3.4-5.6,7.4-6.2,12.2-.4,2.9-.6,5.8-.9,8.7,0,.2,0,.5-.1.7,0,.2-.2.4-.5.3-.2,0-.3-.2-.4-.4,0-.2,0-.4,0-.7-.2-6.1,0-12.1,0-18.2,0-3.3.1-6.7.1-10.1,0-.6.3-.9.8-1.3h0Z"/>
      <path class="st0" d="M74.4,62.3v1c0,.5,0,1,0,1.5,0,.3-.2.5-.5.5-.3,0-.4-.2-.5-.5,0-.5,0-1,0-1.5,0-.3-.2-.7-.3-1-.2-.7.1-1,.8-.9.3,0,.5.1.8.2,2.9.9,5.8,1.2,8.8,1,2.2-.1,4.4-.4,6.6-.9.6-.1,1.2-.3,1.8-.5.2,0,.3,0,.4,0,.5,0,.7.3.5.7-.2.3-.4.5-.6.8-2.4,3.1-5.3,5.8-8.7,7.8,0,0-.1.1-.2.2.2.2.5,0,.7,0,2.8,0,5.5.2,8.1,1.4.8.3,1.5.8,2.2,1.3,3,2.2,4,5.6,2.7,9-.6,1.4-1.4,2.6-2.3,3.8-1.1,1.3-2.4,2.5-3.8,3.6-1.2.9-2.4,1.8-3.7,2.7-.9.7-1.8,1.3-2.6,2-2.8,2.4-5.2,5.4-7.4,8.4-.9,1.2-1.7,2.5-2.5,3.8-1.7,2.7-2.8,5.5-3.6,8.6,0,.2,0,.4-.2.6,0,.1-.3.2-.4.2s-.3-.2-.3-.4c0-.2,0-.5.1-.7.5-2.2,1.3-4.3,2.3-6.2,2.6-5,5.9-9.5,9.9-13.4,1.4-1.4,2.9-2.6,4.5-3.7,1.8-1.2,3.6-2.6,5.2-4.1,1.3-1.2,2.4-2.5,3.2-4,.6-1.1,1-2.2,1.1-3.4.2-2.6-.9-4.6-3-6.1-2-1.4-4.3-2.1-6.7-2.4-1.8-.2-3.6-.1-5.3.1-.3,0-.7.1-.9.3-1.7.8-3.4,1.4-5.2,1.9-.3,0-.6.2-.9.2-.2,0-.4-.2-.5-.3,0-.1,0-.4.2-.5.2-.2.4-.3.7-.4,1.5-.8,3.1-1.3,4.7-1.6,1-.2,1.8-.5,2.7-1,3.4-1.9,6.4-4.5,8.8-7.6,0,0,0,0,.1-.2,0,0,0,0,0-.2-5.6,1.3-11.2,1.7-16.9.1h0Z"/>
      <path class="st0" d="M141.6,120.3c-.5,1.4-1,2.7-1.8,3.9-.5.8-1.1,1.6-1.8,2.3-1.2,1.1-2.3.9-3-.5-.3-.6-.4-1.3-.6-2,0-.1,0-.3,0-.4,0,0-.1,0-.1,0,0,.7-.3,1.3-.7,1.8-.5.6-.9,1.3-1.5,1.8-.4.4-1,.8-1.6,1-.8.4-1.7.4-2.5,0-1.5-.6-2.7-1.6-3.6-3-.2-.3-.4-.6-.6-.9,0,0,0,0-.1,0,0,.2,0,.4,0,.6,0,1.2,0,2.3,0,3.5,0,.3,0,.6.1,1,0,.3,0,.6-.3.6-.2,0-.4-.1-.5-.4,0-.2,0-.5,0-.7,0-1.8,0-3.6,0-5.4,0-1.4,0-2.8,0-4.2,0-.3,0-.6,0-.9,0-3.5.1-7,.2-10.5,0-1.6.2-3.2.2-4.8,0-.2,0-.5.3-.5.3,0,.3.2.3.5,0,.8,0,1.5,0,2.3-.1,4-.2,8.1-.3,12.1,0,0,0,.2,0,.4.2-.1.3-.2.4-.3.6-.3,1.1-.7,1.7-1,1.1-.4,1.7.2,1.5,1.3-.2.8-.6,1.6-1.1,2.2-.7.8-1.4,1.6-2.2,2.3,0,0-.2.2-.3.3,1,1.7,1.8,3.5,3.7,4.5,1.5.8,2.7.8,4-.4,1.1-.9,1.8-2.2,2.4-3.5.4-.8.6-1.6.5-2.5-.1-1.2,0-2.4-.1-3.6,0-.5,0-.7.4-.6.3,0,.4.2.4.7.1,2.3.2,4.6.4,6.8,0,.6.3,1.1.6,1.6.5.8.9.8,1.6.2.8-.6,1.3-1.4,1.8-2.3,1-1.7,1.5-3.5,2-5.4.1-.6.3-1.2.4-1.8,0-.2,0-.3.1-.4,0-.1.2-.2.4-.2.1,0,.3.2.3.3,0,.2,0,.3,0,.5,0,.8-.1,1.6-.1,2.5,0,1.5,0,2.9,0,4.4,0,2,.1,3.9-.3,5.8-.3,1.4-.9,2.7-1.8,3.9-.8,1.2-2,1.9-3.4,2.2-1.3.3-2.7.6-4.1.7-4.1.3-8.1.3-12.2,0-3.2-.2-6.3-.1-9.5,0-1.3,0-2.6.1-3.9.2-2.1,0-4.1.2-6.2.2-.2,0-.4,0-.6,0,0,0-.2-.2-.2-.3s.1-.2.2-.3c.2,0,.4,0,.7,0,2.5-.1,5-.2,7.5-.3,3.5-.2,6.9-.3,10.4-.2,2.1,0,4.2.2,6.3.2,3,0,6,0,9-.4,1-.1,2.1-.4,3.1-.6,1.1-.3,1.8-.9,2.5-1.8,1.2-1.8,1.9-3.8,1.9-5.9,0-1.4,0-2.8,0-4.1,0-.9,0-1.8,0-2.7h0ZM123.7,121.8c.2,0,.2,0,.3-.1.7-.8,1.4-1.6,2.1-2.5.3-.4.4-.8.5-1.3.1-.5,0-.7-.6-.5-.9.3-1.6.9-2.1,1.6,0,.1-.1.3-.1.4,0,.8,0,1.5,0,2.3h0Z"/>
      <path class="st0" d="M106,81.1c0,0-.1.2-.2.3-1.4,2.6-2.9,5.1-4.3,7.7-.2.3-.3.6-.5.9-.1.2-.3.4-.5.2-.2,0-.3-.3-.2-.5.1-.3.3-.6.4-.9,1.2-2.1,2.3-4.2,3.5-6.3.6-1.1,1.2-2.1,1.8-3.1.2-.3.3-.7.3-1.1.3-2.3.5-4.6.8-6.9.2-1.8.6-3.7,1.2-5.4.1-.4.3-.7.5-1.1.3-.6.8-1,1.4-1.2.6-.3,1.2-.2,1.6.3.6.7.9,1.5.8,2.4,0,1.1-.4,2.1-.7,3-.9,2.6-2.2,5.1-3.6,7.5,0,.1-.1.2-.2.3-1.1,2-1.1,2-1.2,4.3,0,2.1,0,4.1-.1,6.2-.1,4.2-.2,8.3-.4,12.4,0,.3,0,.6,0,.9,0,.3,0,.7.2,1,0,.2.2.4.4.5.1,0,.4-.2.5-.3.9-1.4,2-2.8,2.7-4.3,0-.1.2-.3.2-.4.2-.2.3-.3.6-.2.2.1.2.3,0,.5-.2.4-.4.9-.6,1.2-.8,1.2-1.6,2.4-2.3,3.6-.1.2-.3.3-.5.5-.6.4-1.3.3-1.7-.4-.2-.4-.3-1-.4-1.5,0-.6,0-1.2,0-1.8,0-3,.2-6,.2-9,0-3,.2-6,.2-9.1v-.3h-.1s0,0,0,0ZM107.6,76.6c1.6-3,3.2-5.9,4.1-9.2.1-.5.2-1.1.2-1.6,0-.5-.2-.9-.5-1.3-.3-.4-.6-.5-1-.2-.4.3-.7.7-.9,1.1-.3.8-.6,1.5-.7,2.3-.7,2.8-.9,5.8-1.2,8.7,0,0,0,0,.1.2Z"/>
      <path class="st0" d="M126.2,78.8v-1.3c0-3.5.1-7,.5-10.4,0-.6.1-1.3.2-1.9,0-.3,0-.6.2-.8.2-.4.5-.4.9,0-.4.4-.4.9-.4,1.5-.3,4-.8,8.1-.6,12.1v.8c.3,0,.5,0,.7,0,.3,0,.6,0,.9,0,.1,0,.2.1.3.2,0,0,0,.2-.2.3-.1,0-.3,0-.4.1-.3,0-.7.1-1.1.2v.7c.2,4.3.2,8.5.2,12.8,0,2,0,4,.2,6,0,.4,0,.8.2,1.1,0,.3.1.7.4.9.4-.1.7-.4.9-.8.8-1.2,1.7-2.5,2.5-3.8.9-1.7,1.7-3.5,2.6-5.2.2-.5.5-.9.8-1.4,0-.1.1-.2.2-.3.2,0,.4-.2.5-.1.1,0,.2.3.2.4,0,.2,0,.3,0,.5-.4,2.2-.7,4.3-.6,6.6,0,.3,0,.7.1,1,.2,1,.8,1.7,1.7,2.1.3.1.7.1,1,0,1-.2,1.8-.7,2.6-1.3.2-.2.4-.3.6-.4.1,0,.3,0,.5,0,0,.2,0,.4,0,.5-1.1,1.1-2.4,1.9-4,2-.4,0-.8,0-1.2-.3-1.2-.7-1.9-1.7-2-3.1,0-1.2,0-2.4,0-3.6,0-.4,0-.8.1-1.2,0,0-.1,0-.1,0-.1.2-.2.4-.3.6-.9,1.9-1.9,3.8-3,5.6-.4.6-.8,1.1-1.2,1.7-.2.2-.3.4-.5.6-.4.4-.8.8-1.5.6s-.8-.7-.9-1.3c-.2-1-.3-2-.3-3,0-2.7,0-5.3,0-8,0-3.2-.2-6.3-.2-9.5,0,0,0-.2,0-.3-.3-.1-.6,0-.8,0-.3,0-.7,0-1,0,0,0-.2-.2-.2-.3s.1-.2.2-.3c.2,0,.3,0,.5,0,.4,0,.8,0,1.3,0h0Z"/>
      <path class="st0" d="M114.9,127c-.8.3-1.4.6-2.1.8-.8.3-1.5.6-2.3.8,0,0-.2,0-.3,0-.7.1-1.4,0-1.9-.6-.5-.7-.3-1.3,0-1.9.4-.8,1-1.3,1.6-1.8,1.4-1.1,3-1.9,4.8-2.3.5-.1.8-.3.8-.8,0-.7.3-1.4.4-2.1,0-.4,0-.8,0-1.1,0-.5-.3-.8-.8-.7-1,0-1.8.4-2.5,1,0,.2.4.4.1.7-.2.2-.8.2-1,0-.2-.2-.2-.4,0-.7.2-.2.4-.5.6-.7.8-.6,1.6-1,2.6-1.1,1.2-.2,2.1.5,2,1.8,0,.7-.2,1.3-.3,2,0,.7-.4,1.3-.2,2-.4,1-.4,2-.5,3.1,0,.6,0,1.3,0,1.9,0,.7.3.9,1,.7,1.3-.3,2.5-.9,3.7-1.7.2-.1.3-.4.5-.5.1,0,.2-.2.4-.2.3,0,.5.2.3.5-.1.3-.3.5-.6.7-.5.4-1.1.7-1.7,1-.8.4-1.6.6-2.3.9-.2,0-.5.1-.8.1-.7,0-1.1-.4-1.3-1,0-.2,0-.4-.1-.8h0ZM114.9,126.2c.1-1.1.2-2.3.4-3.4-.1,0-.2,0-.2,0-.2,0-.3,0-.5.1-1.5.5-2.9,1.2-4.2,2.2-.4.4-.8.8-1.2,1.3-.2.2-.3.5-.3.7-.2.6.2,1.1.8,1,.3,0,.6,0,.8-.2,1-.4,2-.8,3-1.2.4-.2.9-.3,1.4-.5Z"/>
      <path class="st0" d="M90.2,97.6c0-1.9.5-3.5,1.8-5,.6-.7,1.4-1.3,2.4-1.5,1.4-.3,2.5.2,3.4,1.3.7.9,1.1,1.9,1.2,3.1.2,2-.3,3.9-1.5,5.5-.5.7-1.1,1.2-1.8,1.5-1.4.7-2.8.4-3.9-.7-1-1-1.4-2.2-1.5-3.5,0-.2,0-.5,0-.7h0ZM98.2,96.4c0-.5,0-1-.2-1.5-.2-.9-.5-1.7-1.2-2.3-.8-.8-1.7-1-2.7-.6-.8.3-1.4.8-1.8,1.5-1.1,1.4-1.4,3.1-1.3,4.8,0,1,.3,1.9,1,2.7.9,1.2,2.3,1.5,3.7.7.6-.4,1-.8,1.4-1.4.8-1.2,1.1-2.5,1.2-3.8h0Z"/>
      <path class="st0" d="M113.2,98.5c0-1.6.4-3.2,1.4-4.5.4-.5.9-.9,1.4-1.2,1.2-.8,2.7-.6,3.8.3.8.7,1.3,1.5,1.5,2.5.6,2.1.3,4.1-.8,6-.4.7-.9,1.3-1.7,1.7-1.4.9-3.1.7-4.2-.6-.9-1-1.3-2.2-1.4-3.4,0-.2,0-.5,0-.7ZM120.8,97.7c0-.9,0-1.7-.4-2.5-.1-.3-.3-.7-.5-.9-1.1-1.6-2.9-1.7-4.2-.2-1.4,1.6-1.8,3.4-1.5,5.4.1,1,.4,1.9,1.1,2.7.9,1.1,2.3,1.3,3.4.4.6-.5,1.1-1.1,1.4-1.8.5-.9.7-2,.7-3Z"/>
      <path class="st0" d="M84.6,88.8c0-1.3,0-2.5.1-3.8,0-.6,0-1.2,0-1.8,0-.4,0-.8-.2-1.1-.3-1.1-.8-1.5-1.9-1.2-.7.2-1.4.4-2,.7-2.6,1.2-5,2.9-7.1,4.8-.4.4-.8.8-1.1,1.2-.2.3-.5.7-.6,1.1-.2.6-.1.9.3,1.3,0,0,.2.2.3.2,0,0,.1.2,0,.3,0,0-.2.2-.3.2-.1,0-.3,0-.4,0-.8-.4-1.1-1.2-.8-2,.2-.5.4-1,.7-1.4.5-.6,1.1-1.2,1.7-1.8,2.2-2,4.7-3.6,7.4-4.8.7-.3,1.5-.6,2.3-.6,1.1,0,1.8.4,2.2,1.4.1.4.3.8.3,1.2,0,1.7,0,3.4,0,5.1s-.5.7-.7,1c0,0,0,0-.1,0h0Z"/>
      <path class="st0" d="M138.3,82.2c.3,0,.5.2.4.4,0,.2-.2.3-.3.5-.7,1-1.5,2-2.2,3.1-.2.2-.3.5-.4.8,0,.2-.2.4-.4.3-.1,0-.3-.2-.4-.4,0-.2,0-.4.2-.6.9-1.3,1.9-2.6,2.8-3.9.1-.1.3-.2.3-.3h0Z"/>
    </g>
    <g>
      <path d="M207.5,108.2c-.4-.2-.4-.8-1-.6,0,.1-.1.3-.2.4,0,0-.3.2-.4.1,0,0-.1-.2-.2-.3,0,0,0-.1,0-.2,0-.8,0-1.6-.3-2.3-.1,0-.3.2-.4.3-.1,0-.3,0-.4,0s0-.2,0-.4,0-.2.1-.2c.6-.5.4-1.1.2-1.8-.1,0-.2,0-.4,0-.1,0-.3,0-.4-.2,0-.1,0-.3.1-.4.6-.3.5-.8.5-1.2,0-.3,0-.6,0-.9-.2-.2-.7,0-.6-.4,0-.2.4-.3.6-.6,0-.4,0-.9.1-1.4-.2,0-.4,0-.5-.2,0,0-.1-.2-.1-.3,0,0,.1-.2.2-.2.2,0,.4,0,.6,0,.2-.6.4-1.2.6-1.8-.2,0-.4,0-.5-.1,0,0-.2-.2-.2-.2,0-.1,0-.3.2-.3.1,0,.3,0,.4,0,.4,0,.6-.2.7-.5.1-.3.3-.5.4-.8-.2-.1-.3-.2-.4-.3,0,0-.1-.2-.2-.4.1,0,.3-.2.4-.2.2,0,.4.2.6.2.2-.2.4-.3.7-.6,0,.2,0,.3,0,.4-.2,1.3-.5,2.5-.7,3.8-.8,3.8-.7,7.6.4,11.3,0,0,0,.1,0,.3h0Z"/>
      <path d="M126.4,179.8c-.1.5-.2.9-.3,1.4.2.1.5.3.7.4.2.1.3.3.2.5,0,0-.3.1-.5,0-.2,0-.3-.2-.6-.3-.2.5-.3,1-.5,1.5.2.1.4.3.6.4,0,.1.1.3,0,.5,0,.2-.3.2-.4,0-.2-.1-.4-.4-.7,0,.2-1.7.5-3.3.6-4.9,0-1.2,0-2.5,0-3.7,0-.9-.2-1.9-.3-2.8,0-.2,0-.5-.2-.7-.3-.6,0-1.1.4-1.5.1-.2.3-.3.5-.1s0,.3,0,.5c0,.2-.2.4-.4.6.2.2.4.4.6.6.2-.1.5-.3.7-.4.2,0,.4-.1.5,0,.1.2,0,.4-.2.5-.2.1-.4.3-.7.4,0,.1,0,.3,0,.4.2.8.2.8,1,.9.1,0,.3.2.4.3,0,.2-.2.3-.4.4-.2,0-.4,0-.7,0v1.6c1-.2,3.4-1.7,5.9-3.8.1,0,.3.1.5.2,0,0,0,.1-.1.2-.8.9-1.8,1.6-2.8,2.3-.6.4-1.3.8-2,1.2-.3.2-.7.3-.8.7,0,.1-.4.2-.7.2,0,.5-.2,1-.2,1.5.2,0,.4.1.5.2.1,0,.2.3.3.4-.1,0-.3.2-.4.2-.1,0-.3,0-.5-.1h0Z"/>
      <path d="M161.2,183.4c.3,0,.6,0,.7.2.2.2.1.4,0,.7-.2.4-.4.8,0,1.3,0,0,.2,0,.3,0,.1,0,.4.1.4.2,0,.2,0,.4-.2.5-.1.1-.3.2-.5.3v1.2h.3c.2,0,.4,0,.4.3,0,.2-.2.4-.3.5-.1.1-.3.1-.5.2,0,.4-.1.8-.2,1.2.2.1.4.2.4.3.1.1.2.4.2.5,0,.2-.3.3-.5.2-.1,0-.2,0-.4,0-.2.4-.4.8-.6,1.3.1.1.3.2.4.3.2.2.3.4.1.6-.1.2-.4.2-.6,0s-.3-.2-.4-.3c-.7.5-.7.6-.5,1.4,0,.1.1.2,0,.3,0,.1-.1.4-.3.4-.1,0-.4,0-.4-.1-.2-.3-.3-.7-.2-1.1.6-1.7,1-3.5,1.3-5.4.2-1.5.4-2.9.3-4.4,0-.5-.1-1-.2-1.5,0-.3,0-.6.3-.8.1-.1.4-.2.5,0,.1.1.1.3.1.5,0,0,0,0,0,.1-.3.5-.2.9,0,1.3h0Z"/>
      <path d="M15.2,137.8c-.6.3-.7-.2-1.1-.2-.1.2-.3.4-.5.6,0,.2.2.4.3.6-.2.2-.4,0-.5,0-.2-.2-.4-.3-.6-.2-.3,0-.6.1-1,.2,0,.1,0,.2,0,.2,0,.1,0,.3,0,.4-.1,0-.2-.1-.3-.2-.1-.1-.2-.3-.2-.4-.4,0-.8,0-1.2,0-.3.2.1.6-.4.7,0-.2-.2-.5-.3-.8-.3,0-.6-.1-.9-.2-.3,0-.6-.2-.8-.3,0,.2-.2.4-.3.5-.5-.1-.1-.5-.3-.8-.3-.2-.7-.4-1-.7-.4,0-.3.7-.9.4.1-.3.3-.5.4-.8-.2-.2-.4-.4-.5-.6-.4,0-.7.4-1,0,.2-.1.5-.3.7-.4,0-.2,0-.5-.1-.8.2,0,.3.1.4.2,1.8,1.2,3.9,1.8,6,1.9.9,0,1.9,0,2.8,0,.6,0,1.1.3,1.6.8h0Z"/>
      <path d="M71,45.3c.6.4.6.5,0,.8-.2-.8-.4-1.6-.6-2.4-.6-2.6-1.8-5-3.4-7.1-.6-.8-1.3-1.4-2-2.1,0,0-.3-.2-.3-.3,0-.1,0-.4,0-.5.1-.2.3,0,.4.1,0,.1.1.2.2.4.3,0,.6.1.9.2,0-.2,0-.3.2-.5,0,0,.2-.2.3-.2,0,0,.2.2.2.3,0,0,0,.2,0,.3,0,.3.1.6.4.8,0,0,.1-.1.2-.2.1,0,.3,0,.3,0,0,0,.1.2.1.3,0,.7,0,.7.4,1.3.2,0,.5-.3.6,0,0,.2,0,.5-.1.9.2.3.4.8.6,1.2.3,0,.6,0,.7.2.2.3-.2.4-.4.6.1.4.2.7.4,1.1,0,.2.2.3.4.3.2,0,.3.3.2.4-.4.5,0,1,0,1.5.7.2.7.2.3.7,0,.1-.1.3-.1.4,0,.4,0,.8,0,1.2h0Z"/>
      <path d="M53.3,104.7c0,.2-.1.4-.2.5,0,0-.2.2-.3.2-.1,0-.2-.2-.2-.3,0-.2.1-.4.2-.6,0-.2,0-.4,0-.5-.2-.4-.5-.7-.9-1.2,0,.2-.1.3-.2.4,0,0-.3,0-.4,0,0-.2-.1-.3,0-.5,0-.2.3-.4.4-.6-.2-.5-.4-1-.6-1.5-.1,0-.3.2-.4.2-.1,0-.3,0-.3,0,0-.1,0-.3,0-.4.2-.2.4-.3.6-.5,0-.5-.1-1.1-.2-1.6-.2,0-.5,0-.7-.1,0,0-.2-.2-.2-.3,0,0,.1-.2.2-.2.2,0,.4,0,.7,0,0-.3,0-.7,0-1-.2,0-.5-.1-.7-.2,0,0-.2-.2-.2-.3,0,0,.2-.2.3-.2.2,0,.5,0,.7,0,.2,1,.4,2,.6,2.9.4,2,1.2,3.8,2.4,5.4.4.5.8,1,1.3,1.6-.2,0-.3,0-.4,0,0,.2,0,.4,0,.6,0,0-.2.2-.2.2s-.3,0-.3-.2c0-.2,0-.3-.1-.5,0-.5-.2-.9-.8-1.2h0Z"/>
      <path d="M98.6,7.1c2.4-2.1,5.9-2.7,8.8,0,1.2,1.1,2,2.5,2.3,4.1,0,.2,0,.4,0,.7,0,.8,0,.9-.8,1.5,0-.3,0-.6.1-.9,0-1.9-.7-3.4-2-4.8-.9-.9-2-1.5-3.2-1.7-1.4-.2-2.6.2-3.8.8-.2.1-.4.2-.6.3-.3.3-.6.3-.9,0h0Z"/>
      <path d="M107.2,17.3c-1.7-.9-3.5-1.4-5.3-1.8.2-.2.3-.4.5-.6,1.8.4,3.5.9,5.1,1.8,0,.1,0,.2,0,.2,0,.1,0,.2-.2.3h0Z"/>
      <path d="M124.7,185.3c.2.2.3.4.4.5,0,0,0,.2,0,.3,0,0-.2.1-.3.1-.1,0-.3-.1-.3-.2,0-.2,0-.4.1-.7h0Z"/>
      <path d="M148.8,55.7c-.2.9-.8,1.1-1.6,1.2-2.3.2-4.2-.8-5.7-2.5-1.3-1.6-1.9-3.4-2-5.4-.4-6.5,2.6-11.2,8.1-14.3,1.2-.7,2.5-1.1,3.8-1.5.2,0,.4-.1.6-.2-.4-2.5-5.6-9.1-8.4-10.6,0,.3-.1.5-.2.8-.2,1-.7,1.8-1.5,2.5-.5.4-1,.6-1.7.5-.5,0-.5,0-.6-.7.1,0,.3,0,.4,0,.6.1,1.1,0,1.5-.4.9-.8,1.3-1.9,1.4-3,0-.1-.2-.4-.3-.4-.6-.3-1.3-.7-2-1-.5-.2-.7-.5-.9-1,1.2.2,2.2.7,3.3,1.3,0-.8-.1-1.4-.3-2-.6-2.2-1.8-4.2-3.2-5.9-1.9-2.2-4-4-6.4-5.6-.9-.6-1.8-1-2.8-1.5-.7-.4-1.5-.7-2.3-1.1-.6.3-1.3.5-2,.3-.7-.1-1.3-.5-1.8-1.1-.2,0-.4,0-.7,0-.6,0-.9-.4-.8-.9,0,0,0,0,0-.1-.3-.4,0-.9-.1-1.3,0-.1,0-.4,0-.4.3-.3.6-.6.9-1,0,0,.2-.2.3-.2.3-.3.5-.3.9-.2,0,0,.2,0,.2.1.3.6,1,.6,1.6.9,1.2.5,1.7,1.5,2,2.7,0,.2,0,.4,0,.7.4.2.8.4,1.3.6,1.4.6,2.9,1.3,4.2,2.2,2.6,1.9,5.1,4,7,6.7,1.2,1.7,2.1,3.6,2.5,5.7,0,.4.1.9.1,1.3,0,.4.2.6.5.9,2.3,1.7,4.3,3.8,6,6.1.9,1.3,1.7,2.7,2.4,4.1.1.2.2.5.4.8.3,0,.5,0,.8,0,2.6-.4,5.2-.5,7.8-.1,2.6.4,5,1.2,7.2,2.6,1.5.9,2.9,2,4.4,3,.4-.3.9-.7,1.4-1.1.5-.4,1-.7,1.6-1.1-.7-1.7-1.8-3.2-2.8-4.8.1,0,.2-.1.3-.2.1,0,.2,0,.4-.1,1.1,1.5,2.1,3.1,2.9,4.8.2,0,.4-.2.7-.2.9-.3,1.9-.5,2.9-.5,1.7,0,3.1.8,4.3,1.9.4.4.7.9,1,1.4,1.7,2.2,3.1,4.5,4.2,7.1.2.4.3.9.5,1.3,0,.1,0,.3.1.5-.2,0-.4.2-.5.3,0,0,0,0,0,0,0,.2,0,.5-.3.5-.3,0-.4-.3-.4-.5,0-.5-.4-.8-.8-1,0,0-.1,0-.2,0-.1,0-.4.2-.4.2-.1-.1-.3-.3-.3-.5,0-.6-.2-1.1-.7-1.5-.1.1-.2.2-.3.3-.1,0-.3.1-.4,0-.1,0-.2-.3-.2-.5,0-.2.2-.4.4-.7-.2-.3-.4-.6-.6-1-.2,0-.3,0-.4,0s-.4,0-.4-.2c0-.1,0-.3.1-.5,0-.1.2-.2.3-.3-.1-.4-.3-.8-.4-1.2-.1,0-.2,0-.3,0-.1,0-.4-.1-.4-.2,0-.1,0-.3.2-.5.2-.2.4-.4.2-.8-.3,0-.7.2-.7-.3,0-.5.4-.4.7-.6.2-.5-.1-.9-.4-1.2-1.9-1.8-4.2-2.3-6.9-1,0,0,0,0,0,0,.8,2.4,1.9,4.7,1.9,7.4-.3-.2-.5-.3-.8-.4-.2-2.3-.9-4.5-1.8-6.7-1,.5-1.9,1.2-2.8,2,.1.2.2.3.3.4.9,1,1.9,2,2.8,3.1.2.2.4.5.6.9-.7,0-1.1-.2-1.6-.8-.8-1-1.7-1.9-2.6-2.9,0,0-.1,0-.2,0-.7.7-1.3,1.5-1.9,2.4-.1.2-.2.4-.3.6-.2.5-.6.6-1.1.5.3-.8.8-1.5,1.2-2.2.5-.7,1-1.3,1.5-2-2.5-2.1-5.2-3.8-8.3-4.8-3.5-1.1-7.1-1-10.8-.4.5,1.8.9,3.5,1.3,5.2.4,1.7.5,3.5.5,5.3-.1,0-.2,0-.3.1-.1,0-.2,0-.4.1,0-3.7-.6-7.2-1.9-10.6-.2,0-.4,0-.5,0-4.4,1.1-7.8,3.4-10.1,7.4-1.7,3-2.1,6.2-1.3,9.6.3,1.2.9,2.4,1.8,3.3,1.4,1.5,3.8,2.5,6.2,1.6,0,0,.1,0,.3,0h0Z"/>
      <path d="M191.3,45.3c.2,0,.4,0,.5.1.1,0,.2.3.2.4s-.2.2-.3.3c-.2,0-.5.2-.8.2-1.4-3.4-3.5-6.5-6-9.3.4-.3.5-.3.6,0,.1.5.6.6,1,.8.2-.1.2-.6.6-.5.3,0,.3.4.3.7,0,.5.3.8.6,1,0,0,.1-.1.2-.2.3-.2.5,0,.6.2,0,0,0,.1,0,.2-.2.7.3,1.1.7,1.5.3,0,.5-.4.7-.1.2.3,0,.5-.1.8,0,0,0,.1-.1.2.2.3.4.7.6,1.1.1,0,.2,0,.3,0,.3,0,.5.3.3.5-.4.4-.2.8,0,1.2,0,.3.1.5.2.8h0Z"/>
      <path d="M69,191.7c-.6-.9-1.2-1.7-1.9-2.6.2-.1.3-.2.5-.4.7.9,1.3,1.7,2,2.6.7-.4,1.3-.8,1.8-1.3,1.5-1.4,2.5-3,2.9-4.9.2-1.2.2-2.4-.2-3.6-.2-.5-.5-1-.7-1.5.6-.1.7,0,1,.5.9,1.7,1,3.4.5,5.2-.7,2.4-2.1,4.1-4.1,5.5-.2.2-.5.3-.7.5,0,.1.1.2.2.3,2.3,2.3,5.1,4,8.3,4.8,2.2.5,4.3.3,6.4-.6,1.6-.7,2.8-1.8,3.7-3.4,0-.1.2-.3.2-.5-.3-.2-.5-.3-.8-.4-2.4-1.4-4.1-3.4-4.7-6.2-.3-1.3-.2-2.5.5-3.7.8-1.3,2-1.7,3.3-1,1,.5,1.7,1.2,2.3,2.2.7,1.2,1,2.5,1.1,3.8.1,1.6,0,3.1-.6,4.6,0,.1,0,.2,0,.3,1.6,1,6.4,2.2,8.9,1.8l-.2-1.2c-.4-2.3.1-4.4,1.3-6.3.6-1,1.5-1.7,2.8-2,0-.1-.1-.3-.2-.4-1.2-1.6-2.3-3.3-3.1-5.2-.1-.3-.4-.4-.7-.6-1.6-.7-3.1-1.4-4.7-2.1-1.2-.6-2.3-1.5-3.4-2.4-.8-.7-1.6-1.4-2.3-2.1-.5-.5-1-1-1.5-1.5.1-.2.2-.4.3-.6.1.1.2.2.3.2,1.8,1.9,3.8,3.7,5.9,5.1,1.6,1.1,3.3,1.8,5.1,2.5,0,0,.2,0,.3,0,0-.3-.2-.5-.2-.7-1-2.8-1.5-5.7-1.3-8.6,0-1.9.4-3.7,1.2-5.4,1.1-2.4,2.9-3.9,5.4-4.4,1.7-.4,3.4-.2,4.9.6,2.6,1.2,4.4,3.3,5.7,5.8,1,2,1.5,4.1,1.7,6.3.3,2.8.2,5.5-.4,8.3,0,.1,0,.2,0,.3,0,0,0,0,0,.1.5,0,1,0,1.5-.2.9-.2,1.8-.4,2.7-.5.2,0,.4-.1.4-.4,0-.4.2-.7.3-1.1-.2-.2-.4-.3-.7-.5-.1-.1-.3-.2-.3-.4,0,0,0-.3.1-.3s.2,0,.3,0c.2.1.5.3.8.5.3-.7.5-1.2.7-1.8,0-.2,0-.5-.1-.8,0-.3-.2-.6-.2-.8,0-.1.2-.3.3-.4.1,0,.3.1.3.3,0,.2.1.4.2.7.3-.5.6-.8.7-1.3,0-.5.3-.9.3-1.4,0-.1.2-.2.3-.4.1.1.3.2.3.4,0,.1,0,.3,0,.5.2,0,.4-.1.6-.2,0,.5.2.9.3,1.4.2,1.6.2,3.2,0,4.8-.1,2.9-.7,5.6-1.2,8.4,0,.3,0,.7,0,1,0,.5,0,1-.3,1.4-.9,1.5-1.9,3.1-2.8,4.6-.1.2-.2.4-.4.5,1.1.7,7,1.3,8.9.9,0-.6,0-1.1-.1-1.7-.2-1.1,0-2.2,0-3.2.7-5.6,3-10.5,6.5-14.9.2-.3.5-.5.9-.2,0,.1-.1.2-.2.4-3.2,3.9-5.3,8.3-6.3,13.2-.4,1.9-.5,3.8-.2,5.8,0,.2,0,.4.1.6,4.5-.2,8.3-2,11.8-4.8-.8-2.4.4-3.8,2.5-4.8,0-.2,0-.4.1-.5.2-.8.6-.9,1.3-.5,1.2-2.2,2.5-4.3,4.4-6.2-2.4-1.3-4.8-2.6-6.8-4.5.5-.2.8,0,1.1.2,1.7,1.4,3.6,2.6,5.6,3.6.2,0,.4.2.6.3.4-.3.7-.6,1-.9,1.2-1,2.5-1.8,3.9-2.4.5-.2,1.1-.4,1.7-.4,1.6-.2,3.1.5,3.4,2.7.1.8.1,1.6.2,2.5,1.7-.2,3.4-.8,5-1.5-.3-.8-.6-1.5-.7-2.2-.9-4.5.2-8.4,3.1-11.9.7-.8,1.5-1.6,2.4-2.2.9-.6,1.8-.9,2.9-.9.1,0,.2,0,.3,0,.1.3,0,.5-.3.5-1.4,0-2.4.6-3.4,1.4-2.6,2.2-4.1,5-4.6,8.3-.3,1.9-.2,3.7.4,5.5.1.4.3.7.5,1.2,3-1.7,5.4-3.9,6.3-7.3.1,0,.2,0,.3,0s.1,0,.2,0c0,.1,0,.2,0,.3-.5,1.7-1.4,3.2-2.6,4.5-1,1-2.1,1.8-3.2,2.5-.2.1-.4.2-.6.4.3.6.7,1,1.2,1.4,1.4,1.2,3.1,1.4,4.9,1.1,1.9-.3,3.5-1.3,5-2.6.2-.2.4-.4.6-.6-1.3-1.1-1.3-2.5-.7-3.9.2-.5.3-.9,0-1.4-.2-.3-.1-.7.2-1,.3-.3.6-.3.9-.1.2-.2.5-.5.7-.4.5,0,1,0,1.5.2.3,0,.6.4,1,.4.3,0,.6.9.5,1.2,0,.1,0,.2-.1.3-.5.6-.5,1.4-.6,2.1-.1.6-.4,1.3-.7,1.8-.4.8-1.1,1.2-2,.9-1.6,1.8-3.5,3-5.8,3.4-2.7.5-5-.2-6.7-2.4,0,0-.1-.2-.2-.3-1.7.8-3.5,1.4-5.5,1.7,0,.8-.4,1.6-.1,2.4.2.7.2,1.4.2,2.2-.1,1.9-.4,3.7-.9,5.6-.2.8-.5,1.6-.7,2.5-.1.5-.4.8-.8,1.1-.1.1-.4.2-.5,0-.1,0-.2-.4-.1-.5.4-.6.2-1.1-.1-1.6,0,0,0-.2-.1-.4-.2,0-.3.2-.5.2-.1,0-.4,0-.4-.1,0-.1,0-.3,0-.5,0,0,0,0,0,0,.8-.4.5-1,.4-1.6,0-.2,0-.3,0-.5-.2,0-.4.1-.6.1-.1,0-.3-.1-.4-.2,0-.1,0-.3.1-.5,0,0,.2-.1.3-.2.6-.2.8-.6.8-1.2,0-.1,0-.3,0-.4-.2,0-.4,0-.6,0-.1,0-.3-.2-.3-.4,0-.1.1-.3.3-.4.2,0,.5,0,.8-.1.2-.5.3-.9.5-1.5-.1,0-.3-.1-.4-.2,0-.1-.2-.3-.1-.4,0-.1.3-.2.4-.2.2,0,.3,0,.4.1.5-.4,1-.8,1.6-1.3,0-.5.2-1.2.3-2-.4,0-.7,0-1,0-2.8.1-5.4-.3-7.9-1.4-.3-.1-.5-.1-.7.1-1.7,1.8-3.1,3.8-4.2,6.1h0c.3.1.7.2.8.6,0,0,.1.1.2.1.4.2.6.4.6.9v.2c.7,0,.9.5.8,1.2.3.2.7.3.7.8,0,.4-.4.6-.8.7-.1,0-.3,0-.4.1-.3,0-.5.2-.7.4-.6.8-1.5,1.3-2.5,1.6-.6.2-1.2.1-1.8,0-.2.3-.3.6-.5.9-1.1,2-2.2,3.8-3.9,5.3-1,.9-2,1.6-3.3,2-1.9.6-3.5,0-4.6-1.5-.4-.6-.7-1.2-1-1.9-.1-.2-.1-.4-.2-.6-.2,0-.3,0-.5,0-2.9.1-5.8-.2-8.6-.9-.4-.1-.7,0-.9.4-1.2,1.6-2.5,3-4.1,4.2-1.3,1-2.7,1.8-4.2,2.3-3.1,1.1-5.9.3-8.2-1.9-1.3-1.2-2.2-2.6-2.9-4.2-.1-.3-.2-.6-.4-.9-3.3.2-6.4-.5-9.4-1.8,0,.1-.2.2-.3.4-1.4,2.6-3.7,4-6.6,4.5-2.3.4-4.5,0-6.6-.9-2.3-.9-4.3-2.3-6.1-4.1-.2-.2-.4-.4-.6-.6-.2.1-.4.2-.6.3-4.9,2.2-9.7,2-14.3-.9-3-1.9-4.8-4.7-5.5-8.1-.5-2.1-.7-4.3-.4-6.6,0,0,0-.2,0-.2-1.3-1-1.4-2.8-.4-4.1.2-.2.4-.4.6-.6-.2-.4-.4-.9,0-1.3.4-.4.8-.1,1.2,0,.5-.3.9-.5,1.4-.1,0,0,.3,0,.4,0,.4,0,.6.1.8.5.1.3.3.5.5.8.5.6.4,1-.2,1.3-.1,0-.2.1-.4.2,0,.4-.1.9-.2,1.3,0,.3-.2.6-.3.8-.3.7-.8,1.1-1.6,1.2-.4,0-.8,0-1.2,0,0,.3,0,.6-.1.9,0,2.2.1,4.3.7,6.4,1.3,4.6,4.4,7.4,9,8.7,3.3.9,6.6.6,9.7-.9,0,0,.2-.1.3-.1,0,0,0,0,.2-.1h0ZM114.9,179.9c0-.2.1-.4.2-.7.7-2.8.7-5.7.4-8.5-.3-2.2-.8-4.3-1.9-6.2-1-1.8-2.3-3.2-4.1-4.3-1.2-.7-2.5-1.2-3.9-1.2-3,0-5.2,1.3-6.6,4-.8,1.6-1.1,3.3-1.2,5-.2,3.2.4,6.3,1.5,9.3.2.6.5.8,1.1,1,2.8.9,5.7,1.4,8.7,1.7,1.9.2,3.9.2,5.9,0h0ZM99.8,194.5c0,.1,0,.2,0,.3.6,1.4,1.3,2.8,2.4,3.9,1.2,1.3,2.7,2.3,4.5,2.6,1.7.3,3.2,0,4.7-.8,2.5-1.1,4.5-2.9,6.2-5,.3-.4.6-.7.9-1.2-3.3-.9-6.4-2.3-9.2-4.1-2.8,2.3-6,3.7-9.6,4.2h0ZM120.2,179.8c-.2,0-.3,0-.4,0-1.2.2-2.4.4-3.5.6-.7.1-.7,0-.9.8-1,3.2-2.6,6-5,8.3,0,0-.2.2-.3.3,2.8,1.8,5.8,3.1,9.1,3.9,1.5-2.1,2.9-4.1,3.9-6.4-.6-.3-1.1-.6-1.6-.9-.2.1-.4.2-.6.3-.1,0-.3,0-.5-.1,0-.1,0-.3.2-.4.2-.1.3-.2.5-.4-.2-.5-.4-1-.5-1.4,0-.4-.3-.6-.7-.6-.2,0-.4-.1-.6-.2-.2-.1-.2-.3,0-.5.1-.2.3-.2.5,0,.1,0,.3.1.6.2,0-.7-.1-1.3-.2-1.9-.2,0-.5-.1-.7-.2-.2-.1-.3-.3-.2-.6.1-.3.3-.2.5,0,.1,0,.2,0,.4.1,0-.2,0-.4.2-.8h0ZM109.3,189.5c2.3-1.7,5.4-6.8,5.3-8.8-4.9.3-9.8-.3-14.6-1.8,2.1,4.6,5.3,7.9,9.3,10.7ZM108.7,189.9s0-.1-.1-.1c-1.8-1.3-3.6-2.8-5.1-4.5-.2-.3-.5-.3-.8-.2-.9.2-1.6.7-2.1,1.4-1.3,1.9-1.8,4-1.4,6.3,0,.4.2.7.2,1.1,3,0,7.6-2.1,9.3-3.9h0ZM89.3,191.9c1-3,1.1-5.8-.5-8.6-.4-.7-1-1.2-1.8-1.6-1-.5-1.9-.2-2.5.8-.4.7-.6,1.5-.5,2.4.4,3.3,2.3,5.5,5.3,7h0ZM141.5,190.5c-1.8,1.4-3.6,2.6-5.7,3.4-2,.9-4.1,1.3-6.3,1.5.2.8.5,1.4.9,2,1.1,1.7,2.6,2.2,4.5,1.4,1.4-.5,2.4-1.4,3.4-2.5,1.2-1.2,2.1-2.7,2.9-4.2.2-.4.4-.9.7-1.3-.1-.1-.2-.3-.4-.4h0ZM159.3,179.3c.2-.8.1-2.2,0-2.9-.4-1.3-1.3-2-2.6-1.8-.6,0-1.3.3-1.9.5-1.4.6-2.6,1.4-3.8,2.4-.1.1-.2.2-.4.4,2,1.2,6.5,1.8,8.8,1.4h0Z"/>
      <path d="M8.4,116.2c-1.9.6-3.5,1.5-4.9,2.9-1.9,1.9-3,4.2-2.9,7,0,2,.7,3.8,2,5.4.5.6,1.2,1.2,1.8,1.8.4.4.8.4,1.3.2,0-.2,0-.5.1-.7,0,0,0,0,.2,0,.1.2.2.4.3.6h1.7c.1-.2.2-.4.3-.5.1.2.2.4.4.6.4.1.9.3,1.5.4.1-.2.3-.5.4-.7.5.4,0,.6,0,.9.3.1.7.3,1,.5.1,0,.3,0,.5,0,.2,0,.3-.2.4-.3.2,0,.4,0,.4.2-.2.1-.4.3-.6.5.3.2.5.4.8.6s.3,0,.5,0,.3,0,.5,0c0,0,.2.1.2.2,0,0,0,.1-.1.2-.5.4-1.2.5-1.8.5-1.8,0-3.6-.1-5.3-.7-.6-.2-1.2-.4-1.8-.8-2.6-1.8-4.7-4-5.3-7.3-.5-2.8.2-5.2,1.7-7.5,1.4-2,3.3-3.4,5.6-4.2.2,0,.4-.2.6-.2,0,0,0,0,0,0,0,0,0-.1,0-.2-2.4-4.4-3.9-9.1-4.6-14.1-.9-6.3,0-12.3,3.1-17.8,2.2-4,5.3-7.1,9.2-9.4.3-.2.5-.3.8-.5,0-.1,0-.2-.1-.2-2-2.3-3-5-3.4-8-.4-2.8-.1-5.5.5-8.3,0,0,0-.2,0-.3-.2,0-.3-.2-.5-.3-2.2-1.2-3.2-3.2-2.9-5.6.2-1.1.4-2.2.9-3.3.6-1.4,1.1-2.7,1.7-4-1.4-1.1-1.8-2.5-.1-5-.3-.3-.4-.7-.4-1.1,0-.5.3-.6.8-.8.6-.2,1.1-.3,1.8,0,.4.1.9,0,1.2.3.4.3.6.8.8,1.2,0,.2-.1.5-.3.7-.1.2-.3.3-.5.4,0,.3,0,.5.1.8.2,1,0,1.9-.4,2.7-.4.8-1.1,1.2-2.1,1.2s-.5,0-.6.3c-1,2.1-2,4.3-2.4,6.6-.1.9-.1,1.8.2,2.6.4,1.2,1.5,2.2,2.7,2.6,0-.1.1-.2.1-.3.9-3.2,2.2-6.2,3.9-9.1,2-3.3,4.1-6.5,6.4-9.5.2-.2.2-.4.2-.7-.4-1.7,0-3.1,1.2-4.4.6-.7,1.2-1.3,2-1.7,0-.5,0-.9.1-1.2.1-.5.5-.6,1-.6.2,0,.4,0,.5-.1.6-.3.8-.2,1.2.3,0,.1.2.2.4.2.5,0,.6.1.9.8.4.1.9-.1,1.1.3.1.3,0,.8,0,1.2,0,0,.1.2.2.2.3.5.3.9-.2,1.3,0,0-.1.1-.2.2-.7.2-.9.7-1.2,1.3-.6,1.1-1.5,2-2.4,2.9-.1.1-.2.2-.4.3-1.4,1-2.3,1.1-3.7,0,0,0-.1,0-.2.2-3.3,4.4-6.5,9-8.7,14.1-.6,1.4-1,2.9-1.5,4.4,0,0,0,.2,0,.4,1,.3,1.9.5,2.9.4,3.1-.3,5.5-1.7,7.4-4.2.1-.1.2-.3.4-.5,0,.8-.2,1.3-.6,1.8-2,2.1-4.4,3.3-7.2,3.5-.8,0-1.6-.1-2.4-.2-.2,0-.4,0-.6-.1-.1.7-.3,1.4-.4,2.1-.4,2.6-.4,5.2.2,7.8.5,2.1,1.3,4,2.7,5.7.1.2.3.4.5.6,3.2-1.8,6.5-3.4,10.1-4.4,0-.8.1-1.5.1-2.2.9.5.3,1.4.6,2,3-.8,6.1-1.1,9.3-.3,0-.2.2-.4.3-.7,0-.2.2-.4.3-.7h.7c-.2.5-.3,1-.5,1.5.3,0,.5.2.8.3,2.9,1,5.3,2.7,7.2,5.1,1.1,1.4,1.8,3,2,4.8.2,2.2-.5,3.9-2.4,5.1,0,0-.1.1-.2.2,0,.2.1.3.2.5.4,1.5.9,3.1,1.3,4.6,0,.2.1.4.4.6,1.7.9,2.9,2.4,3.9,3.9.2.2.3.5.5.7,0,0,0,0,.1,0,.2-.1.2-.4.5-.3.3.1.1.4.1.6,0,.4,0,.7.4.8.3.1.5.3.8.6.2-.3.3-.7.5-1,0-.1.3-.2.4-.2,0,.2.2.3.2.5,0,.4-.3.7-.4,1.1-.1.3-.1.5,0,.8.2.3.4.7.6,1.1.2-.1.4-.2.6-.3.2-.1.4-.2.5,0,.1.2,0,.4-.2.5-.2.1-.4.3-.6.4.2.7.5,1.3.7,2,.2-.1.3-.3.4-.3,0,0,.3,0,.3,0,0,0,.2.3,0,.4-.2.2-.4.4-.7.7,0,.4.2.9.3,1.5.2,0,.4,0,.5,0,0,0,.2.1.2.2,0,.1,0,.3-.2.3-.2,0-.4.1-.5.2,0,.4-.1.8-.1,1.2,0,.2,0,.4.2.5.1.2.3.3.2.6,0,0-.1,0-.2,0-.9-1.1-1.8-2.2-2.6-3.4-1.1-1.6-1.6-3.4-2.1-5.2,0-.3-.1-.6-.2-.8-.4-2.2-1.8-3.9-3.4-5.4-.3-.3-.7-.5-1-.7.5,4,.8,8,.5,12-.3,4-1.2,7.9-2.2,11.8,2.4,2.5,3.7,5.7,5.1,8.8-.3,0-.5,0-.7,0-1.4-2.7-2.3-5.7-4.7-8-.9,2.9-1.5,5.7-2.1,8.5-.2,0-.3.1-.5.2,0,0-.2,0-.3,0,0-.4.2-.8.3-1.2.1-.5.3-1,.4-1.5.5-2,1-3.9,1.6-5.9.1-.4,0-.7-.2-1-3-3.6-4.6-7.8-5.4-12.4-.2-1.4-.4-2.9-.4-4.3,0-1.7.3-3.3,1-4.8.4-1,1-1.8,1.8-2.5,1.3-1.1,2.8-1.4,4.4-1.1.1,0,.2,0,.5,0-.3-1.7-.8-3.3-1.4-4.9-2.3-.1-4-1.4-5.4-3.1-.5-.6-1-1.4-1.5-2.2-1,0-1.9.6-2.8,1.2,0-.2-.2-.3-.3-.5.8-.8,1.8-1.1,2.9-1.4-1-3-1.1-6.1-.4-9.2-1.1-.3-2.1-.4-3.2-.4-2,0-3.9.3-5.9.7-.3,0-.4.2-.5.5-.4,2.2-1.7,3.7-3.6,4.7-.8.4-1.6.8-2.5,1-1.4.3-2.6,0-3.8-.8-.2-.2-.5-.3-.7-.5-.1,0-.2,0-.4.1-4.7,2.7-8.3,6.4-10.6,11.4-1.3,2.7-2,5.6-2.3,8.6-.5,4.3.2,8.4,1.4,12.6.8,2.8,1.9,5.6,3.3,8.2,0,.2.2.3.3.5,2.6-.6,5.2-.7,7.9-.1,0-.1.1-.2.2-.3.8-2.4,3.9-3.6,6.3-2.8,2.4.8,3.6,2.5,4.1,4.8.6,2.7.1,5.2-.8,7.7-.3.9-.5,1.7-.6,2.7-.2,1.5-.1,2.9,0,4.4,0,.2.1.5.3.6.4.4.8.9,1.3,1.4-.1.2-.2.4-.4.6-.3-.4-.6-.7-.9-1,0,0-.1,0-.1,0,0,.2,0,.4,0,.5,0,.4,0,.7.1,1.1.1.6-.1.9-.5,1.4-.1-.8-.2-1.5-.3-2.2,0-.3-.1-.7,0-1,0-.6-.3-1-.7-1.4-1.8-1.6-3.9-2.9-5.9-4.2-1-.6-1.9-1.3-2.8-2.1-2.1-1.7-3.8-3.8-5.2-6-.7-1.1-1.3-2.2-2-3.3h0ZM24.9,131.2v-1c0-2.1.2-4.2.9-6.2.3-.8.6-1.6.8-2.5.4-2.1.2-4.2-.6-6.2-.9-2.2-4.4-3.9-7.2-2-.7.5-1.2,1.1-1.4,2,.3,0,.5.2.7.3,1,.4,2,.9,2.8,1.6.4.4.8.8,1,1.3.4,1.2-.2,2.3-1.3,2.7-.9.3-1.7.1-2.4-.4-.9-.7-1.4-1.6-1.6-2.8-.1-.7,0-1.4-.1-2.2-1.6-.6-6-.5-7.2.2,1.2,2.1,2.4,4.1,4,6,1.8,2.1,3.8,3.9,6.1,5.2,1.2.7,2.3,1.4,3.4,2.1.7.5,1.4,1.1,2.2,1.8h0ZM44.8,113.5c0-.2.1-.3.2-.4.2-1,.5-1.9.7-2.9.8-3.3,1.3-6.6,1.4-9.9,0-1.9,0-3.9-.2-5.8,0-1.4-.3-2.9-.5-4.3,0-.4-.2-.6-.6-.7-.9-.3-1.8-.3-2.7,0-1.6.6-2.5,1.7-3.2,3.2-.5,1.3-.7,2.6-.8,4-.1,2.1.2,4.1.7,6.1.8,3.6,2.2,7,4.5,10,.2.2.3.4.5.7h0ZM45.1,82.9c.1,0,.2,0,.2,0,0,0,.1,0,.2,0,1.5-1,2.1-2.5,1.9-4.3,0-1.1-.5-2.2-1-3.2-1.6-2.9-4.1-4.8-7.2-6.1-.4-.2-.8-.3-1.3-.4-.1.9-.3,1.8-.4,2.6-.2,2,0,4,.7,6,0,.3.2.5.6.5,2.5.2,4.3,1.4,5.6,3.5.3.5.5,1,.8,1.5h0ZM27.1,69.4c-3.4,1-6.4,2.5-9.4,4.1.7.8,2,1.3,3.1,1.2,1.8-.2,3.3-1,4.6-2.1,1-.8,1.5-1.9,1.7-3.2h0ZM17.2,116.1c0,.1-.1.2-.1.3-.2,1.5.2,2.9,1.4,3.9.2.2.5.3.7.4.6.2,1.2,0,1.7-.3.4-.4.6-.9.4-1.4,0-.3-.2-.6-.4-.8-1-1.1-2.2-1.7-3.6-2.1h0ZM44.3,83.2c-.5-2.4-3.6-4.8-5.6-4.5,0,0,0,0,0,.1,1.1,2,2.6,3.4,4.7,4.2.3.1.6.1.9.2Z"/>
      <path d="M192.5,123.8c-.2-.5-.4-.9-.6-1.3-1.2-2.3-2-4.8-2.5-7.4,0-.4-.1-.9-.2-1.3-.1-.7,0-.9.4-1.8,0,.2,0,.4.1.5.4,3.8,1.5,7.3,3.2,10.7.3.6.7,1,1.4,1.3.4.2.9.4,1.3.6,0-.2.2-.3.2-.4,1.2-4.1,1.7-8.3,1.5-12.6,0-.5-.2-.8-.7-1-1.4-.7-2.9-1.2-4.5-1.5-.1,0-.2,0-.4-.1,0-.2.1-.4.2-.6,1.8.4,3.5,1,5.1,1.7.2-1.1-1-7.3-1.7-8.4-1.1,1.6-2.1,3.1-3.2,4.6-.2-.2-.3-.3-.5-.4.1-.2.2-.4.3-.5.9-1.4,1.9-2.7,2.9-4.1.2-.3.3-.6.1-1-.8-1.9-1.8-3.6-3-5.2-.1-.2-.2-.3-.4-.4-.6,1.2-1.3,2.8-2,9.9-.2-.1-.4-.2-.6-.4.2-3.5.6-6.9,2.1-10.1-.5-.7-1.1-1.1-2-1.3,0-.2.1-.4.2-.7.4.2.7.3,1.1.5.3.2.6.4.9.7.2-.4.4-.8.5-1.2.8-2,1.7-4.1,2.9-5.9.9-1.3,1.8-2.7,2.9-3.8,1.4-1.5,3.2-2,5.2-1.5.2,0,.3,0,.5.2h.2c.4-5.2.4-10.4-1.5-15.4-1.2,0-2.4-.3-3.3-1.2-.9-.9-1.4-2-1.6-3.2-.2,0-.4,0-.6,0-.6,0-1.1-.3-1.3-.9-.2-.5,0-1,.5-1.4,0,0,.2-.2.2-.3,0-.6.4-.7.9-.8.1,0,.2,0,.3,0,.3-1.1.4-1.2,1.4-1.2,0-.1.2-.3.3-.4.3-.3.6-.6,1.1-.4.5.2.8.5.8,1,0,.3,0,.5,0,.8-.2.5,0,.9.4,1.2,1.5,1.3,2.2,3,2.2,4.9,0,.7-.1,1.3-.8,1.7,0,.2,0,.4.1.6,1.1,3,1.5,6.1,1.5,9.3,0,2,0,3.9-.2,5.8,0,.2,0,.4.2.6,1.2.9,2,2.1,2.6,3.4.8,1.8,1.4,3.8,1.7,5.7.1.8.1.8.5,1.2.1-.2.2-.3.4-.5.1,0,.3-.1.5,0,0,0,.1.3.1.4-.5.7-.1,1.4.2,2.1,0,0,0,0,0,0,.3,0,.6,0,.8,0,.2.3,0,.5-.2.7-.2.2-.2.4-.2.7.1.3.2.7.3,1.1,0,0,.2,0,.3.1.3.2.4.3.1.6-.3.2-.3.5-.3.8,0,.4,0,.8,0,1.3.2,0,.4-.2.6-.2,0,0,.3,0,.3,0,0,0,0,.3,0,.4-.1.2-.3.3-.5.4-.3.1-.4.3-.4.6,0,.3,0,.7-.1,1.1.2,0,.4,0,.6.2.1,0,.2.2.2.3s-.1.2-.2.2c-.2,0-.4,0-.7,0-.1.4-.2.7-.4,1.1.1,0,.2.1.3.2,0,0,.2.2.2.3,0,0-.2.2-.3.2-.4,0-.6.2-.7.5-.2.3-.4.7-.6,1,0,0,0,.1,0,.2,0,.2.2.4.1.5-.1.2-.3,0-.5,0-.2,0-.4,0-.7.2,0,0-.1-.2-.1-.3-.4-1.7-.6-3.3-.7-5.1,0-2.2.2-4.3.6-6.4.4-1.7.4-3.3,0-4.9-.4-1.7-.9-3.3-1.6-4.8-.4-.7-.9-1.4-1.4-2.1-.2-.2-.4-.4-.7-.6-.2,1-.4,1.9-.6,2.8-1,4.4-2.8,8.4-5.2,12.3-.6,1.1-1.4,2.1-2.1,3.1-.2.3-.3.6-.2,1,.9,2.8,1.4,5.6,1.7,8.5,0,.5.2.7.6.9,2.6,1.5,4.7,3.4,6.2,5.9,1.1,1.9,1.8,3.9,1.6,6.1-.1,1.5-.5,2.9-1.1,4.3-.7,1.6-1.6,3-2.6,4.4-.3.4-.3.7-.2,1.2,1.1,3.4,1,6.9.3,10.4-.8,3.5-2,6.8-4.2,9.6-.9,1.2-2,2.3-3.1,3.4,0,0-.1,0-.3.2,0-.4,0-.7-.1-1.1.4-.4.8-.8,1.2-1.1,2.2-2.1,3.8-4.7,4.8-7.6.8-2.3,1.3-4.6,1.5-7.1.1-2,0-4-.6-6,0-.1-.1-.3-.2-.5-.1.1-.3.2-.3.3-2.5,3.2-5.4,6.1-8.5,8.7-1.3,1.1-2.6,2.1-4,3.2-.2,0-.4-.2-.7-.3,1.2-.9,2.3-1.8,3.4-2.7,3.5-2.8,6.6-5.9,9.4-9.4.4-.6.4-1,.1-1.5-1.1-2.2-2.7-3.9-4.6-5.2,0,0-.1,0-.3-.1,0,.3-.2.5-.3.7-.9,2.4-2,4.6-3.6,6.6-1.8,2.2-3.9,3.8-6.7,4.6-1.6.4-3.2.5-4.9,0-3.6-1.1-5.4-4.8-4-8.2.6-1.6,1.7-2.9,3-3.9,2.3-1.7,4.8-2.6,7.6-2.7,1.6,0,3.1,0,4.6.4.1,0,.3,0,.6.1h0ZM195.5,125.9c0,0,0-.2-.1-.2-.2,0-.3-.2-.5-.3-2.6-1.2-5.3-1.8-8.2-1.5-2.3.3-4.4,1-6.4,2.4-1.4,1-2.5,2.4-3.1,4.1-1,2.9.6,6,3.4,7,1.4.5,2.9.5,4.3.2,2.7-.6,4.8-2.1,6.5-4.2,1.5-1.8,2.6-3.9,3.4-6.1.2-.5.4-1,.5-1.4h0ZM201.9,131.8c1.5-2,2.7-4.1,3.3-6.3.6-2,.5-4-.3-6-1.3-3.3-3.7-5.6-6.7-7.4,0,0-.2,0-.3,0,.3,4.6-.3,9.2-1.6,13.6,2.4,1.6,4.3,3.5,5.5,6.2h0ZM195.7,100.5c.2-.2.3-.4.4-.5.8-1.2,1.5-2.3,2.2-3.5,2.3-3.9,4-8,4.8-12.5.1-.6.3-1.1.2-1.7-1.7-.9-4.1-.3-5.4,1.2-2.7,3.1-4.5,6.7-6,10.5,0,.2,0,.4,0,.6,1.4,1.7,2.7,3.6,3.5,5.7,0,0,0,.1.2.2h0Z"/>
      <path d="M69.7,46.4c-.3,0-.4,0-.6-.1,0,0,0,0-.1,0-.1,0-.3.2-.4.3,0-.1-.2-.2-.2-.4,0-.5-.3-.8-.7-1,0,0,0,.1-.2.2-.1,0-.3.2-.4.2s-.2-.3-.2-.4c.2-.6,0-1-.5-1.3,0,0-.1.1-.2.2-.1,0-.3.1-.3,0,0,0-.2-.3-.1-.4.3-.5,0-.9-.2-1.3,0-.1-.1-.3-.2-.3-.3,0-.5-.1-.7-.2,0-.2.2-.5.3-.8-.1-.4-.3-.9-.5-1.4,0,0,0,0-.1,0-.2,0-.5.2-.6,0-.1-.3.1-.4.3-.5,0,0,0,0,.2-.1,0-.3,0-.7-.2-1.1-.2,0-.3.1-.5.1-.1,0-.3,0-.4-.2,0,0,0-.3.1-.4,0,0,.2-.1.3-.2.3-.1.3-.3.2-.5-.2-.2-.7,0-.7-.4,0-.4.4-.3.6-.3.3-.1.4-.4.2-.8-.4-1.3-.8-2.7-1.1-4-.6-2.3-.9-4.6-.5-7-.4-.3-.9-.5-1.3-.8-.2,0-.4,0-.5,0-3.2,1.8-6.1,3.8-8.4,6.6-1,1.3-1.3,1.8-2,3.8-.2,0-.3-.2-.5-.3,0,0,0-.2,0-.3.3-1.3,1-2.5,1.9-3.5,1.8-2.3,4.1-4.1,6.5-5.6.7-.4,1.3-.8,2-1.2,0,0-.1-.1-.2-.2-1.9-1-3.9-1.9-6-2.3-1.6-.3-3.2-.4-4.8,0-2.1.5-3.7,1.7-5,3.5-1,1.6-1.6,3.3-2,5.1-.3,1.4-.4,2.9-.4,4.4v.7c-.5.1-.5.1-.6-.2,0,0,0-.2,0-.3,0-2.8.3-5.6,1.4-8.2,1.3-3,3.5-5,6.7-5.7,2-.4,3.9-.2,5.8.3,1.8.5,3.5,1.3,5.2,2.1.4.2.8.3,1.2,0,.5-.3,1.1-.4,1.5-.8.3-.4.4-1,.6-1.5.8-1.8,1.8-3.4,3.5-4.6.2-.2.4-.5.5-.8.8-2,2.1-3.5,4.1-4.4,1.2-.6,2.5-.8,3.8-.9.2.2.3.4.5.7-1.9,0-3.8.4-5.3,1.6-1,.8-1.8,1.7-2.3,3,.3,0,.5-.1.6-.2,1.1-.4,2.1-.8,3.3-.8,1.5,0,3,.2,4.3,1,1.4.9,2.1,2.2,2,3.9h0c0,.1,0,.2,0,.1,1.5.4,2.9.9,4.5,1.3.2-.2.5-.5.8-.8.4-.4.9-.7,1.4-1,.4-.3.4-.3,1,.1-.9.6-1.8,1.2-2.6,2.1.2.1.4.3.6.4.9.7,1.9,1.3,2.7,2.1.9.9,1.6,2,2.3,3.1,1.3,2.1,2.1,4.5,2.3,7,.2,2.4-.6,4.6-2.2,6.4-1.4,1.6-4.3,2.4-6.7,1-1.4-.9-2.5-2-3.2-3.6-.7-1.8-1.1-3.6-1-5.5,0-.3,0-.6,0-.8-1.1-.2-2.1-.3-3.1-.5-2.1-.5-3.9-1.4-5.5-2.8-.2-.1-.4-.3-.6-.3-1.9-.1-3.7-.8-5.3-1.8-.2-.1-.5-.3-.8-.5,0,.2,0,.4,0,.5-.2,2.2.2,4.3.7,6.5.3,1,.5,2,.8,3,0,.1.1.3.2.4,2.4,2.8,3.8,6.1,4.7,9.7.2.7.3,1.3.4,2.1h0ZM87.1,23.9c-.4,2.6-1.9,4.2-4.2,5.2-1,.4-2,.6-3,.8-.3,0-.6,0-.8.1-.2,2.3,0,4.4,1,6.5.6,1.2,1.5,2.1,2.6,2.8,2.3,1.5,5,.4,6.2-1,1.4-1.7,2.1-3.7,1.8-5.8-.3-3-1.4-5.6-3.2-8-.1-.1-.2-.3-.5-.5h0ZM82.3,20.2c-1.4-.6-2.7-1-4.1-1.2-.1.2-.3.3-.3.5-.2.4-.3.9-.5,1.3-.5,1.3-1.1,2.5-2.2,3.4-1.3,1.1-2.7,1.9-4.3,2.2-.1,0-.3,0-.5.1,2.4,2,5.1,2.8,8,2.9.4-3.5,1.7-6.5,3.9-9.1h0ZM77.4,18.9c-3.5-.4-6.8.2-10.1,1.2,0,.2,0,.3,0,.4.3,1.5.8,2.9,1.6,4.2.9,1.3.7,1.2,2.2.9,3.5-.9,5.4-3.2,6.2-6.7ZM67.2,19.5c3.5-1,6.9-1.6,10.5-1.2.1-.5,0-.9,0-1.3-.4-1.3-1.2-2.1-2.4-2.6-1.5-.6-3-.8-4.6-.3-.5.2-1.1.3-1.6.5-1.7.7-1.4.4-1.8,2.1-.2.9-.3,1.7-.1,2.7h0ZM79.1,29.3c.4,0,.7,0,1-.1,1.4-.2,2.7-.6,3.9-1.5,1.3-1,2.2-2.2,2.4-3.9,0-.3,0-.6-.2-.8-.9-1-2-1.8-3.3-2.5-2.2,2.5-3.4,5.4-3.8,8.8h0ZM63,23.5c1.8,1.1,3.6,2.1,5.7,2.3-.5-.9-1-1.7-1.3-2.6-.4-.9-.6-1.8-.9-2.8-.9.4-1.9.8-2.8,1.1s-.4.2-.4.5c0,.5-.2,1-.3,1.5h0ZM63.7,20.8c1-.4,1.9-.7,2.8-1.1,0-1.3.2-2.4.3-3.7-1.5,1.3-2.4,2.9-3,4.8h0ZM62.4,23.2c0-.4.1-.7.2-1.2-.5.2-.8.4-1.2.6.4.2.6.3,1,.5h0Z"/>
      <path d="M98.2,27.7c1.4-.7,2.4-.5,3.5.6.5.5.9,1,1.4,1.5.2,0,.4-.2.6-.2.5,0,.8,0,.9.6,0,.1,0,.2.2.3.5.5.5.7,0,1.2,0,0-.2.1-.2.2.1.8,0,1-.7,1.3,0,0-.2.2-.2.3-.1.4-.4.6-.8.5-.3,0-.5,0-.7.4-.2.4-.5.4-.9.2-.1,0-.3-.2-.4-.2-.7-.2-.8-.3-.4-1-.4-.3-.8-.7-1.2-1-1-.9-1.6-2-1.5-3.4,0-.7-.1-1.2-.5-1.8-1.2-2.1-2.1-4.3-2.6-6.6-.1-.6,0-1.1.4-1.7.3,3.2,1.5,6,3.1,8.7h0Z"/>
    </g>
  </g>
  <g>
    <path class="st1" d="M44.5,160.1c-.3.1-.6.3-.9.4,0,0,0-.1,0-.2.3-.1.6-.3,1-.4,0,0,0,0,0,.1Z"/>
    <path class="st1" d="M45.8,158.2c-1.4-.2-2.6.1-3.8.3-1.3.2-2.7,0-4-.2-.2,0-.4-.1-.6-.2.2-.6.6-.8,1-1.1,1.6-1,3.3-1.5,5.2-1.3.2,0,.4.1.6.2.8.6,1.2,1.4,1.7,2.4h0Z"/>
    <path class="st1" d="M49.8,161.6c-.4,0-.8.1-1.1.1-.5,0-.8.3-1,.8-.4,1.2-1,2.3-1.7,3.4,0,.1-.2.3-.3.4,0,0-.1,0-.2.1,0-.2-.2-.4-.2-.7,0-.7.1-1.4.5-1.9.3-.5.8-.9,1.1-1.4.5-.6,1-1.2,1.6-1.9.4.3.8.6,1.3,1.1h0Z"/>
    <path class="st1" d="M53.8,165.3c-.3-1.1-.5-2.1-.7-3.2.6.5,1,2.2.7,3.2Z"/>
    <path class="st1" d="M54.8,163.4c-.2-.6-.4-1.1-.6-1.7,0,0,0-.2,0-.3.2.6.5,1.3.6,2h0Z"/>
    <path class="st1" d="M54,167.1s0,0,0,0c.2,0,.3,0,.4,0,.4,0,.6-.3.7-.7,0-.6.1-1.2,0-1.7.8,3.7-.2,3.3-1.1,2.6h0Z"/>
    <g>
      <path class="st1" d="M54.7,58.1c.3,1.7.6,3.4.9,5.1,0,.7,0,1.4,0,2.1,0,.2,0,.4-.3.5-.4.3-.8.6-1.2.9-.4.3-.7.7-1,1-.2.2-.5.4-.7.4-1.6.3-2.9-.1-3.6-1.7-.3-.7-.4-1.4-.5-2.2-.1-.5-.1-1-.3-1.5-.6-1.6-1.1-1.5-2.1-.7-1.1.9-1.9,2.1-2.2,3.6,0,.1,0,.2-.1.4-1.6.3-3.3.9-5,.7-.6,0-1.2-.1-1.7-.3-1.7-.6-2.5-1.9-2.5-3.6,0-1.2.1-2.4.2-3.6,0-.8,0-1.7.1-2.5,0,0,0,0-.1,0-.1.1-.3.2-.3.3-.3.6-.7,1.2-.9,1.9-.7,2.1-1.3,4.2-1.9,6.2-.1.5-.3,1-.6,1.4-.6,1.1-1.8,1.3-2.7.4-.3-.3-.6-.7-.9-1.1-.6-.8-1.3-1.6-1.9-2.3-.5-.6-.7-1.2-.7-2,0-1.2.1-2.4.2-3.6,0-1.1.2-2.2.2-3.3,0-2.3.6-4.5,1.8-6.5,1.8-3.1,3.7-6.1,6-8.9,1.9-2.3,4.3-4,7.2-4.8,1.9-.5,3.9-.8,5.8-.9.7,0,1.3,0,2-.3.5-.2,1.1,0,1.6,0,.4,0,.8.3.8.9.2,0,.4,0,.6,0,.7,0,1.1.3,1.4.8,1,1.7,2,3.4,3.1,5.1.7,1.2,1.5,2.3,2.3,3.3,1.4,1.7,2.4,3.6,3,5.8.3,1.3.8,2.6,1.1,3.8.3,1.4.3,2.8,0,4.2-.2,1.3-.4,1.5-1.8,1.4-.8,0-1.5-.2-2.2-.3-.9,0-1.8-.2-2.7-.2,0,0-.2,0-.4,0h0ZM42.4,39.1c-.7.9-1.3,1.7-1.6,2.6-.6,1.4-.7,2.9-.8,4.4-.1,2,.2,4.1.8,6,.5,1.6,1.5,2.5,3.2,2.8.5,0,1,0,1.5,0,1.3,0,2.5.3,3.7.8.7.3,1.5.6,2.2.9.8.3,1.5.5,2.4.8v-.7c0-.8-.1-1.7-.1-2.5,0-1.5-.3-3-.8-4.4-.6-1.7-.9-3.3-1-5.1,0-.6-.2-1.3-.4-1.8-.6-1.3-.8-2.6-.8-4,0-1.2-.3-2.3-.9-3.4-.2,0-.4,0-.5,0-.2.4-.3.8-.6,1.1-.2.3-.5.6-.9.9.3,0,.6.1.9.2,1,.3,1.4,1,1.2,2,0,.2-.1.4-.2.6-.1.5-.5.7-1,.7-.3,0-.8,0-1-.3-.5-.5-1-.5-1.7-.5-.3,0-.7,0-1.1,0-1,0-1.9-.3-2.5-1.3h0ZM46.3,37.9q.3-.5,1-.8c.5-.3.9-.7,1-1.4-.1,0-.2,0-.2,0-1.6.5-2.6,1.7-3.8,2.8-.2.2-.2.4,0,.7.2.4.4.7.8.8.5,0,1,0,1.5,0,.7,0,1.4-.2,2,.5.8-1.2.2-2.2-1-2.3-.2,0-.5,0-.7-.1-.2,0-.3-.1-.5-.2h0Z"/>
      <path class="st1" d="M176.4,114.8c-.4-.2-.8-.4-1.2-.6-.2,0-.4-.1-.6-.2-.6-.2-.9-.4-.9-1.1,0-.4,0-.8-.3-1.2-.1-.2,0-.5,0-.7.3-1.6,1.4-2.5,3.1-2.6.3,0,.5,0,.8,0,.2,0,.3,0,.5-.1-.1-.4-.4-.4-.7-.4-.6,0-1.1-.1-1.6-.4-.7-.4-1-.9-1.1-1.6-.1-1.2,0-2.3.7-3.3.3-.6.6-1.3.9-1.8.6-.9,1.2-1.8,2.4-2.1.6-.1,1.2,0,1.8.2,1.3.5,2.5,1.2,3.4,2.2.9.9,1.9,1.5,2.9,2.1.9.5,1.8,1.1,2.6,1.7.6.4,1.3.8,1.9,1.3.2.1.3.2.5.3.7.6.7.6.4,1.5,0,.2-.1.4-.1.6,0,.6-.2,1-.5,1.5-.4.6-.8,1.2-1.4,1.6-.1,0-.2.3-.3.4-.1.2-.2.3-.3.5-.4,1.4-1.3,2.4-2.4,3.4-.7.6-1.3,1.3-1.9,1.9-.9,1.1-2,1.9-3.2,2.5-1.1.6-2.3.7-3.6.8-.4,0-.9-.2-1.1-.6-.3-.6-.8-1.1-1.3-1.6-.2-.2-.3-.3-.4-.5-.4-.4-.5-.9-.3-1.5.2-.7.4-1.2.9-1.8.1-.1.2-.3.3-.4h0ZM189.5,111c.2-.8.4-1.5.6-2.2.1-.5.1-.6-.3-.9-1.1-.9-2.4-1.5-3.6-2-.2-.1-.6-.1-.8-.1-.7,0-.9.6-.6,1.2.3.6.8.8,1.5.7.6,0,1.1,0,1.7.2.4.2.6.5.6,1,0,.4-.2.6-.6.6-.4,0-.7-.1-1.1-.2-.5,0-1-.1-1.4,0-.2,0-.5.1-.6.3-.2.2-.3.4-.1.7.1.2.3.3.6.3.4,0,.7-.2,1-.2.4,0,.9,0,1.2,0,.6.2.6.3.4.9,0,.2-.1.3-.2.5.7-.2,1.3-.4,1.9-.6h0ZM184.4,113.2c.8-.2,1.7-.7,2.1-1.2-.5,0-1,0-1.4.2-.6.1-.8.4-.7,1Z"/>
    </g>
    <path class="st1" d="M80.2,4.9c.6,0,1.2.1,1.9.1.8,0,1.6,0,2.4,0,.6,0,1.2,0,1.8.2.5.3,1.1.2,1.6,0,.9-.1,1.7,0,2.6,0,2.1.2,4.1.6,6.1,1,1.2.2,2.2.7,3.1,1.4.2.1.4.2.6.3.4,0,.5.4.5.7,0,.4-.2.9-.4,1.2-.3.4-.3.9-.3,1.4,0,.3,0,.5,0,.8,0,.9.5,1.4,1.2,1.7.2.1.5.2.7.3.6.4.7.7.1,1.2-.3.2-.6.4-.9.6-1.5.8-3.1,1.3-4.7,1.6-.1,0-.2,0-.3,0-.4,0-.6.2-.7.6-.2.6-.5,1.2-.8,1.8-.5.9-.8,1.1-1.9,1-1.1-.2-2.2-.5-3.2-1-.4-.2-.9-.4-1.3-.7-1.4-.8-2.7-1.7-4.1-2.3-.4-.2-.8-.5-1.1-.8-.4-.3-.7-.6-1.1-.9-.5-.4-1.1-.7-1.8-.9-1.1-.3-2-1.1-2.7-2-.3-.3-.5-.7-.8-1-.4-.4-.5-1-.8-1.4,0,0,0-.2-.1-.2-.4-.5-.4-.6,0-1,.2-.2.4-.5.4-.8.1-.7.5-1.3.9-1.9.5-.7,1.1-1,1.9-1,.4,0,.8,0,1.1,0,0,0,0,0,0,0ZM82.5,11.5c-.7-.1-1.3-.2-2-.4.9.4,1.4.5,2,.4,0,0,.2.2.3.2,1,0,1.9,0,2.9,0s1.8,0,2.7,0c.9,0,1.7.2,2.6.3,1.8.2,3.4.8,5,1.7.5.3,1,.4,1.6.4.1-.6.3-1.1.3-1.6,0-1,0-2,.8-2.8,0,0,0-.1.1-.2.3-.5,0-1.2-.5-1.5-.8-.4-1.7-.6-2.6-.6-2.2-.2-4.5-.4-6.7-.9-.7-.1-1.4-.1-2.2,0-.1.4-.2.8-.3,1.2-.2.7-.5,1.4-1,1.9-.5.5-1.1,1.1-1.7,1.5-.4.3-.8.5-1.4.3h0ZM95.3,17.6c-.8,0-1.4,0-2.1.1-1.6.1-3.1-.3-4.6-.7-.2,0-.5-.2-.7-.4-.8-.6-1.8-.9-2.7-1.2-.4-.1-.9-.3-1.4-.2.4.4.8.6,1.3.9.9.6,1.9,1.1,2.9,1.7.7.4,1.4.8,2.1,1.2,1,.5,2.1.9,3.2,1.1.7.1.9,0,1.2-.6.3-.6.5-1.3.8-2h0ZM76.7,8.1c.2,0,.3,0,.4,0,2.2-.5,4.3-1.4,6.7-1.5,0,0,0,0,.1,0,.5-.2,1-.4,1.4-.9-.3,0-.7,0-1,0-.8.1-1.7.3-2.6.3-.8,0-1.7,0-2.5,0-.3,0-.7,0-1.1,0-.5,0-.9.3-1.1.8-.1.4-.2.8-.4,1.4h0ZM79.1,10.9c-.5-.2-1-.5-1.6-.6.4.5,1.1.4,1.6.6ZM76.1,9.5c0-.3,0-.5,0-.8-.3.3-.2.5,0,.8Z"/>
    <path class="st1" d="M128.3,15.1c0-.7.1-1.3,0-2,0-.6.2-.9.7-1.1,1.2-.6,2.5-.8,3.8-.1.6.3,1.1.5,1.7.8.8.4,1.4,1,1.8,1.8.6,1.4,1.5,2.6,2.3,3.8.6.9.9,1.8.9,2.9,0,.3,0,.6.1.9.2,1,.2,1.9.1,2.9,0,.3,0,.6,0,.9.4,1.4-.7,3.3-2.2,3.5-.5,0-.9.2-1.4.3,0,0,0,.2,0,.3h0c-.2-.3-.4-.6-.6-1,0,0,0-.2,0-.4.2.2.4.4.5.5,1.5-.1,2.4-.9,2.8-2.1,0-.2,0-.5,0-.8,0-.7-.1-1.5-.2-2.2,0-.5-.1-1-.3-1.5-.1-.6-.4-1.3-.5-1.9-.1-.8-.5-1.5-1-2.1-.5-.7-1.1-1.3-1.5-2-.3-.5-.6-1-.8-1.6-.3-1-.9-1.7-1.8-2.2-.3-.2-.6-.3-.9-.5-.6-.5-1.2-.5-1.8-.3-.2,0-.3.1-.5.2-.5.2-.8.5-.8,1.1,0,.7,0,1.5-.1,2.2,0,.4.1.6.5.8,1.2.6,2.1,1.5,2.7,2.7.1.2.3.5.6.6.4.3.7.7.8,1.2.1.3.2.7.3,1,.2.5.4,1,.9,1.3.6.4.6.9.4,1.5-.2.8-.2,1.6-.1,2.4,0,.2,0,.4,0,.6,0,1.1.2,2.3.3,3.5,0,.4,0,.9.2,1.2.4.9.3,1.7.1,2.6-.2,1.1-.5,2.1-.7,3.2-.1.7-.5,1.2-1,1.7-.7.8-1.4,1.5-2.1,2.3-.9,1.1-2,1.5-3.3,1.5-2.4,0-4.8,0-7.1-.8-1.2-.4-2.4-.5-3.6-.5s-2.1,0-3.2-.4c-.9-.2-1.7-.8-2.1-1.6-.5-1-1.1-1.9-2-2.5-.6-.5-.9-1.1-1.1-1.8-.2-1-.4-1.9-.7-2.8-.2-.7-.4-1.5-.8-2.1-.6-1.2-1-2.5-1.3-3.9-.3-1.5-.7-3-1-4.5-.3-1.2-.3-2.3.5-3.4.2-.2.3-.5.4-.7.6-.9,1-1.8,1.4-2.7.8-2,2.1-3.6,3.7-4.9.9-.7,2-1.2,3.1-1.4,1.9-.3,3.9-.7,5.9-.7,1.5,0,2.7.5,3.6,1.6.6.7,1.3,1.4,2,2.1.8.7,1.4,1.5,1.8,2.5,0,0,.1,0,.2,0h0ZM128.1,21.6c.6-.7.7-2,.2-2.9-.3-.5-.6-1-.8-1.5-.2-.4-.4-.6-.8-.8-.8-.3-1.4-.8-2-1.4-.8-.8-1.7-.9-2.7-.7-1.3.2-2.3,1.1-3.2,2-1.1,1.2-1.7,2.6-2.2,4-.2.5-.2,1,0,1.4.2.5.4,1,.6,1.5.2.7.5,1.4,1,2,.4.5.8.8,1.5,1,0-.1.2-.3.3-.4.5-.5,1-.8,1.7-.8.8,0,1.7,0,2.5,0,.4,0,.6,0,.7-.4-.5-.6-1.2-1-1.8-1.5-.5-.4-1-.8-1.4-1.2-.4-.4-.6-.8-.7-1.4,0-.5,0-.7.6-.7.8,0,1.7,0,2.4.1,1.4.3,2.8.8,4.1,1.5h0ZM129.7,29.1c.4-.7.7-1.3,1-1.9.2-.5.4-1,.4-1.6,0-1.1.1-2.3.1-3.5s0-.7-.2-1c-.5-.8-1-1.6-1.6-2.4-.2,1.2,0,2.4-1.1,3.2.4.6.7,1.2,1.1,1.7.3.5.5.9.3,1.5,0,.1,0,.3,0,.4-.4.4-.7.7-1.1,1,.8.6.7,1.6.9,2.5h0ZM123.9,26.7c.2,0,.5.1.7.2.4.2.6.6.6,1s-.3.5-.6.6c-.5.2-1,.4-1.5.6-.3.1-.6.3-.9.5-.2.2-.3.4-.2.7,0,.3.3.4.6.3.5,0,1-.1,1.4-.2,1.2-.1,2.2-1.1,3.5-1-.4-.7-.8-1.3-1.1-1.9-.4-.6-.7-1.3-1.1-2-.7-.1-1,0-1.4,1.1ZM122.3,20.5c-.1.8.2,1.3.7,1.7.8.7,1.6,1.3,2.4,1.9.6-.6,1.1-1.2,1.7-1.8-.8-.9-3.5-1.9-4.8-1.8h0ZM125.8,24.4c0,.4.3.5.6.5.6,0,1.2,0,1.6.5.3.3.8.1.9-.2,0-.3,0-.7-.1-.9-.4-.6-.9-1.1-1.4-1.7-.5.6-1.1,1.1-1.6,1.7h0ZM123.3,26.7c.3-.4.5-.8.8-1.2-1.7-.5-3.3-.2-3.8,1,.9.6,1.9.3,2.9.2h0ZM128.7,29.5c0-.9.1-1.7-.3-2.5-.3.1-.6.2-.9.3.3.8.7,1.5,1.2,2.2ZM127.5,31.9c.6-.3,1.1-.8,1.4-1.4-.3-.2-.6-.3-1-.5.2.8-.1,1.3-.4,1.9h0ZM127.2,26.7c.6,0,1-.1,1.2-.6-.5,0-.9-.1-1.4-.2,0,.3.1.5.2.8Z"/>
    <path class="st1" d="M151.5,11.5c0-.3,0-.6,0-.9s.1-.5.5-.6c1.4-.2,2.7-.2,3.9.7.6.5,1.3.9,2,1.4,0-.2,0-.4-.1-.5.7.6,1.6.7,2.3,1.4.4.5,1,.8,1.6,1,.8.3,1.4.8,1.9,1.4.3.3.7.5,1.1.6.8.3,1.6.6,2.3,1,.2,0,.3.2.4.3.7.8,1.3,1.5,2,2.3.4.5.8,1.1,1.3,1.5,1.4,1.3,2.1,2.9,2.4,4.7.1.8.2,1.5.3,2.3,0,.2.2.4.4.6.4.4.7.9.5,1.5-.1.5-.4.8-1,1-.5.1-.9,0-1.2-.4-.3-.4-.8-.5-1.3-.6-1.1-.3-2.1-.7-3.1-1.1-1.4-.6-2.8-1.3-4-2.2-.3-.3-.8-.4-1.2-.5-.7-.2-1.3-.5-1.8-1-.6-.6-1.3-1-2.1-1.2-.6-.1-1.1-.5-1.3-1-.5-.9-1.3-1.5-2.2-1.9-1.2-.5-2.4-1-3.6-1.5-1.9-.8-3.6-2.1-4.7-3.9-.3-.5-.7-.9-1-1.4-.5-.7-.3-1.6.5-1.9,1.1-.3,2.3-.6,3.4-.9.5-.1,1.1,0,1.7,0h0ZM146.9,12.6c0,.4,0,.7.4.8,1.1.6,1.9,1.5,2.8,2.3.6.5,1.2,1,1.9,1.4.8.5,1.6,1,2.3,1.5.7.5,1.3,1,2,1.5.9.6,1.7,1.3,2.1,2.4.2.5.5.8,1.1,1,.9.2,1.7.8,2.4,1.4.4.3.8.6,1.2.7.9.3,1.8.7,2.6,1.3,1.4,1,3,1.5,4.6,2.2.2,0,.4.1.6.2.2,0,.3,0,.6,0-.3-.4-.6-.8-.9-1-1-1-1.9-1.9-3.3-2.4-.6-.2-1.2-.6-1.8-.9-1-.6-1.9-1.3-2.8-1.9-.9-.6-1.8-1.3-2.6-2.2-.5-.7-1.2-1.1-2-1.4-.8-.2-1.4-.6-1.9-1.2-.3-.4-.6-.8-.9-1.1-.5-.6-1-1.2-1.7-1.7-.6-.4-1.2-.8-1.6-1.4,0,0,0,0,0,0-.6-.3-.6-.8-.5-1.4,0-.1,0-.2,0-.4-1.6-.7-3,0-4.4.4h0ZM152.2,11.8c1,.3,1.9.7,2.9.9,1.2.3,2.1.9,2.9,1.8.9,1.1,2.1,1.9,3.3,2.7,1.3.8,2.4,1.8,3.3,3,.4.5.9,1.1,1.4,1.6,1.7,1.7,3.3,3.5,4.6,5.6.3.6,1,1,1.6,1.2,0-.1,0-.3,0-.4-.2-.5-.4-1.1-.7-1.6-1.5-2.5-3.1-4.9-4.7-7.4-.4-.5-.8-1-1.3-1.4-1.7-1.3-3.4-2.6-5.2-3.9-1.7-1.1-3.4-2.2-5.2-3.3-.8-.5-1.7-.5-2.7-.4,0,.5-.1.9-.2,1.5h0ZM168.7,26s0,0,.1-.1c-.5-.6-1-1.2-1.5-1.8-1.4-1.3-2.7-2.7-3.9-4.2-.7-.8-1.5-1.6-2.4-2.1-1.5-.9-2.9-1.9-4.1-3.2-.4-.5-1-.9-1.6-1.1-1-.3-2-.6-3-.9,0,0,0,0-.1,0-.1.4,0,.7.3,1.1.5.5.9,1.2,1.7,1.4,0,0,.1,0,.1.1.4.5.9,1,1.3,1.5.4.5.8.9,1.1,1.4.5.5,1,.9,1.7,1.1.9.2,1.6.8,2.2,1.5.6.6,1.2,1.2,1.8,1.6,1.3.9,2.6,1.7,3.9,2.6.8.5,1.6.8,2.5,1h0ZM169.1,21.4c.5.8,1.1,1.6,1.6,2.4-.2-1-.7-1.8-1.6-2.4ZM166.3,17.7c-.4-.7-.8-.9-1.3-1,.4.3.8.6,1.3,1Z"/>
    <path class="st1" d="M164.8,50.7c.6-.8,1.1-1.6,1.7-2.4,0,0,.1-.2.1-.2,0-.7.1-1.5,0-2.2,0-.4,0-.7.2-1,.3-.5.8-.8,1.3-1.1.9-.5,1.9-.7,2.9-.9.3,0,.6-.1.8-.3,1.2-.8,2.5-.5,3.6,0,.4.2.9.5,1.4.6.8.2,1.6.5,2.2,1,.5.3,1,.6,1.5.8,1.1.5,2.1,1.1,2.8,2.2.8,1.2,1.5,2.3,2.3,3.5.4.6.6,1.2.7,1.9,0,.6.3,1.1.6,1.6.2.3.4.5.5.8.6,1.5,1.6,2.7,2.5,4,.4.6.9,1,1.4,1.5.6.5,1.1,1,1.5,1.7.3.5.7,1,1.1,1.5.9,1,1.4,2.2,1.5,3.6,0,.5,0,1,0,1.5,0,1.2-.2,2.3-.7,3.3-.4.9-.9,1.8-1.1,2.9-.2,1.2-.4,2.4-.6,3.6-.1.9-.4,1.9-.8,2.7-.5,1.1-.8,2.2-.8,3.3,0,.6-.2,1.3-.5,1.8-.1.2-.2.5-.2.7.1.6,0,1.2-.2,1.7-.1.5-.2,1.1-.4,1.6-.1.5-.3.9-.6,1.3-.4.4-.5,1-.8,1.5-.2.4-.3.9-.5,1.4-.1.3-.3.6-.7.6-.5,0-.9-.2-1-.6,0,0,0,0,0-.2-.2.2-.4.3-.6.5-.9.8-1.9,1-3,.7-.8-.2-1.5-.5-1.9-1.4-.8.5-1.6.5-2.4.5-.6,0-1.3,0-1.9.2-.3,0-.7.1-1.1,0-1.4-.3-2.8-.7-4.2-1-1.6-.3-3-1.1-4.7-1.3-.7,0-1.4-.1-2.1,0-2.2.2-4.4,0-6.6-.5-1.4-.3-2.8-.6-4.2-.9-1.1-.2-2-.9-2.6-1.8-.7-.9-1.4-1.8-2.1-2.8,0-.1-.2-.2-.3-.4-.4-.8-1.1-1.5-1.9-2-.9-.6-1.2-1.4-.9-2.5.2-.8.4-1.5.6-2.3.4-2,.3-4,0-6-.1-.7-.2-1.4-.2-2.2-.1-1.6-.2-3.3-.3-4.9,0-3.1.4-6.2,1.9-9,.4-.7.8-1.4,1.2-2.1.2-.4.2-.7.2-1.1-.1-1.8-.4-3.6.2-5.3.3-.8.7-1.5,1.1-2.3.5-.9,1.3-1.4,2.2-1.7,1.7-.4,3.3-.9,5-1.2,1.4-.2,2.8-.2,4.2,0,1.5.2,2.2,1.2,2.5,2.6.2,1.1.3,2.3,0,3.4,0,.3,0,.6-.1.8,0,0,0,0,.1,0h0ZM182.3,83.3c0,.1,0,.2.1.3.4,1,.3,1.9-.2,2.8-.3.5-.8.5-1.1,0-.5-.8-.6-1.9-.1-2.6.6-.9.6-.9,0-1.7-.2-.3-.5-.5-.7-.8-.7-.8-1.4-1.5-2.1-2.4-1.1-1.5-2.4-2.8-3.7-4.1-1.9-1.9-3.4-4.1-4.8-6.4-.6-1.1-1.2-2.2-1.9-3.2-.3-.5-.7-1.1-1.2-1.5-.7-.7-1.5-.6-2.1.2,0,0-.1.2-.1.2-.3.5-.8.6-1.2.2-.1-.1-.3-.3-.4-.4-1.6-2.2-2-4.6-1.5-7.2.2-1,.7-1.8,1.3-2.6.1-.2.3-.3.2-.6-.3-1.2-.3-1.2-1.4-1.8-.1,0-.2-.1-.3-.2-1.7-1-3.6-1.5-5.5-1.6-.6,0-.6,0-.7.7-.1,1.2-.3,2.3-.4,3.5-.1.8-.3,1.5-.4,2.2-.1,1.1-.6,1.9-1.5,2.6-1.6,1.1-2.7,2.6-3.6,4.2-.3.6-.5,1.2-.6,1.8-.1.5,0,.7.5.9.3.2.7.2,1.1.4.7.3,1.5.5,2.2.9,1.8,1,3.4,2.4,4.6,4,1.1,1.4,2.4,2.8,3.7,4.1.9.8,1.8,1.7,2.6,2.6.8.9,1.7,1.7,2.8,2.2.5.3,1,.6,1.5.8.4.2.9.5,1.4.7,1.6.5,3.1,1.2,4.6,2,.8.4,1.5.7,2.4.7.3,0,.6,0,.9,0,.7,0,1.2.3,1.6.9.4.6,1,1,1.6,1.3,1.1.6,2.1,1.1,3.1,1.8.7.4,1.4.5,2.1,0,.2-.2.3-.3.3-.5.2-2.4,0-4.7-1.1-7,0-.2-.1-.3-.2-.5-.2.6-.4,1.1-.7,1.6-.3.5-.7.9-1.1,1.4h0ZM183.6,89.2c-.6-.2-1.1-.4-1.6-.7-1.1-.6-2.2-1.2-3.4-1.7-.8-.4-1.6-.7-2.3-1.3-.4-.3-.8-.4-1.2-.4-.5,0-1,0-1.5.1-2.8.1-5.5-.3-8.1-1.6-.7-.3-1.4-.7-2.1-.9-1.1-.4-2.1-1-3.1-1.8-1-.7-1.6-1.6-1.8-2.8-.1-.9-.6-1.7-1.1-2.5-.2-.3-.4-.7-.6-1-.5-.9-.9-1.7-1.4-2.6-.9-1.6-2.1-2.8-3.5-3.9-.9-.7-1.9-1.2-3-1.6-.4-.1-.8-.2-1.2-.4-1-.4-1.1-.7-.9-1.7,0,0,0,0,0,0,.2-1.2.8-2.2,1.5-3.3.6-1,1.2-1.9,1.8-2.9.1-.2.3-.6.2-.8-.2-.7-.4-1.4-.7-2.1-.1,0-.2,0-.2,0,0,0,0,.1-.1.2-1.9,3.1-2.8,6.5-2.8,10.1,0,2.7.3,5.4.8,8,.5,2.5.6,5.1.2,7.6-.2,1.4-.3,2,1.4,2.9.1,0,.2.1.4.2.5.4,1.1.8,1.6,1.2,1.2,1.3,2.5,2.6,3.7,3.9.3.3.6.5,1,.6.6,0,1.2.2,1.8.3,1.9.4,3.7.7,5.6.7,2.8,0,5.4.4,8,1.6.2,0,.4.2.6.2,1.1.3,2.2.7,3.2,1,.5.2,1.1.2,1.6,0,.4-.1.7-.2,1.1-.2,1.2,0,2.4,0,3.6,0,.1-1.9,1-3.4,2.4-4.6h0ZM173.4,45.3c-.4.4-.7.8-1,1.1-.4.5-.9,1.1-1.4,1.4-2,1.4-3.8,3.1-5.6,4.7-.1,0-.2.2-.3.3,1.5.9,3,1.7,4.5,2.5,3.3,1.9,6.1,4.3,8.4,7.3,1.5,2,2.9,4.2,4.4,6.3.7,1.1,1.2,2.2,1.3,3.5.2,1.8.4,3.7.5,5.5,0,.2,0,.5.2.7,1.5,2.6,2.1,5.3,1.8,8.2,0,.2,0,.5,0,.7,1.6,0,2,.2,2.4.8-.4.2-.7.5-1,.5-.6-.1-.9.2-1.3.5.2.3.3.5.5.8-.5.3-.8,0-1.1-.2-1.1,1.1-1.7,2.3-1.8,3.9.3-.2.6-.4.8-.6.6-.5,1.2-1,1.8-1.6.5-.5,1.1-.7,1.8-.5.1,0,.3,0,.4,0,.6-.8.6-1,.5-1.9,0-.6-.2-1.2-.2-1.8,0-.5,0-1.1.1-1.6.1-.7,0-1.2-.3-1.8-.6-.8-1.1-1.7-1.3-2.7-.2-.6-.2-1.2-.4-1.8-.4-1.2-.5-2.5-.4-3.8.1-1.3.3-2.6,1-3.8.7-1.3,1-2.7.9-4.2,0-1.7-.5-3.2-1.7-4.5-.3-.3-.6-.7-.8-1.1-.4-.7-.9-1.2-1.4-1.6-.5-.5-1.1-.9-1.4-1.5-.9-1.3-1.9-2.5-2.5-4.1-.1-.3-.3-.6-.6-.9-.4-.5-.6-1-.7-1.6-.1-.7-.3-1.4-.7-2-.6-.8-1.1-1.7-1.6-2.5-1.5-2.2-1.2-1.9-3.3-2.8-.1,0-.2,0-.4-.2h0ZM162.3,51.5c-.1-2.4-.9-4.4-2.2-6.1,0,0-.1-.2-.2-.2-.1,0-.3-.2-.5-.1-.8.2-1.5.4-2.2.7-.2,0-.5.3-.6.6-.6.8-1.1,1.7-1.4,2.7,0,.1,0,.3,0,.5,2.6,0,4.9.6,7.2,2ZM182,83.6c-.7.8-.8,1.5-.3,2.2.4-.7.5-1.4.3-2.2Z"/>
    <path class="st1" d="M137,164.1c-.7-1.6-.6-3.3-.4-4.9.3-2.5,1.1-4.9,1.8-7.3.9-2.8,1.7-5.6,2.9-8.4.6-1.4,1.4-2.8,2.3-4.1,1.3-1.8,3-2.8,5.1-3.3,1.5-.4,3-.4,4.6-.4,1.1,0,2,.4,2.8,1,.9.7,1.8,1.5,2.7,2.2.3.3.6.5,1,.8.7.5,1.5.8,2.4.8,1,0,2,0,3,.1,1.5.2,2.7.9,4,1.6,1,.6,2.1,1.1,3.1,1.6.2-.1.3-.2.4-.3.6-.6,1.3-1,2.1-1.2,1-.3,2-.6,2.9-.8.7-.2,1.4-.3,2.1-.2.9,0,1.3.8,1.9,1.2.4.2.4.7.4,1.1,0,.8-.2,1.6-.3,2.4-.1.8-.3,1.6-.5,2.4,0,0,.1,0,.1,0,.3-.5.6-1,.8-1.6.5-1.5,1.5-2.1,3.1-2.1,1.6,0,3.2.4,4.5,1.3.7.4,1.1,1.1,1.5,1.7.5.7,1,1.5,1.5,2.2.4.6.6,1.2.6,1.9,0,.9.3,1.8.9,2.5.5.5.6,1.2.6,1.9,0,.7.2,1.3.6,1.9.4.6.3.7-.1,1.3-.2.3-.4.5-.6.8-.3.5-.7.8-1.2,1.1-1.6.8-3.2,1.5-4.8,2.3-1.4.7-2.8.9-4.3,1.1-1.4.2-2.7.5-4.1.8-.9.2-1.6.8-2.4,1.3-.6.5-1.3.9-2.1,1.1-.7,1.5-1.8,2.2-3.5,2.1-.3,0-.5,0-.8,0-.9-.1-1.2-.7-1-1.6.2-.8.4-1.6.6-2.4.1-.7.3-1.4,1.2-1.4,0-.9.1-1.6.2-2.4,0-1,0-2,.2-3,.1-1.7-.4-3.2-1.6-4.6-.2.1-.5.3-.7.4-2.2,1.4-4.3,3-6.3,4.7-.3.2-.5.5-.6.9-.5,1.6-1.2,3.1-1.9,4.6-.9,1.8-2.2,3.3-4,4.3-1.3.7-2.7,1.5-4,2.2-.7.4-1.5.6-2.3.7-.2,0-.4,0-.6,0-.4-.2-.8-.2-1.2-.1-.2,0-.5,0-.7,0-.1,0-.3,0-.4,0-1.1.6-2.2.5-3.4.6-.3,0-.5,0-.8.2-.9.6-1.9.5-2.9.2-.4-.1-.5-.5-.5-.9,0-.4,0-.9-.3-1.2-.8-1.2-1.2-2.5-1.3-3.9,0-.3-.1-.6-.2-.9-.5.1-.6.5-.7.9,0,.6,0,1.2.2,1.8.4.8.8,1.6,1.2,2.4.2.5.5,1,.7,1.5.2.4,0,.8-.3,1.1-.5.5-1.1.6-1.7.7-1.1.1-2.2.1-3.3-.2-.6-.1-1.1-.4-1.6-.9-.3-.3-.7-.6-1.1-.9-.2-.1-.3-.3-.4-.6,0-.6.2-1.2.5-1.8.2-.4.3-.7.4-1.1.4-1.5,1-3,2.1-4.1.4-.4.9-.8,1.3-1.2h0ZM137.6,163.8c.7-.2.7-.2.7-.8s0-.4.1-.6c1-3.1,2.1-6.2,3.5-9.1.7-1.4,1.4-2.8,2.5-4,1.7-1.9,3.6-3.4,5.7-4.8,1.1-.7,2.4-1.2,3.8-1.2,1.5,0,2.9,0,4.4,0s.8,0,1.2.2c1.6.8,2.8,1.8,3.7,3.4.3.5.4,1.1.6,1.7,0,.2,0,.5-.2.7-.2.3-.4.6-.6.9-.3.4-.5.9-.8,1.4-.2.3,0,.6.2.8,1,.7,1.3,1.6,1.1,2.8,0,.3,0,.6,0,.8.2.6.5,1.2.8,1.9,1.9-2,4.3-3.4,6.5-4.9-.2-.8-.4-1.4-.6-2.1-.5-1.9-.2-3.6,1-5.2.2-.3.4-.6.6-.9-.1,0-.2-.2-.3-.2-1.2-.7-2.5-1.5-3.7-2.2-1.4-.8-2.9-1.2-4.5-1.1-.4,0-.8,0-1.2,0-1.6,0-3.1-.4-4.4-1.4-.2-.2-.4-.3-.6-.5-1-.8-2-1.6-3.1-2.2-.4-.3-1-.5-1.5-.5-2.7-.1-5,.8-6.7,2.9-1.1,1.5-2.1,3.1-2.8,4.8-1.8,4.3-3.4,8.6-4.8,13.1-.6,1.8-.9,3.7-.8,5.6,0,.3,0,.7.1,1.1h0ZM178.1,165.5c.7-.3,1.2-.5,1.7-.8.9-.6,2-.8,3.1-1,.8-.1,1.5-.1,2.2-.5,2.6-1.3,5.3-2.2,7.9-3.6.4-.2.8-.4,1.1-.5.6-.2.6-.4.4-.9-.3-.6-.5-1.1-.7-1.7-.3-.8-.6-1.4-1.4-1.8-.8-.5-1.4-1.2-1.9-1.9-.3-.5-.6-.9-1-1.3-.9-1-1.7-2.1-2.3-3.3-.5-.9-1.2-1.7-2.1-2.2-.7-.4-1-.4-1.5.3-.2.2-.3.4-.4.6-.2.5-.5,1-.7,1.5-.7,1.4-1.1,2.9-.9,4.5,0,.1,0,.3,0,.5,0,.8,0,1.5-.3,2.1-.2.4-.3.7-.5,1.1-.7,1.7-1.6,3.4-2,5.2-.3,1.2-.5,2.5-.8,3.8h0ZM172.8,144c.3.2.6.3.8.4.6.4,1.2.7,1.7,1.2.5.4.8.9,1.2,1.4.1.1.2.3.3.5.2,1.4.2,2.7-.9,3.8-1,1-2.1,1.8-3.3,2.6-.2.1-.4.3-.6.4.3.4.5.8.8,1.2.6.9.9,1.9,1,3,0,1.4,0,2.8,0,4.1,0,.4,0,.8.1,1.3,1.8-1.4,3.2-3.1,4-5.1.5-1.1.9-2.1,1.5-3.1.5-.9.9-1.9,1-2.9.1-1,.2-1.9.3-2.9.1-1.8.4-3.6.7-5.4,0-.4,0-.8,0-1.2,0-.8-1.1-2-1.9-2-.3,0-.6,0-.9,0-1.4.4-2.8.8-4.2,1.1-.2,0-.5.2-.7.3-.5.3-.9.6-1.2,1.1h0ZM143.1,172.4c.1,0,.2,0,.2-.1,0,0,0-.1.1-.2.3-1,.3-1.9-.1-2.9-.5-1.1-1-2.2-1.6-3.2-.3-.5-.7-1-1.1-1.4-.7-.6-1.2-.6-1.8,0-.5.4-.9,1-1.2,1.6-.7,1.2-1,2.5-1.2,3.9,0,.2,0,.3,0,.5,1.1,0,1.9.9,2.9,1.5-.1-.3-.1-.4-.2-.5-.3-.5-.5-1-.8-1.6-.4-.7-.5-1.5-.4-2.3,0-1.3.6-1.8,1.9-1.7.5,0,.7.2.9.7.1.4.2.8.2,1.2.2,1.8,1.2,3.2,2.4,4.5h0ZM172.2,144.7c-1.9,2.2-2.3,5.6-.9,7.7.6-.5,1.1-1,1.6-1.6s.7-1,.8-1.6c.1-.9.3-1.8-.2-2.7,0-.1,0-.2-.1-.4,0-.8-.6-1.2-1.2-1.5h0ZM174.4,164.6c.8.5,1.4.9,2.1,1.4.5.3,1,.1,1.2-.4,0-.2.1-.4.2-.6.3-1.2.6-2.5.8-3.8,0,0,0-.1,0-.2-1.2,1.5-2.6,2.6-4.3,3.6h0ZM136.8,171.4h0c.1.4.2.7.3,1,.2,0,.4-.1.8-.3-.4-.3-.7-.5-1-.8h0Z"/>
    <path class="st1" d="M54.8,163.4c0,.4.2.8.3,1.1,0-.4-.1-.8-.3-1.1ZM90.4,154.6c-.5-.2-1.1-.5-1.5-.8-.9-.7-1.9-1-3.1-1-.3,0-.6,0-.8,0-.2-.6-.4-1.1-.6-1.6-1.1-2.4-2.5-4.6-4.3-6.5-.9-1-1.7-2.1-2.2-3.3-.7-1.4-1.4-2.7-2.2-4-1.1-1.7-2.4-3.1-4.5-3.7,0-.1,0-.2,0-.3.3-1.2,0-2.2-.6-3.2-.7-1.1-1.4-2.2-2.2-3.3-1.3-1.8-3-2.8-5.2-3.3-3.2-.6-6.4-.9-9.6-.8-1.2,0-2.5,0-3.7,0-.1,0-.2,0-.4,0-3.6,0-7.1.6-10.5,1.8-4.7,1.7-8.6,4.6-11.4,8.8-.7,1-1.3,2-2,3-.9,1.5-1.7,3-2.3,4.6-.1.3-.2.5-.5.6-1,.4-1.7,1.2-2.4,2.1-.3.4-.7.9-.9,1.4,0,.2-.1.4-.1.5,0,.4-.1.8-.2,1.2-.2,1.8-.5,3.5-.9,5.2-.4,1.5-.5,3-.6,4.6,0,.8,0,1.6.3,2.4.3.9.5,1.7.7,2.6.3,1.5.7,3,1.7,4.2.4.5.7,1,1,1.6.8,1.8,1.8,3.4,2.9,5.1,1,1.6,2.2,3.1,3.6,4.4.5.5,1,1,1.5,1.5.6.7,1.3,1.3,1.9,2,.1.1.2.3.3.4.2.4.4.7.6,1.1.3.7.6,1.3.9,2,0,.1,0,.3,0,.5-.2,1.1.3,1.5,1,1.8.7.3,1.5.5,2.2.7.5.2,1.1.4,1.6.6,1.8.9,3.6,1.5,5.5,1.8,2.8.4,5.5.4,8.3.2,0,0,.1,0,.2,0,0,0,0,0,0,0,0,0,0-.1,0-.2-.8-.9-1.5-2-2-3.1,0-.1-.1-.2-.2-.3,0,0-.2-.1-.2-.1-.8-.3-1.6-.7-2.4-.9-2.1-.5-4.3-1-6.4-1.5-1.3-.3-2.5-.6-3.7-1.2-.4-.2-.9-.4-1.4-.5-1-.2-1.8-.7-2.5-1.4-.4-.3-.8-.7-1.2-1-.8-.8-1.6-1.6-2.5-2.3-2.9-2.3-5-5.2-6.7-8.4-.6-1.2-1.2-2.3-2-3.4-.5-.8-.9-1.6-1-2.6-.2-1.3-.5-2.7-.9-3.9-.1-.4-.2-.8-.2-1.2,0-1.5.1-2.9.4-4.4.2-1.3.5-2.6.6-4,.1-.9.2-1.7.2-2.6,0-.9.2-1.8.9-2.5.4-.5.8-.9,1.2-1.4.3-.3.6-.6,1.1-.7,0,.2,0,.3,0,.4-.2,1.4-.2,2.7-.1,4.1,0,.8.1,1.6.2,2.4,0,.5,0,.9.1,1.4,0,.4.1.9,0,1.3-.2,1.8-.5,3.5-.4,5.3,0,.8.2,1.6.5,2.3,0,0,0,.1.1.2,0,.1.1.2.2.3,0,0,0,.1.1.2.5.8,1,1.6,1.4,2.5.6,1.3,1.2,2.7,1.8,4.1.3.7.6,1.3,1.1,1.9.9.9,1.8,1.9,2.5,3,.2.4.6.7.9,1,.9.8,1.6,1.6,2.2,2.6,0,0,0,0,0,0,.9,1.4,1.8,2.8,3,3.9,1.2,1.2,2.6,2,4.3,2.2,1.4.1,2.8.3,4.2.4.3,0,.6,0,.8,0,.1,0,.2,0,.3,0h.4s0,0,0,0c.4,0,.8,0,1.3,0,.1,0,.3,0,.4-.1,0,0,0,0,0,0s0,0,0-.1h-.1c0,0-.2,0-.2,0-1,.3-1.9.2-2.9.1-1.1-.1-2.2-.2-3.4-.3-1.3-.1-2.5-.5-3.5-1.4-.2-.2-.5-.5-.7-.7-.6-.6-1.1-1.2-1.6-1.9-1.2-1.8-2-3.8-3-5.7,0-.1,0-.2-.1-.3-.4-1.4-1.1-2.6-2-3.8-.4-.5-.6-1-.9-1.6,0-.2-.1-.4-.2-.6-.5-1.4-1.1-2.9-1.6-4.3,0-.2-.2-.3-.3-.5-.5-.8-1-1.6-1.5-2.4-.2-.3-.3-.6-.4-.9-.5-1.5-.8-3-.5-4.6,0-.3,0-.6,0-.9,0-.4,0-.8,0-1.2,0-.6-.1-1.2-.6-1.6-.6-.6-.8-1.4-1-2.2,0-.6-.2-1.3-.3-1.9-.1-.5-.1-1.1,0-1.6.3-1.4.3-1.4,1.7-1.4,1,0,2,0,2.9,0,1.5,0,2.9.3,4.2.8,2.4.9,4.6,2.2,6.6,3.9.2.2.3.4.4.7.2.9.5,1.9.7,2.8,0,.4.2.6.6.7,0,0,.2,0,.3.1,1.7.9,3.4,1.8,5.1,2.7.5.3,1,.6,1.2,1.1,0,0,0,0,0,.1,2.7,1.7,5.2,4.1,6.6,7.5,0,0,0,0,0,0,.3.7.6,1.5,1,2.2.5,1.1.9,2.1,1.4,3.1.8,1.6,2,2.7,3.7,3.3,2.1.8,4.2,1,6.4.8.6,0,1.2-.3,1.6-.8.5-.5.5-1.1-.1-1.4-1.3-.8-2.6-1.6-4-2.3-.4-.2-.9-.4-1.3-.6-1.2-.5-2.3-1.2-3.2-2.2-.2-.3-.5-.5-.9-.8.2,0,.4,0,.5,0,.6,0,1.2-.3,1.7-.7.3-.3.7-.5,1-.8.2-.2.5-.3.8-.2.9.2,1.6.6,2.4,1.1,1.1.7,2.2,1.3,3.4,1.5,1.1.2,2.2.2,3.3.1,2.3-.1,4.6-.4,6.9-.9.8-.2,1.7-.5,2.4-1,1.1-.7,2-1.5,2.9-2.4.6-.6.9-1.4.9-2.3,0-1,0-1.9,0-2.9v-.5c.7-.1,1.3,0,1.8.3.8.4,1.6.8,2.4,1.1.9.4,1.1.6,1.1,1.6,0,1.2,0,2.4,0,3.5,0,1.2-.4,2.4-.9,3.5-1,2.1-2,4.3-3.4,6.1-1.2,1.6-2.4,3-3.7,4.4-1,1.1-2,2.2-3,3.2-.6.5-1.2.9-1.9,1.3-1,.5-2,.8-3.2.6-1.2-.1-2.4-.2-3.6-.3-.5,0-.9-.2-1.3-.5-.3-.3-.7-.6-1.1-.9-1.2-1.1-2.7-1.8-4.4-2-.6,0-1.1-.2-1.6-.6-.5-.3-1.2-.3-1.8-.2-.1,0-.2,0-.4,0,0,0,0,0-.1,0-.2-.5-.5-.9-.7-1.4h0c-.3-1.1-1-1.8-2-2.3-1-.5-1.8-1.3-2.3-2.3-.3-.6-.7-1.1-1-1.7-.7-.6-1.4-1.5-.9-.4.2.2.4.4.6.7.2.3.3.6.5.9,0,.2.2.3.3.5.6,1.1,1.5,1.9,2.5,2.5,0,0,0,0,0,0,.5.3.9.6,1.2,1.1.2.2.3.5.4.8.2.5.4,1.1.7,1.6.3.5.3,1,0,1.5,0,.2-.2.4-.2.5,0,.1-.2.2-.3.4-.3.3-.7.6-1,.9-.4.4-.8.9-1.2,1.4,0,0,0,0,0,0,0,0,0,0,0,0-.4.5-.8.6-1.5.4-.6-.2-1.2-.2-1.8-.3h0c-1.3-.1-2.4.4-3.6.8,0,0-.2.2-.2.3,0,0,.1,0,.2,0,.1,0,.2,0,.3,0,.6-.2,1.1-.4,1.7-.6.9-.3,1.8-.3,2.7,0,.4.1.8.2,1.2.3.8.1,1.4-.1,1.9-.7s1-1.2,1.6-1.7c.2-.2.4-.3.6-.4.3-.1.6-.2,1-.3,0,.2.2.4.2.6.3.9.7,1.6,1.5,2.2.6.5.9,1.1,1.2,1.7.5,1.1,1,2.1,1.6,3.1.5.7.6,1.6.4,2.4,0,0,0,0-.1,0-.1,0-.3,0-.4,0-1.2,0-2.4,0-3.5.4-.3.1-.7,0-1.1,0,.2-.5,0-.8-.5-1-.5-.2-1-.4-1.5-.5-1.4-.3-2.9-.4-4.3-.4-1,0-2,0-3,.1,0,0-.2,0-.3,0,0,.2,0,.3.2.4.5.9,1.1,1.8,1.7,2.6.3.3.5.5,1,.4,1.1-.2,2.1-.4,3.2-.6,1-.2,2.1-.4,3.1-.1,1.7.5,3.5.6,5.2-.1.6.5,1.3.6,2.1.4,0,0,.1,0,.2,0h0c.1,0,.2-.1.3-.2,0-.1.1-.3.2-.6,0-.6,0-1.1,0-1.7,0-.8-.3-1.5-.8-2.1-.6-.7-1.1-1.4-1.6-2.2-.7-1-1.4-1.9-2.4-2.6-.5-.3-.8-.7-1.1-1.2-.3-.6-.6-1.2-.9-1.9-.2-.3,0-.6.2-.8.6.1,1.2.3,1.7.4.8.1,1.4.4,2,.9.5.4.9.8,1.3,1.2.9,1,2,1.4,3.3,1.4,1.4,0,2.9.1,4.3.3,1.5.2,2.9,0,4.3-.6,1.4-.6,2.6-1.6,3.5-2.8.9-1.1,1.8-2.2,2.7-3.3.8-.9,1.6-1.9,2.2-2.9,0,0,0,0,0-.1.1-.2.2-.4.4-.6,1.2-1.9,2.2-3.8,3.2-5.8.6-1.2,1-2.4,1-3.7,0-1.3,0-2.6.1-3.9,0-.9-.3-1.4-1.2-1.8h0ZM47.1,127.9c-1.1.3-2.2.3-3.3.1-.5,0-1,0-1.5-.1-.6,0-1.1.2-1.4.7-.4.6-.8,1.2-1.1,1.9-.6,1.6-1.2,3.3-1.4,5-.3,1.9-.3,3.8,0,5.7.2,1.3.6,2.6.9,3.8,0,.1,0,.2.1.4-.3-.2-.5-.3-.6-.4-.4-.3-.8-.6-1.2-.9-1.4-1-2.9-1.8-4.6-2.4-1.5-.5-3-.8-4.5-.8-1.3,0-2.6,0-3.9.1,0,0-.2,0-.3,0,0,0,0-.2.1-.3.2-.5.5-1,.7-1.5,1.6-3,3.5-5.8,5.9-8.3,3-3,6.6-5,10.7-6.2,2.4-.7,4.8-1.1,7.2-1.1s4.5,0,6.7,0,4.4.3,6.6.9c1.1.3,2,.8,2.8,1.4,1.7,1.4,3.2,2.9,4.6,4.5.5.6,1,1.2,1,2.1,0,.4,0,.7,0,1.1-.2,0-.2,0-.3,0-2.4.2-4.8.4-7.2.6-1,0-2,.1-3.1-.1,0-1.1-.5-2.1-.2-3.3.2-.9,0-1.2-.9-1.5-.2,0-.5-.1-.8-.2-1.9-.3-3.8-.4-5.7-.2-.3,0-.6,0-.8-.2-.3-.2-.6-.4-.8-.6-.5-.4-1.1-.6-1.7-.6-.6,0-1.3,0-1.9.2h0ZM50.7,154.2c0,.2-.1.3-.2.5-.6-.4-.7-.8-.7-1.4-.2-1.9-.4-3.8-.3-5.8,0-.9.2-1.8.6-2.6.4-1.1.9-2.2,1.4-3.4.3-.7.5-1.4.8-2.1.3-.9.8-1.6,1.5-2.3.7-.7,1.5-1.3,2.2-1.9.9-.7,1.9-1,3.1-.8.2.5.1,1,0,1.5-.3.8-.7,1.6-1.1,2.4-.6,1.1-1.2,2.2-1.5,3.5-.7,2.1-1.6,4.1-2.6,6.1-1.1,2.1-2.2,4.1-3,6.3h0ZM61.5,165.8c1.5.7,2.8,1.6,4.1,2.5,0,0,0,0,.1,0,.2.2.7.4.5.9,0,.3-.7.8-1.1.7-.8-.1-1.6-.2-2.4-.4-1.5-.5-2.7-1.4-3.6-2.7-.9-1.5-1.8-3-2.7-4.5,1.1-.1,1.6.5,2.2,1.1.8,1,1.7,1.7,2.9,2.2h0ZM58.5,162.2c-.5,0-.9-.2-1.2-.6-.3-.4-.6-.7-1-1.1-.2-.2-.4-.2-.7,0,.1.3.3.6.4.8-.7-.6-1.5-.9-1.7-1.9,2.5,0,4.8.4,7.3,1.2-1,.8-1.7,1.7-3,1.7ZM83,153.1c-1,.3-2,.6-2.9.9-2,.7-4,.9-6.1.9-1,0-1.9,0-2.9,0-.7,0-1.4.1-2,.6-1.2.9-2.6,1.6-3.9,2.4-.9.6-1.8,1.2-2.7,1.9-.5.4-.8.4-1.4.3-1.2-.3-2.4-.5-3.6-.8-.6-.1-1.2,0-1.8-.1-.2,0-.5,0-.7,0-.5,0-.7-.2-.9-.7s-.6-.9-.9-1.3c-.1-.2-.3-.3-.5-.5.3-.4.6-.8.9-1.1,1.4-1.5,2.9-2.9,4.3-4.4,1.4-1.4,2.9-2.7,4.2-4.2,2.1-2.3,4-4.7,6-7.1,1.2-1.4,2-3.1,2.7-4.8,0-.2.2-.4.3-.7,1.1.7,1.9,1.6,2.4,2.6.6,1.2,1.1,2.4,1.7,3.6.1.3.2.6.4.9.5,1.4,1.4,2.6,2.4,3.6,1,1.1,2,2.1,2.9,3.2.9,1.1,1.6,2.3,2.4,3.5.2.3.3.6.4,1-.2,0-.3.1-.5.2ZM64.6,188.3c-.6,0-1.1,0-1.7.1,0,0,0,0,0-.1.6-.2,1.1-.4,1.7-.2,0,0,0,.1,0,.2ZM54.8,163.4c0,.4.2.8.3,1.1,0-.4-.1-.8-.3-1.1ZM54.8,163.4c0,.4.2.8.3,1.1,0-.4-.1-.8-.3-1.1Z"/>
    <path class="st1" d="M33,87c0,.6,0,1.3.2,1.9.2.7.5,1.4.6,2.2,0,.2.2.4.3.6.4.4.6.9.6,1.5,0,.4.2.7.5.9.2.3.5.7.6,1.1.5,1.8,1,3.7,1.5,5.5.2.7.2,1.3,0,2-.1.8-.3,1.5-.3,2.3,0,.6-.3.9-.8,1.2-1.5.9-3,1.4-4.7,1.8-.5.1-1,.3-1.4.5-.6.3-1.1.5-1.8.5-1.8,0-3.6,0-5.4.1-1.3,0-2.5,0-3.8-.4-.3,0-.5-.1-.8-.1-1.3,0-2.4-.6-3.4-1.3-.7-.5-1.3-1.1-1.7-1.9-.3-.6-.6-1.2-1-1.8-.4-.8-.4-1.7-.2-2.5.4-1.5.8-2.9,1.3-4.3.2-.7.6-1.3.9-1.9-.1-.1-.3-.2-.4-.4-.3-.3-.6-.6-.9-1-.3-.4-.6-.8-1.1-1-.6-.3-.9-.7-.8-1.4.1-1.1.4-2.2,1.3-3,1.1-1.1,2.2-2.2,3.4-3.3,1.2-1.2,2.7-2.2,4.2-3.1,1.3-.8,2.6-.8,4.1-.7.2,0,.5,0,.7,0,.6,0,1.1,0,1.6-.4.2-.2.5-.2.8-.3,1.2-.4,2.3-.8,3.5-1.2.5-.2,1.1-.2,1.7-.3.5,0,1.1,0,1.6,0,.4,0,.7,0,.9.5.7,1.3.9,2.7.9,4.2,0,.9-.4,1.6-1.1,2.2-.5.4-1,.7-1.7,1h0ZM14.6,94.7c.7-.8,1.3-1.5,2-2.3,1-1.1,1.8-2.4,2.2-3.9.3-.8.6-1.7,1-2.5.4-.9,1-1.4,1.9-1.7,1.2-.4,2.4-.9,3.6-1.3.5-.2.8-.5,1.1-.9-.3-.3-.6-.2-.9-.2-.8,0-1.6,0-2.4-.2-.5-.2-1-.1-1.5,0-1.5.6-2.9,1.4-4.1,2.4-1.6,1.4-3.1,2.9-4.7,4.3-.8.8-1.2,1.7-1.3,2.8,0,.5.1.9.6,1.1.5.3.9.7,1.2,1.2.3.4.7.8,1.1,1h0ZM15.1,94.8v.2c.2,0,.4,0,.4-.2.4-.4.8-.8,1.2-1.2.5-.6,1-1.2,1.6-1.7.9-.8,1.9-1.5,2.8-2.3.3-.3.6-.6.9-.9.5-.6.9-1.1,1.4-1.7.5-.5.8-1.1,1-1.8-1.1.2-2,.5-2.7,1.3-.5.7-1.1,1.3-1.5,2-1,1.7-2.1,3.2-3.6,4.5-.6.6-1.2,1.3-1.8,1.9h0ZM27.1,81.7c1.6,1,2.4,2.6,3.6,3.9-.3-1.7-.6-3.3-1.6-4.6-.7.2-1.3.3-2,.8h0ZM31.3,80.3c-.5.2-1,.3-1.5.4.8,1.1,1.6,2.1,2.3,3.2,0,0,0,0,.1,0-.3-1.2-.6-2.3-.9-3.5h0ZM33.6,80.1c-.4,0-.7,0-1,0,.4.5.8,1.1,1.2,1.7,0,0,0,0,.1,0-.1-.5-.2-1-.3-1.5ZM32.7,86c-.5-.5-.8-1-1.2-1.4,0,.6.1,1.2.4,1.8.3-.1.5-.2.8-.3ZM33.1,82.8c.2.7.3,1.3.5,2,.3-.5.4-.9.3-1.4-.3-.2-.5-.4-.9-.6h0Z"/>
  </g>
</svg>