<?xml version="1.0" encoding="UTF-8"?>
<svg xmlns="http://www.w3.org/2000/svg" viewBox="0 0 211.89 202.08">
  <defs>
    <style>
      .cls-1 {
        fill: #fff;
      }

      .cls-2 {
        fill: #f7901e;
      }

      .cls-3 {
        stroke: #231f20;
        stroke-miterlimit: 10;
        stroke-width: .72px;
      }
    </style>
  </defs>
  <g id="Layer_2" data-name="Layer 2">
    <g>
      <path class="cls-3" d="M84.96,98.5c-.04,3.85-.08,7.62-.11,11.38-.04,3.77-.25,7.54-.17,11.31.05,0,.09.01.14.02.05-.34.12-.69.16-1.03.52-4.82,2.4-9.02,5.69-12.58.38-.41.75-.82,1.16-1.19.47-.42,1.02-.71,1.68-.72.56,0,.96.24,1.13.76.13.4.23.82.23,1.23,0,2.06-.03,4.13-.06,6.19-.03,1.53-.08,3.06-.12,4.6,0,.12.03.24.15.36.14-.78.28-1.56.42-2.33.54-2.96,1.86-5.54,3.76-7.84.74-.9,1.65-1.61,2.68-2.16.2-.1.4-.2.6-.28,1.2-.46,2.09-.03,2.36,1.22.14.66.18,1.37.13,2.05-.22,2.59-.51,5.17-.76,7.76-.22,2.21-.44,4.42-.62,6.63-.11,1.37-.16,2.75-.24,4.12,0,.18,0,.36.01.53.08.61.43.76.9.36.76-.65,1.5-1.32,2.25-1.98.12-.1.22-.25.36-.29.17-.05.36-.02.54-.02-.01.18,0,.37-.04.55-.01.07-.11.13-.18.19-.77.67-1.53,1.35-2.3,2.02-.45.39-.88.72-1.55.39-.67-.33-.86-.85-.82-1.52.11-1.88.16-3.77.33-5.65.27-2.94.62-5.87.92-8.81.15-1.5.29-3.01.37-4.51.03-.59-.02-1.2-.15-1.78-.17-.72-.56-.88-1.25-.58-1.21.52-2.2,1.33-3.02,2.35-1.91,2.36-3.12,5.03-3.62,8.04-.52,3.14-.85,6.29-1.05,9.46-.04.58-.1,1.15-.18,1.72-.03.22-.08.44-.19.63-.06.11-.26.2-.38.18-.12-.01-.29-.15-.33-.26-.07-.23-.08-.48-.08-.72.05-3.78.1-7.55.16-11.33.05-2.71.14-5.42.19-8.13.01-.62-.04-1.24-.13-1.85-.1-.63-.35-.75-.93-.46-.31.16-.62.37-.86.61-3.38,3.39-5.59,7.39-6.21,12.17-.38,2.91-.62,5.83-.93,8.74-.03.24-.06.48-.13.72-.07.23-.25.42-.49.34-.16-.05-.32-.23-.38-.4-.07-.2-.04-.44-.05-.66-.19-6.06-.09-12.12.05-18.19.08-3.35.11-6.71.14-10.06,0-.61.33-.95.82-1.33Z"/>
      <path class="cls-3" d="M74.41,62.28c0,.4,0,.7,0,1.01-.01.49-.02.98-.05,1.46-.02.27-.15.46-.46.47-.28,0-.45-.18-.48-.53-.03-.49-.01-.98-.07-1.46-.04-.35-.18-.69-.28-1.03-.2-.67.12-1.04.81-.93.26.04.52.12.77.2,2.88.9,5.83,1.17,8.82,1,2.22-.12,4.43-.37,6.59-.89.6-.14,1.2-.32,1.8-.48.15-.04.3-.09.45-.1.48-.04.72.3.5.72-.16.29-.38.55-.58.81-2.45,3.09-5.29,5.75-8.69,7.78-.07.04-.13.11-.24.19.25.19.49.08.71.08,2.78-.07,5.5.25,8.06,1.43.76.35,1.51.77,2.19,1.26,3.01,2.15,4.01,5.58,2.66,9.02-.55,1.4-1.39,2.63-2.35,3.77-1.14,1.34-2.43,2.53-3.83,3.6-1.2.92-2.45,1.76-3.66,2.66-.87.65-1.76,1.29-2.58,2-2.85,2.45-5.18,5.36-7.36,8.39-.89,1.24-1.72,2.54-2.53,3.84-1.65,2.66-2.83,5.53-3.6,8.56-.05.19-.08.41-.19.56-.08.12-.31.22-.43.19-.12-.03-.27-.24-.28-.38-.01-.24.07-.48.13-.72.51-2.17,1.26-4.26,2.29-6.23,2.61-5,5.93-9.49,9.93-13.45,1.38-1.37,2.9-2.6,4.52-3.71,1.83-1.25,3.64-2.55,5.25-4.09,1.26-1.2,2.39-2.5,3.25-4.03.59-1.06.99-2.18,1.08-3.4.19-2.58-.89-4.57-2.96-6.05-2-1.43-4.29-2.1-6.71-2.36-1.78-.19-3.55-.12-5.32.12-.32.04-.65.14-.95.27-1.68.77-3.4,1.41-5.17,1.92-.3.09-.61.18-.91.17-.18,0-.42-.17-.5-.33-.06-.11.07-.38.19-.5.18-.18.43-.31.66-.45,1.46-.85,3.06-1.31,4.71-1.58.96-.16,1.82-.51,2.66-.98,3.45-1.95,6.38-4.5,8.85-7.59.04-.05.08-.1.12-.16.02-.04.03-.08.07-.23-5.62,1.28-11.22,1.74-16.92.14Z"/>
      <path class="cls-3" d="M141.64,120.31c-.51,1.37-1.04,2.69-1.77,3.91-.5.84-1.07,1.64-1.8,2.3-1.18,1.06-2.31.89-3.03-.53-.3-.6-.41-1.3-.59-1.96-.04-.14-.06-.29-.09-.44-.07.03-.13.05-.13.07.05.71-.27,1.3-.66,1.84-.47.64-.93,1.31-1.5,1.85-.45.43-1.04.76-1.61,1.03-.82.4-1.68.37-2.52.03-1.5-.62-2.71-1.59-3.55-2.99-.19-.31-.38-.62-.57-.93-.04.01-.08.03-.13.04-.01.21-.03.42-.04.63-.02,1.15-.05,2.31-.06,3.46,0,.33.06.65.11.98.05.31-.08.56-.35.61-.24.05-.45-.12-.48-.42-.03-.24-.02-.49-.02-.73.02-1.8.06-3.6.07-5.4,0-1.4-.04-2.79-.05-4.19,0-.31.04-.62.04-.93.08-3.51.13-7.02.23-10.52.04-1.6.16-3.19.23-4.79.01-.24.04-.47.35-.46.28.01.35.23.35.47-.02.75-.04,1.51-.06,2.26-.11,4.04-.22,8.08-.34,12.12,0,.1.02.21.03.4.18-.13.29-.21.42-.29.55-.33,1.07-.73,1.66-.96,1.06-.41,1.72.19,1.5,1.29-.16.83-.56,1.55-1.09,2.18-.69.81-1.44,1.57-2.16,2.35-.07.08-.16.15-.29.26,1,1.7,1.81,3.52,3.66,4.54,1.5.83,2.66.77,3.98-.36,1.1-.95,1.79-2.19,2.41-3.48.39-.82.57-1.62.49-2.54-.11-1.19-.07-2.4-.1-3.59-.01-.47.09-.66.37-.64.27.02.36.24.38.65.11,2.28.2,4.57.37,6.84.04.55.28,1.12.56,1.61.46.8.92.84,1.62.25.76-.64,1.3-1.45,1.81-2.29,1.01-1.68,1.53-3.53,1.99-5.42.14-.58.28-1.16.43-1.75.04-.15.06-.32.15-.44.08-.11.25-.22.37-.2.12.01.28.15.33.27.06.15.05.35.04.52-.03.82-.1,1.64-.11,2.46,0,1.46-.02,2.93.04,4.39.07,1.96.11,3.91-.33,5.83-.33,1.42-.95,2.72-1.75,3.93-.81,1.21-1.97,1.93-3.36,2.22-1.34.28-2.7.55-4.07.66-4.06.33-8.12.34-12.18.08-3.17-.2-6.35-.13-9.52.03-1.31.07-2.62.11-3.93.16-2.06.08-4.13.17-6.19.24-.2,0-.4,0-.59-.04-.1-.03-.24-.17-.24-.26,0-.09.13-.25.23-.27.21-.06.44-.05.66-.06,2.49-.1,4.97-.19,7.46-.3,3.46-.16,6.92-.32,10.39-.21,2.09.07,4.17.21,6.26.25,3,.05,6-.04,8.98-.4,1.03-.13,2.05-.39,3.06-.64,1.06-.26,1.84-.93,2.46-1.83,1.23-1.79,1.85-3.79,1.94-5.94.05-1.37,0-2.75-.03-4.13-.02-.91-.05-1.81-.08-2.72ZM123.65,121.82c.17-.07.24-.08.28-.12.7-.83,1.43-1.63,2.09-2.5.27-.36.42-.83.54-1.28.14-.53-.09-.7-.62-.52-.89.31-1.56.91-2.14,1.64-.09.11-.14.28-.14.43-.01.75,0,1.51,0,2.35Z"/>
      <path class="cls-3" d="M106.03,81.07c-.06.09-.13.17-.18.26-1.45,2.55-2.9,5.1-4.34,7.65-.17.31-.32.63-.48.95-.11.22-.27.36-.53.25-.23-.1-.26-.31-.18-.51.12-.31.26-.62.42-.9,1.17-2.1,2.34-4.19,3.51-6.28.59-1.05,1.19-2.08,1.76-3.14.17-.32.3-.69.34-1.06.27-2.32.49-4.64.77-6.95.23-1.85.56-3.69,1.19-5.45.13-.37.3-.74.5-1.09.32-.55.77-.98,1.36-1.23.63-.27,1.17-.16,1.64.33.64.67.87,1.48.82,2.38-.07,1.05-.36,2.05-.7,3.04-.91,2.63-2.22,5.08-3.56,7.51-.06.12-.13.23-.2.35-1.1,1.98-1.11,1.98-1.18,4.27-.06,2.06-.08,4.13-.13,6.19-.12,4.15-.25,8.3-.37,12.45,0,.31-.03.62,0,.93.03.33.06.67.16.98.06.19.21.45.37.49.13.03.39-.17.5-.33.93-1.43,2.02-2.77,2.73-4.34.06-.14.15-.28.24-.4.15-.18.34-.3.58-.15.21.14.18.33.09.53-.2.42-.37.86-.62,1.25-.77,1.2-1.56,2.38-2.35,3.55-.12.18-.29.35-.46.47-.61.41-1.33.28-1.65-.37-.22-.44-.35-.96-.4-1.46-.06-.59-.02-1.2,0-1.8.08-3,.16-5.99.25-8.99.08-3.02.16-6.04.25-9.06,0-.11,0-.21,0-.32l-.13-.03ZM107.55,76.63c1.64-2.99,3.23-5.9,4.05-9.16.13-.53.16-1.09.19-1.64.02-.48-.18-.91-.47-1.29-.32-.43-.56-.47-1.02-.17-.42.28-.73.66-.9,1.12-.28.75-.55,1.5-.74,2.27-.73,2.85-.92,5.77-1.24,8.68,0,.03.04.06.13.19Z"/>
      <path class="cls-3" d="M126.16,78.75c0-.5,0-.88,0-1.26-.09-3.49.11-6.97.51-10.44.07-.64.11-1.28.2-1.92.04-.28.1-.58.22-.83.19-.39.51-.39.93-.02-.4.4-.4.94-.44,1.46-.34,4.03-.75,8.05-.6,12.1,0,.24,0,.48,0,.79.28-.03.47-.06.66-.08.29-.03.58-.06.86-.05.1,0,.25.14.27.23.01.09-.09.25-.18.31-.13.08-.29.1-.44.13-.35.07-.7.13-1.12.2,0,.24,0,.48,0,.71.2,4.26.24,8.52.2,12.79-.02,2,.09,3.99.16,5.99.01.38.08.75.16,1.12.07.32.12.66.42.89.43-.11.68-.44.9-.76.84-1.25,1.73-2.48,2.46-3.8.94-1.71,1.73-3.5,2.59-5.25.23-.48.5-.94.75-1.41.06-.11.14-.25.25-.31.16-.08.38-.15.53-.11.11.03.19.27.21.43.02.17-.06.35-.09.52-.37,2.17-.69,4.34-.59,6.55.01.33.07.66.12.99.16,1.02.81,1.67,1.68,2.09.29.14.7.14,1.03.07.98-.2,1.81-.72,2.58-1.33.19-.15.38-.33.59-.42.13-.06.32.03.49.05-.03.16,0,.38-.09.47-1.13,1.08-2.41,1.88-4.02,2.01-.43.04-.83-.09-1.2-.32-1.18-.71-1.88-1.71-1.99-3.12-.09-1.2-.05-2.4.09-3.59.04-.39.08-.78.11-1.17-.05-.02-.1-.03-.15-.05-.1.2-.22.4-.31.61-.89,1.94-1.88,3.83-3.04,5.62-.37.58-.78,1.13-1.19,1.69-.16.21-.34.41-.53.6-.4.41-.83.78-1.46.6-.63-.18-.83-.73-.91-1.28-.15-1.01-.3-2.03-.32-3.04-.05-2.66,0-5.33-.04-7.99-.05-3.15-.15-6.3-.23-9.46,0-.09-.02-.17-.04-.29-.28-.11-.55-.03-.83,0-.34.04-.69-.03-1.03-.09-.09-.02-.2-.2-.2-.3,0-.1.13-.24.24-.28.16-.06.35-.05.52-.06.41-.02.83-.03,1.31-.05Z"/>
      <path class="cls-3" d="M114.89,126.97c-.75.31-1.39.59-2.05.85-.77.29-1.54.56-2.31.84-.08.03-.17.05-.26.06-.74.13-1.44.09-1.93-.57-.49-.65-.28-1.31.05-1.94.39-.75.97-1.32,1.64-1.82,1.44-1.08,3.02-1.88,4.77-2.29.5-.12.75-.32.81-.85.08-.7.27-1.39.38-2.09.06-.37.09-.75.06-1.12-.05-.51-.33-.75-.85-.73-.96.04-1.8.41-2.54,1.03.03.25.45.42.13.7-.22.19-.79.19-1.01.01-.23-.19-.24-.44-.09-.66.17-.25.38-.5.62-.69.76-.6,1.64-.97,2.61-1.1,1.24-.17,2.06.53,2,1.77-.03.66-.2,1.31-.3,1.97-.1.65-.36,1.29-.23,1.97-.43.98-.37,2.04-.51,3.07-.09.63-.09,1.29-.06,1.93.03.67.31.86.97.7,1.33-.31,2.54-.92,3.67-1.69.2-.13.33-.36.51-.52.11-.1.24-.21.37-.24.32-.07.51.18.35.49-.14.27-.33.54-.57.71-.52.37-1.07.73-1.65,1-.76.35-1.56.64-2.35.92-.24.09-.52.1-.79.1-.68,0-1.12-.37-1.29-1.03-.05-.21-.08-.43-.14-.77ZM114.93,126.21c.12-1.09.25-2.27.38-3.44-.11-.03-.15-.05-.19-.04-.17.04-.34.08-.51.13-1.53.46-2.92,1.2-4.16,2.19-.44.36-.81.82-1.17,1.26-.16.2-.26.47-.33.72-.17.63.18,1.07.83,1.03.28-.02.58-.08.84-.18.99-.38,1.97-.8,2.96-1.19.42-.17.86-.3,1.35-.48Z"/>
      <path class="cls-3" d="M90.2,97.6c.02-1.86.53-3.54,1.78-4.96.64-.73,1.42-1.27,2.39-1.46,1.38-.27,2.48.21,3.37,1.26.74.88,1.09,1.93,1.2,3.05.2,2.02-.26,3.88-1.48,5.52-.48.65-1.08,1.17-1.82,1.52-1.38.65-2.84.41-3.92-.66-.98-.97-1.38-2.2-1.51-3.53-.02-.24,0-.49,0-.73ZM98.2,96.42c-.06-.51-.09-1.02-.19-1.51-.18-.86-.52-1.65-1.15-2.28-.76-.76-1.65-.98-2.68-.63-.79.27-1.37.8-1.85,1.46-1.05,1.45-1.44,3.08-1.3,4.84.08.98.35,1.92.97,2.72.94,1.23,2.34,1.49,3.65.66.57-.36,1.02-.85,1.38-1.42.75-1.17,1.11-2.46,1.18-3.84Z"/>
      <path class="cls-3" d="M113.25,98.46c0-1.64.38-3.18,1.41-4.48.38-.48.87-.9,1.38-1.23,1.23-.77,2.66-.61,3.78.32.78.65,1.26,1.5,1.51,2.46.56,2.09.31,4.1-.78,5.98-.41.7-.94,1.29-1.65,1.71-1.45.87-3.09.66-4.24-.58-.9-.97-1.28-2.16-1.41-3.45-.02-.24,0-.49,0-.73ZM120.78,97.71c.01-.87-.1-1.73-.44-2.54-.14-.33-.3-.65-.5-.94-1.08-1.56-2.94-1.65-4.18-.22-1.36,1.56-1.77,3.39-1.53,5.4.12.99.45,1.9,1.1,2.67.94,1.11,2.27,1.26,3.44.4.62-.46,1.07-1.06,1.4-1.75.47-.95.7-1.96.71-3.02Z"/>
      <path class="cls-3" d="M84.64,88.82c.04-1.26.08-2.52.11-3.79.01-.6,0-1.2-.02-1.8-.02-.37-.06-.75-.15-1.12-.26-1.11-.82-1.49-1.94-1.22-.68.16-1.36.4-2,.7-2.63,1.23-5,2.87-7.13,4.84-.41.37-.78.79-1.12,1.23-.25.33-.46.71-.62,1.09-.23.56-.11.91.34,1.29.1.09.23.15.31.25.06.08.11.23.08.29-.06.1-.19.18-.3.2-.12.01-.26-.04-.38-.1-.77-.39-1.14-1.19-.85-2.01.17-.49.41-.99.74-1.4.51-.64,1.08-1.24,1.69-1.78,2.23-1.96,4.66-3.61,7.4-4.79.73-.31,1.49-.59,2.3-.61,1.08-.03,1.77.41,2.15,1.43.14.39.26.82.26,1.23.02,1.71-.02,3.41-.02,5.12,0,.56-.52.65-.73,1.01-.04-.03-.09-.05-.13-.08Z"/>
      <path class="cls-3" d="M138.3,82.25c.32,0,.48.19.4.41-.07.18-.19.35-.31.51-.74,1.02-1.5,2.04-2.23,3.07-.17.24-.29.54-.37.83-.07.24-.22.37-.42.29-.15-.06-.33-.25-.36-.4-.03-.17.06-.4.16-.55.92-1.3,1.85-2.6,2.79-3.89.1-.13.26-.21.34-.26Z"/>
    </g>
    <g>
      <path d="M207.46,108.18c-.39-.22-.44-.82-.99-.55-.06.14-.1.32-.21.45-.09.09-.27.15-.4.13-.08-.01-.15-.19-.2-.3-.02-.05,0-.13.01-.2q.13-1.18-.28-2.32c-.14.1-.27.22-.41.27-.11.04-.29.03-.36-.04-.07-.07-.07-.24-.07-.36,0-.08.06-.18.12-.23.61-.53.42-1.14.19-1.8-.13.03-.25.1-.36.08-.14-.02-.34-.07-.37-.16-.04-.11.04-.35.13-.39.61-.26.5-.76.46-1.24-.02-.31-.03-.62-.04-.91-.21-.18-.67-.03-.61-.41.03-.18.35-.32.63-.57.04-.39.09-.91.14-1.45-.21-.06-.39-.09-.53-.17-.08-.04-.15-.18-.14-.26,0-.09.1-.21.19-.24.19-.06.39-.07.64-.1.2-.58.41-1.17.64-1.81-.2-.04-.38-.05-.54-.11-.09-.03-.22-.15-.21-.22.01-.11.09-.26.19-.31.13-.07.3-.09.45-.08.38.04.57-.15.71-.47.11-.26.26-.51.43-.83-.16-.12-.33-.21-.45-.34-.09-.1-.12-.25-.18-.38.15-.06.31-.18.45-.17.19.02.36.15.57.25.21-.17.43-.35.72-.58,0,.19.04.31.02.42-.24,1.26-.48,2.53-.74,3.78-.78,3.8-.72,7.58.36,11.32.02.06.02.12.04.28Z"/>
      <path d="M126.39,179.84c-.11.49-.2.92-.31,1.39.24.14.46.28.69.41.19.12.32.3.19.49-.07.09-.31.11-.46.08-.18-.04-.35-.16-.58-.27-.17.52-.33.99-.5,1.5.2.15.42.27.57.44.09.11.14.34.09.46-.08.2-.28.16-.45.05-.23-.15-.45-.42-.74.04.21-1.7.47-3.28.58-4.86.09-1.23.02-2.48-.04-3.72-.05-.95-.19-1.89-.3-2.84-.03-.24-.06-.5-.17-.71-.32-.62.05-1.05.36-1.5.12-.18.33-.29.5-.12.08.08.07.33.02.47-.08.22-.23.42-.36.65.22.2.42.38.64.58.24-.13.46-.26.7-.37.19-.09.41-.15.53.07.13.22-.03.37-.22.48-.21.12-.41.26-.65.4.03.14.06.27.09.39.21.8.21.79,1.04.93.14.02.35.16.37.28.04.24-.17.33-.39.35-.22.01-.44,0-.71,0v1.65c.96-.16,3.38-1.69,5.91-3.76.14.07.29.14.46.22-.04.09-.06.15-.1.2-.84.9-1.81,1.64-2.84,2.29-.65.42-1.34.78-2.01,1.18-.31.18-.69.26-.84.7-.05.13-.42.16-.71.25-.07.46-.15.97-.23,1.51.21.08.4.11.53.21.12.09.19.26.28.4-.14.07-.28.18-.43.2-.14.02-.3-.06-.53-.11Z"/>
      <path d="M161.21,183.44c.31.06.55.05.69.16.23.18.14.45.01.67-.23.41-.35.81-.09,1.29.09,0,.2-.05.3-.03.15.05.4.12.42.21.02.16-.06.38-.18.52-.1.13-.3.18-.47.28v1.23c.12,0,.22,0,.33,0,.22,0,.44.08.42.32-.01.16-.16.35-.31.46-.13.1-.33.1-.54.16-.07.38-.14.77-.21,1.18.17.1.35.16.45.29.11.14.21.35.19.5-.04.23-.27.26-.49.22-.11-.02-.21-.05-.36-.09-.19.42-.37.84-.57,1.29.14.1.26.19.38.27.25.17.28.41.13.64-.15.22-.38.19-.6.08-.16-.08-.3-.19-.44-.28-.68.53-.7.59-.49,1.39.03.11.1.23.07.32-.05.15-.15.35-.27.39-.12.04-.38-.04-.45-.15-.2-.32-.32-.66-.18-1.07.6-1.74.99-3.54,1.28-5.36.24-1.47.37-2.95.29-4.43-.03-.5-.12-1.01-.24-1.5-.09-.34.06-.56.26-.77.15-.15.37-.24.53-.06.1.11.1.31.13.47,0,.04-.03.08-.05.12-.31.48-.21.92.05,1.3Z"/>
      <path d="M15.21,137.8c-.55.32-.74-.2-1.13-.19-.15.16-.33.35-.53.56.09.21.18.41.27.6-.25.21-.39.06-.49-.07-.18-.23-.38-.26-.64-.18-.32.09-.64.15-1.01.24.03.1.07.18.06.25-.01.13-.05.26-.08.39-.1-.06-.23-.1-.31-.19-.1-.11-.16-.27-.25-.43-.41-.03-.82-.06-1.21-.09-.26.18.11.59-.41.68-.09-.23-.19-.49-.3-.78-.27-.07-.56-.15-.86-.23-.28-.08-.55-.17-.84-.26-.1.18-.18.35-.28.54-.53-.12-.14-.52-.28-.8-.33-.21-.7-.44-1.04-.66-.36.03-.31.73-.88.43.14-.27.27-.52.43-.82-.18-.22-.37-.45-.54-.65-.36-.08-.67.42-1.02-.07.25-.15.46-.28.69-.41-.03-.24-.07-.47-.11-.78.17.09.29.14.39.21,1.81,1.25,3.86,1.77,6.01,1.93.92.07,1.86.03,2.78,0,.63-.02,1.05.33,1.55.76Z"/>
      <path d="M71,45.35c.6.42.62.51.09.78-.21-.81-.42-1.62-.61-2.42-.64-2.6-1.78-4.97-3.39-7.09-.59-.77-1.32-1.43-1.99-2.14-.09-.1-.26-.15-.29-.26-.04-.14-.04-.37.04-.46.14-.16.33-.07.43.12.06.11.11.24.17.36.28.07.56.14.88.23.07-.18.1-.35.2-.48.06-.09.23-.17.32-.15.1.02.18.17.24.28.03.07-.01.17-.02.26q-.04.48.42.83c.07-.05.14-.14.22-.17.11-.04.27-.09.35-.03.09.06.14.22.14.34-.03.74-.04.74.37,1.31.2.05.51-.29.62.05.07.21-.07.48-.14.86.16.35.38.83.56,1.23.29.09.61.09.7.23.21.33-.23.39-.38.62.12.36.25.74.36,1.12.06.2.19.26.38.3.22.04.3.26.19.41-.45.55,0,1.04.03,1.55.66.17.67.23.26.74-.08.11-.12.27-.13.41-.02.4,0,.79,0,1.19Z"/>
      <path d="M53.28,104.71c-.09.22-.13.4-.22.53-.06.09-.25.19-.31.16-.11-.05-.25-.21-.25-.32,0-.21.11-.42.15-.64.03-.16.07-.37,0-.49-.23-.37-.51-.71-.89-1.24-.09.19-.12.35-.22.42-.1.08-.27.06-.4.09-.03-.16-.12-.35-.07-.47.09-.22.28-.39.44-.59-.18-.5-.37-.99-.57-1.53-.14.07-.27.16-.41.18-.11.02-.31,0-.34-.06-.05-.12-.06-.32,0-.41.15-.19.36-.32.57-.5-.06-.52-.12-1.07-.19-1.64-.23-.04-.45-.05-.65-.12-.09-.03-.17-.19-.19-.3,0-.07.11-.2.2-.22.19-.05.39-.05.67-.08.02-.33.04-.67.06-1.03-.25-.08-.47-.12-.66-.21-.09-.05-.18-.21-.17-.31.02-.09.16-.22.26-.23.24-.01.48.03.74.06.2,1.01.36,1.98.58,2.95.44,1.97,1.2,3.8,2.43,5.41.4.52.85,1.01,1.33,1.58-.15.03-.26.05-.43.08,0,.18.03.38-.01.57-.02.1-.15.24-.25.25-.1.01-.26-.08-.31-.18-.08-.15-.1-.34-.11-.51-.01-.53-.23-.93-.77-1.19Z"/>
      <path d="M98.61,7.07c2.36-2.06,5.95-2.67,8.81.02,1.19,1.12,2,2.48,2.29,4.11.04.22.06.44.06.66.02.81-.02.89-.75,1.54.04-.33.1-.63.11-.93.1-1.91-.72-3.44-2-4.76-.89-.91-1.96-1.51-3.23-1.73-1.38-.23-2.63.16-3.83.8-.19.11-.4.21-.57.35-.31.26-.59.27-.91-.07Z"/>
      <path d="M107.15,17.26c-1.69-.93-3.46-1.43-5.32-1.82.17-.2.3-.36.46-.55,1.79.37,3.51.89,5.11,1.78-.03.12-.03.19-.05.25-.05.1-.1.19-.19.34Z"/>
      <path d="M124.74,185.29c.2.23.35.36.44.52.04.07.03.23-.02.3-.05.07-.2.13-.28.1-.11-.04-.26-.15-.26-.24-.01-.19.06-.38.12-.68Z"/>
      <path d="M148.77,55.74c-.2.89-.8,1.14-1.57,1.19-2.34.15-4.21-.76-5.66-2.53-1.28-1.56-1.91-3.41-2.02-5.4-.35-6.49,2.55-11.17,8.12-14.3,1.18-.67,2.46-1.12,3.78-1.47.19-.05.38-.11.56-.17-.4-2.51-5.61-9.06-8.41-10.56-.06.26-.13.5-.19.75-.25.97-.7,1.82-1.5,2.46-.49.39-1.04.6-1.67.55-.47-.04-.49-.07-.55-.67.13.02.26.02.38.05.57.13,1.05-.07,1.48-.42.93-.78,1.26-1.85,1.39-3,.02-.13-.17-.36-.32-.44-.65-.34-1.3-.68-1.97-.96-.47-.19-.72-.53-.95-1.02,1.2.19,2.2.72,3.26,1.26,0-.76-.13-1.4-.29-2.04-.57-2.25-1.75-4.16-3.25-5.89-1.87-2.16-4-4.04-6.39-5.61-.87-.57-1.82-1-2.76-1.47-.73-.37-1.49-.69-2.3-1.06-.58.34-1.26.48-1.98.33-.72-.14-1.32-.51-1.8-1.11-.22.03-.43.08-.65.08-.6,0-.88-.36-.75-.94,0-.04.06-.1.05-.12-.33-.4-.02-.87-.14-1.29-.04-.14-.07-.35,0-.44.28-.34.61-.65.92-.97.09-.09.2-.16.29-.25.28-.29.52-.35.88-.19.08.04.18.07.22.14.35.6,1,.65,1.57.87,1.2.47,1.71,1.48,1.97,2.66.05.2-.04.43-.07.73.4.2.83.42,1.27.61,1.45.63,2.87,1.29,4.16,2.22,2.64,1.91,5.07,4.04,7.01,6.68,1.25,1.7,2.15,3.57,2.52,5.67.07.44.14.88.15,1.32.01.39.18.64.49.87,2.29,1.72,4.26,3.76,5.96,6.06.95,1.29,1.74,2.68,2.41,4.13.11.24.22.48.36.78.26-.02.52-.03.77-.07,2.58-.42,5.16-.49,7.76-.13,2.57.36,4.96,1.22,7.16,2.56,1.49.91,2.9,1.96,4.42,3,.39-.32.86-.72,1.35-1.08.5-.37,1.02-.7,1.57-1.07-.73-1.73-1.8-3.23-2.84-4.79.1-.07.18-.13.27-.17.1-.05.21-.08.37-.13,1.1,1.49,2.06,3.07,2.89,4.78.25-.09.45-.15.66-.23.95-.34,1.92-.53,2.94-.51,1.72.03,3.13.77,4.33,1.93.41.39.67.93,1.02,1.38,1.68,2.19,3.11,4.54,4.2,7.08.18.43.33.87.49,1.31.05.14.09.29.15.48-.18.1-.35.19-.53.29-.01.02-.04.06-.05.1-.04.23,0,.54-.34.55-.33.01-.39-.28-.4-.51-.02-.51-.35-.79-.75-1.05-.05.02-.1.05-.16.08-.15.07-.37.23-.42.19-.13-.11-.28-.32-.26-.48.05-.62-.22-1.06-.69-1.48-.11.11-.2.24-.32.3-.12.06-.34.13-.4.07-.11-.1-.2-.31-.16-.45.06-.23.21-.43.36-.71-.18-.29-.37-.61-.58-.95-.16.02-.31.08-.45.06-.14-.02-.35-.08-.38-.17-.04-.13.03-.32.1-.46.06-.11.19-.17.31-.27-.14-.41-.27-.81-.42-1.25-.1,0-.21.03-.31,0-.15-.05-.37-.12-.41-.23-.04-.12.05-.34.16-.45.24-.23.45-.44.22-.82-.28.01-.68.18-.74-.27-.06-.46.42-.44.69-.64.21-.5-.13-.86-.43-1.15-1.86-1.79-4.23-2.28-6.95-1.03-.02,0-.03.03-.07.09.78,2.38,1.89,4.71,1.89,7.41-.29-.16-.52-.29-.76-.42-.23-2.3-.92-4.49-1.84-6.73-1.04.54-1.91,1.2-2.75,1.99.13.16.23.3.34.42.92,1.02,1.85,2.04,2.77,3.07.22.24.37.54.61.88-.73.03-1.15-.25-1.56-.75-.81-1-1.7-1.93-2.56-2.88-.04-.04-.12-.05-.23-.1-.71.72-1.32,1.53-1.86,2.4-.12.19-.25.37-.33.58-.2.48-.57.56-1.09.52.34-.8.76-1.5,1.23-2.16.46-.65.97-1.26,1.5-1.95-2.49-2.1-5.17-3.84-8.3-4.79-3.54-1.07-7.13-1.01-10.75-.41.46,1.79.94,3.51,1.33,5.25.38,1.74.5,3.51.48,5.33-.11.05-.2.1-.3.13-.1.04-.21.06-.41.11.05-3.67-.59-7.17-1.91-10.56-.2.01-.35,0-.5.04-4.35,1.11-7.84,3.43-10.06,7.4-1.68,3.01-2.12,6.23-1.3,9.6.31,1.25.91,2.36,1.77,3.32,1.36,1.53,3.8,2.55,6.18,1.58.06-.02.13-.03.26-.06Z"/>
      <path d="M191.32,45.27c.18.04.38.05.51.14.12.09.23.27.23.42,0,.1-.18.23-.31.28-.24.1-.5.16-.81.25-1.38-3.42-3.48-6.5-5.98-9.32.35-.31.52-.34.6-.04.14.53.57.62.96.79.22-.14.19-.58.57-.47.34.1.29.42.26.67-.06.52.29.75.65,1.04.08-.06.15-.14.24-.19.28-.15.48-.07.55.22.02.06.03.14.01.2-.19.71.32,1.09.67,1.55.28,0,.47-.42.74-.12.25.28.07.53-.11.77-.04.05-.06.12-.11.22.18.35.38.72.58,1.11.12,0,.23-.02.33,0,.31.06.48.31.29.51-.39.4-.17.78-.08,1.17.06.26.13.51.19.79Z"/>
      <path d="M68.99,191.68c-.63-.86-1.25-1.7-1.88-2.56.2-.13.34-.23.51-.35.65.86,1.3,1.71,1.96,2.58.74-.37,1.31-.82,1.85-1.31,1.49-1.35,2.54-2.97,2.95-4.95.25-1.2.21-2.39-.19-3.55-.18-.51-.47-.99-.71-1.47.58-.1.69-.05.96.46.87,1.68.97,3.44.47,5.24-.65,2.35-2.1,4.13-4.05,5.53-.23.17-.46.33-.73.52.08.12.13.21.21.28,2.34,2.34,5.06,4.04,8.3,4.82,2.18.53,4.32.34,6.38-.57,1.59-.71,2.82-1.83,3.68-3.35.08-.15.15-.31.24-.52-.27-.16-.52-.29-.76-.44-2.4-1.42-4.05-3.43-4.7-6.18-.3-1.28-.23-2.51.46-3.67.76-1.27,1.98-1.66,3.31-1.01.99.48,1.73,1.23,2.27,2.18.67,1.18.98,2.47,1.07,3.81.12,1.59-.03,3.15-.63,4.65-.04.1-.06.21-.09.31,1.61,1.03,6.39,2.2,8.91,1.75-.07-.39-.14-.78-.21-1.17-.39-2.28.14-4.36,1.33-6.3.63-1.03,1.52-1.73,2.8-1.96-.08-.15-.13-.29-.21-.4-1.25-1.6-2.32-3.31-3.13-5.17-.14-.32-.38-.45-.67-.58-1.56-.69-3.13-1.36-4.66-2.12-1.24-.61-2.33-1.46-3.37-2.37-.78-.69-1.58-1.37-2.34-2.08-.51-.46-.98-.96-1.49-1.47.12-.21.22-.37.34-.58.11.1.19.17.26.24,1.83,1.89,3.76,3.66,5.95,5.11,1.58,1.05,3.32,1.78,5.08,2.48.07.03.16.02.32.05-.09-.28-.16-.51-.24-.73-.99-2.79-1.49-5.66-1.35-8.63.09-1.85.39-3.67,1.18-5.36,1.09-2.35,2.89-3.85,5.42-4.41,1.7-.37,3.36-.17,4.94.57,2.63,1.22,4.45,3.26,5.74,5.81,1.01,1.99,1.5,4.12,1.74,6.32.31,2.78.19,5.54-.42,8.28-.02.11-.04.22-.06.33,0,.02,0,.04.04.15.48-.06.99-.09,1.48-.18.9-.16,1.78-.35,2.68-.52.25-.05.39-.15.44-.41.07-.37.18-.73.28-1.12-.23-.16-.45-.29-.65-.46-.13-.11-.26-.25-.32-.41-.03-.09.04-.26.12-.34.05-.05.22-.03.29.02.24.14.46.31.76.52.26-.66.52-1.22.69-1.81.07-.23-.06-.52-.12-.77-.06-.28-.19-.55-.21-.83,0-.12.17-.26.27-.4.11.09.26.15.32.27.1.18.14.4.24.73.29-.49.61-.81.7-1.29.09-.47.33-.91.28-1.42-.01-.11.18-.25.28-.38.11.12.26.21.33.35.07.15.05.34.07.54.19-.06.36-.11.59-.19.1.48.24.93.28,1.38.15,1.59.16,3.18.08,4.78-.14,2.85-.7,5.63-1.19,8.42-.06.33-.09.66-.07.99.03.51-.08.97-.35,1.39-.95,1.53-1.9,3.05-2.85,4.58-.12.19-.25.36-.38.54,1.11.66,7,1.27,8.91.91-.05-.56-.06-1.13-.15-1.69-.18-1.09-.06-2.18.08-3.25.7-5.59,2.98-10.5,6.47-14.89.24-.3.47-.47.86-.16-.08.12-.15.24-.24.35-3.16,3.9-5.32,8.27-6.27,13.22-.36,1.91-.5,3.83-.2,5.76.03.19.08.39.13.65,4.47-.25,8.3-1.96,11.76-4.76-.76-2.39.45-3.78,2.47-4.76.04-.17.06-.35.11-.51.24-.79.63-.94,1.31-.46,1.19-2.22,2.53-4.33,4.36-6.16-2.42-1.29-4.75-2.64-6.81-4.53.49-.16.79-.08,1.12.19,1.72,1.42,3.62,2.57,5.59,3.59.18.09.36.17.57.26.35-.29.68-.57,1.02-.85,1.2-.97,2.46-1.84,3.91-2.37.54-.2,1.11-.36,1.67-.42,1.56-.18,3.06.5,3.42,2.66.13.8.11,1.63.16,2.53,1.73-.17,3.39-.75,5-1.51-.26-.77-.58-1.49-.73-2.23-.89-4.46.17-8.44,3.06-11.94.7-.84,1.5-1.58,2.43-2.17.88-.56,1.82-.93,2.88-.89.11,0,.22.02.34.04.1.3.08.49-.3.48-1.35-.03-2.44.6-3.43,1.43-2.59,2.18-4.09,4.98-4.61,8.31-.29,1.87-.21,3.72.42,5.52.13.37.31.72.5,1.17,3.03-1.69,5.37-3.87,6.33-7.28.1,0,.19-.02.27-.02.06,0,.13.03.23.05,0,.11,0,.21-.02.31-.49,1.72-1.35,3.23-2.59,4.52-.96,1-2.06,1.82-3.24,2.54-.19.12-.38.23-.59.36.28.6.73,1.03,1.21,1.41,1.45,1.16,3.11,1.45,4.9,1.13,1.91-.34,3.53-1.28,4.97-2.55.2-.17.36-.38.56-.59-1.33-1.12-1.31-2.47-.74-3.89.19-.48.32-.89.04-1.38-.18-.32-.11-.7.16-.99.29-.31.62-.29.94-.11.24-.17.48-.46.67-.44.51.07,1.04.02,1.51.16.32.09.6.37.98.44.27.05.6.91.53,1.21-.03.11-.05.23-.12.31-.52.62-.48,1.39-.65,2.11-.15.64-.4,1.28-.72,1.84-.43.76-1.08,1.25-2,.94-1.62,1.76-3.51,2.99-5.84,3.44-2.71.53-5.01-.19-6.72-2.45-.07-.09-.14-.17-.25-.29-1.73.83-3.54,1.41-5.51,1.68-.07.82-.38,1.58-.11,2.45.21.68.24,1.45.19,2.17-.11,1.88-.44,3.73-.91,5.56-.22.84-.51,1.65-.69,2.5-.11.51-.42.83-.75,1.14-.11.11-.4.16-.52.09-.11-.07-.21-.41-.14-.5.45-.58.18-1.07-.11-1.58-.05-.09-.09-.2-.15-.35-.17.07-.32.17-.48.18-.14.01-.36-.02-.41-.11-.08-.13-.03-.33-.04-.49,0-.02.02-.04.04-.05.79-.38.48-1.01.37-1.6-.03-.17-.05-.34-.07-.52-.22.05-.42.13-.61.12-.13,0-.34-.1-.37-.2-.04-.14.03-.33.1-.47.04-.08.18-.14.28-.17.59-.17.78-.6.77-1.16,0-.13.02-.26.03-.42-.23-.03-.44,0-.61-.08-.14-.06-.31-.23-.32-.36,0-.13.15-.33.28-.38.24-.09.52-.09.81-.14.16-.47.33-.94.51-1.46-.13-.08-.29-.14-.37-.25-.09-.13-.19-.34-.15-.45.05-.12.27-.22.42-.24.16-.02.34.07.45.1.51-.4.99-.78,1.61-1.26.07-.52.18-1.22.29-2-.36,0-.66-.01-.96,0-2.75.13-5.4-.29-7.93-1.4-.28-.12-.48-.14-.71.1-1.72,1.79-3.07,3.84-4.18,6.06,0,.02,0,.04,0,.11.34.04.68.12.81.52.02.06.12.11.2.14q.59.25.57.85c0,.06,0,.13,0,.24.68.09.94.51.82,1.16.34.19.73.31.67.77-.06.45-.45.57-.79.72-.12.05-.26.09-.39.1-.31.02-.51.19-.7.43-.65.79-1.5,1.31-2.47,1.62-.59.19-1.18.14-1.8-.08-.18.33-.34.64-.51.95-1.06,1.96-2.25,3.83-3.92,5.34-.96.87-2.02,1.59-3.27,2-1.87.61-3.5.09-4.61-1.53-.4-.58-.66-1.25-.98-1.88-.1-.2-.15-.41-.24-.64-.17,0-.32-.03-.47-.02-2.9.12-5.77-.17-8.59-.85-.43-.1-.69,0-.95.35-1.19,1.59-2.54,3.02-4.12,4.24-1.29,1-2.68,1.82-4.23,2.34-3.13,1.06-5.86.33-8.24-1.87-1.28-1.18-2.19-2.61-2.89-4.19-.13-.28-.24-.57-.39-.94-3.26.19-6.41-.46-9.44-1.8-.1.14-.2.25-.27.38-1.44,2.6-3.69,4.01-6.56,4.51-2.28.4-4.46,0-6.58-.87-2.31-.95-4.34-2.31-6.11-4.07-.19-.19-.38-.37-.59-.58-.23.11-.42.2-.62.29-4.92,2.23-9.73,1.98-14.3-.88-2.98-1.86-4.76-4.67-5.53-8.08-.49-2.15-.7-4.34-.44-6.55.01-.09,0-.18,0-.25-1.28-1.02-1.44-2.76-.37-4.07.18-.22.39-.42.6-.65-.24-.43-.41-.86,0-1.27.39-.38.78-.15,1.16.05.46-.3.91-.5,1.42-.12.09.07.29,0,.44,0,.44-.01.62.13.81.53.12.27.29.54.48.77.47.56.42.98-.22,1.32-.12.06-.24.11-.36.17-.07.45-.12.89-.21,1.32-.06.28-.15.56-.26.82-.3.7-.83,1.15-1.6,1.24-.37.04-.75.05-1.2.08-.04.29-.1.59-.12.89-.08,2.17.11,4.31.72,6.39,1.34,4.59,4.43,7.44,8.99,8.68,3.31.9,6.55.57,9.67-.91.1-.05.2-.1.3-.15.04-.02.07-.06.15-.13ZM114.95,179.93c.06-.24.12-.45.17-.66.65-2.82.72-5.68.36-8.54-.27-2.19-.85-4.31-1.95-6.25-1-1.77-2.31-3.25-4.05-4.33-1.19-.74-2.48-1.22-3.89-1.23-3.01-.01-5.24,1.34-6.59,4.04-.79,1.57-1.09,3.28-1.2,5.02-.2,3.2.4,6.27,1.52,9.26.21.56.52.84,1.08,1.02,2.83.89,5.72,1.44,8.67,1.68,1.93.16,3.86.21,5.87,0ZM99.76,194.51c.03.15.03.24.07.32.57,1.44,1.33,2.76,2.39,3.89,1.24,1.33,2.69,2.32,4.52,2.62,1.66.27,3.22-.09,4.72-.79,2.49-1.15,4.47-2.94,6.21-5.02.3-.35.58-.72.92-1.16-3.33-.89-6.37-2.26-9.19-4.07-2.85,2.32-6.02,3.71-9.64,4.2ZM120.18,179.82c-.22.03-.33.05-.44.07-1.18.2-2.36.42-3.54.59-.71.1-.72.07-.94.77-.97,3.19-2.62,5.96-5.01,8.29-.09.09-.17.19-.29.34,2.82,1.82,5.81,3.1,9.06,3.93,1.51-2.06,2.93-4.15,3.94-6.44-.58-.33-1.08-.61-1.58-.9-.19.1-.38.24-.59.28-.14.03-.3-.09-.46-.14.06-.13.08-.29.18-.38.15-.15.35-.25.53-.36-.18-.51-.36-.96-.48-1.43-.1-.37-.27-.57-.66-.62-.21-.03-.43-.13-.61-.25-.19-.12-.24-.33-.1-.52.12-.18.29-.16.46-.05.14.09.31.14.57.25-.07-.72-.12-1.32-.18-1.95-.24-.08-.48-.14-.7-.24-.23-.1-.34-.3-.23-.55.11-.26.31-.18.5-.09.11.06.24.09.41.15.05-.24.1-.45.16-.75ZM109.32,189.46c2.3-1.72,5.36-6.8,5.34-8.84-4.93.27-9.77-.3-14.64-1.82,2.13,4.55,5.33,7.92,9.3,10.66ZM108.74,189.9s-.08-.11-.13-.14c-1.85-1.31-3.58-2.77-5.08-4.48-.25-.28-.53-.28-.84-.22-.9.18-1.58.69-2.08,1.43-1.27,1.91-1.81,3.98-1.38,6.26.07.36.17.71.25,1.05,3.04-.07,7.58-2.14,9.26-3.91ZM89.26,191.9c1.02-3.01,1.06-5.84-.52-8.56-.41-.7-1.03-1.22-1.76-1.59-1.02-.51-1.93-.23-2.5.76-.42.73-.63,1.53-.51,2.37.44,3.27,2.33,5.46,5.3,7.02ZM141.54,190.54c-1.8,1.44-3.64,2.57-5.66,3.42-2.01.85-4.13,1.27-6.32,1.5.18.77.49,1.4.86,2.01,1.07,1.71,2.58,2.2,4.46,1.45,1.35-.54,2.45-1.41,3.44-2.46,1.18-1.25,2.1-2.69,2.92-4.19.23-.42.44-.86.68-1.31-.13-.15-.24-.26-.38-.42ZM159.3,179.27c.16-.8.13-2.18-.07-2.86-.38-1.31-1.27-1.97-2.63-1.81-.65.07-1.3.27-1.91.52-1.41.57-2.63,1.45-3.78,2.44-.12.11-.23.23-.36.36,2.03,1.19,6.52,1.82,8.75,1.36Z"/>
      <path d="M8.44,116.2c-1.87.58-3.52,1.48-4.86,2.86-1.89,1.94-2.97,4.25-2.93,6.99.03,2.02.73,3.83,2,5.4.53.65,1.18,1.2,1.77,1.81.4.4.84.44,1.34.22.04-.23.08-.46.12-.69.05,0,.1-.01.15-.02.11.17.22.35.35.55h1.69c.12-.18.23-.35.34-.52.11.19.23.38.38.63.41.13.89.27,1.47.45.14-.22.3-.46.44-.69.53.36,0,.56.08.86.32.15.67.34,1.04.47.14.05.33,0,.48-.05.16-.06.29-.21.45-.28.18-.09.35-.06.41.23-.19.14-.39.29-.64.47.27.21.5.42.76.58.13.08.33.08.49.08.15,0,.31-.07.46-.06.08,0,.18.1.23.18.02.03-.06.15-.13.2-.54.39-1.16.5-1.82.52-1.79.07-3.55-.13-5.26-.67-.61-.19-1.25-.4-1.76-.76-2.59-1.84-4.7-4.04-5.33-7.33-.53-2.76.17-5.23,1.7-7.51,1.37-2.04,3.32-3.36,5.59-4.25.18-.07.37-.15.55-.23.02,0,.03-.03.06-.09-.02-.06-.04-.14-.08-.21-2.37-4.43-3.92-9.14-4.64-14.1-.92-6.28.01-12.26,3.14-17.83,2.23-3.96,5.35-7.06,9.22-9.42.26-.16.52-.33.81-.51-.06-.11-.09-.19-.14-.25-1.96-2.31-2.96-5.03-3.36-7.99-.38-2.78-.13-5.54.47-8.27.02-.09.03-.17.06-.31-.17-.09-.33-.19-.5-.28-2.21-1.16-3.23-3.17-2.89-5.64.16-1.13.43-2.22.86-3.28.55-1.36,1.13-2.7,1.7-4.05-1.36-1.12-1.77-2.52-.14-5.04-.29-.31-.41-.7-.35-1.14.06-.5.33-.64.82-.78.59-.17,1.14-.26,1.75-.08.41.12.95.03,1.25.26.38.29.64.79.84,1.25.07.16-.14.49-.27.7-.1.16-.3.26-.47.4.04.26.08.52.14.78.21.95.02,1.86-.38,2.72-.4.85-1.14,1.22-2.05,1.22-.31,0-.51.05-.64.34-1.01,2.13-2,4.27-2.38,6.62-.14.88-.12,1.77.19,2.63.44,1.22,1.47,2.24,2.69,2.62.05-.11.11-.23.14-.35.9-3.21,2.24-6.22,3.94-9.07,1.97-3.3,4.07-6.52,6.45-9.54.18-.22.24-.41.18-.72-.35-1.65,0-3.11,1.16-4.38.62-.68,1.24-1.33,2-1.7.04-.47.02-.87.13-1.24.14-.49.45-.64.96-.62.18,0,.38-.03.55-.11.59-.28.79-.23,1.24.31.09.1.23.2.36.22.48.07.64.14.92.77.35.1.88-.12,1.06.33.14.34.08.76-.01,1.17.07.08.14.16.2.25.34.47.28.92-.15,1.29-.07.06-.14.13-.22.15-.69.15-.94.71-1.24,1.26-.61,1.13-1.47,2.05-2.4,2.92-.11.11-.24.2-.36.29-1.39,1.05-2.27,1.07-3.72.09-.06.05-.13.09-.18.15-3.34,4.42-6.49,8.96-8.71,14.07-.62,1.42-1.04,2.92-1.54,4.39-.04.1-.05.21-.08.37.97.35,1.94.5,2.94.4,3.09-.3,5.55-1.74,7.42-4.2.1-.14.21-.27.41-.51-.07.76-.16,1.33-.64,1.83-1.98,2.09-4.38,3.31-7.25,3.52-.8.06-1.63-.13-2.44-.22-.19-.02-.38-.08-.64-.14-.14.74-.29,1.43-.39,2.13-.38,2.61-.43,5.22.2,7.81.51,2.07,1.31,4,2.67,5.68.15.19.32.37.52.6,3.23-1.8,6.55-3.36,10.12-4.43.05-.75.1-1.46.15-2.24.91.51.31,1.36.62,2.03,3.04-.83,6.14-1.07,9.32-.34.1-.22.2-.43.28-.65.09-.22.17-.45.26-.68h.66c-.18.51-.34.96-.51,1.46.29.1.53.19.78.27,2.91.96,5.3,2.67,7.17,5.08,1.09,1.41,1.81,3,1.99,4.8.21,2.15-.48,3.89-2.37,5.05-.07.04-.13.11-.22.18.06.18.11.34.16.51.44,1.53.88,3.07,1.31,4.61.07.25.13.45.37.59,1.67.95,2.87,2.36,3.92,3.92.16.24.31.47.45.69.07-.02.1-.01.11-.03.15-.14.25-.42.53-.29.26.13.14.39.11.6-.06.4.04.67.44.85.27.12.5.35.81.56.16-.35.28-.68.46-.97.07-.12.27-.16.41-.24.05.15.18.33.15.46-.1.36-.26.71-.42,1.05-.13.27-.12.49.05.75.21.33.39.69.61,1.09.2-.11.39-.21.58-.32.18-.11.37-.2.51.04.13.22,0,.38-.18.51-.2.14-.4.27-.64.43.24.66.47,1.3.71,1.98.18-.14.29-.26.42-.33.1-.05.31-.07.35-.02.08.1.15.33.09.4-.16.23-.39.4-.66.67.07.43.16.95.26,1.48.2.02.38,0,.54.05.09.02.23.13.23.19,0,.11-.06.27-.15.33-.16.1-.36.13-.54.19-.05.41-.12.8-.13,1.2,0,.17.1.37.2.52.11.18.29.32.21.57-.07-.01-.13,0-.15-.03-.88-1.12-1.81-2.19-2.61-3.36-1.08-1.58-1.61-3.4-2.06-5.24-.07-.28-.14-.56-.19-.84-.42-2.24-1.79-3.87-3.39-5.36-.3-.28-.65-.51-1.04-.73.51,4.01.75,8,.48,12.01-.28,4.03-1.16,7.94-2.23,11.84,2.39,2.52,3.7,5.65,5.13,8.83-.31.02-.51.03-.71.05-1.42-2.74-2.34-5.71-4.69-7.96-.86,2.87-1.5,5.68-2.08,8.52-.18.06-.34.12-.51.16-.08.02-.17,0-.35,0,.09-.44.16-.84.26-1.24.13-.51.29-1.02.43-1.53.52-1.97,1.03-3.95,1.58-5.91.11-.41.07-.69-.2-1.02-2.96-3.64-4.64-7.84-5.43-12.43-.25-1.42-.43-2.86-.38-4.31.05-1.65.29-3.27.95-4.8.42-.97,1-1.83,1.84-2.5,1.31-1.05,2.78-1.43,4.43-1.07.12.03.25.03.46.05-.34-1.73-.8-3.35-1.44-4.91-2.34-.12-4.01-1.39-5.43-3.05-.55-.64-.97-1.38-1.51-2.16-1,.07-1.91.58-2.82,1.22-.1-.18-.19-.32-.29-.49.8-.8,1.82-1.1,2.92-1.41-1.05-3.04-1.09-6.1-.37-9.21-1.09-.3-2.13-.39-3.16-.45-2-.1-3.93.26-5.86.73-.31.08-.43.25-.48.54-.35,2.2-1.68,3.66-3.59,4.67-.81.43-1.64.78-2.54.97-1.37.28-2.65.06-3.8-.75-.24-.17-.46-.35-.71-.54-.12.05-.24.08-.35.14-4.68,2.72-8.29,6.44-10.6,11.37-1.28,2.74-2.02,5.63-2.33,8.63-.45,4.29.23,8.45,1.4,12.56.81,2.85,1.9,5.59,3.3,8.2.08.16.17.31.29.52,2.6-.57,5.21-.66,7.85-.11.07-.14.13-.23.16-.33.83-2.37,3.91-3.55,6.26-2.78,2.37.77,3.56,2.47,4.08,4.81.59,2.67.15,5.21-.81,7.69-.33.86-.52,1.74-.62,2.65-.17,1.46-.15,2.93-.03,4.39.02.22.15.46.3.63.39.45.81.88,1.26,1.35-.13.19-.24.37-.41.62-.31-.36-.58-.67-.85-.99-.05.02-.1.04-.15.06,0,.18-.01.36,0,.54.03.35.04.72.13,1.06.15.55-.11.92-.52,1.37-.11-.82-.21-1.53-.3-2.25-.04-.33-.11-.67-.09-.99.04-.6-.28-.97-.69-1.35-1.8-1.65-3.85-2.94-5.94-4.15-1.01-.59-1.89-1.33-2.77-2.06-2.07-1.72-3.76-3.77-5.19-6.04-.68-1.07-1.33-2.15-2.03-3.29ZM24.9,131.21c0-.4,0-.68,0-.97-.05-2.1.16-4.16.91-6.15.31-.8.57-1.63.75-2.48.43-2.12.23-4.19-.58-6.2-.9-2.23-4.35-3.93-7.17-2.01-.72.49-1.23,1.13-1.44,2.02.26.09.48.18.71.26,1.04.37,1.98.89,2.81,1.61.42.37.77.8.95,1.34.39,1.15-.18,2.28-1.33,2.66-.87.28-1.67.14-2.39-.42-.9-.7-1.43-1.64-1.62-2.75-.12-.71-.09-1.45-.13-2.19-1.58-.58-5.99-.51-7.21.16,1.19,2.08,2.43,4.13,3.98,5.97,1.76,2.09,3.76,3.88,6.15,5.24,1.16.66,2.27,1.4,3.37,2.15.74.51,1.43,1.11,2.23,1.75ZM44.85,113.49c.08-.19.13-.29.15-.39.25-.97.51-1.93.74-2.9.76-3.27,1.33-6.57,1.37-9.93.02-1.95-.03-3.91-.15-5.85-.09-1.44-.34-2.86-.51-4.29-.04-.39-.23-.58-.6-.68-.93-.26-1.84-.27-2.74.07-1.56.58-2.54,1.74-3.15,3.24-.52,1.27-.74,2.6-.81,3.96-.11,2.08.21,4.12.66,6.13.81,3.64,2.23,7.01,4.5,9.99.16.2.32.4.53.66ZM45.09,82.93c.11-.02.16-.02.2-.04.06-.03.12-.06.17-.1,1.52-1.02,2.07-2.49,1.91-4.26-.1-1.12-.45-2.17-1-3.15-1.63-2.92-4.12-4.83-7.18-6.05-.41-.16-.83-.27-1.34-.44-.14.92-.29,1.77-.38,2.62-.21,2.04.05,4.03.66,5.98.09.3.23.47.6.49,2.48.15,4.31,1.36,5.57,3.47.28.47.53.97.8,1.48ZM27.12,69.39c-3.36,1.04-6.42,2.46-9.39,4.13.74.84,1.98,1.32,3.1,1.19,1.75-.21,3.26-.97,4.6-2.09.96-.81,1.45-1.87,1.7-3.23ZM17.2,116.09c-.06.13-.11.2-.12.28-.2,1.53.2,2.86,1.35,3.91.21.19.47.34.74.43.61.19,1.19.08,1.68-.33.43-.36.56-.86.41-1.39-.08-.29-.23-.58-.43-.81-.97-1.1-2.24-1.68-3.64-2.09ZM44.35,83.21c-.53-2.43-3.57-4.83-5.62-4.51,0,.04-.02.1,0,.13,1.06,1.97,2.6,3.4,4.7,4.2.28.11.59.12.92.18Z"/>
      <path d="M192.53,123.83c-.24-.51-.41-.89-.59-1.26-1.19-2.35-2.02-4.83-2.5-7.42-.08-.44-.15-.87-.22-1.31-.1-.73-.05-.94.43-1.77.05.23.09.38.11.53.38,3.76,1.52,7.29,3.21,10.65.29.58.74,1.04,1.38,1.29.43.17.85.38,1.31.59.08-.15.16-.28.2-.41,1.17-4.11,1.66-8.31,1.46-12.58-.02-.51-.2-.79-.67-1-1.44-.65-2.92-1.18-4.46-1.54-.13-.03-.25-.07-.44-.13.06-.19.11-.37.17-.58,1.81.36,3.49.98,5.13,1.71.24-1.11-.97-7.26-1.66-8.37-1.08,1.55-2.15,3.07-3.25,4.63-.17-.16-.3-.29-.46-.44.12-.19.21-.37.32-.53.95-1.37,1.89-2.74,2.87-4.09.25-.35.28-.63.12-1.03-.76-1.89-1.83-3.6-2.99-5.25-.11-.16-.25-.29-.4-.45-.59,1.25-1.27,2.75-2.01,9.92-.22-.13-.42-.25-.63-.37.22-3.48.65-6.9,2.05-10.12-.51-.68-1.12-1.12-1.98-1.3.09-.23.15-.4.24-.65.38.18.74.32,1.05.51.31.2.59.45.94.74.19-.44.35-.82.51-1.2.82-2.04,1.71-4.06,2.93-5.89.89-1.32,1.8-2.67,2.9-3.81,1.4-1.46,3.21-2,5.24-1.49.17.04.34.1.51.15.02,0,.04,0,.16,0,.44-5.2.37-10.36-1.47-15.42-1.21-.08-2.36-.35-3.27-1.24-.89-.87-1.35-1.96-1.56-3.19-.2.01-.38.03-.55.03-.62,0-1.08-.34-1.27-.89-.18-.54-.03-.98.47-1.39.09-.08.22-.19.22-.29.05-.56.44-.73.89-.84.1-.02.21-.04.3-.06.34-1.11.45-1.21,1.42-1.21.09-.12.19-.26.31-.39.3-.33.63-.58,1.11-.43.5.16.75.54.8,1.05.02.26-.02.54-.09.79-.16.52.03.86.43,1.21,1.51,1.29,2.22,2.95,2.25,4.92.01.68-.14,1.28-.75,1.73.05.19.09.39.15.57,1.05,3.01,1.46,6.12,1.51,9.3.03,1.96.01,3.91-.22,5.85-.03.25.02.42.23.57,1.21.88,1.96,2.1,2.57,3.43.84,1.83,1.35,3.76,1.7,5.73.15.83.14.83.47,1.16.12-.16.2-.35.35-.46.12-.09.32-.12.46-.09.06.01.15.31.1.38-.51.74-.13,1.39.16,2.05.02.04.06.06.03.04.3.01.65-.07.76.05.24.26-.06.47-.25.65-.2.19-.25.39-.18.66.1.34.17.69.26,1.08.07.03.17.06.26.11.31.17.38.33.12.55-.27.22-.28.47-.27.77.02.42,0,.84,0,1.33.23-.07.4-.15.58-.18.09-.01.26.04.29.1.05.1.06.29,0,.36-.15.16-.34.29-.53.38-.26.13-.42.3-.44.61-.02.35-.08.7-.12,1.08.23.06.43.08.61.16.1.05.21.19.21.29,0,.09-.15.23-.25.24-.21.04-.44.01-.72.01-.13.38-.25.74-.39,1.14.11.08.22.12.28.2.08.09.18.23.16.32-.02.09-.19.22-.28.21-.43-.05-.58.23-.73.54-.17.34-.36.66-.55,1,.01.06.03.12.05.18.05.18.18.4.12.53-.1.22-.32.09-.52.06-.21-.03-.43.09-.71.16-.03-.07-.11-.2-.15-.33-.4-1.67-.64-3.35-.69-5.06-.06-2.17.18-4.3.64-6.41.36-1.66.38-3.28-.04-4.93-.42-1.66-.86-3.32-1.65-4.84-.38-.72-.88-1.38-1.35-2.05-.16-.22-.4-.38-.67-.63-.2,1-.36,1.89-.56,2.77-1,4.4-2.84,8.45-5.2,12.27-.65,1.06-1.35,2.09-2.06,3.11-.22.32-.29.59-.16.98.93,2.77,1.44,5.63,1.73,8.53.05.46.21.7.6.93,2.55,1.46,4.68,3.36,6.21,5.9,1.12,1.87,1.75,3.88,1.61,6.08-.1,1.5-.52,2.92-1.13,4.29-.69,1.55-1.57,2.99-2.57,4.35-.27.37-.34.7-.2,1.16,1.07,3.44,1.04,6.91.29,10.4-.75,3.49-2.02,6.76-4.16,9.65-.92,1.24-2.01,2.31-3.11,3.37-.06.06-.14.09-.28.17-.04-.38-.08-.69-.12-1.06.41-.37.84-.75,1.25-1.15,2.24-2.12,3.75-4.71,4.75-7.61.79-2.3,1.33-4.65,1.47-7.09.12-2.04-.08-4.04-.61-6-.04-.15-.1-.29-.17-.5-.14.12-.26.21-.34.32-2.52,3.21-5.35,6.12-8.48,8.73-1.29,1.08-2.64,2.1-4,3.19-.22-.09-.45-.2-.72-.31,1.16-.93,2.27-1.81,3.39-2.69,3.5-2.77,6.6-5.93,9.37-9.43.43-.55.44-.96.15-1.54-1.09-2.16-2.67-3.86-4.65-5.22-.07-.05-.15-.07-.29-.13-.09.26-.17.48-.26.7-.88,2.39-2.02,4.64-3.62,6.64-1.77,2.21-3.94,3.84-6.71,4.56-1.62.42-3.25.47-4.87-.02-3.56-1.08-5.36-4.76-4.03-8.23.62-1.6,1.66-2.88,3.03-3.89,2.26-1.67,4.82-2.55,7.61-2.7,1.55-.09,3.11-.03,4.62.4.14.04.29.06.61.12ZM195.49,125.94c-.07-.1-.08-.15-.12-.17-.17-.1-.34-.21-.52-.29-2.6-1.25-5.32-1.84-8.2-1.48-2.3.29-4.45,1.02-6.35,2.39-1.45,1.04-2.52,2.36-3.1,4.06-.97,2.9.55,6,3.44,7,1.42.49,2.87.51,4.33.19,2.69-.6,4.81-2.11,6.54-4.2,1.5-1.81,2.59-3.87,3.45-6.05.19-.49.37-.99.53-1.44ZM201.91,131.77c1.48-2.04,2.66-4.06,3.31-6.35.58-2.03.53-4.04-.26-6.01-1.32-3.27-3.68-5.6-6.66-7.38-.06-.04-.16-.02-.3-.03.26,4.64-.33,9.15-1.64,13.55,2.43,1.58,4.3,3.55,5.54,6.22ZM195.72,100.53c.16-.21.29-.36.39-.52.75-1.18,1.54-2.33,2.25-3.54,2.27-3.9,4-8.01,4.79-12.48.1-.56.27-1.12.19-1.68-1.72-.88-4.15-.34-5.43,1.15-2.68,3.12-4.49,6.73-5.97,10.54-.09.23-.08.4.08.6,1.42,1.74,2.66,3.6,3.52,5.69.02.06.07.11.16.24Z"/>
      <path d="M69.65,46.41c-.27-.06-.45-.1-.63-.14-.05.03-.08.06-.12.08-.13.09-.26.18-.4.26-.08-.12-.23-.25-.23-.37.03-.51-.31-.75-.69-1.02-.05.05-.1.11-.17.15-.12.07-.29.2-.37.16-.1-.05-.21-.27-.18-.37.18-.59-.1-.97-.54-1.35-.06.05-.11.12-.18.15-.12.04-.3.11-.35.06-.09-.09-.19-.3-.14-.39.28-.53.01-.93-.24-1.35-.08-.13-.14-.27-.18-.34-.27-.07-.49-.13-.7-.19.08-.24.17-.47.28-.8-.13-.4-.3-.9-.46-1.4-.05-.03-.09-.07-.13-.06-.2.02-.45.21-.59-.08-.14-.31.12-.42.34-.54.06-.03.1-.08.18-.14-.05-.33-.1-.67-.16-1.06-.18.05-.33.13-.47.12-.13,0-.33-.08-.37-.17-.04-.1.06-.28.14-.39.06-.08.18-.12.28-.16.26-.12.26-.32.18-.55-.2-.17-.67.08-.66-.38,0-.38.39-.27.62-.35.32-.11.38-.37.25-.83-.38-1.34-.76-2.69-1.12-4.04-.61-2.29-.88-4.62-.54-7.04-.44-.26-.87-.53-1.33-.75-.15-.07-.4-.05-.55.04-3.17,1.76-6.11,3.8-8.42,6.64-1.03,1.26-1.29,1.78-2.02,3.75-.15-.08-.3-.17-.46-.26,0-.1,0-.19.02-.27.35-1.31,1.02-2.45,1.86-3.5,1.82-2.28,4.07-4.08,6.52-5.63.65-.41,1.32-.81,2.03-1.24-.09-.08-.14-.14-.21-.18-1.92-.99-3.87-1.89-6.02-2.26-1.59-.27-3.18-.35-4.76.06-2.09.53-3.74,1.7-4.95,3.48-1.05,1.56-1.63,3.29-1.97,5.12-.27,1.44-.38,2.9-.39,4.37,0,.24,0,.48,0,.71-.51.13-.55.12-.62-.22-.02-.09-.02-.18-.02-.27-.02-2.82.3-5.59,1.44-8.2,1.3-3,3.47-5.01,6.72-5.72,1.95-.43,3.88-.21,5.8.27,1.82.46,3.51,1.26,5.16,2.12.42.22.75.26,1.16,0,.47-.29,1.09-.4,1.45-.78.34-.36.4-.97.6-1.46.76-1.84,1.85-3.43,3.49-4.61.23-.17.38-.48.5-.75.83-1.96,2.12-3.48,4.07-4.38,1.23-.56,2.52-.83,3.82-.89.18.24.34.44.5.66-1.95-.02-3.77.42-5.35,1.59-1.01.75-1.77,1.71-2.3,3.01.28-.09.47-.14.64-.21,1.05-.44,2.13-.77,3.27-.84,1.54-.09,3.02.18,4.34,1.01,1.4.89,2.14,2.16,2.03,3.86,0,.04,0,.09,0,.13,0,.02.02.04,0,0,1.48.44,2.91.87,4.46,1.33.22-.19.52-.49.84-.75.45-.36.91-.72,1.38-1.05.41-.29.42-.28.96.11-.91.63-1.82,1.24-2.6,2.09.23.15.42.26.59.39.9.68,1.91,1.27,2.68,2.07.88.92,1.64,1.99,2.31,3.08,1.31,2.13,2.1,4.46,2.3,6.96.2,2.44-.56,4.61-2.19,6.43-1.39,1.56-4.3,2.44-6.72,1-1.44-.86-2.51-2.03-3.15-3.59-.72-1.75-1.05-3.57-.97-5.46.01-.28,0-.57,0-.81-1.05-.17-2.07-.27-3.06-.49-2.07-.47-3.94-1.35-5.51-2.81-.16-.15-.41-.27-.63-.29-1.93-.13-3.67-.82-5.32-1.77-.25-.14-.49-.28-.8-.45-.04.21-.09.35-.1.5-.2,2.2.17,4.34.71,6.46.26,1.01.51,2.02.78,3.03.04.14.12.29.21.4,2.44,2.8,3.82,6.11,4.65,9.68.15.66.27,1.33.41,2.07ZM87.05,23.93c-.45,2.6-1.9,4.23-4.18,5.18-.97.4-1.98.65-3.02.78-.28.03-.55.09-.84.13-.22,2.3.08,4.44,1.03,6.48.57,1.23,1.48,2.13,2.62,2.85,2.28,1.45,5.04.42,6.21-1.05,1.36-1.71,2.05-3.65,1.81-5.83-.32-2.95-1.36-5.64-3.17-8.01-.12-.15-.25-.29-.47-.54ZM82.32,20.24c-1.36-.65-2.69-1.02-4.07-1.18-.13.17-.27.3-.34.46-.18.43-.33.87-.5,1.3-.5,1.27-1.11,2.47-2.17,3.38-1.27,1.09-2.7,1.85-4.35,2.19-.14.03-.27.06-.53.13,2.41,1.97,5.07,2.76,8.04,2.86.44-3.45,1.66-6.49,3.91-9.13ZM77.39,18.94c-3.49-.4-6.82.23-10.09,1.25,0,.2-.02.31,0,.42.28,1.5.75,2.92,1.63,4.18.91,1.3.66,1.23,2.21.85,3.49-.86,5.4-3.25,6.25-6.7ZM67.21,19.52c3.46-1.01,6.93-1.64,10.54-1.21.11-.5.08-.91-.04-1.32-.39-1.26-1.24-2.09-2.44-2.55-1.48-.58-3.01-.76-4.57-.29-.53.16-1.07.31-1.58.53-1.65.72-1.41.4-1.79,2.14-.19.86-.28,1.74-.13,2.7ZM79.09,29.34c.43-.05.74-.08,1.04-.13,1.38-.25,2.73-.63,3.89-1.46,1.35-.96,2.21-2.24,2.37-3.91.03-.27,0-.63-.16-.8-.94-1.01-2.04-1.83-3.3-2.5-2.2,2.52-3.43,5.42-3.84,8.81ZM63.03,23.53c1.78,1.11,3.55,2.08,5.68,2.27-.48-.9-.98-1.71-1.33-2.58-.36-.89-.57-1.83-.87-2.81-.95.38-1.87.76-2.79,1.12-.23.09-.36.25-.4.48-.1.5-.19.99-.29,1.51ZM63.67,20.83c1.04-.4,1.94-.74,2.76-1.06.1-1.26.18-2.42.28-3.73-1.51,1.34-2.41,2.9-3.05,4.79ZM62.42,23.16c.08-.42.13-.72.21-1.16-.45.24-.76.41-1.17.62.36.2.61.34.95.54Z"/>
      <path d="M98.21,27.68c1.36-.71,2.44-.52,3.52.58.48.49.92,1.02,1.39,1.55.19-.06.37-.16.56-.17.48-.04.85-.08.91.57.01.12.08.25.16.34.47.52.47.71,0,1.21-.08.08-.16.15-.23.21.12.83.06.95-.65,1.35-.1.06-.2.16-.24.27-.13.41-.43.57-.82.53-.33-.04-.52.05-.69.36-.24.41-.48.42-.89.17-.13-.08-.26-.17-.4-.22-.71-.25-.75-.31-.41-1.01-.39-.33-.8-.66-1.2-1.01-1.03-.9-1.64-2.02-1.54-3.39.05-.69-.14-1.2-.46-1.77-1.18-2.07-2.09-4.26-2.57-6.61-.12-.61-.05-1.13.43-1.67.3,3.2,1.52,6.01,3.13,8.72Z"/>
    </g>
  </g>
  <g id="Layer_3" data-name="Layer 3">
    <path class="cls-2" d="M44.54,160.05c-.31.15-.62.3-.93.45-.03-.06-.06-.12-.09-.17.32-.14.64-.27.96-.41.02.04.04.08.06.13Z"/>
    <path class="cls-2" d="M45.85,158.25c-1.37-.19-2.6.15-3.84.3-1.35.16-2.7,0-4.03-.24-.18-.03-.36-.15-.59-.25.21-.56.58-.84.98-1.08,1.58-.98,3.29-1.51,5.18-1.33.2.02.44.1.6.23.76.6,1.24,1.41,1.7,2.37Z"/>
    <path class="cls-2" d="M49.85,161.65c-.44.05-.76.1-1.08.13-.53.05-.81.33-.99.83-.44,1.18-1.01,2.31-1.72,3.36-.1.14-.21.28-.33.41-.04.05-.11.07-.25.15-.08-.24-.18-.45-.2-.67-.06-.71.13-1.37.54-1.94.35-.48.75-.93,1.14-1.39.52-.63,1.04-1.25,1.62-1.93.37.31.78.64,1.27,1.05Z"/>
    <path class="cls-2" d="M53.76,165.29c-.35-1.11-.5-2.15-.73-3.16.62.46,1.03,2.22.73,3.16Z"/>
    <path class="cls-2" d="M54.8,163.4c-.21-.56-.43-1.12-.64-1.68-.03-.08-.04-.16.01-.28.25.62.46,1.27.63,1.96Z"/>
    <path class="cls-2" d="M53.97,167.12s-.02-.03-.03-.04c.18-.04.27-.08.37-.09.44-.03.62-.31.68-.7.09-.58.13-1.16.07-1.74.77,3.69-.22,3.31-1.09,2.57Z"/>
    <path class="cls-2" d="M56.57,179.49c.13-.23.26-.89-3.38.2-.46.14-.98.3-1.57.5-.76.26-1.43.46-2.02.62-.12.04-.23.07-.34.1-.2.05-.4.09-.58.14-.02,0-.05.01-.07.01-.63.15-1.17.23-1.63.27-.03,0-.05,0-.08.01-.13,0-.25,0-.38,0-.11,0-.23.01-.34.01-1.4-.02-2.27-.45-4.12-.64-1.31-.13-2.86-1.05-4.25-2.12-2.1-1.61-3.87-3.57-4.05-3.76,0-.01-.01-.01-.01-.02l-3.47-9.54c-.07-.2-.14-.39-.21-.59l-6.3-4.9c-.04-.06-.08-.12-.11-.18-.04-.08-.1-.19-.18-.32-.05-.07-.08-.14-.11-.21-.93-1.67-3.14-5.99-3.77-10.04-.22-1.38-.25-2.73.01-3.93.41-1.84,1.51-3.34,3.72-4.07.37-.12.73-.23,1.09-.32,5.35-1.34,9.88.78,13.15,3.35,3.51,2.74,5.56,5.99,5.56,5.99-.73.01-1.37.02-1.94.02-8.36.07-.52-.4,6.38,3.89.19.45.5.72.96.88,0,.01,0,.08.02.15-.45.03-.92.05-1.23-.3-.47-.52-1.04-.82-1.68-1.05-1.12-.4-2.25-.8-3.38-1.2-.13-.04-.27-.05-.56-.11.24.25.36.43.52.52.55.33,1.09.69,1.68.93,1.15.45,2.34.83,3.51,1.24.14.05.26.14.39.2-.01.11-.02.17-.03.24-.08.5-.06.54.41.62.3.05.62.05.92.08,2.09.22,3.76,2.45,2.37,5.01-.64-.44-1.26-.9-1.91-1.32-.66-.42-1.28-.94-2.07-1.05-.19-.69-.33-1.36-.55-2.01-.46-1.38-1.01-1.77-2.46-1.77-.77,0-1.55.07-2.32.1-1.76.07-3.34.69-4.79,1.64-.29.19-.55.46-.77.73-.29.39-.19.72.24.9.25.11.51.18.77.22,2.14.32,4.28.41,6.42-.07.49-.11.99-.17,1.53.17-.22.13-.37.24-.55.31-.47.2-.95.36-1.42.56-.39.16-.79.31-1.15.52-.14.08-.25.32-.25.48,0,.1.24.24.4.27.78.19,1.54.13,2.26-.23.56-.28,1.1-.59,1.65-.87.15-.08.3-.13.49-.2.04.51-.21.84-.47,1.13-.41.46-.87.89-1.3,1.34-.59.62-1.19,1.25-1.75,1.9-.35.42-.51.94-.56,1.48-.1,1.07.38,1.76,1.44,1.96.56.11,1.14.12,1.72.12.85,0,1.47-.42,1.9-1.15.23-.4.44-.82.66-1.23.08-.14.17-.28.32-.53.04.29.02.48.09.62.08.16.24.39.38.4.52.04,1.06.05,1.58,0,.17-.02.34-.26.46-.44.16-.24.27-.52.46-.9.18.55.29,1.01.48,1.42.17.38.38.77.67,1.05.23.49.62,1.06,1.1,1.65.82,1.03,1.9,2.12,2.86,3.04.42.39.81.75,1.15,1.05.6.54,1.02.9,1.11.97h.01s.79,1.43.79,1.43l.96,1.73-4.51,2.95s.02-.03.03-.05Z"/>
    <g>
      <g>
        <path class="cls-2" d="M54.72,58.12c.3,1.74.61,3.42.87,5.11.1.7.08,1.41.1,2.12,0,.21-.07.36-.27.49-.4.26-.79.56-1.15.88-.37.32-.68.7-1.05,1.02-.21.18-.47.37-.74.42-1.57.3-2.93-.14-3.58-1.68-.29-.68-.38-1.45-.55-2.18-.11-.5-.14-1.02-.31-1.5-.6-1.59-1.06-1.49-2.07-.65-1.12.93-1.92,2.09-2.21,3.55-.02.11-.06.21-.11.37-1.64.35-3.28.9-5.02.65-.57-.08-1.16-.11-1.7-.3-1.69-.6-2.47-1.92-2.55-3.63-.05-1.19.11-2.39.17-3.59.04-.83.09-1.67.13-2.5-.05-.02-.09-.04-.14-.05-.11.11-.26.21-.33.35-.32.63-.69,1.24-.9,1.91-.67,2.07-1.26,4.16-1.9,6.24-.15.49-.34.97-.57,1.42-.59,1.12-1.8,1.28-2.69.37-.32-.33-.61-.7-.91-1.06-.64-.77-1.26-1.55-1.9-2.32-.48-.57-.74-1.21-.71-1.96.06-1.2.11-2.39.18-3.59.06-1.09.18-2.17.19-3.26.03-2.34.6-4.52,1.76-6.55,1.77-3.11,3.68-6.14,5.97-8.89,1.92-2.3,4.27-4.05,7.18-4.85,1.9-.52,3.86-.84,5.84-.89.68-.02,1.35-.06,2.03-.28.5-.16,1.1-.1,1.64-.03.41.05.82.26.85.86.21,0,.42.01.64,0,.66-.05,1.08.28,1.4.82,1.02,1.72,2.04,3.44,3.1,5.13.72,1.15,1.46,2.29,2.29,3.35,1.36,1.74,2.4,3.62,2.96,5.76.34,1.29.75,2.56,1.06,3.85.33,1.38.31,2.79.06,4.17-.23,1.29-.42,1.5-1.78,1.43-.75-.04-1.49-.25-2.23-.33-.88-.1-1.77-.15-2.65-.22-.09,0-.17.01-.38.03ZM42.43,39.1c-.69.88-1.27,1.66-1.63,2.58-.56,1.42-.74,2.94-.82,4.43-.11,2.05.18,4.08.76,6.05.47,1.58,1.53,2.51,3.16,2.77.48.08.97.08,1.46.09,1.28.02,2.51.26,3.69.77.73.32,1.47.63,2.22.9.77.28,1.55.51,2.42.79,0-.3,0-.49,0-.68-.04-.84-.12-1.69-.11-2.53,0-1.51-.27-2.96-.75-4.38-.56-1.65-.89-3.34-1.04-5.07-.06-.61-.15-1.26-.41-1.8-.61-1.26-.83-2.58-.75-3.95.07-1.22-.26-2.31-.86-3.39-.18,0-.37.02-.55.03-.19.39-.33.77-.56,1.09-.23.33-.55.6-.87.93.33.08.63.13.92.22,1.01.31,1.41,1.03,1.17,2.05-.05.19-.14.37-.2.57-.14.52-.53.72-1.01.69-.34-.02-.77-.08-.99-.29-.49-.48-1.04-.5-1.65-.47-.35.02-.71-.02-1.06-.05-1.01-.07-1.94-.32-2.54-1.34ZM46.35,37.91c.31-.45.31-.45.97-.82.55-.3.9-.73,1.03-1.38-.12,0-.18-.02-.24,0-1.57.49-2.59,1.72-3.76,2.76-.2.18-.21.44-.1.68.17.38.42.71.84.78.5.08,1.01.1,1.51.1.7-.01,1.42-.19,1.95.47.84-1.22.16-2.23-.95-2.29-.24-.01-.48-.06-.72-.11-.16-.04-.32-.11-.54-.19Z"/>
        <path class="cls-2" d="M176.39,114.77c-.44-.21-.81-.4-1.19-.57-.18-.08-.37-.13-.56-.17-.61-.15-.88-.45-.87-1.07,0-.43-.04-.82-.26-1.21-.1-.19-.07-.48-.02-.71.33-1.59,1.42-2.51,3.07-2.64.26-.02.53,0,.8-.02.16-.01.32-.07.49-.11-.12-.44-.43-.44-.71-.44-.57,0-1.1-.12-1.6-.39-.66-.36-1.01-.89-1.09-1.64-.13-1.19.07-2.29.68-3.33.34-.59.56-1.26.94-1.83.6-.9,1.18-1.85,2.37-2.08.63-.12,1.24-.02,1.82.22,1.28.53,2.48,1.22,3.45,2.21.85.87,1.87,1.48,2.92,2.07.9.52,1.76,1.12,2.63,1.68.65.42,1.3.85,1.95,1.27.17.11.33.22.48.35.72.61.71.62.41,1.52-.06.19-.12.39-.11.58.01.56-.18,1.04-.5,1.48-.42.56-.79,1.17-1.4,1.57-.14.09-.24.26-.33.41-.1.17-.21.35-.26.54-.39,1.42-1.33,2.42-2.39,3.37-.67.61-1.31,1.26-1.9,1.95-.91,1.06-2.01,1.88-3.25,2.5-1.11.56-2.34.68-3.55.8-.45.05-.88-.18-1.12-.6-.34-.61-.81-1.1-1.33-1.57-.16-.15-.31-.32-.45-.49-.35-.44-.48-.93-.34-1.5.16-.66.43-1.25.89-1.76.12-.13.21-.27.32-.41ZM189.51,111.04c.22-.82.4-1.53.6-2.23.15-.52.14-.59-.31-.95-1.1-.88-2.36-1.48-3.65-2.03-.25-.11-.56-.14-.84-.12-.68.04-.95.56-.65,1.18.27.57.79.84,1.49.74.58-.08,1.14-.08,1.68.2.44.22.64.53.62,1-.02.42-.16.58-.57.55-.37-.03-.74-.11-1.12-.15-.48-.05-.97-.11-1.45-.09-.22,0-.46.14-.64.28-.19.15-.29.4-.15.66.12.23.32.3.56.26.35-.05.69-.17,1.04-.19.41-.02.85-.04,1.23.08.55.16.61.35.44.9-.05.16-.1.31-.17.52.71-.23,1.34-.43,1.9-.61ZM184.36,113.25c.84-.16,1.72-.65,2.11-1.2-.5.06-.96.09-1.41.18-.57.12-.75.4-.7,1.02Z"/>
      </g>
      <path class="cls-2" d="M80.16,4.87c.62.05,1.24.13,1.86.14.8.02,1.6.01,2.39-.03.61-.03,1.2-.05,1.75.24.53.28,1.1.17,1.63.08.87-.14,1.71-.09,2.58-.02,2.06.16,4.08.58,6.1,1,1.15.24,2.18.73,3.14,1.4.18.12.37.25.58.3.39.09.53.36.47.68-.08.43-.2.87-.41,1.24-.26.45-.34.9-.31,1.4.02.27.07.53.05.8-.08.93.51,1.35,1.23,1.68.22.1.46.18.67.3.6.36.65.74.14,1.21-.26.23-.56.44-.87.61-1.48.78-3.07,1.28-4.72,1.56-.11.02-.22.04-.33.04-.37.03-.57.21-.7.58-.21.6-.47,1.2-.77,1.76-.49.93-.85,1.11-1.88.96-1.11-.16-2.15-.52-3.16-.99-.44-.2-.88-.43-1.3-.67-1.36-.78-2.67-1.66-4.11-2.32-.41-.19-.77-.53-1.13-.82-.36-.29-.7-.61-1.06-.91-.52-.43-1.09-.72-1.75-.91-1.13-.32-1.97-1.07-2.69-1.98-.26-.33-.5-.68-.81-.97-.42-.39-.47-.97-.77-1.41-.05-.07-.06-.16-.11-.23-.36-.47-.39-.59.02-.97.25-.23.36-.49.41-.8.11-.72.46-1.33.87-1.92.46-.66,1.09-.96,1.86-.99.38-.01.75,0,1.13,0,0-.01,0-.03,0-.04ZM82.54,11.52c-.67-.12-1.34-.24-2.01-.36.86.42,1.42.49,2.03.35.1.06.21.18.31.18.98.02,1.95.04,2.93.04.89,0,1.77-.06,2.66-.01.86.05,1.72.2,2.57.31,1.78.22,3.45.78,5,1.71.48.29,1.03.37,1.64.45.12-.56.34-1.09.34-1.63,0-1.01.02-1.99.76-2.79.05-.05.09-.1.12-.16.32-.53.1-1.23-.46-1.49-.84-.4-1.73-.55-2.64-.63-2.25-.2-4.5-.44-6.72-.9-.7-.14-1.41-.14-2.16,0-.11.41-.22.81-.31,1.22-.17.73-.51,1.38-1.02,1.92-.52.54-1.09,1.05-1.66,1.53-.39.33-.84.49-1.36.28ZM95.29,17.56c-.81.05-1.43.09-2.05.13-1.58.11-3.08-.34-4.58-.73-.25-.07-.5-.2-.71-.35-.83-.59-1.79-.87-2.73-1.19-.44-.15-.9-.28-1.41-.16.41.35.85.63,1.3.9.95.57,1.91,1.12,2.87,1.68.69.41,1.36.84,2.06,1.22,1,.54,2.07.93,3.18,1.15.69.14.94.04,1.24-.59.29-.61.51-1.26.83-2.05ZM76.71,8.09c.23-.05.32-.06.41-.08,2.21-.52,4.34-1.42,6.66-1.48.04,0,.09-.01.13-.02.54-.16,1.02-.44,1.4-.88-.35-.03-.68.01-1,.06-.85.12-1.7.3-2.56.34-.84.04-1.68-.07-2.52-.1-.35-.01-.71.01-1.06.03-.52.03-.88.28-1.05.78-.14.41-.25.83-.4,1.36ZM79.09,10.85c-.52-.24-1.04-.52-1.63-.55.43.52,1.06.44,1.63.55ZM76.13,9.5c-.03-.31-.04-.51-.06-.77q-.38.4.06.77Z"/>
      <path class="cls-2" d="M128.26,15.07c.03-.66.11-1.32.08-1.98-.02-.55.19-.88.66-1.11,1.24-.6,2.49-.75,3.77-.12.56.28,1.13.53,1.68.82.78.41,1.45.97,1.81,1.8.6,1.38,1.46,2.59,2.3,3.82.6.88.92,1.81.95,2.86,0,.31.05.62.12.92.22.97.17,1.94.15,2.92,0,.31-.06.64.03.93.42,1.42-.7,3.27-2.25,3.54-.46.08-.91.2-1.38.31-.02.09-.06.21-.09.32-.05,0-.08,0-.09,0-.22-.32-.44-.64-.64-.98-.04-.06.03-.19.07-.4.22.21.37.35.53.5,1.52-.1,2.39-.9,2.79-2.15.08-.24.06-.52.05-.78-.05-.73-.1-1.46-.18-2.19-.06-.5-.15-1-.27-1.5-.15-.65-.39-1.27-.5-1.93-.14-.79-.47-1.47-.96-2.09-.52-.66-1.05-1.33-1.5-2.03-.32-.5-.6-1.04-.79-1.6-.33-.98-.91-1.71-1.8-2.22-.29-.16-.59-.32-.85-.53-.56-.47-1.17-.46-1.82-.26-.17.05-.33.13-.5.19-.52.19-.76.52-.75,1.11.02.73-.06,1.46-.11,2.19-.03.39.11.62.46.79,1.22.59,2.09,1.54,2.72,2.74.13.25.34.46.55.64.39.32.67.7.81,1.19.1.34.22.68.33,1.01.18.51.43.99.88,1.31.56.39.59.9.42,1.47-.25.81-.21,1.62-.14,2.44.02.2.05.4.07.6.09,1.15.17,2.3.27,3.45.04.42.07.85.22,1.24.35.87.32,1.73.12,2.61-.24,1.06-.49,2.12-.72,3.18-.15.68-.51,1.22-.96,1.72-.69.78-1.44,1.52-2.09,2.33-.86,1.08-1.98,1.51-3.31,1.55-2.41.06-4.79-.1-7.11-.82-1.18-.36-2.38-.51-3.61-.51-1.07,0-2.12-.1-3.17-.36-.94-.24-1.66-.76-2.06-1.64-.47-1.01-1.1-1.87-1.98-2.55-.59-.46-.88-1.11-1.05-1.81-.23-.95-.41-1.91-.67-2.85-.2-.72-.44-1.45-.78-2.12-.63-1.24-1.04-2.53-1.29-3.9-.28-1.53-.67-3.03-1.01-4.54-.27-1.19-.26-2.34.49-3.38.16-.22.28-.45.43-.68.57-.85,1.02-1.75,1.39-2.72.76-1.97,2.06-3.56,3.71-4.87.92-.73,1.97-1.18,3.14-1.38,1.95-.33,3.88-.74,5.87-.67,1.46.05,2.67.49,3.63,1.63.61.73,1.3,1.4,1.99,2.06.76.73,1.4,1.53,1.78,2.54.06-.02.13-.03.19-.05ZM128.08,21.58c.59-.69.69-2.03.24-2.86-.27-.51-.58-1-.83-1.52-.17-.36-.41-.62-.77-.78-.75-.34-1.44-.8-2.02-1.38-.77-.78-1.74-.86-2.71-.67-1.31.25-2.32,1.05-3.22,2.01-1.09,1.16-1.66,2.61-2.25,4.05-.19.45-.18.95.03,1.43.22.51.4,1.03.58,1.55.24.69.51,1.37.98,1.95.37.46.81.81,1.53.97.08-.12.18-.3.32-.44.48-.45,1.04-.8,1.7-.83.84-.03,1.68.02,2.52.08.36.03.61-.02.73-.43-.52-.6-1.21-1.01-1.84-1.49-.5-.37-.99-.75-1.44-1.17-.39-.35-.58-.84-.65-1.35-.07-.54.04-.72.58-.73.82,0,1.65-.03,2.45.12,1.42.26,2.77.76,4.07,1.5ZM129.71,29.11c.37-.69.74-1.27,1-1.89.22-.5.4-1.05.44-1.59.09-1.15.11-2.3.11-3.46,0-.32-.05-.69-.21-.96-.46-.8-.99-1.56-1.55-2.42-.19,1.21-.05,2.4-1.08,3.19.37.6.7,1.18,1.09,1.71.33.46.5.92.34,1.49-.04.14,0,.29,0,.37-.37.35-.71.68-1.08,1.04.82.63.67,1.57.93,2.52ZM123.95,26.7c.25.09.47.14.66.24.39.2.56.56.56.99,0,.37-.33.45-.58.56-.49.21-1,.37-1.48.59-.32.14-.63.32-.91.53-.22.16-.33.43-.24.71.09.28.35.35.59.33.48-.04.96-.13,1.44-.19,1.21-.15,2.17-1.1,3.51-1.02-.41-.68-.78-1.28-1.13-1.89-.36-.63-.69-1.28-1.05-1.96-.74-.12-1.02.09-1.37,1.11ZM122.34,20.45c-.14.75.19,1.31.68,1.73.78.68,1.61,1.29,2.4,1.92.59-.64,1.14-1.22,1.68-1.81-.77-.88-3.49-1.94-4.77-1.84ZM125.84,24.41c.1.42.3.53.61.51.62-.04,1.17.05,1.63.55.26.28.81.14.86-.2.04-.29.05-.67-.11-.88-.4-.57-.9-1.08-1.42-1.68-.54.59-1.06,1.15-1.57,1.71ZM123.35,26.74c.27-.4.54-.8.81-1.2-1.67-.55-3.29-.16-3.75.98.95.58,1.95.31,2.94.21ZM128.68,29.5c.08-.87.15-1.72-.31-2.53-.32.12-.58.22-.9.33.35.79.67,1.55,1.21,2.2ZM127.51,31.92c.64-.28,1.07-.76,1.4-1.36-.32-.16-.62-.31-1.01-.51.25.76-.12,1.29-.4,1.87ZM127.16,26.66c.59-.03,1.03-.12,1.24-.63-.48-.06-.93-.12-1.45-.19.07.28.14.53.21.82Z"/>
      <path class="cls-2" d="M151.48,11.46c.03-.34.06-.65.08-.95.02-.3.12-.5.46-.55,1.37-.19,2.69-.17,3.87.72.62.47,1.28.87,2.03,1.39-.06-.24-.08-.35-.13-.54.73.59,1.65.69,2.28,1.38.43.47,1.01.77,1.63,1,.75.28,1.37.81,1.91,1.4.3.32.68.47,1.08.62.79.3,1.56.63,2.33.95.16.07.32.17.44.3.67.76,1.33,1.53,1.99,2.3.43.5.8,1.07,1.29,1.51,1.41,1.27,2.11,2.87,2.38,4.7.12.77.17,1.54.29,2.31.04.22.2.43.36.6.38.44.66.9.5,1.51-.14.5-.45.84-.98.98-.49.13-.87,0-1.18-.38-.33-.39-.76-.5-1.26-.63-1.07-.28-2.11-.69-3.12-1.13-1.4-.61-2.79-1.26-4.02-2.2-.34-.26-.79-.41-1.21-.54-.67-.21-1.26-.54-1.75-1.04-.58-.6-1.27-1.03-2.09-1.24-.59-.15-1.05-.49-1.34-1.02-.5-.93-1.29-1.49-2.25-1.87-1.2-.48-2.39-.96-3.57-1.47-1.95-.83-3.55-2.08-4.66-3.92-.3-.49-.67-.94-1.01-1.41-.51-.69-.28-1.64.53-1.89,1.12-.34,2.26-.64,3.41-.87.53-.11,1.09-.02,1.71-.02ZM146.93,12.57c-.03.42.08.69.36.83,1.1.59,1.89,1.53,2.8,2.34.59.53,1.25.99,1.9,1.44.76.53,1.57,1.01,2.33,1.55.67.47,1.29,1.02,1.97,1.49.9.62,1.66,1.33,2.07,2.36.19.47.53.82,1.05.95.93.24,1.67.78,2.38,1.41.36.32.79.6,1.24.74.93.29,1.75.74,2.55,1.27,1.43.95,3.04,1.54,4.6,2.25.18.08.38.14.57.17.16.02.33-.03.57-.05-.33-.4-.57-.75-.87-1.04-.97-.98-1.94-1.94-3.3-2.4-.64-.22-1.25-.57-1.83-.93-.96-.6-1.88-1.27-2.82-1.9-.95-.63-1.84-1.33-2.55-2.23-.53-.66-1.17-1.14-2-1.37-.75-.21-1.36-.65-1.87-1.22-.33-.36-.62-.76-.94-1.12-.54-.59-1.03-1.25-1.66-1.72-.58-.43-1.19-.8-1.57-1.43-.01-.02-.03-.03-.05-.04-.57-.3-.65-.79-.54-1.37.02-.12.02-.25.03-.41-1.58-.68-2.97-.02-4.42.41ZM152.17,11.79c1.01.32,1.95.66,2.91.91,1.16.3,2.13.86,2.91,1.77.94,1.09,2.08,1.93,3.29,2.68,1.3.81,2.38,1.84,3.34,3.02.45.55.87,1.13,1.37,1.63,1.73,1.7,3.34,3.49,4.59,5.59.34.56,1,1.02,1.55,1.21-.02-.15,0-.29-.06-.4-.23-.55-.43-1.13-.74-1.63-1.54-2.46-3.1-4.91-4.7-7.35-.35-.53-.79-1.03-1.29-1.42-1.7-1.32-3.41-2.63-5.18-3.85-1.68-1.15-3.44-2.19-5.17-3.27-.81-.51-1.71-.51-2.66-.41-.06.5-.11.95-.18,1.53ZM168.72,25.98s.06-.09.1-.14c-.5-.59-.97-1.21-1.52-1.75-1.36-1.34-2.69-2.71-3.89-4.19-.69-.84-1.49-1.59-2.44-2.15-1.51-.9-2.95-1.9-4.13-3.22-.45-.5-.98-.91-1.63-1.12-.99-.31-1.99-.6-2.99-.89-.03,0-.08.03-.13.06-.11.42-.06.74.31,1.1.53.51.92,1.16,1.66,1.42.06.02.1.08.15.13.44.49.9.98,1.33,1.49.39.45.75.94,1.14,1.39.46.53,1.02.93,1.7,1.12.89.25,1.55.8,2.18,1.46.56.59,1.16,1.17,1.83,1.64,1.26.9,2.57,1.74,3.87,2.59.76.49,1.63.76,2.48,1.05ZM169.1,21.36c.54.8,1.09,1.6,1.63,2.39-.16-1.05-.74-1.82-1.63-2.39ZM166.33,17.71c-.38-.67-.76-.93-1.34-.98.43.32.83.61,1.34.98Z"/>
      <path class="cls-2" d="M164.76,50.67c.57-.81,1.14-1.63,1.7-2.44.05-.07.11-.16.11-.24.04-.73.11-1.46.07-2.18-.02-.38.02-.69.21-1.01.31-.51.77-.85,1.28-1.14.9-.51,1.9-.73,2.91-.9.28-.05.58-.11.81-.26,1.25-.84,2.46-.55,3.64.1.45.25.9.47,1.41.57.82.15,1.55.5,2.25.96.48.31,1.01.56,1.54.77,1.15.45,2.09,1.14,2.77,2.19.75,1.18,1.53,2.34,2.3,3.51.38.59.58,1.25.68,1.93.09.58.27,1.11.65,1.58.21.26.4.54.52.85.59,1.49,1.6,2.71,2.48,4.01.38.56.92,1.02,1.44,1.46.58.5,1.08,1.03,1.47,1.7.31.53.71,1.02,1.13,1.48.94,1.03,1.41,2.24,1.5,3.62.03.49.03.98.07,1.46.09,1.18-.19,2.29-.69,3.35-.44.92-.9,1.84-1.06,2.86-.18,1.18-.36,2.37-.55,3.55-.15.94-.36,1.87-.78,2.74-.51,1.05-.76,2.17-.83,3.33-.04.64-.19,1.26-.54,1.83-.12.2-.2.47-.17.69.1.59-.05,1.15-.16,1.71-.11.54-.23,1.08-.37,1.62-.12.47-.31.88-.65,1.27-.35.4-.53.96-.75,1.47-.19.45-.34.92-.51,1.37-.12.32-.29.6-.71.58-.52-.02-.86-.21-1.04-.64-.02-.04-.04-.08-.09-.19-.21.17-.42.32-.6.49-.87.85-1.89,1.01-3.02.67-.78-.23-1.51-.53-1.93-1.37-.76.49-1.61.48-2.45.47-.65,0-1.28.04-1.9.24-.32.1-.72.13-1.05.06-1.41-.3-2.8-.67-4.21-.99-1.58-.35-3.04-1.14-4.68-1.26-.71-.05-1.42-.13-2.12-.07-2.24.18-4.44-.07-6.63-.47-1.42-.26-2.83-.56-4.23-.88-1.1-.25-1.97-.88-2.63-1.8-.68-.93-1.39-1.84-2.09-2.76-.09-.12-.2-.24-.28-.38-.45-.84-1.09-1.48-1.88-2.03-.86-.59-1.22-1.43-.91-2.5.22-.77.43-1.54.58-2.32.38-2.01.3-4.02-.05-6.03-.13-.72-.18-1.45-.23-2.18-.11-1.64-.24-3.28-.28-4.92-.08-3.13.43-6.15,1.94-8.95.38-.7.76-1.4,1.19-2.08.24-.37.21-.73.18-1.14-.11-1.79-.38-3.6.2-5.35.27-.79.68-1.54,1.1-2.26.5-.86,1.28-1.42,2.25-1.65,1.66-.41,3.31-.86,4.99-1.15,1.38-.24,2.79-.17,4.18.07,1.46.25,2.25,1.18,2.51,2.58.21,1.14.32,2.29.06,3.44-.06.28-.07.57-.11.85.04.02.08.04.12.07ZM182.29,83.27c.05.12.09.22.14.32.41.97.32,1.91-.23,2.8-.28.46-.79.5-1.07.06-.5-.81-.63-1.87-.11-2.64.61-.9.59-.92-.09-1.74-.23-.27-.47-.53-.7-.8-.69-.78-1.42-1.53-2.06-2.36-1.13-1.46-2.38-2.81-3.71-4.09-1.93-1.87-3.36-4.13-4.76-6.4-.65-1.06-1.23-2.16-1.89-3.22-.34-.54-.73-1.07-1.19-1.51-.73-.69-1.51-.57-2.09.24-.05.07-.1.15-.15.22-.34.49-.76.57-1.23.2-.15-.12-.28-.28-.4-.44-1.57-2.18-2.04-4.59-1.46-7.21.22-.98.69-1.82,1.31-2.59.14-.17.28-.32.2-.59-.34-1.17-.33-1.17-1.39-1.77-.12-.07-.23-.14-.34-.21-1.69-1.03-3.55-1.48-5.51-1.56-.64-.03-.65.03-.72.67-.13,1.17-.26,2.33-.42,3.5-.1.75-.29,1.48-.37,2.23-.1,1.09-.57,1.92-1.46,2.56-1.55,1.1-2.71,2.56-3.6,4.22-.3.56-.47,1.19-.64,1.81-.13.47.01.7.46.9.34.15.71.24,1.07.37.72.28,1.48.49,2.16.86,1.84,1,3.35,2.41,4.65,4.04,1.15,1.44,2.39,2.81,3.72,4.08.88.84,1.76,1.68,2.61,2.56.84.87,1.7,1.68,2.79,2.23.51.26,1,.58,1.51.85.45.24.9.5,1.38.66,1.6.54,3.15,1.21,4.63,2.04.75.42,1.52.71,2.39.68.29,0,.57.06.86.09.67.07,1.25.31,1.64.89.39.6.97.96,1.58,1.29,1.06.57,2.11,1.14,3.14,1.75.74.44,1.43.52,2.14-.04.19-.15.3-.29.32-.53.2-2.41-.06-4.74-1.07-6.96-.07-.15-.15-.29-.25-.48-.25.56-.44,1.08-.72,1.55-.29.49-.68.93-1.07,1.44ZM183.64,89.21c-.58-.24-1.08-.42-1.55-.65-1.13-.57-2.23-1.18-3.37-1.73-.8-.39-1.62-.72-2.31-1.31-.35-.3-.76-.42-1.24-.36-.48.06-.97.09-1.46.11-2.82.12-5.53-.32-8.09-1.55-.7-.34-1.41-.65-2.14-.91-1.15-.4-2.15-1.02-3.12-1.75-.97-.74-1.6-1.63-1.8-2.84-.15-.91-.57-1.72-1.1-2.48-.23-.33-.42-.68-.61-1.03-.46-.86-.9-1.73-1.38-2.58-.87-1.56-2.1-2.8-3.49-3.9-.9-.71-1.88-1.25-2.99-1.55-.41-.11-.81-.23-1.21-.38-.97-.37-1.14-.71-.91-1.74,0-.02.01-.04.02-.06.25-1.19.82-2.24,1.47-3.26.61-.95,1.22-1.91,1.8-2.88.14-.23.26-.56.2-.8-.17-.72-.44-1.41-.68-2.13-.11.05-.16.06-.18.09-.05.05-.08.11-.12.16-1.93,3.08-2.78,6.48-2.77,10.08,0,2.69.31,5.37.83,8.01.51,2.53.57,5.06.21,7.62-.19,1.39-.31,1.98,1.37,2.87.12.06.24.12.35.2.52.41,1.09.78,1.55,1.25,1.25,1.29,2.46,2.63,3.67,3.95.28.31.59.51,1.01.58.59.1,1.17.24,1.76.35,1.85.36,3.71.69,5.61.65,2.77-.06,5.44.38,7.96,1.57.2.09.41.16.63.22,1.08.33,2.17.65,3.25.97.54.16,1.07.21,1.63.02.35-.12.74-.17,1.11-.18,1.2-.04,2.41-.05,3.65-.07.1-1.93,1.01-3.36,2.41-4.56ZM173.35,45.33c-.35.4-.66.77-.98,1.13-.45.49-.85,1.06-1.38,1.42-2.03,1.38-3.79,3.08-5.62,4.68-.1.09-.17.23-.26.35,1.54.86,3.02,1.7,4.51,2.54,3.32,1.86,6.14,4.31,8.43,7.34,1.54,2.04,2.94,4.17,4.4,6.26.74,1.06,1.17,2.25,1.32,3.52.21,1.83.35,3.67.53,5.5.02.24.06.49.18.69,1.5,2.55,2.06,5.31,1.84,8.24-.02.23,0,.47,0,.7,1.59.06,2.03.2,2.35.81-.35.17-.74.52-1.04.46-.6-.13-.9.2-1.28.51.18.27.34.52.5.77-.46.3-.79-.04-1.15-.17-1.05,1.08-1.73,2.29-1.77,3.95.34-.24.58-.39.79-.57.61-.52,1.21-1.04,1.8-1.58.53-.49,1.1-.73,1.82-.48.12.04.26.03.38.04.56-.8.62-.99.53-1.87-.06-.62-.17-1.23-.2-1.85-.02-.53-.02-1.07.1-1.58.15-.65.08-1.23-.3-1.76-.58-.82-1.08-1.68-1.34-2.66-.16-.6-.25-1.21-.42-1.81-.35-1.25-.48-2.51-.35-3.81.13-1.32.34-2.59.98-3.77.72-1.32.96-2.73.89-4.24-.08-1.7-.47-3.24-1.74-4.47-.33-.32-.61-.71-.84-1.11-.36-.66-.88-1.16-1.43-1.64-.51-.45-1.06-.91-1.43-1.47-.89-1.32-1.93-2.55-2.53-4.06-.13-.32-.34-.63-.55-.91-.37-.49-.61-1.02-.7-1.63-.11-.73-.31-1.43-.72-2.05-.55-.83-1.07-1.69-1.64-2.51-1.48-2.16-1.18-1.86-3.26-2.75-.1-.04-.2-.09-.38-.16ZM162.32,51.48c-.15-2.38-.85-4.37-2.22-6.11-.05-.07-.11-.16-.18-.19-.15-.07-.34-.17-.48-.14-.75.2-1.5.41-2.22.68-.25.09-.46.34-.64.56-.63.82-1.08,1.73-1.38,2.71-.04.14-.05.28-.08.47,2.55.08,4.92.61,7.2,2.02ZM181.96,83.64c-.74.76-.8,1.52-.26,2.24.42-.69.51-1.39.26-2.24Z"/>
      <path class="cls-2" d="M136.96,164.07c-.68-1.62-.65-3.28-.45-4.94.31-2.5,1.05-4.9,1.79-7.3.88-2.82,1.73-5.64,2.91-8.36.63-1.45,1.39-2.82,2.33-4.1,1.29-1.75,3.03-2.77,5.1-3.28,1.5-.37,3.03-.43,4.57-.38,1.05.04,2.01.39,2.84,1.03.93.72,1.83,1.48,2.74,2.22.33.27.65.54.98.8.71.54,1.5.8,2.42.78,1-.02,2,.01,2.99.12,1.47.16,2.73.87,3.99,1.59,1.02.58,2.08,1.08,3.12,1.61.16-.12.27-.19.36-.29.59-.6,1.31-.98,2.11-1.21.98-.28,1.97-.55,2.94-.84.69-.21,1.39-.26,2.11-.25.87.01,1.29.8,1.95,1.17.38.21.44.72.39,1.15-.08.81-.2,1.62-.34,2.43-.14.8-.31,1.6-.47,2.4.05.02.1.04.15.06.26-.53.59-1.03.77-1.59.5-1.51,1.53-2.1,3.08-2.07,1.64.03,3.16.38,4.54,1.29.66.44,1.1,1.08,1.54,1.73.49.74.98,1.48,1.51,2.19.43.58.63,1.23.65,1.92.03.95.29,1.79.94,2.5.47.52.6,1.18.65,1.85.05.68.21,1.3.59,1.88.37.56.31.74-.13,1.29-.21.26-.42.53-.57.82-.26.5-.66.82-1.16,1.05-1.6.76-3.21,1.52-4.8,2.3-1.36.66-2.83.86-4.3,1.09-1.36.21-2.71.48-4.05.8-.9.21-1.64.77-2.37,1.33-.64.49-1.29.94-2.09,1.1-.66,1.54-1.8,2.24-3.46,2.14-.27-.02-.53-.03-.8-.07-.87-.12-1.25-.73-1.02-1.57.22-.79.45-1.58.61-2.38.15-.74.32-1.41,1.24-1.45.07-.86.15-1.65.2-2.44.06-1,.08-1.99.16-2.99.13-1.74-.44-3.23-1.62-4.58-.22.13-.46.26-.7.41-2.22,1.4-4.31,2.98-6.31,4.68-.28.24-.48.51-.59.86-.48,1.6-1.19,3.1-1.94,4.59-.91,1.81-2.18,3.28-3.98,4.27-1.34.74-2.68,1.48-4.03,2.2-.71.38-1.48.59-2.28.68-.19.02-.44.07-.58-.02-.4-.25-.81-.17-1.23-.13-.24.02-.49.04-.73.06-.13.01-.29-.02-.39.04-1.05.59-2.23.48-3.36.62-.29.04-.53.09-.8.25-.91.55-1.91.5-2.9.24-.36-.1-.54-.46-.48-.92.07-.45-.06-.85-.3-1.2-.83-1.19-1.2-2.51-1.28-3.94-.02-.29-.14-.58-.21-.9-.53.15-.64.52-.68.89-.06.6-.04,1.21.23,1.76.39.8.81,1.58,1.21,2.37.25.5.49.99.72,1.5.2.45.04.79-.3,1.13-.49.48-1.06.65-1.73.72-1.11.11-2.21.11-3.3-.17-.61-.15-1.14-.43-1.57-.93-.29-.34-.71-.59-1.09-.85-.22-.15-.33-.31-.35-.59-.05-.65.17-1.22.46-1.78.18-.35.34-.72.45-1.1.43-1.51.96-2.97,2.06-4.13.39-.41.86-.76,1.31-1.16ZM137.61,163.8c.73-.18.72-.18.72-.76,0-.22.04-.44.1-.65.97-3.12,2.1-6.18,3.53-9.12.69-1.42,1.41-2.84,2.48-4.01,1.68-1.85,3.62-3.41,5.72-4.76,1.15-.74,2.43-1.21,3.82-1.25,1.46-.05,2.93-.09,4.39-.09.39,0,.81.08,1.16.25,1.55.75,2.83,1.83,3.66,3.36.28.52.42,1.12.56,1.7.05.23-.05.53-.17.74-.17.31-.45.55-.64.85-.28.45-.54.91-.8,1.38-.18.33-.09.58.22.79,1,.66,1.34,1.6,1.13,2.77-.04.26-.07.55.01.79.22.61.51,1.2.81,1.9,1.95-2.04,4.3-3.4,6.49-4.95-.22-.76-.42-1.44-.6-2.13-.48-1.88-.16-3.61.97-5.18.21-.29.4-.58.62-.9-.11-.08-.18-.16-.27-.21-1.24-.74-2.47-1.49-3.72-2.21-1.39-.81-2.89-1.25-4.51-1.14-.4.03-.8.03-1.2.05-1.65.09-3.11-.39-4.38-1.44-.19-.16-.37-.32-.57-.46-1.01-.76-2-1.55-3.05-2.25-.43-.28-.97-.51-1.48-.53-2.68-.1-4.97.77-6.66,2.94-1.15,1.48-2.09,3.09-2.83,4.81-1.84,4.26-3.4,8.63-4.79,13.06-.57,1.81-.88,3.67-.82,5.58.01.34.07.69.11,1.08ZM178.08,165.54c.68-.3,1.24-.48,1.72-.78.95-.6,2-.82,3.09-.96.75-.1,1.51-.14,2.19-.5,2.56-1.33,5.32-2.24,7.85-3.63.37-.2.76-.36,1.15-.52.6-.24.63-.36.36-.93-.26-.56-.51-1.13-.71-1.71-.26-.76-.65-1.39-1.35-1.84-.78-.5-1.39-1.17-1.89-1.95-.3-.47-.63-.91-.99-1.34-.85-1.03-1.67-2.07-2.3-3.26-.49-.92-1.18-1.66-2.1-2.18-.69-.39-.96-.36-1.48.26-.16.18-.28.4-.39.62-.25.49-.48,1-.73,1.5-.72,1.42-1.15,2.88-.87,4.49.03.15.03.31.05.46.09.75-.04,1.46-.34,2.14-.16.37-.34.73-.48,1.1-.68,1.73-1.58,3.38-2.02,5.2-.29,1.23-.5,2.47-.77,3.82ZM172.75,144.01c.3.16.59.28.84.45.57.37,1.18.72,1.69,1.16.46.4.83.92,1.22,1.4.12.15.23.34.26.53.22,1.38.16,2.69-.92,3.78-.99,1-2.11,1.83-3.26,2.62-.2.13-.39.28-.62.44.28.44.51.84.78,1.22.64.9.95,1.91,1,2.99.05,1.37.05,2.75.07,4.13,0,.4-.05.82.15,1.28,1.78-1.45,3.17-3.1,4.04-5.13.46-1.06.94-2.11,1.53-3.1.54-.89.85-1.87.98-2.88.13-.96.24-1.94.31-2.9.14-1.82.44-3.61.72-5.41.06-.39.08-.79.08-1.19-.01-.77-1.15-1.96-1.93-2-.31-.02-.63-.01-.92.06-1.39.37-2.78.76-4.16,1.15-.23.07-.46.18-.67.3-.46.27-.88.58-1.19,1.08ZM143.07,172.39c.12-.07.17-.08.19-.12.05-.07.09-.15.12-.23.31-.97.32-1.94-.1-2.86-.5-1.09-1.01-2.17-1.6-3.22-.29-.51-.71-.97-1.15-1.36-.68-.6-1.16-.6-1.82.02-.47.45-.92.98-1.23,1.55-.66,1.2-.99,2.51-1.18,3.86-.02.17,0,.34,0,.54,1.14.09,1.89.85,2.89,1.5-.11-.27-.15-.38-.21-.49-.26-.52-.52-1.03-.78-1.55-.36-.71-.49-1.46-.44-2.26.09-1.29.63-1.8,1.9-1.73.51.03.72.18.85.68.1.39.16.78.21,1.18.23,1.78,1.16,3.18,2.35,4.48ZM172.16,144.74c-1.88,2.22-2.3,5.59-.94,7.73.56-.52,1.11-1.03,1.64-1.56.44-.44.69-.99.76-1.59.11-.9.26-1.81-.17-2.68-.06-.12-.09-.25-.1-.38-.06-.76-.55-1.17-1.19-1.51ZM174.37,164.59c.75.5,1.41.95,2.07,1.38.46.3,1,.12,1.19-.39.08-.2.11-.43.16-.64.28-1.25.55-2.51.83-3.76.01-.07,0-.14.01-.2-1.22,1.46-2.64,2.64-4.27,3.62ZM136.78,171.4l-.09.08c.1.3.2.59.32.93.25-.09.45-.15.77-.26-.4-.3-.7-.52-1-.75Z"/>
      <path class="cls-2" d="M54.8,163.4c.1.42.19.8.26,1.15-.03-.38-.12-.77-.26-1.15ZM90.39,154.56c-.52-.23-1.06-.48-1.52-.82-.92-.67-1.93-.96-3.05-.97-.3,0-.61-.02-.85-.03-.24-.61-.4-1.14-.64-1.64-1.09-2.38-2.49-4.56-4.29-6.46-.93-.98-1.65-2.08-2.25-3.28-.68-1.35-1.39-2.69-2.17-3.98-1.05-1.72-2.4-3.13-4.46-3.66,0-.11-.02-.2,0-.28.31-1.17.06-2.25-.59-3.24-.71-1.1-1.45-2.19-2.2-3.26-1.28-1.81-3.04-2.85-5.21-3.29-3.17-.63-6.37-.89-9.6-.85-1.22.01-2.46.05-3.68.05-.13.01-.25.01-.38.01-3.59,0-7.07.56-10.45,1.78-4.73,1.72-8.61,4.56-11.44,8.76-.67.99-1.3,2-1.95,3.01-.93,1.47-1.74,3-2.33,4.63-.1.27-.22.47-.49.59-1,.45-1.73,1.23-2.37,2.09-.32.43-.67.87-.86,1.39-.07.17-.11.35-.14.54-.06.42-.14.83-.19,1.25-.25,1.76-.49,3.52-.93,5.24-.38,1.49-.55,3.01-.6,4.55-.03.8.06,1.58.31,2.36.29.86.54,1.74.69,2.63.26,1.54.74,2.96,1.71,4.21.38.49.71,1.03.96,1.6.78,1.8,1.82,3.45,2.85,5.11,1.01,1.64,2.24,3.09,3.65,4.39.51.47.98.97,1.46,1.47.65.66,1.3,1.33,1.94,2,.13.13.24.26.33.41.2.35.41.69.57,1.05.31.66.6,1.34.87,2.01.06.14.05.31.02.46-.24,1.11.27,1.49,1.04,1.79.73.28,1.49.46,2.22.7.54.18,1.1.36,1.61.61,1.77.85,3.59,1.52,5.55,1.79,2.76.39,5.53.44,8.31.25.06,0,.12-.04.18-.06.01,0,.02-.01.03-.01-.02-.09-.02-.14-.04-.17-.78-.95-1.45-1.96-1.97-3.07-.05-.11-.14-.22-.25-.3-.07-.06-.15-.1-.23-.13-.8-.33-1.59-.69-2.42-.9-2.13-.54-4.27-1.03-6.42-1.49-1.28-.28-2.54-.59-3.72-1.22-.44-.23-.93-.44-1.42-.54-1-.2-1.81-.7-2.55-1.36-.38-.34-.78-.66-1.16-1-.83-.77-1.61-1.6-2.5-2.3-2.91-2.28-4.99-5.22-6.72-8.42-.62-1.16-1.21-2.33-1.96-3.4-.55-.78-.88-1.64-1.03-2.58-.22-1.33-.45-2.66-.89-3.95-.14-.39-.16-.83-.17-1.25-.05-1.47.1-2.93.35-4.37.23-1.32.47-2.64.65-3.97.11-.85.19-1.7.23-2.56.05-.93.24-1.8.87-2.53.4-.47.8-.95,1.24-1.39.29-.29.62-.55,1.09-.67-.01.16,0,.27-.02.38-.24,1.36-.24,2.73-.15,4.11.06.8.11,1.59.17,2.39.03.46.09.92.13,1.38.04.44.13.89.08,1.32-.22,1.76-.47,3.52-.36,5.3.04.8.16,1.58.49,2.31.03.07.06.14.11.21.08.13.14.24.18.32.03.06.07.12.11.18.54.78,1.04,1.61,1.44,2.47.64,1.34,1.19,2.72,1.75,4.1.28.69.63,1.32,1.15,1.85.91.95,1.77,1.93,2.51,3.01.25.36.57.69.9.98.88.76,1.61,1.63,2.23,2.62,0,.01.01.01.01.02.88,1.4,1.83,2.78,3.02,3.94,1.21,1.18,2.59,2.01,4.31,2.17,1.42.13,2.83.32,4.25.4.28.01.56.02.84.01.11,0,.23-.01.34-.01.13,0,.25,0,.38,0,.03-.01.05-.01.08-.01.42-.02.85-.04,1.28-.06.13-.01.27-.02.36-.13.02-.02.04-.05.06-.09.02-.04.03-.08.04-.13-.04,0-.09,0-.13,0-.09-.01-.17-.02-.25,0-.96.27-1.93.24-2.9.14-1.13-.12-2.25-.24-3.38-.33-1.32-.11-2.53-.51-3.52-1.41-.25-.23-.5-.47-.73-.71-.59-.59-1.12-1.23-1.59-1.94-1.18-1.81-1.96-3.83-2.97-5.72-.06-.1-.1-.2-.13-.31-.38-1.4-1.13-2.6-1.98-3.75-.37-.5-.63-1.04-.86-1.6-.07-.2-.14-.39-.21-.59-.51-1.45-1.08-2.87-1.62-4.3-.07-.16-.17-.31-.26-.46-.49-.79-.99-1.58-1.47-2.38-.16-.26-.28-.55-.37-.85-.46-1.51-.83-3.03-.55-4.63.05-.31,0-.62-.02-.93-.01-.4-.08-.8-.06-1.2.02-.63-.14-1.17-.56-1.65-.56-.64-.84-1.4-.95-2.24-.08-.64-.16-1.28-.31-1.9-.12-.54-.11-1.05,0-1.58.27-1.35.3-1.4,1.67-1.44.98-.02,1.96-.01,2.93,0,1.46.02,2.86.29,4.24.78,2.44.87,4.57,2.25,6.56,3.87.19.16.33.42.4.66.24.92.45,1.85.65,2.78.08.35.24.56.58.73.09.04.17.09.26.13,1.71.87,3.42,1.77,5.11,2.66.49.26,1,.58,1.21,1.11.02.04.03.08.06.12,2.67,1.67,5.21,4.06,6.6,7.47,0-.01.01-.03.02-.05.32.73.64,1.46.96,2.18.47,1.05.94,2.11,1.44,3.15.76,1.61,2.03,2.66,3.69,3.27,2.08.77,4.22,1.02,6.41.75.62-.08,1.15-.33,1.58-.79.5-.54.5-1.06-.13-1.45-1.3-.81-2.63-1.56-3.96-2.31-.43-.25-.87-.45-1.32-.64-1.21-.51-2.26-1.24-3.15-2.19-.25-.26-.53-.5-.88-.83.24-.03.37-.05.49-.06.64-.05,1.2-.29,1.69-.71.32-.27.67-.52.97-.81.25-.25.51-.29.84-.21.86.21,1.63.58,2.36,1.06,1.06.71,2.17,1.28,3.45,1.5,1.11.2,2.21.16,3.32.11,2.33-.1,4.64-.39,6.92-.91.85-.2,1.66-.51,2.39-.98,1.05-.67,2.02-1.46,2.89-2.36.63-.65.93-1.45.94-2.34.02-.96,0-1.91,0-2.87v-.48c.71-.14,1.27.03,1.82.31.78.41,1.59.79,2.4,1.14.95.4,1.14.62,1.14,1.63-.01,1.18-.01,2.35-.07,3.53-.07,1.23-.42,2.4-.95,3.51-1.03,2.12-2.04,4.26-3.45,6.15-1.15,1.55-2.44,3-3.72,4.44-.96,1.1-1.98,2.16-3.04,3.17-.56.52-1.23.95-1.9,1.32-.97.54-2.02.75-3.15.6-1.19-.15-2.39-.2-3.58-.27-.49-.03-.91-.17-1.28-.49-.35-.31-.7-.61-1.05-.93-1.25-1.14-2.72-1.81-4.4-2.02-.58-.08-1.12-.24-1.63-.55-.54-.33-1.15-.27-1.75-.21-.12.01-.24.03-.39.06-.04.01-.08.02-.13.03-.22-.49-.48-.95-.66-1.45h-.01c-.35-1.05-.97-1.81-1.96-2.31-1.02-.51-1.81-1.26-2.35-2.29-.29-.57-.65-1.12-1.01-1.72-.74-.61-1.4-1.47-.9-.4.22.22.42.43.57.71.16.32.35.63.53.94.09.17.19.34.27.51.56,1.12,1.45,1.91,2.53,2.49.02.01.04.02.06.04.49.26.86.62,1.15,1.05.17.25.31.53.42.84.19.54.37,1.11.69,1.58.35.52.34.96.03,1.46-.1.17-.15.37-.25.54-.08.13-.19.24-.3.35-.35.3-.72.58-1.04.91-.4.43-.78.88-1.16,1.35-.01.02-.02.03-.03.05t-.02.02c-.39.5-.83.62-1.46.43-.58-.18-1.21-.24-1.83-.3h-.04c-1.26-.13-2.41.38-3.56.81-.09.04-.16.17-.24.26.07.03.14.04.21.05.12.02.22.01.32-.03.57-.19,1.13-.4,1.7-.59.89-.3,1.77-.33,2.67-.03.4.14.82.23,1.23.29.76.11,1.4-.1,1.9-.7s1.04-1.17,1.57-1.73c.16-.17.37-.32.59-.42.29-.14.61-.22.95-.34.08.19.17.39.25.59.3.85.74,1.61,1.45,2.2.56.46.92,1.07,1.2,1.73.46,1.06.96,2.1,1.59,3.07.48.74.6,1.6.45,2.45-.07.03-.09.05-.11.05-.13.01-.26.02-.4.02-1.19.02-2.4-.05-3.54.43-.35.15-.73.08-1.11-.09.19-.54-.1-.84-.52-1.01-.49-.2-1-.38-1.51-.51-1.41-.34-2.86-.42-4.3-.45-.99-.03-1.99.07-2.99.11-.08,0-.16.05-.27.09.06.17.1.32.16.45.46.95,1.07,1.79,1.73,2.6.27.33.55.5.97.42,1.07-.2,2.14-.38,3.2-.6,1.05-.22,2.06-.43,3.14-.1,1.72.53,3.45.61,5.15-.13.63.46,1.32.63,2.08.44.07-.02.12-.03.18-.05h.01c.14-.05.24-.1.31-.17.1-.11.13-.27.15-.55.03-.56.02-1.11.02-1.67,0-.81-.28-1.5-.79-2.14-.56-.71-1.1-1.44-1.59-2.21-.65-1-1.38-1.9-2.39-2.56-.48-.31-.85-.72-1.1-1.22-.31-.61-.6-1.24-.9-1.86-.16-.34-.03-.59.2-.82.59.14,1.15.29,1.72.38.76.14,1.44.45,2.05.91.47.37.95.75,1.34,1.19.9.99,2.02,1.39,3.32,1.44,1.44.06,2.88.14,4.32.3,1.49.16,2.91,0,4.3-.57,1.44-.6,2.55-1.62,3.54-2.76.93-1.08,1.8-2.2,2.68-3.32.76-.95,1.55-1.89,2.24-2.9.03-.04.06-.09.08-.13.13-.18.25-.36.37-.55,1.2-1.86,2.2-3.84,3.17-5.83.57-1.17.96-2.4,1.03-3.7.08-1.28.05-2.57.13-3.86.06-.92-.34-1.45-1.15-1.81ZM47.06,127.87c-1.1.27-2.19.3-3.3.12-.5-.08-1.01-.09-1.52-.12-.58-.04-1.07.18-1.38.66-.4.61-.82,1.22-1.09,1.89-.64,1.61-1.15,3.28-1.42,4.99-.3,1.89-.26,3.81.07,5.7.23,1.29.58,2.55.87,3.83.02.1.05.2.11.44-.28-.2-.45-.31-.62-.44-.4-.3-.8-.6-1.21-.87-1.42-.98-2.92-1.81-4.57-2.38-1.46-.51-2.96-.77-4.5-.77-1.29.01-2.57.07-3.86.1-.08.01-.17-.01-.34-.03.04-.09.09-.18.12-.27.25-.53.47-1.02.73-1.51,1.58-3.03,3.48-5.84,5.88-8.28,3-3.03,6.62-5.03,10.72-6.19,2.37-.67,4.77-1.07,7.22-1.07,2.22,0,4.45-.04,6.67.03,2.22.07,4.42.33,6.58.87,1.06.27,2,.75,2.84,1.42,1.68,1.36,3.21,2.87,4.63,4.5.51.59.96,1.24.97,2.07,0,.37-.05.74-.08,1.13-.17.04-.23.07-.3.07-2.39.19-4.77.41-7.16.55-1.02.06-2.04.12-3.13-.1.06-1.11-.52-2.13-.24-3.27.2-.87-.08-1.23-.92-1.49-.25-.08-.52-.14-.78-.17-1.9-.26-3.79-.39-5.71-.18-.26.03-.56-.09-.81-.22-.31-.17-.59-.4-.85-.64-.49-.44-1.07-.64-1.71-.6-.64.05-1.29.07-1.91.23ZM50.69,154.24c-.05.17-.14.32-.23.51-.56-.35-.68-.83-.74-1.38-.2-1.92-.37-3.84-.3-5.78.04-.92.25-1.8.58-2.65.44-1.14.94-2.25,1.41-3.38.27-.68.55-1.36.79-2.05.3-.88.77-1.65,1.46-2.27.72-.66,1.45-1.3,2.21-1.91.9-.72,1.93-.96,3.1-.78.24.49.13,1-.06,1.46-.32.8-.66,1.6-1.09,2.35-.64,1.1-1.15,2.25-1.53,3.46-.69,2.12-1.61,4.13-2.64,6.1-1.08,2.06-2.18,4.12-2.96,6.32ZM61.54,165.81c1.46.7,2.83,1.58,4.14,2.54.04.02.08.05.11.08.25.25.69.39.53.89-.1.33-.7.79-1.09.74-.81-.1-1.64-.2-2.41-.44-1.51-.47-2.74-1.37-3.59-2.72-.91-1.47-1.8-2.96-2.71-4.46,1.06-.11,1.64.49,2.16,1.14.78.97,1.74,1.69,2.86,2.23ZM58.47,162.19c-.54,0-.92-.19-1.24-.63-.28-.39-.64-.72-.97-1.08-.18-.2-.41-.24-.74-.09.14.28.27.55.41.83-.66-.56-1.54-.92-1.73-1.92,2.48.02,4.85.36,7.26,1.16-.95.76-1.66,1.73-2.99,1.73ZM83.02,153.05c-.98.29-1.97.55-2.93.87-1.98.67-4.03.87-6.1.94-.97.03-1.95.03-2.93.05-.72,0-1.44.12-2.02.56-1.23.92-2.61,1.58-3.93,2.36-.93.56-1.82,1.19-2.67,1.87-.45.36-.85.41-1.39.28-1.19-.29-2.38-.54-3.58-.75-.59-.1-1.2-.07-1.79-.11-.25-.01-.49-.06-.73-.07-.47-.02-.73-.2-.91-.68-.18-.48-.58-.88-.9-1.3-.14-.17-.32-.3-.55-.52.31-.39.57-.79.91-1.14,1.44-1.47,2.89-2.94,4.35-4.4,1.4-1.39,2.9-2.7,4.21-4.16,2.06-2.3,3.99-4.71,6-7.05,1.22-1.42,2.02-3.07,2.65-4.81.08-.21.15-.41.26-.7,1.11.69,1.89,1.56,2.41,2.63.6,1.19,1.11,2.42,1.65,3.64.13.3.25.61.37.92.52,1.4,1.42,2.55,2.42,3.63.99,1.05,1.99,2.1,2.87,3.24.87,1.12,1.61,2.33,2.38,3.53.19.28.27.64.43,1-.2.07-.34.13-.48.17ZM64.63,188.26c-.57.04-1.14.08-1.71.12-.01-.05-.01-.09-.01-.14.56-.25,1.12-.43,1.73-.18-.01.07-.01.14-.01.2ZM54.8,163.4c.1.42.19.8.26,1.15-.03-.38-.12-.77-.26-1.15ZM54.8,163.4c.1.42.19.8.26,1.15-.03-.38-.12-.77-.26-1.15Z"/>
      <path class="cls-1" d="M55.06,164.55c-.07-.35-.16-.73-.26-1.15-.21-.56-.43-1.12-.64-1.68-.03-.08-.04-.16.01-.28-1.39-3.41-3.93-5.8-6.6-7.47.19.45.5.72.96.88,0,.01,0,.08.02.15-.45.03-.92.05-1.23-.3-.47-.52-1.04-.82-1.68-1.05-1.12-.4-2.25-.8-3.38-1.2-.13-.04-.27-.05-.56-.11.24.25.36.43.52.52.55.33,1.09.69,1.68.93,1.15.45,2.34.83,3.51,1.24.14.05.26.14.39.2-.01.11-.02.17-.03.24-.08.5-.06.54.41.62.3.05.62.05.92.08,2.09.22,3.76,2.45,2.37,5.01-.64-.44-1.26-.9-1.91-1.32-.66-.42-1.28-.94-2.07-1.05-.19-.69-.33-1.36-.55-2.01-.46-1.38-1.01-1.77-2.46-1.77-.77,0-1.55.07-2.32.1-1.76.07-3.34.69-4.79,1.64-.29.19-.55.46-.77.73-.29.39-.19.72.24.9.25.11.51.18.77.22,2.14.32,4.28.41,6.42-.07.49-.11.99-.17,1.53.17-.22.13-.37.24-.55.31-.47.2-.95.36-1.42.56-.39.16-.79.31-1.15.52-.14.08-.25.32-.25.48,0,.1.24.24.4.27.78.19,1.54.13,2.26-.23.56-.28,1.1-.59,1.65-.87.15-.08.3-.13.49-.2.04.51-.21.84-.47,1.13-.41.46-.87.89-1.3,1.34-.59.62-1.19,1.25-1.75,1.9-.35.42-.51.94-.56,1.48-.1,1.07.38,1.76,1.44,1.96.56.11,1.14.12,1.72.12.85,0,1.47-.42,1.9-1.15.23-.4.44-.82.66-1.23.08-.14.17-.28.32-.53.04.29.02.48.09.62.08.16.24.39.38.4.52.04,1.06.05,1.58,0,.17-.02.34-.26.46-.44.16-.24.27-.52.46-.9.18.55.29,1.01.48,1.42.17.38.38.77.67,1.05-.5-1.07.16-.21.9.4-.01-.01-.02-.03-.03-.04.18-.04.27-.08.37-.09.44-.03.62-.31.68-.7.09-.58.13-1.16.07-1.74ZM43.61,160.5c-.03-.06-.06-.12-.09-.17.32-.14.64-.27.96-.41.02.04.04.08.06.13-.31.15-.62.3-.93.45ZM42.01,158.55c-1.35.16-2.7,0-4.03-.24-.18-.03-.36-.15-.59-.25.21-.56.58-.84.98-1.08,1.58-.98,3.29-1.51,5.18-1.33.2.02.44.1.6.23.76.6,1.24,1.41,1.7,2.37-1.37-.19-2.6.15-3.84.3ZM48.77,161.78c-.53.05-.81.33-.99.83-.44,1.18-1.01,2.31-1.72,3.36-.1.14-.21.28-.33.41-.04.05-.11.07-.25.15-.08-.24-.18-.45-.2-.67-.06-.71.13-1.37.54-1.94.35-.48.75-.93,1.14-1.39.52-.63,1.04-1.25,1.62-1.93.37.31.78.64,1.27,1.05-.44.05-.76.1-1.08.13ZM53.76,165.29c-.35-1.11-.5-2.15-.73-3.16.62.46,1.03,2.22.73,3.16Z"/>
      <path class="cls-2" d="M32.98,86.97c.07.6.06,1.26.23,1.87.21.73.51,1.44.57,2.22.02.2.16.42.3.58.38.44.58.94.63,1.51.03.37.22.65.45.94.25.32.49.69.61,1.08.53,1.83,1,3.68,1.54,5.51.2.69.19,1.35.07,2.03-.13.77-.26,1.53-.35,2.3-.06.56-.32.93-.8,1.22-1.46.88-3.04,1.45-4.69,1.85-.49.12-.97.31-1.41.54-.56.29-1.14.51-1.77.53-1.8.06-3.59.1-5.39.14-1.27.03-2.53-.08-3.76-.38-.26-.06-.52-.12-.79-.14-1.28-.1-2.4-.61-3.43-1.33-.72-.5-1.33-1.1-1.74-1.89-.31-.59-.64-1.16-.96-1.75-.44-.82-.37-1.7-.16-2.54.38-1.46.81-2.9,1.29-4.33.22-.66.61-1.27.94-1.95-.14-.11-.3-.22-.44-.36-.31-.31-.65-.61-.9-.96-.29-.4-.6-.77-1.07-.97-.64-.27-.87-.74-.8-1.43.11-1.14.42-2.15,1.29-2.97,1.15-1.08,2.25-2.21,3.37-3.32,1.24-1.23,2.67-2.19,4.17-3.08,1.28-.76,2.65-.81,4.06-.68.24.02.48.07.73.08.57.02,1.14.07,1.63-.36.21-.18.52-.25.79-.35,1.17-.41,2.34-.84,3.53-1.2.54-.17,1.13-.22,1.7-.28.53-.05,1.06-.03,1.59-.06.41-.02.68.09.89.5.68,1.32.92,2.73.88,4.19-.02.89-.4,1.64-1.13,2.17-.5.36-1.05.66-1.66,1.04ZM14.56,94.71c.66-.76,1.3-1.53,1.98-2.26,1.04-1.13,1.78-2.41,2.25-3.88.27-.84.62-1.66.97-2.47.37-.86,1.03-1.41,1.93-1.71,1.22-.42,2.41-.89,3.63-1.31.49-.17.81-.5,1.06-.92-.28-.31-.6-.19-.9-.15-.8.1-1.6.07-2.37-.18-.52-.17-.99-.12-1.49.07-1.48.57-2.86,1.36-4.05,2.39-1.61,1.4-3.1,2.92-4.67,4.35-.84.77-1.21,1.7-1.27,2.82-.03.52.11.86.56,1.08.53.27.92.68,1.24,1.17.28.43.67.76,1.14.98ZM15.11,94.76l.12.15c.11-.06.24-.09.32-.17.4-.41.8-.83,1.19-1.25.54-.58,1.04-1.22,1.63-1.74.91-.81,1.89-1.54,2.83-2.32.34-.28.65-.61.94-.94.48-.55.94-1.13,1.42-1.68.45-.52.79-1.1,1.04-1.81-1.07.18-2.01.5-2.68,1.31-.54.65-1.07,1.31-1.48,2.04-.96,1.7-2.15,3.2-3.58,4.53-.63.58-1.17,1.26-1.76,1.89ZM27.1,81.72c1.62.98,2.36,2.63,3.58,3.86-.27-1.65-.6-3.27-1.64-4.63-.68.18-1.34.27-1.95.78ZM31.32,80.34c-.55.16-1.02.29-1.52.43.81,1.11,1.56,2.14,2.31,3.17.04-.02.08-.04.12-.06-.3-1.15-.59-2.3-.91-3.53ZM33.61,80.12c-.39-.03-.73-.06-1.03-.08.41.54.83,1.1,1.25,1.65.04-.02.08-.05.12-.07-.11-.51-.23-1.01-.34-1.5ZM32.66,85.99c-.45-.52-.83-.96-1.2-1.4.09.6.1,1.2.38,1.75.28-.12.52-.22.82-.35ZM33.1,82.77c.19.72.35,1.32.53,2.02.35-.5.39-.94.33-1.41-.26-.18-.5-.36-.86-.62Z"/>
    </g>
  </g>
</svg>