<?xml version="1.0" encoding="UTF-8"?>
<svg id="Layer_2" data-name="Layer 2" xmlns="http://www.w3.org/2000/svg" viewBox="0 0 204.47 195">
  <defs>
    <style>
      .cls-1 {
        fill: #fff;
      }
    </style>
  </defs>
  <path class="cls-1" d="M200.17,104.4c-.38-.21-.42-.79-.96-.53-.06.13-.09.31-.2.43-.08.09-.26.15-.38.13-.08-.01-.15-.18-.2-.29-.02-.05,0-.13,0-.19.08-.76,0-1.51-.27-2.24-.14.1-.26.21-.4.26-.1.04-.28.03-.35-.04-.07-.06-.07-.23-.06-.34,0-.08.06-.17.12-.22.59-.51.41-1.1.19-1.74-.12.03-.24.09-.35.08-.13-.02-.33-.07-.36-.16-.04-.1.04-.34.12-.38.59-.25.48-.73.44-1.2-.02-.3-.03-.6-.04-.88-.2-.17-.64-.03-.59-.39.03-.18.33-.31.61-.55.04-.38.09-.88.14-1.4-.2-.06-.37-.09-.52-.16-.07-.04-.15-.17-.14-.25,0-.08.1-.2.18-.23.18-.06.37-.06.61-.1.2-.56.4-1.13.62-1.75-.19-.04-.36-.05-.52-.11-.09-.03-.21-.14-.2-.21,0-.11.09-.25.18-.29.13-.06.29-.09.43-.07.36.03.55-.15.68-.45.11-.25.26-.49.42-.8-.15-.11-.32-.2-.44-.33-.09-.09-.12-.24-.18-.37.15-.06.3-.18.44-.16.18.02.35.15.55.24.2-.16.41-.33.69-.56,0,.18.04.3.02.4-.23,1.22-.46,2.44-.71,3.65-.75,3.67-.69,7.31.35,10.93.02.06.02.12.04.27h.04Z"/>
  <path class="cls-1" d="M121.94,173.55c-.11.47-.2.88-.3,1.34.23.14.45.27.66.4.19.11.31.29.18.47-.07.09-.3.1-.45.07-.18-.04-.34-.15-.56-.26-.17.5-.32.96-.49,1.45.19.14.4.26.55.43.09.1.14.32.09.44-.08.19-.27.16-.43.04-.22-.15-.43-.41-.72.04.2-1.64.45-3.16.56-4.69.08-1.19.02-2.39-.04-3.59-.05-.91-.18-1.83-.29-2.74-.03-.23-.06-.48-.17-.68-.31-.6.05-1.02.35-1.45.12-.17.32-.28.49-.12.08.08.07.32.02.46-.08.21-.22.4-.34.62.21.19.4.36.62.56.23-.12.44-.25.67-.36.18-.08.39-.14.52.07.12.21-.03.36-.21.46-.2.12-.4.25-.62.39.03.14.06.26.09.37.2.77.2.76,1,.9.14.02.34.16.36.27.04.23-.16.32-.37.33s-.43,0-.68,0v1.6c.93-.15,3.27-1.63,5.7-3.63.13.06.28.13.44.21-.04.09-.06.15-.1.19-.81.87-1.75,1.58-2.75,2.21-.63.4-1.3.75-1.94,1.13-.3.18-.66.25-.81.67-.04.13-.4.15-.68.25-.07.44-.14.94-.22,1.46.21.08.39.1.52.2.12.09.18.25.27.39-.14.07-.27.17-.42.19-.14.02-.29-.05-.51-.1h.01Z"/>
  <path class="cls-1" d="M155.55,177.03c.3.06.53.04.67.15.23.17.13.44,0,.64-.22.39-.34.78-.08,1.24.09,0,.2-.05.29-.02.15.04.39.12.4.21.02.16-.06.37-.17.5-.1.12-.29.18-.45.27v1.19h.31c.21,0,.42.08.4.31,0,.16-.16.34-.3.44-.12.09-.32.1-.52.15-.06.37-.13.74-.2,1.14.16.1.34.16.43.28.1.13.21.34.18.49-.04.22-.26.25-.47.21-.1-.02-.2-.05-.35-.09-.18.41-.36.81-.55,1.24.13.1.25.18.37.26.24.17.27.39.12.61-.14.22-.37.19-.58.08-.15-.08-.29-.18-.43-.27-.65.51-.67.57-.47,1.34.03.1.1.22.07.31-.05.14-.14.34-.26.38-.12.04-.37-.04-.43-.14-.19-.31-.31-.64-.17-1.03.58-1.68.95-3.42,1.24-5.17.23-1.42.35-2.84.28-4.28-.03-.49-.11-.98-.23-1.45-.08-.33.06-.54.25-.74.14-.15.35-.23.51-.06.09.1.09.3.13.45,0,.03-.03.08-.05.12-.3.46-.2.89.05,1.25h.01Z"/>
  <path class="cls-1" d="M14.65,132.99c-.53.3-.72-.19-1.09-.18-.15.16-.32.34-.51.54.09.2.18.4.26.58-.24.2-.37.06-.47-.07-.17-.23-.37-.25-.62-.17-.3.09-.62.15-.97.23.03.1.07.17.06.25-.01.13-.05.25-.08.38-.1-.06-.22-.1-.29-.18-.1-.11-.15-.26-.24-.41-.39-.03-.79-.06-1.16-.09-.25.17.11.57-.39.66-.09-.23-.18-.47-.29-.76-.26-.07-.54-.14-.83-.22-.27-.08-.53-.17-.81-.25-.09.18-.18.34-.27.52-.51-.12-.13-.5-.27-.77-.32-.2-.67-.43-1.01-.64-.35.03-.3.71-.85.42.14-.26.26-.5.42-.79-.17-.21-.36-.43-.52-.62-.35-.07-.65.4-.99-.07.24-.14.45-.27.67-.4-.03-.23-.06-.46-.1-.75.17.09.28.14.38.21,1.75,1.2,3.72,1.71,5.8,1.87.89.07,1.79.03,2.69,0,.61-.02,1.01.32,1.5.73l-.02-.02h0Z"/>
  <path class="cls-1" d="M68.49,43.76c.58.41.6.49.09.75-.2-.79-.4-1.56-.59-2.34-.61-2.51-1.72-4.79-3.28-6.84-.57-.74-1.27-1.38-1.92-2.06-.09-.09-.25-.15-.28-.25-.04-.14-.04-.36.04-.45.14-.15.32-.06.42.11.06.11.11.23.16.35.27.07.54.14.85.22.06-.17.1-.34.19-.47.06-.08.22-.17.31-.15.09.02.18.16.23.27.03.07,0,.17-.02.25-.03.31.11.58.4.81.06-.05.13-.13.22-.16.11-.04.26-.08.34-.03.08.05.14.21.14.33-.03.71-.04.71.36,1.27.19.05.49-.28.6.05.07.2-.07.47-.14.83.15.34.37.8.54,1.18.28.08.58.08.67.22.21.32-.22.38-.37.6.11.35.24.71.35,1.08.06.19.18.25.37.29.21.04.29.25.18.4-.43.53,0,1.01.03,1.49.63.16.65.22.26.72-.08.1-.12.26-.12.4-.02.38,0,.77,0,1.15l-.03-.02h0Z"/>
  <path class="cls-1" d="M51.39,101.05c-.08.21-.12.38-.22.52-.06.09-.24.19-.3.16-.11-.05-.24-.2-.24-.31,0-.21.11-.41.14-.62.03-.16.07-.36,0-.47-.22-.36-.49-.69-.86-1.19-.09.18-.11.34-.21.41-.1.07-.26.06-.39.09-.03-.15-.12-.34-.07-.46.09-.21.27-.38.42-.57-.18-.48-.35-.96-.55-1.48-.14.07-.26.15-.4.18-.11.02-.3,0-.33-.06-.05-.11-.06-.31,0-.4.14-.18.34-.31.55-.48-.06-.5-.12-1.03-.18-1.59-.22-.04-.44-.05-.63-.12-.09-.03-.17-.19-.18-.29,0-.07.11-.19.19-.21.18-.05.38-.05.65-.08.02-.32.04-.65.05-.99-.24-.07-.46-.11-.64-.21-.09-.04-.18-.21-.16-.3,0-.09.16-.22.25-.22.23-.01.46.03.71.06.19.97.35,1.91.56,2.85.43,1.9,1.16,3.67,2.35,5.22.39.51.82.97,1.29,1.52-.14.03-.25.05-.41.08,0,.18.03.37,0,.55-.02.1-.15.23-.24.24-.1.01-.26-.08-.3-.17-.07-.15-.1-.33-.11-.49,0-.52-.22-.9-.75-1.15l.02-.02h0Z"/>
  <path class="cls-1" d="M95.13,6.82c2.28-1.99,5.75-2.58,8.5.02,1.15,1.08,1.93,2.39,2.21,3.97.04.21.06.42.06.64.02.78-.02.86-.72,1.49.04-.32.09-.61.11-.89.1-1.84-.69-3.32-1.93-4.59-.86-.88-1.89-1.46-3.12-1.67-1.33-.23-2.54.15-3.69.78-.19.1-.38.2-.55.34-.3.25-.57.26-.87-.07v-.02h0Z"/>
  <path class="cls-1" d="M103.37,16.66c-1.63-.9-3.34-1.38-5.14-1.76.16-.19.29-.35.44-.53,1.73.35,3.39.86,4.93,1.72-.02.12-.03.18-.05.24-.04.1-.1.18-.18.33Z"/>
  <path class="cls-1" d="M120.34,178.81c.2.22.34.35.43.5.04.07.03.22-.02.29-.05.07-.2.12-.27.1-.1-.03-.25-.14-.25-.23-.01-.18.06-.36.11-.66Z"/>
  <g>
    <path class="cls-1" d="M143.54,53.79c-.19.86-.77,1.1-1.52,1.15-2.26.15-4.06-.73-5.46-2.44-1.24-1.51-1.84-3.29-1.95-5.22-.34-6.27,2.46-10.78,7.84-13.8,1.14-.64,2.38-1.08,3.65-1.42.18-.05.36-.11.54-.16-.39-2.42-5.41-8.74-8.11-10.19-.06.25-.12.49-.18.72-.24.94-.67,1.76-1.44,2.37-.47.37-1,.58-1.61.53-.45-.04-.47-.07-.53-.65.13.02.25.02.36.05.55.12,1.02-.06,1.43-.41.9-.75,1.21-1.79,1.34-2.9.02-.13-.17-.34-.31-.42-.62-.33-1.25-.65-1.9-.92-.45-.19-.69-.51-.92-.98,1.16.19,2.12.7,3.15,1.21,0-.73-.13-1.35-.28-1.97-.55-2.17-1.69-4.02-3.14-5.69-1.8-2.09-3.86-3.9-6.17-5.41-.84-.55-1.76-.97-2.66-1.42-.71-.35-1.44-.66-2.22-1.02-.56.33-1.22.46-1.91.32-.7-.14-1.28-.49-1.73-1.07-.21.03-.42.07-.62.07-.58,0-.85-.34-.72-.9,0-.04.06-.1.05-.11-.32-.39-.02-.84-.13-1.25-.04-.13-.07-.34,0-.42.27-.33.59-.63.89-.93.09-.09.2-.16.28-.24.27-.28.5-.34.85-.18.08.04.18.07.22.13.34.58.97.63,1.51.84,1.16.46,1.65,1.43,1.9,2.57.04.2-.04.42-.07.71.39.19.8.41,1.22.59,1.4.61,2.77,1.25,4.01,2.15,2.55,1.84,4.89,3.9,6.76,6.45,1.21,1.64,2.08,3.44,2.43,5.47.07.42.14.85.15,1.27,0,.38.17.61.47.84,2.21,1.66,4.11,3.63,5.75,5.85.92,1.25,1.68,2.58,2.33,3.99.11.23.22.46.35.75.25-.02.5-.03.75-.07,2.49-.41,4.98-.48,7.49-.12,2.48.35,4.79,1.18,6.91,2.48,1.44.88,2.8,1.89,4.27,2.9.38-.3.83-.69,1.3-1.04.48-.35.98-.67,1.51-1.03-.7-1.67-1.74-3.11-2.74-4.63.1-.06.17-.13.26-.17.09-.05.2-.07.36-.13,1.06,1.43,1.99,2.96,2.79,4.61.24-.08.44-.15.64-.22.92-.33,1.86-.51,2.83-.49,1.66.03,3.02.74,4.18,1.87.39.38.65.9.98,1.33,1.63,2.12,3,4.39,4.06,6.84.18.41.32.84.47,1.26.05.14.09.28.14.46-.18.1-.34.19-.51.28,0,.02-.04.05-.05.09-.04.22,0,.52-.33.53-.31,0-.38-.27-.39-.5-.02-.5-.33-.76-.72-1.01-.04.02-.1.05-.15.07-.14.07-.36.23-.41.18-.13-.11-.27-.31-.25-.46.05-.6-.22-1.02-.66-1.43-.11.1-.19.23-.31.29s-.33.12-.39.07c-.1-.1-.19-.3-.16-.43.05-.22.2-.42.34-.69-.17-.28-.35-.59-.56-.92-.15.02-.3.07-.44.06-.13-.02-.34-.08-.37-.16-.04-.13.03-.31.1-.45.05-.1.19-.16.3-.26-.13-.4-.26-.78-.4-1.21-.1,0-.21.03-.3,0-.15-.05-.36-.11-.39-.22-.04-.12.05-.33.15-.43.23-.22.43-.42.21-.79-.27,0-.65.17-.71-.26-.06-.44.4-.42.66-.61.2-.48-.12-.83-.41-1.11-1.79-1.73-4.08-2.2-6.71-.99-.02,0-.03.03-.07.09.76,2.29,1.82,4.54,1.83,7.15-.28-.16-.5-.28-.74-.41-.22-2.22-.89-4.33-1.78-6.49-1,.53-1.84,1.16-2.65,1.92.13.15.22.28.33.4.89.99,1.79,1.97,2.67,2.96.21.24.36.52.59.85-.7.03-1.11-.24-1.51-.73-.78-.96-1.64-1.86-2.47-2.78-.04-.04-.11-.05-.22-.09-.69.69-1.27,1.48-1.8,2.31-.11.18-.24.36-.32.56-.19.46-.55.54-1.05.5.33-.77.73-1.45,1.19-2.09.45-.62.93-1.22,1.44-1.88-2.4-2.03-4.99-3.71-8.01-4.63-3.42-1.04-6.88-.97-10.37-.39.44,1.73.91,3.39,1.28,5.07s.49,3.39.46,5.14c-.11.05-.2.09-.29.13-.1.03-.2.05-.4.11.05-3.54-.57-6.92-1.84-10.19-.19,0-.34,0-.48.04-4.2,1.07-7.57,3.31-9.71,7.14-1.62,2.9-2.05,6.02-1.25,9.27.3,1.21.88,2.27,1.71,3.2,1.31,1.48,3.66,2.46,5.96,1.52.06-.02.12-.03.25-.06v-.02h.01Z"/>
    <path class="cls-1" d="M184.6,43.69c.17.04.37.04.49.14.12.08.22.26.22.4,0,.09-.18.22-.3.27-.23.1-.48.15-.78.24-1.33-3.3-3.36-6.28-5.77-8.99.34-.3.5-.32.58-.04.14.51.55.6.93.76.21-.14.19-.56.55-.45.33.1.28.41.25.65-.06.5.28.72.63,1.01.08-.06.14-.14.23-.18.27-.14.46-.07.53.21.02.06.03.13,0,.19-.18.68.31,1.06.64,1.49.27,0,.46-.4.71-.11.24.27.07.52-.11.75-.04.05-.06.11-.1.22.18.34.36.69.56,1.07.11,0,.22-.02.32,0,.3.06.46.3.28.49-.38.38-.16.75-.08,1.13.06.25.12.49.19.76h.03Z"/>
    <g>
      <path class="cls-1" d="M66.55,184.98c-.61-.83-1.21-1.64-1.81-2.47.19-.13.33-.22.5-.34.63.83,1.26,1.65,1.9,2.49.71-.36,1.27-.79,1.79-1.26,1.44-1.3,2.45-2.86,2.84-4.78.24-1.15.2-2.31-.19-3.43-.17-.49-.46-.95-.69-1.42.56-.09.67-.05.93.44.84,1.62.94,3.32.45,5.06-.63,2.27-2.03,3.98-3.91,5.34-.22.16-.45.32-.71.5.08.11.13.2.2.27,2.26,2.26,4.88,3.9,8.01,4.65,2.11.51,4.17.33,6.16-.55,1.54-.68,2.72-1.77,3.55-3.24.08-.14.14-.3.23-.51-.26-.15-.5-.28-.74-.42-2.32-1.37-3.91-3.31-4.54-5.97-.29-1.23-.22-2.43.45-3.54.73-1.23,1.91-1.6,3.2-.98.96.46,1.67,1.18,2.19,2.1.65,1.14.94,2.39,1.04,3.68.11,1.53-.03,3.04-.61,4.48-.04.1-.06.2-.08.3,1.55.99,6.17,2.12,8.6,1.69-.07-.38-.14-.75-.2-1.13-.38-2.2.13-4.21,1.28-6.08.61-.99,1.47-1.67,2.7-1.89-.08-.15-.12-.28-.21-.38-1.21-1.54-2.24-3.19-3.03-4.99-.14-.31-.36-.43-.65-.56-1.51-.66-3.02-1.32-4.5-2.04-1.2-.59-2.25-1.4-3.25-2.28-.76-.66-1.52-1.32-2.26-2-.49-.45-.94-.93-1.43-1.42.12-.2.21-.36.33-.56.11.1.19.16.25.23,1.76,1.82,3.62,3.53,5.74,4.93,1.52,1.01,3.2,1.72,4.9,2.39.07.03.16.02.31.04-.09-.27-.16-.49-.23-.7-.96-2.69-1.44-5.46-1.3-8.33.09-1.79.38-3.54,1.14-5.18,1.05-2.26,2.78-3.72,5.23-4.26,1.64-.36,3.24-.16,4.77.55,2.54,1.18,4.3,3.15,5.54,5.61.97,1.92,1.44,3.98,1.68,6.1.3,2.68.18,5.35-.4,7.99-.02.1-.04.21-.05.31,0,.02,0,.04.04.14.47-.05.95-.09,1.43-.17.86-.15,1.72-.34,2.58-.5.24-.04.38-.14.43-.4.07-.36.18-.7.27-1.08-.22-.15-.44-.28-.63-.45-.13-.11-.25-.24-.31-.39-.03-.09.04-.25.11-.33.04-.05.21-.03.28.02.23.14.44.3.73.51.25-.64.5-1.18.66-1.74.06-.22-.06-.5-.12-.74-.06-.27-.18-.53-.2-.81,0-.12.17-.25.26-.38.11.08.25.15.31.26.1.18.13.39.24.7.28-.47.59-.78.68-1.25.09-.46.32-.88.27-1.37-.01-.11.18-.24.27-.37.11.11.26.21.31.34.06.15.05.33.07.52.19-.06.34-.11.57-.18.1.47.23.9.27,1.33.14,1.54.15,3.07.08,4.62-.13,2.75-.67,5.43-1.15,8.13-.06.31-.08.64-.07.96.03.49-.08.93-.34,1.34-.92,1.47-1.83,2.95-2.75,4.42-.11.18-.24.35-.36.53,1.07.63,6.76,1.23,8.6.88-.05-.54-.06-1.09-.15-1.63-.17-1.05-.06-2.1.07-3.14.68-5.39,2.88-10.13,6.24-14.37.23-.29.45-.45.83-.16-.08.11-.15.23-.23.34-3.05,3.76-5.14,7.98-6.05,12.75-.35,1.84-.48,3.69-.2,5.56.03.19.07.37.13.63,4.31-.24,8.01-1.89,11.35-4.59-.74-2.3.43-3.65,2.39-4.59.03-.17.06-.34.11-.5.23-.76.61-.9,1.27-.44,1.15-2.14,2.44-4.18,4.21-5.95-2.33-1.25-4.58-2.55-6.57-4.37.47-.16.76-.08,1.08.18,1.66,1.37,3.49,2.48,5.4,3.47.17.09.35.16.55.25.33-.28.66-.55.99-.82,1.15-.94,2.37-1.77,3.78-2.29.52-.19,1.07-.34,1.61-.41,1.5-.17,2.96.48,3.3,2.57.13.77.11,1.57.16,2.45,1.67-.16,3.27-.72,4.82-1.46-.25-.75-.56-1.43-.71-2.16-.86-4.31.17-8.15,2.95-11.53.67-.81,1.45-1.52,2.34-2.09.85-.54,1.75-.9,2.78-.86.1,0,.21.02.33.04.1.29.07.47-.28.46-1.31-.03-2.36.58-3.31,1.38-2.5,2.11-3.95,4.81-4.45,8.02-.28,1.8-.2,3.59.4,5.32.13.36.3.7.48,1.13,2.92-1.64,5.18-3.73,6.11-7.02.1,0,.18-.02.26-.02.06,0,.12.03.22.05,0,.1,0,.21-.02.3-.47,1.66-1.3,3.11-2.5,4.36-.93.96-1.99,1.75-3.13,2.46-.18.11-.36.22-.57.35.27.58.71.99,1.17,1.36,1.4,1.12,3,1.4,4.73,1.09,1.85-.33,3.41-1.23,4.79-2.46.19-.17.35-.37.54-.57-1.28-1.08-1.26-2.39-.72-3.76.18-.46.31-.86.04-1.33-.17-.31-.11-.67.15-.95.28-.3.6-.28.91-.11.23-.16.46-.45.64-.42.49.07,1,.02,1.46.15.31.09.58.36.95.42.26.05.58.88.51,1.16-.02.1-.05.22-.11.3-.5.59-.46,1.34-.62,2.04-.14.62-.38,1.23-.7,1.78-.42.73-1.04,1.2-1.93.91-1.56,1.7-3.39,2.88-5.63,3.32-2.62.51-4.83-.18-6.49-2.36-.06-.08-.14-.16-.24-.28-1.67.81-3.42,1.36-5.31,1.62-.07.79-.37,1.52-.11,2.37.2.66.23,1.4.19,2.09-.11,1.81-.42,3.6-.88,5.36-.21.81-.49,1.6-.66,2.41-.1.49-.41.8-.73,1.1-.11.1-.39.16-.5.09s-.2-.4-.13-.48c.44-.56.17-1.03-.11-1.52-.05-.09-.08-.19-.14-.34-.17.07-.31.16-.46.18-.13,0-.34-.02-.39-.1-.07-.12-.03-.31-.04-.48,0-.02.02-.04.04-.05.76-.36.46-.97.36-1.54-.03-.16-.05-.33-.07-.5-.22.05-.4.12-.59.12-.13,0-.33-.1-.35-.19-.04-.13.03-.32.1-.45.04-.08.17-.13.27-.16.57-.16.75-.58.75-1.12,0-.12.02-.25.03-.4-.22-.02-.42,0-.59-.08-.13-.06-.3-.22-.31-.34,0-.12.15-.32.27-.36.23-.09.5-.09.79-.13.16-.45.32-.91.49-1.41-.13-.08-.28-.13-.36-.24-.09-.12-.19-.33-.14-.44.05-.12.26-.21.4-.23.16-.02.33.07.44.09.49-.39.96-.75,1.55-1.21.07-.5.17-1.17.28-1.93h-.93c-2.65.13-5.21-.28-7.65-1.35-.27-.12-.46-.13-.68.1-1.66,1.73-2.97,3.71-4.03,5.85v.11c.33.04.66.12.79.5.02.06.12.11.19.14.38.16.56.43.55.82v.23c.66.08.91.49.8,1.12.32.19.7.3.64.74s-.43.55-.77.69c-.12.05-.25.09-.37.1-.3.02-.49.18-.68.41-.63.76-1.45,1.26-2.39,1.56-.57.18-1.14.14-1.74-.08-.17.32-.33.62-.49.92-1.02,1.89-2.17,3.7-3.78,5.16-.93.84-1.95,1.54-3.15,1.93-1.8.59-3.38.09-4.45-1.48-.38-.56-.64-1.21-.94-1.82-.09-.19-.15-.4-.23-.62-.16,0-.31-.03-.45-.02-2.8.12-5.57-.16-8.29-.82-.42-.1-.66,0-.92.34-1.15,1.53-2.46,2.92-3.97,4.1-1.24.96-2.58,1.75-4.09,2.26-3.02,1.02-5.65.32-7.95-1.8-1.23-1.14-2.12-2.52-2.79-4.05-.12-.27-.23-.55-.37-.91-3.15.18-6.18-.45-9.11-1.73-.1.13-.19.24-.26.37-1.39,2.51-3.56,3.87-6.33,4.35-2.2.38-4.3,0-6.35-.84-2.23-.92-4.19-2.23-5.9-3.93-.18-.18-.36-.36-.56-.56-.22.1-.41.2-.6.28-4.75,2.15-9.39,1.91-13.8-.85-2.88-1.8-4.59-4.51-5.34-7.8-.47-2.08-.68-4.19-.43-6.32v-.24c-1.24-.98-1.39-2.67-.35-3.93.18-.21.38-.41.58-.62-.23-.41-.4-.83,0-1.23.38-.37.75-.15,1.12.05.44-.29.87-.48,1.37-.12.09.07.28,0,.43,0,.43,0,.6.13.78.52.12.26.28.52.46.74.46.54.4.94-.21,1.27-.11.06-.23.11-.35.16-.07.43-.12.85-.21,1.27-.06.27-.14.54-.25.79-.29.68-.8,1.11-1.55,1.2-.36.04-.72.05-1.15.08-.04.28-.1.57-.11.86-.08,2.09.11,4.16.7,6.17,1.3,4.43,4.27,7.18,8.68,8.38,3.2.87,6.33.55,9.33-.88.1-.05.19-.09.29-.14.04-.02.07-.05.15-.12l-.07.02h0ZM110.91,173.64c.06-.23.12-.43.17-.64.63-2.73.7-5.48.35-8.24-.27-2.12-.82-4.16-1.88-6.03-.97-1.71-2.23-3.14-3.91-4.18-1.15-.72-2.4-1.18-3.75-1.19-2.91,0-5.05,1.29-6.36,3.9-.76,1.52-1.05,3.17-1.16,4.84-.19,3.09.39,6.05,1.46,8.94.2.54.5.81,1.05.98,2.73.86,5.52,1.39,8.37,1.62,1.86.15,3.72.21,5.66,0h0ZM96.25,187.71c.03.15.03.23.06.31.55,1.39,1.28,2.66,2.3,3.76,1.19,1.28,2.59,2.24,4.37,2.52,1.6.26,3.11-.09,4.56-.76,2.41-1.11,4.32-2.84,6-4.85.29-.34.56-.7.89-1.12-3.22-.86-6.15-2.18-8.87-3.93-2.75,2.24-5.81,3.58-9.31,4.05v.02h0ZM115.95,173.53c-.22.03-.32.05-.42.07-1.14.19-2.27.41-3.42.57-.69.1-.7.06-.9.74-.93,3.07-2.52,5.75-4.83,8-.09.09-.16.19-.28.33,2.72,1.75,5.61,3,8.74,3.79,1.46-1.99,2.82-4.01,3.8-6.22-.56-.32-1.04-.59-1.52-.87-.18.09-.37.23-.57.27-.13.03-.29-.08-.44-.13.05-.13.08-.28.17-.37.15-.14.34-.24.51-.35-.17-.49-.35-.92-.47-1.38-.09-.36-.26-.55-.64-.6-.2-.03-.41-.12-.59-.24-.18-.12-.23-.32-.1-.51.12-.17.28-.15.45-.05.14.08.3.13.55.24-.06-.69-.12-1.28-.17-1.88-.24-.08-.46-.13-.67-.23-.22-.1-.33-.29-.23-.53.11-.25.3-.18.48-.08.11.05.23.08.39.14.05-.24.09-.44.15-.72h0ZM105.47,182.83c2.22-1.66,5.17-6.56,5.15-8.53-4.76.26-9.42-.29-14.13-1.76,2.05,4.39,5.14,7.64,8.98,10.28h0ZM104.91,183.26s-.08-.1-.13-.14c-1.79-1.27-3.45-2.68-4.9-4.32-.24-.27-.52-.27-.82-.21-.87.17-1.53.66-2.01,1.38-1.22,1.84-1.74,3.84-1.33,6.04.07.35.17.69.25,1.01,2.93-.07,7.31-2.06,8.94-3.77h0ZM86.11,185.2c.99-2.9,1.03-5.63-.5-8.26-.4-.68-1-1.18-1.7-1.53-.99-.49-1.86-.22-2.41.73-.41.71-.6,1.48-.5,2.29.42,3.16,2.25,5.27,5.11,6.77ZM136.56,183.87c-1.73,1.39-3.51,2.48-5.46,3.3-1.94.82-3.98,1.22-6.1,1.44.17.74.47,1.35.83,1.94,1.03,1.65,2.49,2.12,4.31,1.4,1.3-.52,2.37-1.36,3.32-2.37,1.14-1.21,2.02-2.6,2.82-4.05.22-.41.43-.83.65-1.26-.13-.14-.23-.25-.37-.41h0ZM153.7,173.01c.16-.77.12-2.11-.07-2.76-.37-1.27-1.23-1.9-2.54-1.75-.63.07-1.26.26-1.85.5-1.36.55-2.54,1.4-3.65,2.36-.12.1-.22.23-.34.35,1.96,1.15,6.29,1.76,8.45,1.31h0Z"/>
      <path class="cls-1" d="M8.11,112.14c-1.81.56-3.4,1.43-4.69,2.76-1.83,1.87-2.87,4.1-2.83,6.75.03,1.95.71,3.7,1.93,5.21.51.63,1.14,1.16,1.71,1.74.38.39.81.42,1.3.21.04-.23.08-.45.12-.67.05,0,.1,0,.15-.02.11.17.22.34.34.53h1.63c.11-.18.22-.34.32-.5.11.18.22.37.37.61.4.12.86.26,1.42.43.14-.22.29-.45.43-.67.51.34,0,.54.07.83.31.15.65.33,1,.46.13.05.32,0,.47-.05.16-.06.28-.2.43-.27.18-.08.34-.05.4.22-.18.13-.38.28-.61.45.27.21.49.41.74.56.13.08.32.07.48.07.15,0,.3-.07.44-.06.08,0,.17.09.22.17.02.03-.06.15-.12.19-.52.37-1.12.48-1.75.5-1.73.06-3.42-.13-5.07-.64-.59-.18-1.21-.38-1.7-.73-2.5-1.78-4.54-3.9-5.14-7.07-.51-2.67.17-5.05,1.64-7.25,1.33-1.97,3.21-3.24,5.39-4.1.18-.07.35-.15.53-.22.02,0,.02-.03.06-.08-.02-.05-.04-.13-.08-.2-2.29-4.27-3.78-8.82-4.48-13.6-.88-6.06,0-11.83,3.03-17.21,2.15-3.82,5.17-6.81,8.9-9.09.25-.15.5-.32.78-.49-.06-.1-.09-.18-.14-.24-1.89-2.23-2.86-4.86-3.25-7.71-.36-2.68-.13-5.34.45-7.98.02-.08.03-.17.06-.3-.16-.09-.32-.19-.48-.27-2.13-1.12-3.12-3.06-2.79-5.44.15-1.09.42-2.15.83-3.16.53-1.31,1.09-2.6,1.64-3.91-1.31-1.08-1.71-2.44-.13-4.86-.28-.3-.39-.68-.34-1.1.06-.48.32-.62.79-.75.57-.17,1.1-.25,1.68-.08.4.12.91.03,1.21.25.37.28.62.76.81,1.21.07.16-.13.47-.26.67-.1.15-.29.25-.45.39.04.25.08.5.13.75.2.92.02,1.79-.37,2.62-.39.82-1.1,1.18-1.98,1.17-.29,0-.49.05-.62.32-.98,2.05-1.93,4.12-2.3,6.38-.14.85-.12,1.71.19,2.54.43,1.17,1.42,2.16,2.59,2.53.05-.11.1-.22.14-.34.87-3.09,2.16-6,3.8-8.76,1.9-3.19,3.93-6.29,6.22-9.21.17-.22.23-.39.17-.69-.34-1.59,0-3,1.12-4.23.59-.65,1.19-1.29,1.93-1.64.04-.45.02-.84.12-1.19.13-.47.44-.61.93-.6.18,0,.37-.03.53-.1.57-.27.77-.22,1.19.3.08.1.22.19.35.21.46.06.62.13.89.74.34.1.85-.12,1.02.32.13.33.08.73-.01,1.13.07.08.14.16.2.24.32.46.27.88-.15,1.24-.06.06-.13.13-.21.15-.67.15-.91.69-1.2,1.22-.58,1.09-1.42,1.98-2.31,2.82-.11.1-.23.19-.35.28-1.34,1.01-2.19,1.04-3.59.09-.05.05-.13.09-.18.15-3.22,4.27-6.26,8.65-8.41,13.58-.6,1.37-1,2.82-1.49,4.24-.03.1-.04.2-.08.36.93.34,1.87.48,2.84.39,2.98-.29,5.35-1.68,7.16-4.06.1-.13.21-.26.39-.5-.07.73-.16,1.28-.62,1.77-1.91,2.02-4.23,3.2-7,3.4-.78.06-1.57-.13-2.36-.21-.19-.02-.37-.08-.62-.13-.13.72-.28,1.38-.38,2.06-.37,2.52-.41,5.04.2,7.54.49,2,1.27,3.86,2.57,5.48.15.18.31.35.5.58,3.12-1.73,6.32-3.25,9.77-4.28.05-.72.09-1.41.14-2.16.88.49.3,1.31.6,1.96,2.94-.8,5.92-1.03,8.99-.33.09-.21.19-.42.28-.63.09-.22.17-.44.25-.66h.64c-.17.49-.33.92-.5,1.41.28.1.52.19.75.26,2.81.93,5.11,2.58,6.92,4.91,1.06,1.36,1.75,2.89,1.92,4.63.21,2.08-.46,3.75-2.29,4.87-.07.04-.13.1-.22.17.05.17.11.33.16.49.42,1.48.85,2.96,1.26,4.45.07.24.12.43.36.57,1.61.91,2.77,2.28,3.78,3.79.15.23.3.46.44.67.07-.02.1-.01.11-.03.15-.13.24-.41.51-.28.26.13.14.38.1.58-.06.38.04.65.42.82.26.12.48.33.78.54.15-.34.27-.66.44-.94.07-.12.26-.16.4-.23.05.15.18.32.14.44-.1.35-.25.68-.41,1.01-.13.26-.11.48.04.72.21.32.38.67.59,1.05.19-.11.38-.2.56-.31.18-.1.36-.19.49.04.12.21,0,.37-.17.49-.19.13-.38.26-.61.42.23.64.45,1.25.69,1.91.17-.14.28-.26.41-.31.1-.05.3-.07.34-.02.08.1.14.31.09.39-.16.22-.38.39-.64.65.07.42.16.91.25,1.43.19.01.37,0,.53.05.09.02.22.12.22.19,0,.11-.06.26-.14.32-.15.1-.35.13-.52.19-.05.39-.11.77-.12,1.15,0,.17.09.35.19.5.11.17.28.31.2.55-.07-.01-.13,0-.15-.03-.85-1.08-1.75-2.12-2.52-3.24-1.04-1.52-1.56-3.28-1.99-5.05-.07-.27-.13-.54-.18-.81-.4-2.16-1.73-3.73-3.27-5.17-.29-.27-.63-.49-1.01-.71.5,3.87.73,7.72.46,11.59-.27,3.89-1.12,7.66-2.15,11.42,2.3,2.43,3.57,5.45,4.96,8.53-.3.02-.49.03-.68.04-1.37-2.64-2.26-5.51-4.52-7.69-.83,2.77-1.44,5.48-2.01,8.22-.17.05-.33.11-.5.15-.08.02-.17,0-.34,0,.09-.42.15-.81.25-1.2.13-.5.28-.98.42-1.48.51-1.9.99-3.81,1.52-5.71.11-.4.07-.67-.19-.99-2.86-3.51-4.47-7.57-5.24-11.99-.24-1.37-.41-2.76-.37-4.15.05-1.59.28-3.16.92-4.64.41-.94.97-1.77,1.77-2.41,1.26-1.02,2.69-1.38,4.28-1.04.12.03.25.03.44.05-.33-1.67-.77-3.24-1.39-4.74-2.26-.12-3.87-1.34-5.24-2.95-.53-.61-.93-1.33-1.45-2.08-.96.07-1.84.56-2.72,1.18-.1-.17-.18-.31-.28-.47.78-.77,1.75-1.07,2.82-1.36-1.01-2.93-1.05-5.89-.36-8.89-1.05-.29-2.05-.38-3.05-.43-1.93-.1-3.8.25-5.65.71-.3.07-.42.24-.47.52-.34,2.13-1.62,3.53-3.46,4.51-.78.41-1.58.76-2.45.94-1.32.27-2.56.06-3.67-.73-.23-.16-.44-.33-.69-.52-.11.04-.24.08-.34.14-4.51,2.63-8,6.21-10.23,10.97-1.24,2.64-1.95,5.43-2.25,8.33-.43,4.14.22,8.16,1.35,12.12.78,2.75,1.83,5.39,3.18,7.91.08.15.17.3.28.5,2.51-.55,5.03-.64,7.57-.11.07-.13.12-.22.16-.32.8-2.29,3.77-3.42,6.05-2.69,2.29.74,3.44,2.38,3.94,4.64.57,2.57.14,5.03-.78,7.42-.32.83-.5,1.68-.6,2.55-.16,1.41-.14,2.83-.03,4.24.02.21.14.44.28.61.37.44.78.85,1.22,1.31-.12.19-.23.35-.39.59-.3-.35-.56-.65-.82-.95-.05.02-.09.04-.14.05,0,.17-.01.35,0,.52.03.34.04.69.13,1.02.15.53-.1.88-.5,1.32-.11-.79-.2-1.48-.29-2.17-.04-.32-.11-.64-.09-.96.04-.58-.27-.94-.67-1.31-1.74-1.59-3.71-2.83-5.73-4.01-.97-.57-1.82-1.28-2.68-1.99-1.99-1.66-3.62-3.64-5.01-5.82-.65-1.03-1.28-2.07-1.96-3.18l-.04.02h0ZM24,126.62v-.93c-.05-2.03.15-4.02.88-5.93.29-.78.55-1.58.72-2.39.42-2.04.22-4.04-.56-5.99-.87-2.16-4.2-3.79-6.92-1.94-.69.47-1.18,1.09-1.39,1.95.25.09.46.17.68.25,1,.35,1.91.86,2.72,1.55.41.36.74.77.92,1.29.37,1.11-.17,2.2-1.28,2.57-.84.27-1.61.14-2.3-.4-.87-.68-1.38-1.59-1.57-2.65-.12-.68-.09-1.39-.12-2.12-1.53-.56-5.78-.49-6.96.16,1.15,2.01,2.35,3.99,3.84,5.76,1.7,2.01,3.63,3.75,5.93,5.06,1.12.63,2.19,1.35,3.25,2.07.72.49,1.38,1.07,2.16,1.69ZM43.26,109.52c.07-.18.12-.28.15-.37.24-.93.5-1.86.72-2.8.74-3.15,1.28-6.34,1.32-9.58.02-1.88-.03-3.77-.14-5.65-.08-1.39-.33-2.76-.49-4.14-.04-.37-.22-.56-.58-.66-.89-.25-1.78-.26-2.65.06-1.51.56-2.45,1.68-3.04,3.13-.5,1.22-.72,2.51-.79,3.82-.1,2.01.2,3.97.64,5.92.78,3.51,2.15,6.76,4.35,9.64.15.2.31.39.51.64h0ZM43.48,80.03c.11-.02.15-.02.19-.03.06-.03.11-.06.17-.1,1.47-.99,1.99-2.4,1.84-4.11-.1-1.08-.43-2.1-.96-3.04-1.58-2.81-3.97-4.66-6.93-5.84-.39-.16-.8-.26-1.29-.42-.13.89-.28,1.71-.36,2.53-.2,1.97.05,3.89.63,5.77.09.29.22.45.58.47,2.39.14,4.16,1.31,5.37,3.35.27.46.51.94.77,1.42h0ZM26.14,66.96c-3.24,1-6.19,2.37-9.06,3.98.71.81,1.91,1.28,2.99,1.15,1.69-.2,3.15-.93,4.43-2.02.92-.78,1.4-1.81,1.64-3.11ZM16.56,112.03c-.05.12-.11.19-.12.27-.2,1.48.19,2.76,1.3,3.77.2.18.46.33.71.41.59.19,1.15.08,1.63-.32.42-.35.54-.83.4-1.34-.07-.28-.22-.56-.42-.78-.93-1.06-2.16-1.62-3.51-2.02h.01ZM42.77,80.3c-.51-2.34-3.45-4.66-5.43-4.35,0,.04-.02.09,0,.12,1.02,1.9,2.51,3.28,4.54,4.05.27.1.57.11.89.17h0Z"/>
      <path class="cls-1" d="M185.76,119.5c-.23-.49-.39-.86-.57-1.22-1.15-2.27-1.95-4.66-2.41-7.16-.08-.42-.15-.84-.21-1.27-.1-.7-.05-.91.42-1.71.05.22.09.36.1.51.37,3.63,1.46,7.04,3.1,10.28.28.56.72,1,1.33,1.24.42.16.82.37,1.27.57.07-.15.16-.27.2-.4,1.13-3.97,1.61-8.02,1.41-12.14-.02-.49-.19-.76-.65-.97-1.39-.63-2.82-1.13-4.3-1.49-.12-.03-.24-.07-.43-.12.06-.19.11-.35.17-.56,1.75.34,3.36.94,4.95,1.65.23-1.07-.93-7-1.6-8.08-1.05,1.49-2.07,2.96-3.13,4.47-.16-.16-.29-.28-.45-.43.11-.19.2-.35.31-.51.92-1.32,1.83-2.65,2.77-3.95.24-.34.27-.61.11-1-.73-1.82-1.76-3.47-2.89-5.07-.11-.15-.25-.28-.38-.43-.57,1.21-1.23,2.66-1.94,9.58-.22-.13-.4-.24-.61-.36.21-3.36.63-6.66,1.98-9.77-.49-.65-1.08-1.08-1.91-1.25.08-.23.15-.39.23-.62.37.18.71.31,1.01.49.3.19.57.44.91.71.18-.43.34-.79.49-1.16.79-1.97,1.65-3.92,2.83-5.68.86-1.28,1.73-2.58,2.8-3.68,1.36-1.41,3.1-1.93,5.06-1.43.17.04.33.1.49.14h.16c.42-5.02.36-9.99-1.42-14.88-1.17-.08-2.28-.34-3.15-1.2-.86-.84-1.3-1.89-1.51-3.08-.2,0-.36.03-.53.03-.6,0-1.05-.33-1.23-.86-.17-.52-.03-.95.45-1.35.09-.08.21-.18.22-.28.05-.54.42-.7.86-.81.1-.02.2-.04.29-.06.32-1.07.44-1.17,1.37-1.16.09-.11.18-.25.3-.38.29-.31.61-.56,1.07-.41.48.16.73.52.77,1.01.02.25-.02.52-.09.76-.15.5.03.83.42,1.17,1.46,1.24,2.14,2.85,2.18,4.75,0,.65-.14,1.23-.72,1.67.05.19.08.37.15.55,1.01,2.91,1.41,5.91,1.46,8.97.03,1.89,0,3.77-.22,5.65-.03.24.02.41.22.55,1.17.85,1.89,2.03,2.48,3.31.82,1.76,1.3,3.62,1.64,5.53.09.53.25.91.46,1.12.11-.16.19-.34.33-.45.11-.09.31-.12.45-.09.06.01.15.3.1.37-.49.71-.13,1.34.15,1.98.02.04.05.06.03.04.29.01.62-.07.74.05.23.25-.06.46-.24.63-.19.18-.25.38-.17.63.1.33.16.67.25,1.05.07.03.16.06.25.11.3.17.36.32.12.53-.26.22-.27.45-.26.74.02.4,0,.81,0,1.28.22-.07.39-.14.56-.17.09-.01.25.03.28.1.04.1.05.28,0,.35-.14.15-.33.28-.51.37-.25.13-.4.29-.42.59-.02.34-.07.67-.12,1.04.22.06.42.08.59.16.09.04.21.19.2.28,0,.09-.15.22-.24.23-.21.04-.42.01-.69.01-.12.36-.24.72-.37,1.1.11.08.21.12.27.19.07.09.18.22.15.31-.02.09-.19.21-.27.2-.42-.05-.56.22-.71.52-.16.33-.35.64-.53.96,0,.06.03.12.04.18.04.17.17.38.12.51-.09.21-.31.09-.51.06s-.41.09-.68.16c-.03-.07-.11-.19-.14-.32-.38-1.61-.62-3.23-.66-4.89-.06-2.09.17-4.15.61-6.18.35-1.6.37-3.16-.04-4.76-.41-1.6-.83-3.2-1.59-4.67-.36-.7-.85-1.33-1.31-1.98-.15-.21-.39-.37-.65-.6-.19.97-.34,1.83-.54,2.67-.97,4.24-2.74,8.15-5.01,11.84-.63,1.02-1.31,2.01-1.98,3-.21.31-.28.56-.16.94.9,2.67,1.39,5.43,1.67,8.23.04.44.2.68.58.89,2.46,1.41,4.52,3.25,5.99,5.69,1.09,1.81,1.69,3.74,1.55,5.87-.1,1.45-.5,2.82-1.09,4.14-.66,1.5-1.51,2.89-2.48,4.2-.26.36-.33.67-.19,1.12,1.03,3.32,1,6.67.28,10.04s-1.95,6.52-4.01,9.31c-.88,1.19-1.94,2.23-3.01,3.26-.06.05-.14.08-.27.16-.04-.36-.08-.67-.12-1.02.39-.36.81-.72,1.21-1.11,2.16-2.05,3.62-4.55,4.59-7.34.76-2.22,1.29-4.49,1.42-6.84.11-1.96-.08-3.9-.59-5.79-.04-.14-.1-.28-.17-.48-.13.12-.25.2-.33.31-2.43,3.1-5.16,5.9-8.18,8.43-1.25,1.04-2.54,2.03-3.86,3.08-.21-.09-.44-.19-.69-.3,1.12-.89,2.19-1.75,3.27-2.6,3.38-2.67,6.37-5.72,9.04-9.1.42-.53.43-.93.14-1.49-1.05-2.08-2.58-3.72-4.48-5.03-.07-.04-.15-.07-.28-.13-.09.25-.17.46-.25.68-.85,2.31-1.95,4.48-3.49,6.41-1.71,2.13-3.8,3.7-6.48,4.4-1.56.41-3.14.45-4.7-.02-3.43-1.04-5.18-4.59-3.89-7.94.59-1.54,1.6-2.78,2.92-3.76,2.18-1.61,4.66-2.46,7.35-2.61,1.49-.08,3-.03,4.46.38.14.04.28.06.59.12h-.03ZM188.63,121.54c-.06-.09-.08-.14-.11-.16-.17-.1-.33-.2-.5-.28-2.51-1.2-5.14-1.78-7.92-1.43-2.22.28-4.29.99-6.13,2.3-1.4,1-2.44,2.28-2.99,3.92-.94,2.8.53,5.79,3.32,6.75,1.37.48,2.77.5,4.18.18,2.6-.58,4.64-2.03,6.31-4.05,1.45-1.75,2.5-3.73,3.33-5.84.19-.47.35-.96.51-1.39h0ZM194.82,127.16c1.43-1.96,2.57-3.92,3.2-6.13.56-1.96.51-3.89-.25-5.8-1.27-3.16-3.56-5.4-6.42-7.12-.06-.04-.16-.02-.29-.03.25,4.48-.32,8.83-1.58,13.08,2.34,1.52,4.15,3.43,5.35,6h-.01ZM188.85,97.02c.15-.2.28-.35.38-.5.73-1.13,1.49-2.25,2.17-3.41,2.19-3.76,3.86-7.73,4.63-12.04.1-.54.26-1.08.19-1.62-1.66-.85-4.01-.33-5.24,1.11-2.59,3.01-4.34,6.5-5.76,10.17-.09.22-.08.38.08.58,1.37,1.68,2.57,3.47,3.4,5.49.02.06.07.1.16.23h-.01Z"/>
      <path class="cls-1" d="M67.18,44.79c-.26-.06-.44-.1-.6-.13-.05.03-.08.06-.11.08-.13.09-.25.17-.38.26-.08-.12-.22-.24-.22-.36.02-.49-.3-.73-.67-.99-.05.04-.1.11-.16.14-.12.07-.28.19-.36.15-.1-.05-.21-.26-.17-.36.18-.57-.09-.94-.52-1.3-.05.05-.1.12-.17.14-.11.04-.29.11-.34.06-.09-.09-.18-.29-.14-.37.27-.51,0-.9-.23-1.3-.08-.13-.14-.26-.17-.33-.26-.07-.47-.13-.68-.18.08-.23.16-.45.27-.77-.13-.39-.29-.87-.45-1.35-.05-.03-.09-.06-.12-.06-.2.02-.44.2-.57-.08-.14-.3.12-.41.33-.52.05-.03.1-.08.18-.14-.05-.32-.1-.65-.16-1.02-.18.05-.32.13-.45.12-.13,0-.32-.07-.35-.16-.04-.1.06-.27.14-.37.06-.08.18-.11.27-.16.25-.12.25-.31.17-.54-.2-.16-.65.07-.64-.37,0-.37.37-.26.6-.34.3-.11.37-.36.24-.8-.37-1.3-.73-2.6-1.08-3.9-.59-2.21-.85-4.46-.52-6.8-.43-.25-.84-.51-1.28-.72-.14-.07-.39-.04-.53.03-3.06,1.69-5.9,3.66-8.13,6.41-.99,1.22-1.25,1.72-1.95,3.61-.15-.08-.29-.16-.45-.25,0-.09,0-.18.02-.26.34-1.26.99-2.37,1.8-3.38,1.76-2.2,3.93-3.93,6.3-5.44.63-.4,1.27-.78,1.96-1.2-.09-.08-.14-.14-.2-.17-1.85-.95-3.74-1.82-5.81-2.18-1.53-.26-3.07-.33-4.59.06-2.02.52-3.61,1.64-4.77,3.36-1.01,1.5-1.57,3.18-1.91,4.94-.27,1.39-.37,2.8-.37,4.22v.68c-.49.13-.53.11-.59-.21-.02-.08-.02-.17-.02-.26-.02-2.72.29-5.39,1.39-7.92,1.26-2.9,3.35-4.83,6.48-5.52,1.88-.41,3.75-.2,5.6.26,1.76.44,3.38,1.21,4.98,2.05.4.21.73.25,1.12,0,.46-.28,1.06-.39,1.4-.76.32-.35.38-.93.58-1.41.73-1.78,1.79-3.31,3.37-4.45.22-.16.37-.46.48-.72.8-1.89,2.04-3.36,3.93-4.23,1.18-.54,2.43-.8,3.69-.86.18.23.33.43.48.63-1.88-.02-3.64.4-5.16,1.54-.98.72-1.71,1.65-2.22,2.9.27-.09.45-.14.61-.21,1.01-.43,2.06-.75,3.16-.81,1.48-.08,2.92.17,4.19.97,1.35.85,2.06,2.09,1.96,3.72v.13s.02.04,0,0c1.42.42,2.81.84,4.3,1.28.21-.19.5-.47.81-.72.43-.35.87-.69,1.33-1.01.4-.28.41-.27.92.11-.88.61-1.76,1.2-2.51,2.02.23.15.41.26.57.38.87.66,1.84,1.22,2.58,2,.85.89,1.59,1.92,2.23,2.97,1.26,2.05,2.02,4.31,2.22,6.71.2,2.36-.54,4.45-2.12,6.21-1.35,1.5-4.15,2.36-6.48.96-1.39-.83-2.42-1.96-3.04-3.46-.7-1.69-1.01-3.44-.94-5.27.01-.27,0-.55,0-.78-1.02-.16-2-.26-2.95-.48-2-.45-3.8-1.3-5.32-2.71-.16-.15-.4-.26-.61-.28-1.86-.13-3.54-.79-5.13-1.71-.24-.14-.48-.27-.77-.44-.04.2-.08.34-.1.48-.19,2.12.16,4.19.68,6.23.25.97.49,1.95.75,2.92.04.14.11.28.21.39,2.36,2.7,3.69,5.89,4.49,9.34.15.64.26,1.29.4,2l.02.06h0ZM83.97,23.09c-.43,2.51-1.83,4.08-4.03,4.99-.94.39-1.91.63-2.91.75-.27.03-.53.08-.81.13-.21,2.22.07,4.29.99,6.26.55,1.18,1.43,2.05,2.53,2.75,2.2,1.4,4.86.4,5.99-1.01,1.31-1.65,1.98-3.52,1.75-5.62-.31-2.84-1.32-5.44-3.06-7.73-.11-.15-.24-.28-.45-.52ZM79.42,19.53c-1.32-.63-2.6-.99-3.93-1.14-.13.17-.26.29-.32.44-.18.41-.32.84-.48,1.26-.48,1.22-1.08,2.38-2.1,3.26-1.22,1.05-2.61,1.79-4.2,2.11-.13.03-.26.06-.51.12,2.32,1.9,4.89,2.66,7.76,2.76.43-3.33,1.6-6.26,3.78-8.81ZM74.65,18.28c-3.36-.38-6.58.23-9.74,1.2,0,.19-.02.3,0,.4.27,1.44.73,2.82,1.58,4.03.88,1.26.63,1.19,2.13.82,3.36-.83,5.21-3.14,6.03-6.46h0ZM64.83,18.84c3.34-.98,6.69-1.59,10.17-1.16.11-.49.08-.88-.04-1.27-.37-1.22-1.2-2.01-2.36-2.46-1.43-.56-2.9-.73-4.41-.28-.51.15-1.03.3-1.52.51-1.59.69-1.36.39-1.73,2.06-.18.83-.27,1.68-.12,2.61h.01ZM76.3,28.31c.42-.05.71-.07,1-.13,1.34-.24,2.63-.61,3.76-1.41,1.3-.92,2.13-2.16,2.28-3.78.02-.26,0-.61-.16-.78-.91-.98-1.97-1.77-3.18-2.41-2.13,2.43-3.31,5.23-3.71,8.5h.01ZM60.8,22.7c1.71,1.07,3.43,2.01,5.48,2.19-.46-.87-.95-1.65-1.29-2.49-.35-.86-.55-1.77-.84-2.71-.91.37-1.8.73-2.69,1.08-.22.09-.34.24-.39.46-.09.48-.18.96-.28,1.46h0ZM61.41,20.1c1-.38,1.87-.72,2.67-1.02.09-1.22.18-2.34.27-3.6-1.45,1.3-2.33,2.8-2.94,4.62ZM60.21,22.35c.07-.4.13-.7.21-1.12-.44.23-.74.39-1.13.6.35.2.59.33.92.52Z"/>
      <path class="cls-1" d="M94.75,26.71c1.31-.69,2.35-.51,3.39.56.46.47.89.99,1.34,1.5.18-.06.36-.15.54-.17.47-.04.82-.08.88.55.01.11.08.24.16.33.45.5.45.69,0,1.17-.07.08-.16.14-.23.2.12.8.05.92-.62,1.3-.1.05-.2.16-.23.26-.13.39-.41.55-.79.51-.32-.04-.5.05-.67.34-.23.39-.46.41-.86.16-.12-.08-.25-.16-.39-.21-.69-.24-.72-.3-.4-.98-.38-.32-.78-.64-1.16-.98-.99-.86-1.58-1.95-1.49-3.27.05-.67-.13-1.16-.45-1.71-1.14-2-2.02-4.11-2.48-6.38-.12-.59-.05-1.09.42-1.61.29,3.09,1.47,5.8,3.02,8.41l.02.02h0Z"/>
      <g>
        <g>
          <path class="cls-1" d="M52.78,56.09c.29,1.68.59,3.3.84,4.93.1.67.07,1.36.1,2.05,0,.2-.07.34-.26.47-.39.25-.76.54-1.11.85-.35.31-.66.68-1.01.98-.21.18-.46.36-.71.4-1.51.29-2.83-.13-3.46-1.62-.28-.66-.37-1.4-.53-2.11-.11-.48-.13-.99-.3-1.44-.58-1.54-1.02-1.44-2-.62-1.08.9-1.85,2.01-2.13,3.42-.02.1-.06.2-.11.36-1.59.34-3.16.87-4.84.63-.55-.08-1.12-.11-1.64-.29-1.63-.58-2.39-1.86-2.46-3.5-.05-1.15.1-2.31.16-3.46.04-.81.08-1.61.13-2.42-.05-.02-.09-.03-.14-.05-.11.11-.25.2-.32.33-.31.61-.66,1.2-.87,1.84-.64,2-1.22,4.02-1.84,6.02-.14.47-.32.93-.55,1.37-.56,1.08-1.74,1.24-2.6.35-.31-.32-.59-.68-.88-1.03-.61-.74-1.22-1.5-1.84-2.24-.46-.55-.72-1.16-.68-1.89.06-1.16.11-2.31.17-3.47.06-1.05.17-2.09.18-3.14.02-2.26.58-4.37,1.7-6.32,1.71-3,3.55-5.92,5.76-8.58,1.85-2.22,4.12-3.9,6.93-4.68,1.83-.51,3.72-.81,5.64-.86.66-.02,1.3-.06,1.96-.27.48-.15,1.06-.09,1.58-.03.4.05.79.25.82.83h.62c.64-.05,1.04.27,1.35.8.99,1.66,1.97,3.32,2.99,4.95.69,1.11,1.41,2.21,2.21,3.23,1.31,1.68,2.31,3.49,2.86,5.56.33,1.24.72,2.47,1.03,3.71.32,1.33.29,2.69.05,4.02-.22,1.24-.4,1.45-1.71,1.38-.72-.04-1.43-.24-2.16-.32-.85-.1-1.71-.14-2.56-.21-.08,0-.17,0-.37.03,0,0,0,.04,0,.04ZM40.92,37.73c-.66.85-1.22,1.6-1.57,2.49-.54,1.37-.71,2.83-.79,4.28-.11,1.97.17,3.93.74,5.84.45,1.52,1.48,2.42,3.05,2.67.46.07.94.08,1.41.09,1.24.02,2.42.25,3.56.75.71.31,1.42.61,2.14.87.74.27,1.5.49,2.33.76v-.66c-.04-.81-.11-1.63-.11-2.44,0-1.45-.26-2.85-.72-4.22-.54-1.59-.86-3.22-1.01-4.9-.05-.59-.14-1.22-.39-1.74-.59-1.22-.8-2.49-.72-3.81.07-1.18-.25-2.23-.83-3.27-.17,0-.36.02-.53.03-.19.38-.32.75-.54,1.05-.22.32-.53.57-.84.89.32.08.61.13.89.21.97.3,1.36.99,1.13,1.97-.04.19-.14.36-.19.55-.14.5-.51.69-.97.66-.33-.02-.74-.07-.96-.28-.48-.46-1.01-.48-1.59-.45-.34.02-.68-.02-1.03-.05-.97-.07-1.87-.3-2.45-1.29h-.01ZM44.7,36.58c.3-.43.3-.44.93-.79.53-.29.86-.71.99-1.33h-.23c-1.51.47-2.5,1.66-3.62,2.67-.19.17-.2.42-.09.66.16.37.41.69.81.75.48.08.97.1,1.46.09.67,0,1.37-.18,1.88.45.81-1.18.16-2.15-.91-2.21-.23,0-.47-.06-.7-.11-.16-.04-.31-.11-.52-.19h0Z"/>
          <path class="cls-1" d="M170.2,110.76c-.42-.21-.78-.39-1.14-.55-.17-.08-.36-.12-.54-.17-.59-.14-.85-.43-.84-1.03,0-.42-.04-.79-.25-1.17-.1-.18-.07-.46-.02-.68.32-1.53,1.37-2.43,2.97-2.55.26-.02.51,0,.77-.02.16-.01.31-.07.47-.1-.12-.43-.42-.42-.69-.42-.55,0-1.06-.11-1.54-.38-.63-.34-.97-.86-1.05-1.58-.13-1.15.07-2.21.65-3.21.33-.57.54-1.22.91-1.77.57-.86,1.14-1.78,2.29-2,.6-.12,1.19-.02,1.76.22,1.24.51,2.39,1.18,3.33,2.13.82.84,1.81,1.42,2.81,2,.87.5,1.69,1.08,2.54,1.62.63.41,1.26.82,1.88,1.23.16.11.32.21.47.34.46.39.59.88.4,1.47-.06.18-.11.37-.11.56,0,.54-.17,1.01-.49,1.43-.4.54-.76,1.13-1.35,1.51-.14.09-.23.25-.31.4-.1.16-.2.34-.25.52-.37,1.37-1.29,2.33-2.31,3.25-.65.58-1.26,1.22-1.83,1.88-.88,1.03-1.94,1.81-3.14,2.41-1.07.54-2.26.65-3.43.77-.44.04-.85-.18-1.08-.58-.33-.59-.79-1.06-1.28-1.51-.16-.14-.3-.3-.43-.47-.34-.43-.46-.9-.33-1.44.15-.64.42-1.21.86-1.7.11-.12.21-.26.31-.4h0ZM182.85,107.16c.21-.8.38-1.48.58-2.15.15-.5.14-.57-.3-.92-1.06-.85-2.28-1.43-3.52-1.96-.25-.1-.54-.14-.81-.12-.65.04-.92.54-.63,1.14.27.55.77.81,1.43.71.56-.08,1.1-.08,1.63.19.42.22.61.51.59.96-.02.41-.15.56-.55.53-.36-.03-.72-.11-1.08-.15-.47-.05-.94-.1-1.4-.09-.21,0-.45.13-.62.27-.19.15-.28.38-.14.63.12.22.31.29.54.25.34-.05.67-.17,1.01-.18.4-.02.82-.03,1.19.07.53.15.59.34.43.87-.05.15-.1.3-.17.5.68-.22,1.29-.41,1.83-.58v.03h0ZM177.89,109.29c.81-.15,1.66-.63,2.03-1.16-.48.06-.93.09-1.36.18-.55.11-.72.39-.67.98Z"/>
        </g>
        <path class="cls-1" d="M77.33,4.7c.6.05,1.19.12,1.79.14.77.02,1.54.01,2.31-.03.59-.03,1.15-.05,1.69.24.51.27,1.06.16,1.58.08.84-.13,1.65-.08,2.49-.02,1.99.16,3.94.55,5.89.96,1.11.23,2.1.71,3.03,1.35.17.12.36.24.56.29.38.09.51.34.45.66-.08.41-.19.84-.4,1.2-.25.43-.33.87-.3,1.35.02.26.07.51.05.77-.08.9.49,1.3,1.19,1.62.21.1.44.17.64.29.58.35.63.72.13,1.17-.25.23-.54.43-.84.58-1.43.75-2.96,1.23-4.55,1.51-.11.02-.21.04-.32.04-.36.02-.55.2-.67.56-.21.58-.46,1.15-.75,1.7-.47.9-.82,1.07-1.81.93-1.07-.15-2.08-.5-3.05-.95-.43-.2-.85-.41-1.26-.65-1.32-.75-2.58-1.6-3.96-2.24-.4-.18-.74-.51-1.09-.79s-.68-.59-1.02-.88c-.5-.41-1.05-.7-1.69-.88-1.09-.31-1.91-1.03-2.6-1.91-.25-.32-.49-.66-.78-.93-.41-.38-.45-.94-.75-1.36-.05-.07-.06-.16-.11-.22-.35-.46-.37-.57.02-.94.24-.23.35-.47.39-.77.11-.7.44-1.28.84-1.85.44-.64,1.05-.92,1.8-.95.36-.01.73,0,1.09,0v-.07h.01ZM79.62,11.12c-.65-.12-1.29-.23-1.94-.35.83.4,1.37.47,1.96.33.1.06.2.17.3.17.94.02,1.88.04,2.83.04.85,0,1.71-.06,2.56-.01.83.05,1.66.19,2.48.29,1.72.22,3.33.75,4.82,1.65.47.28.99.36,1.58.43.12-.54.32-1.06.33-1.57,0-.97.02-1.92.73-2.69.04-.05.08-.1.12-.15.31-.51.1-1.18-.44-1.44-.81-.38-1.67-.53-2.55-.61-2.18-.19-4.34-.43-6.49-.87-.68-.14-1.36-.13-2.08,0-.1.39-.21.78-.3,1.17-.17.71-.49,1.33-.99,1.85-.5.53-1.05,1.01-1.6,1.48-.37.32-.81.48-1.32.27h0ZM91.93,16.95c-.79.05-1.38.08-1.98.12-1.53.1-2.97-.32-4.42-.71-.24-.06-.48-.19-.69-.34-.8-.57-1.73-.84-2.64-1.15-.43-.14-.87-.27-1.36-.15.4.33.82.61,1.25.87.92.55,1.85,1.08,2.77,1.62.66.39,1.31.81,1.99,1.18.96.52,1.99.89,3.07,1.11.67.13.9.04,1.19-.57.28-.59.49-1.22.8-1.98,0,0,.02,0,.02,0ZM74,7.81c.23-.05.31-.06.39-.08,2.13-.51,4.19-1.37,6.42-1.43.04,0,.09-.01.13-.02.53-.15.98-.42,1.35-.85-.34-.03-.65.01-.97.05-.82.11-1.64.29-2.47.33-.81.04-1.62-.07-2.43-.1-.34-.01-.68.01-1.02.03-.5.02-.85.27-1.01.75-.13.4-.24.81-.39,1.31h0ZM76.3,10.47c-.5-.23-1-.5-1.58-.53.41.5,1.02.43,1.58.53ZM73.44,9.17c-.03-.3-.04-.49-.06-.74-.25.26-.23.51.06.74Z"/>
        <path class="cls-1" d="M123.74,14.54c.03-.64.1-1.28.08-1.91-.02-.53.18-.85.64-1.07,1.2-.58,2.41-.73,3.64-.12.54.27,1.09.51,1.62.79.76.4,1.4.94,1.75,1.74.58,1.33,1.4,2.5,2.21,3.69.58.85.89,1.74.91,2.76,0,.3.05.6.12.89.22.93.17,1.87.14,2.82,0,.3-.06.62.03.89.4,1.37-.68,3.15-2.17,3.41-.44.08-.87.19-1.33.29-.02.09-.06.2-.09.31h-.09c-.21-.31-.43-.62-.62-.95-.04-.06.03-.18.06-.38.21.2.36.34.51.48,1.46-.09,2.3-.87,2.69-2.08.08-.23.06-.5.05-.76-.04-.7-.09-1.41-.17-2.11-.06-.49-.15-.97-.26-1.44-.15-.62-.37-1.23-.49-1.86-.14-.76-.45-1.42-.93-2.02-.51-.64-1.01-1.28-1.45-1.96-.31-.48-.58-1.01-.76-1.55-.32-.94-.88-1.65-1.74-2.14-.28-.16-.57-.31-.82-.51-.54-.46-1.13-.44-1.76-.25-.16.05-.32.12-.48.18-.5.18-.74.5-.72,1.07.02.7-.05,1.41-.11,2.12-.03.37.11.6.44.76,1.18.57,2.02,1.49,2.62,2.65.12.24.33.45.53.62.38.31.65.67.79,1.15.09.33.21.65.32.98.17.49.42.96.85,1.26.54.38.57.87.4,1.42-.24.78-.21,1.57-.14,2.36.02.19.05.38.07.57.09,1.11.16,2.22.26,3.33.04.4.07.82.22,1.19.34.84.31,1.67.12,2.52-.23,1.02-.48,2.04-.7,3.07-.14.65-.5,1.18-.93,1.66-.67.75-1.39,1.47-2.01,2.25-.83,1.05-1.91,1.46-3.2,1.49-2.33.06-4.62-.1-6.86-.79-1.13-.35-2.3-.5-3.49-.49-1.03,0-2.05-.09-3.06-.35-.91-.23-1.6-.73-1.99-1.58-.45-.97-1.06-1.8-1.91-2.46-.57-.44-.85-1.07-1.01-1.75-.22-.92-.39-1.84-.65-2.75-.2-.7-.43-1.4-.76-2.04-.61-1.2-1-2.44-1.24-3.76-.27-1.47-.65-2.92-.98-4.39-.26-1.15-.25-2.25.48-3.26.15-.21.27-.44.41-.65.55-.82.99-1.69,1.35-2.62.73-1.9,1.99-3.44,3.58-4.7.89-.7,1.9-1.14,3.03-1.33,1.88-.32,3.74-.71,5.67-.64,1.41.05,2.58.47,3.5,1.58.59.7,1.26,1.35,1.92,1.99.73.71,1.35,1.48,1.72,2.45.06-.02.12-.03.18-.05v-.02h0ZM123.57,20.83c.57-.67.67-1.96.24-2.76-.26-.49-.56-.96-.8-1.46-.17-.35-.39-.6-.74-.75-.73-.33-1.39-.77-1.95-1.34-.75-.75-1.68-.83-2.62-.65-1.26.24-2.24,1.01-3.11,1.94-1.05,1.12-1.6,2.52-2.17,3.9-.18.44-.17.91.03,1.38.21.49.39.99.56,1.5.23.67.49,1.32.95,1.88.36.44.79.78,1.48.94.08-.11.17-.29.31-.42.46-.43,1.01-.77,1.64-.8.81-.03,1.62.02,2.43.08.35.03.59-.02.7-.41-.5-.58-1.16-.98-1.78-1.44-.48-.36-.95-.73-1.39-1.13-.38-.34-.56-.81-.63-1.31-.07-.52.04-.7.56-.7.79,0,1.59-.03,2.36.11,1.37.25,2.68.73,3.92,1.45h.01ZM125.15,28.09c.36-.67.71-1.22.97-1.82.21-.49.39-1.01.43-1.53.09-1.11.1-2.22.11-3.34,0-.31-.05-.66-.2-.93-.45-.77-.96-1.51-1.49-2.34-.18,1.17-.04,2.31-1.04,3.08.36.58.68,1.14,1.05,1.65.32.45.49.89.33,1.44-.04.13,0,.28,0,.35-.36.34-.69.66-1.04,1,.79.61.65,1.52.9,2.43h-.02ZM119.58,25.77c.24.08.45.13.64.23.38.2.54.54.54.95,0,.36-.32.44-.56.54-.47.21-.96.36-1.43.57-.31.14-.61.31-.88.51-.21.16-.32.41-.23.69.09.27.34.34.57.32.47-.03.93-.12,1.39-.18,1.17-.15,2.09-1.06,3.38-.99-.39-.66-.76-1.24-1.09-1.83-.34-.61-.66-1.23-1.02-1.89-.71-.11-.99.09-1.32,1.07h0ZM118.03,19.74c-.14.73.18,1.26.66,1.67.75.65,1.55,1.25,2.32,1.85.57-.61,1.1-1.18,1.63-1.75-.74-.85-3.36-1.87-4.6-1.78h-.01ZM121.41,23.56c.1.4.29.51.59.49.59-.04,1.13.05,1.58.53.25.27.78.14.83-.19.04-.28.04-.64-.1-.85-.39-.55-.87-1.04-1.37-1.63-.52.57-1.02,1.11-1.52,1.65h-.01ZM119.01,25.81c.26-.39.52-.77.78-1.16-1.62-.53-3.18-.15-3.62.95.91.56,1.88.3,2.84.21ZM124.15,28.47c.07-.84.15-1.66-.3-2.44-.31.12-.56.21-.87.32.33.76.64,1.49,1.17,2.12ZM123.02,30.8c.62-.27,1.03-.73,1.36-1.31-.31-.16-.6-.3-.97-.49.24.73-.11,1.25-.38,1.8h-.01ZM122.69,25.73c.57-.03.99-.12,1.2-.61-.47-.06-.89-.12-1.4-.19.07.27.13.52.2.79h0Z"/>
        <path class="cls-1" d="M146.15,11.06c.03-.33.06-.62.08-.92.02-.29.12-.48.44-.53,1.32-.18,2.6-.16,3.74.7.59.45,1.23.84,1.96,1.34-.06-.23-.08-.33-.12-.52.71.57,1.59.67,2.2,1.33.41.45.97.74,1.57.97.72.27,1.32.78,1.85,1.35.29.31.66.45,1.04.6.76.28,1.5.6,2.25.92.15.07.31.16.42.29.65.73,1.28,1.47,1.92,2.22.42.49.77,1.03,1.24,1.46,1.36,1.22,2.03,2.77,2.3,4.53.11.74.16,1.49.28,2.23.03.21.2.41.34.58.37.42.64.87.48,1.45-.13.49-.43.81-.95.95-.47.12-.84,0-1.14-.36-.32-.38-.74-.49-1.21-.61-1.03-.27-2.03-.66-3.01-1.09-1.35-.59-2.69-1.22-3.88-2.12-.33-.25-.76-.39-1.16-.52-.65-.2-1.21-.52-1.69-1.01-.56-.58-1.22-1-2.02-1.2-.57-.14-1.01-.48-1.29-.99-.49-.9-1.25-1.44-2.17-1.81-1.15-.46-2.3-.93-3.44-1.42-1.88-.8-3.43-2-4.49-3.78-.29-.48-.64-.91-.97-1.36-.49-.67-.27-1.58.51-1.82,1.08-.33,2.18-.62,3.29-.84.51-.1,1.06-.02,1.65-.02h-.02,0ZM141.76,12.13c-.03.41.08.66.34.81,1.06.56,1.83,1.48,2.7,2.26.57.51,1.21.95,1.84,1.39.74.51,1.51.97,2.25,1.49.65.46,1.25.98,1.9,1.43.87.59,1.6,1.28,2,2.28.18.45.51.79,1.01.92.9.23,1.61.76,2.3,1.36.34.3.76.58,1.2.71.9.28,1.69.72,2.46,1.23,1.38.92,2.94,1.49,4.44,2.17.17.08.36.14.55.16.15.02.32-.03.55-.05-.32-.39-.55-.72-.84-1.01-.93-.94-1.87-1.88-3.19-2.32-.62-.21-1.21-.55-1.77-.9-.92-.58-1.81-1.23-2.72-1.83-.91-.61-1.77-1.28-2.46-2.15-.51-.64-1.13-1.1-1.93-1.32-.73-.2-1.31-.63-1.81-1.18-.32-.35-.59-.73-.91-1.08-.52-.57-.99-1.21-1.6-1.66-.56-.42-1.14-.77-1.52-1.38,0-.02-.03-.03-.05-.04-.55-.29-.63-.77-.52-1.32.02-.12.02-.25.02-.39-1.52-.65-2.87-.02-4.26.4l.02.02h0ZM146.82,11.38c.98.31,1.88.64,2.81.88,1.12.29,2.06.83,2.81,1.7.9,1.05,2.01,1.86,3.18,2.59,1.25.78,2.3,1.78,3.23,2.91.43.53.84,1.09,1.33,1.57,1.67,1.64,3.23,3.37,4.43,5.39.32.54.97.99,1.5,1.17-.02-.14,0-.28-.06-.39-.23-.53-.41-1.09-.71-1.57-1.49-2.38-3-4.74-4.53-7.09-.34-.51-.77-1-1.25-1.37-1.64-1.27-3.29-2.54-5-3.72-1.62-1.11-3.32-2.12-4.99-3.16-.79-.49-1.65-.5-2.56-.4-.06.48-.11.92-.17,1.47l-.02.02h0ZM162.79,25.07s.06-.09.09-.14c-.49-.57-.94-1.17-1.46-1.69-1.31-1.3-2.59-2.61-3.76-4.05-.66-.82-1.44-1.53-2.35-2.07-1.46-.87-2.84-1.83-3.99-3.11-.43-.48-.94-.88-1.58-1.08-.96-.3-1.92-.58-2.89-.86-.03,0-.07.03-.13.06-.11.41-.05.72.3,1.07.51.49.88,1.12,1.6,1.37.06.02.1.08.14.13.43.48.87.95,1.28,1.43.38.44.72.9,1.1,1.34.44.52.98.9,1.64,1.08.86.24,1.5.77,2.1,1.41.54.57,1.12,1.13,1.76,1.58,1.22.87,2.48,1.68,3.74,2.5.74.48,1.57.74,2.4,1.02h.01ZM163.16,20.61c.53.77,1.05,1.54,1.58,2.31-.16-1.01-.72-1.75-1.58-2.31ZM160.48,17.09c-.37-.64-.74-.9-1.29-.94.42.3.8.58,1.29.94Z"/>
        <path class="cls-1" d="M158.97,48.9c.55-.79,1.1-1.57,1.64-2.36.05-.07.1-.15.11-.23.04-.7.11-1.41.07-2.11-.02-.37.02-.67.2-.97.3-.49.74-.82,1.23-1.1.87-.49,1.83-.7,2.81-.86.27-.04.56-.1.78-.25,1.2-.81,2.38-.53,3.52.09.44.24.87.46,1.36.55.79.15,1.49.48,2.17.93.46.3.97.54,1.49.74,1.11.44,2.02,1.1,2.67,2.12.73,1.14,1.48,2.26,2.22,3.39.37.57.56,1.2.65,1.87.08.56.26,1.07.62,1.52.2.25.39.52.5.82.57,1.43,1.54,2.62,2.4,3.87.36.54.89.98,1.39,1.41.56.48,1.04,1,1.42,1.64.3.51.69.98,1.09,1.43.9,1,1.36,2.16,1.44,3.49.03.47.03.94.07,1.41.08,1.14-.18,2.21-.67,3.23-.42.89-.87,1.77-1.02,2.76-.18,1.14-.35,2.29-.53,3.43-.15.91-.35,1.8-.75,2.65-.49,1.01-.73,2.09-.8,3.22-.04.62-.18,1.22-.52,1.77-.12.19-.2.46-.16.67.09.57-.05,1.11-.16,1.65-.1.52-.22,1.05-.36,1.56-.12.45-.3.85-.63,1.23-.34.38-.51.93-.73,1.42-.19.43-.33.88-.49,1.32-.12.31-.28.58-.68.56-.5-.02-.83-.2-1-.62-.02-.04-.04-.08-.09-.19-.2.16-.4.31-.58.48-.84.82-1.82.98-2.91.65-.75-.22-1.46-.52-1.86-1.32-.74.48-1.55.46-2.36.45-.63,0-1.23.04-1.84.23-.31.1-.69.13-1.01.06-1.36-.29-2.71-.65-4.06-.95-1.52-.34-2.93-1.1-4.52-1.21-.68-.05-1.37-.12-2.05-.07-2.16.17-4.28-.07-6.39-.46-1.37-.25-2.73-.54-4.09-.85-1.06-.24-1.9-.85-2.54-1.74-.65-.9-1.34-1.77-2.02-2.66-.09-.12-.2-.23-.27-.36-.44-.81-1.06-1.43-1.81-1.96-.83-.57-1.18-1.38-.88-2.41.21-.74.41-1.49.56-2.24.37-1.94.29-3.88-.05-5.82-.12-.69-.18-1.4-.23-2.11-.11-1.58-.23-3.17-.27-4.75-.08-3.02.42-5.94,1.87-8.63.36-.68.74-1.36,1.15-2.01.23-.36.2-.7.18-1.1-.11-1.73-.37-3.47.2-5.16.26-.76.65-1.49,1.06-2.18.49-.83,1.24-1.37,2.17-1.6,1.6-.39,3.19-.83,4.81-1.11,1.33-.23,2.69-.16,4.03.07,1.41.24,2.17,1.14,2.42,2.49.2,1.1.31,2.21.06,3.32-.06.27-.07.55-.11.82.04.02.07.04.11.07h-.03,0ZM175.89,80.36c.05.11.09.21.13.31.39.94.31,1.84-.22,2.7-.27.44-.77.49-1.03.06-.48-.78-.61-1.81-.11-2.55.59-.87.57-.88-.09-1.68-.22-.26-.45-.52-.68-.77-.67-.76-1.37-1.48-1.99-2.27-1.1-1.41-2.29-2.71-3.58-3.95-1.86-1.8-3.24-3.98-4.59-6.18-.63-1.02-1.18-2.09-1.82-3.11-.33-.52-.7-1.04-1.15-1.46-.71-.67-1.45-.55-2.01.23-.05.07-.09.14-.14.21-.33.48-.73.55-1.19.19-.15-.12-.27-.27-.38-.43-1.52-2.11-1.96-4.43-1.41-6.96.21-.95.67-1.76,1.27-2.5.13-.17.27-.31.19-.57-.33-1.12-.32-1.13-1.34-1.7-.11-.06-.22-.13-.33-.2-1.63-.99-3.43-1.43-5.32-1.51-.62-.02-.63.03-.7.64-.13,1.13-.25,2.25-.4,3.38-.1.72-.28,1.43-.35,2.15-.1,1.05-.55,1.85-1.41,2.47-1.49,1.06-2.61,2.47-3.47,4.07-.29.54-.46,1.15-.62,1.75-.12.45,0,.68.44.87.33.15.69.23,1.03.36.7.27,1.43.47,2.08.83,1.77.97,3.23,2.33,4.48,3.9,1.11,1.39,2.3,2.71,3.59,3.94.85.81,1.7,1.63,2.52,2.47.81.84,1.64,1.63,2.7,2.16.5.25.96.56,1.45.82.43.23.87.48,1.33.64,1.55.53,3.04,1.17,4.46,1.96.73.41,1.47.69,2.31.66.28,0,.55.05.83.08.64.07,1.21.3,1.58.86.38.58.93.93,1.52,1.24,1.02.55,2.04,1.1,3.03,1.69.72.43,1.38.5,2.07-.03.19-.15.29-.28.31-.51.19-2.32-.05-4.58-1.03-6.72-.07-.14-.15-.28-.24-.46-.24.54-.42,1.05-.69,1.5-.28.47-.66.89-1.03,1.39v.03h0ZM177.19,86.09c-.56-.23-1.04-.4-1.49-.63-1.09-.55-2.16-1.14-3.25-1.67-.77-.37-1.56-.69-2.23-1.26-.33-.29-.74-.41-1.2-.35-.47.06-.94.09-1.41.11-2.72.12-5.33-.31-7.8-1.5-.67-.32-1.36-.63-2.07-.88-1.11-.39-2.08-.98-3.01-1.69s-1.54-1.57-1.74-2.74c-.15-.88-.55-1.66-1.06-2.39-.22-.31-.41-.65-.59-.99-.45-.83-.87-1.67-1.33-2.49-.84-1.5-2.03-2.7-3.36-3.76-.86-.69-1.82-1.2-2.89-1.5-.39-.11-.78-.22-1.16-.37-.93-.36-1.1-.69-.88-1.68,0-.02,0-.04.02-.06.24-1.15.79-2.16,1.42-3.14.59-.92,1.18-1.84,1.73-2.78.13-.22.25-.54.19-.78-.17-.69-.43-1.36-.65-2.05-.11.05-.15.06-.18.09-.04.05-.08.1-.11.16-1.86,2.97-2.68,6.26-2.67,9.72,0,2.59.3,5.18.81,7.73.49,2.44.55,4.88.2,7.35-.19,1.34-.3,1.91,1.32,2.77.11.06.23.11.33.19.5.4,1.05.75,1.49,1.21,1.21,1.25,2.37,2.53,3.54,3.81.27.3.57.49.98.56.57.09,1.13.23,1.7.34,1.79.35,3.58.67,5.42.63,2.67-.06,5.25.37,7.68,1.52.19.09.4.16.6.22,1.05.31,2.09.63,3.14.94.52.15,1.04.21,1.58.02.34-.12.71-.16,1.07-.17,1.16-.04,2.33-.05,3.52-.07.1-1.86.97-3.24,2.33-4.4v-.02h0ZM167.26,43.74c-.33.38-.63.75-.95,1.09-.43.47-.82,1.02-1.34,1.37-1.96,1.33-3.66,2.97-5.43,4.52-.1.09-.17.22-.25.33,1.48.83,2.92,1.64,4.35,2.45,3.2,1.8,5.93,4.15,8.13,7.08,1.48,1.97,2.84,4.02,4.25,6.04.71,1.02,1.13,2.17,1.27,3.4.2,1.77.34,3.54.51,5.31.02.23.06.48.17.67,1.45,2.46,1.99,5.12,1.78,7.96-.02.23,0,.45,0,.68,1.54.06,1.96.2,2.27.78-.34.16-.71.5-1,.44-.58-.12-.86.19-1.23.49.17.26.33.5.48.75-.45.29-.76-.04-1.11-.17-1.01,1.04-1.67,2.21-1.71,3.81.32-.23.56-.38.76-.55.59-.5,1.17-1.01,1.74-1.53.51-.47,1.06-.71,1.76-.46.12.04.25.03.36.04.54-.77.6-.96.51-1.8-.06-.6-.17-1.19-.19-1.78-.02-.51-.02-1.03.09-1.52.14-.63.08-1.18-.29-1.7-.56-.79-1.04-1.62-1.3-2.57-.16-.58-.24-1.17-.4-1.75-.33-1.21-.46-2.42-.34-3.68.13-1.27.33-2.5.95-3.64.7-1.28.93-2.64.85-4.09-.08-1.64-.46-3.12-1.68-4.31-.32-.31-.59-.69-.81-1.08-.35-.64-.85-1.12-1.38-1.59-.5-.44-1.02-.88-1.38-1.42-.85-1.28-1.86-2.46-2.44-3.91-.13-.31-.32-.61-.53-.88-.36-.47-.59-.98-.68-1.57-.11-.7-.3-1.38-.7-1.98-.53-.8-1.04-1.63-1.58-2.42-1.43-2.08-1.14-1.8-3.14-2.65-.1-.04-.19-.08-.37-.16h0ZM156.61,49.68c-.15-2.3-.82-4.22-2.15-5.9-.05-.07-.1-.15-.17-.18-.15-.06-.33-.17-.46-.13-.72.19-1.45.39-2.15.65-.24.09-.45.33-.61.54-.61.79-1.04,1.67-1.33,2.62-.04.13-.05.27-.07.45,2.46.08,4.75.59,6.95,1.95h0ZM175.57,80.72c-.71.74-.78,1.47-.25,2.16.41-.67.49-1.34.25-2.16Z"/>
        <path class="cls-1" d="M132.14,158.33c-.66-1.56-.63-3.17-.43-4.76.3-2.41,1.01-4.73,1.73-7.04.85-2.72,1.67-5.45,2.81-8.06.61-1.4,1.34-2.72,2.25-3.96,1.24-1.69,2.92-2.67,4.92-3.17,1.45-.36,2.93-.41,4.41-.36,1.01.03,1.94.37,2.74.99.9.69,1.77,1.43,2.65,2.14.32.26.63.52.95.77.69.52,1.45.78,2.33.75.96-.02,1.93,0,2.89.12,1.41.15,2.63.84,3.85,1.53.98.56,2.01,1.04,3.01,1.56.15-.12.26-.19.35-.28.57-.58,1.27-.95,2.04-1.17.95-.27,1.9-.53,2.84-.81.67-.2,1.34-.25,2.03-.24.84,0,1.25.77,1.88,1.13.36.21.42.7.38,1.11-.08.79-.2,1.57-.33,2.35s-.3,1.55-.45,2.32c.05.02.1.04.15.05.25-.51.57-1,.75-1.53.48-1.46,1.47-2.03,2.98-2,1.59.03,3.05.37,4.38,1.25.64.42,1.07,1.04,1.49,1.67.48.71.95,1.43,1.46,2.12.42.56.61,1.18.63,1.86.03.91.28,1.73.9,2.41.46.51.58,1.14.62,1.79.05.65.2,1.25.57,1.81.36.54.3.71-.13,1.24-.2.25-.4.51-.55.79-.25.49-.64.79-1.12,1.02-1.55.73-3.09,1.47-4.64,2.22-1.31.64-2.73.83-4.15,1.05-1.31.2-2.61.47-3.9.77-.87.2-1.59.74-2.28,1.28-.61.48-1.25.91-2.01,1.06-.64,1.49-1.73,2.16-3.34,2.07-.26,0-.51-.03-.77-.06-.84-.12-1.21-.71-.98-1.52.21-.76.43-1.52.59-2.3.14-.72.31-1.37,1.2-1.4.07-.83.14-1.59.19-2.36.06-.96.08-1.92.15-2.88.12-1.68-.42-3.12-1.56-4.42-.21.12-.45.25-.68.39-2.14,1.35-4.16,2.87-6.09,4.51-.27.23-.46.49-.56.83-.46,1.55-1.15,3-1.88,4.43-.88,1.75-2.11,3.17-3.84,4.12-1.29.71-2.59,1.43-3.89,2.12-.69.37-1.43.57-2.2.66-.19.02-.42.06-.56-.02-.39-.24-.78-.16-1.18-.12-.23.02-.47.04-.7.05-.13,0-.28-.02-.38.04-1.01.57-2.15.47-3.24.6-.28.03-.51.08-.77.24-.88.53-1.84.49-2.79.23-.35-.09-.52-.44-.46-.88s-.06-.82-.29-1.15c-.8-1.14-1.16-2.42-1.23-3.8,0-.28-.13-.56-.21-.87-.51.14-.62.5-.65.86-.06.58-.04,1.16.22,1.7.38.77.78,1.52,1.17,2.29.24.48.47.96.7,1.45.2.43.04.77-.29,1.09-.47.46-1.03.63-1.67.69-1.08.11-2.14.1-3.19-.16-.59-.15-1.1-.41-1.52-.9-.28-.33-.68-.57-1.05-.82-.21-.15-.32-.3-.34-.57-.05-.63.17-1.17.44-1.72.17-.34.33-.69.43-1.06.41-1.46.92-2.86,1.99-3.98.38-.4.83-.74,1.27-1.12l-.04-.04h0ZM132.77,158.07c.7-.18.69-.18.69-.73,0-.21.04-.43.1-.63.93-3.01,2.03-5.96,3.4-8.8.66-1.37,1.36-2.74,2.39-3.87,1.62-1.79,3.49-3.29,5.52-4.59,1.11-.72,2.34-1.17,3.68-1.21,1.41-.05,2.83-.08,4.24-.08.38,0,.78.08,1.12.24,1.5.72,2.73,1.77,3.53,3.24.27.5.41,1.08.54,1.64.05.22-.05.51-.17.72-.17.3-.43.53-.61.82-.27.43-.52.88-.77,1.33-.18.32-.09.56.22.76.97.64,1.29,1.55,1.1,2.67-.04.25-.07.53,0,.76.21.59.49,1.16.78,1.83,1.89-1.97,4.15-3.28,6.27-4.78-.21-.74-.41-1.39-.58-2.05-.47-1.81-.16-3.48.93-5,.2-.28.39-.56.59-.87-.1-.08-.18-.15-.26-.21-1.19-.71-2.39-1.43-3.59-2.14-1.34-.79-2.79-1.2-4.36-1.1-.38.03-.77.03-1.16.05-1.59.09-3-.38-4.23-1.39-.18-.15-.36-.31-.55-.45-.98-.73-1.93-1.49-2.95-2.17-.41-.27-.94-.5-1.42-.51-2.59-.09-4.79.74-6.43,2.84-1.11,1.43-2.02,2.98-2.73,4.64-1.78,4.11-3.28,8.33-4.62,12.6-.55,1.75-.85,3.54-.79,5.38,0,.33.07.66.11,1.05h0ZM171.83,159.75c.65-.29,1.2-.46,1.66-.75.92-.58,1.93-.79,2.98-.93.72-.09,1.46-.14,2.12-.48,2.47-1.29,5.13-2.16,7.58-3.5.36-.2.73-.35,1.11-.5.58-.24.61-.35.35-.9-.25-.54-.49-1.09-.68-1.65-.25-.74-.63-1.34-1.3-1.77-.75-.48-1.34-1.13-1.82-1.88-.29-.45-.61-.88-.95-1.29-.82-.99-1.61-2-2.22-3.14-.47-.89-1.13-1.6-2.02-2.1-.67-.37-.92-.34-1.43.25-.15.18-.27.39-.37.6-.24.48-.46.97-.7,1.44-.69,1.37-1.11,2.78-.84,4.34.03.15.03.3.05.45.09.72-.04,1.41-.33,2.07-.15.35-.33.7-.47,1.06-.66,1.67-1.53,3.26-1.95,5.02-.28,1.18-.49,2.38-.75,3.69l-.02-.03h0ZM166.68,138.97c.29.15.57.27.82.43.55.36,1.14.69,1.63,1.12.45.39.8.89,1.18,1.35.12.14.22.33.25.51.21,1.33.15,2.6-.89,3.65-.96.97-2.03,1.77-3.15,2.53-.19.13-.37.27-.6.43.27.42.5.81.76,1.17.62.87.92,1.84.96,2.88.05,1.33.05,2.65.07,3.98,0,.39-.05.79.14,1.23,1.72-1.4,3.06-2.99,3.9-4.95.44-1.03.9-2.03,1.48-2.99.52-.86.82-1.8.94-2.78.12-.93.23-1.87.3-2.8.14-1.76.42-3.48.69-5.22.06-.38.08-.77.08-1.15,0-.75-1.11-1.89-1.86-1.93-.3-.02-.61,0-.89.06-1.34.35-2.68.73-4.02,1.11-.22.06-.44.17-.64.29-.44.26-.85.56-1.15,1.04v.04h0ZM138.04,166.36c.11-.07.16-.08.18-.11.05-.07.09-.15.12-.23.3-.93.31-1.87-.1-2.76-.48-1.05-.98-2.1-1.55-3.1-.28-.49-.69-.94-1.11-1.31-.66-.58-1.12-.58-1.75.02-.46.44-.88.95-1.19,1.5-.63,1.15-.96,2.43-1.14,3.73-.02.16,0,.33,0,.52,1.1.09,1.83.82,2.79,1.45-.11-.26-.15-.37-.2-.48-.25-.5-.5-.99-.75-1.49-.35-.69-.48-1.41-.42-2.18.09-1.25.6-1.74,1.84-1.67.49.02.7.17.82.65.09.37.15.76.2,1.14.23,1.71,1.12,3.07,2.27,4.32h0ZM166.11,139.68c-1.82,2.14-2.22,5.39-.9,7.46.54-.51,1.07-.99,1.58-1.5.42-.42.66-.96.73-1.54.11-.87.25-1.75-.17-2.59-.06-.11-.09-.24-.1-.37-.06-.73-.53-1.13-1.15-1.46h0ZM168.24,158.84c.72.48,1.36.92,2,1.33.44.29.96.11,1.15-.38.08-.2.11-.41.15-.62.27-1.21.53-2.42.8-3.63v-.2c-1.18,1.41-2.55,2.55-4.12,3.5h.02ZM131.96,165.41l-.08.07c.1.29.2.57.31.9.24-.08.43-.15.74-.25-.39-.29-.68-.5-.97-.72Z"/>
        <path class="cls-1" d="M68.64,129.04c1.99.51,3.3,1.87,4.31,3.54.75,1.24,1.44,2.53,2.09,3.83.58,1.16,1.28,2.23,2.17,3.17,1.74,1.84,3.09,3.94,4.15,6.23.22.48.39,1,.61,1.59.24,0,.53.03.82.03,1.08,0,2.06.29,2.95.94.44.33.96.57,1.47.79.78.34,1.17.86,1.11,1.75-.08,1.24-.05,2.48-.13,3.72-.07,1.25-.45,2.44-1,3.57-1.05,2.16-2.13,4.31-3.49,6.29-.67.97-1.42,1.88-2.16,2.8-.85,1.07-1.69,2.16-2.59,3.2-.96,1.11-2.03,2.09-3.42,2.66-1.34.56-2.71.71-4.15.55-1.38-.15-2.78-.23-4.17-.29-1.26-.05-2.34-.43-3.2-1.39-.38-.43-.84-.79-1.3-1.15-.58-.45-1.24-.75-1.98-.88-.55-.1-1.08-.24-1.65-.37-.23.22-.35.46-.19.79.29.6.56,1.2.86,1.79.25.49.6.88,1.06,1.18.97.63,1.68,1.5,2.31,2.47.47.74.99,1.45,1.54,2.13.49.61.76,1.28.76,2.06,0,.54,0,1.07-.02,1.61-.03.53-.12.62-.62.75-.73.18-1.4.02-2.01-.43-1.64.72-3.31.64-4.96.13-1.05-.32-2.02-.12-3.03.1-1.03.21-2.06.38-3.09.58-.41.08-.68-.08-.93-.4-.64-.78-1.22-1.6-1.67-2.51-.06-.13-.1-.27-.16-.43.11-.04.19-.08.26-.09.96-.04,1.93-.13,2.89-.11,1.39.03,2.79.1,4.14.44.5.12.98.3,1.46.49.41.17.68.46.51.97.36.16.73.23,1.07.09,1.1-.46,2.27-.4,3.42-.42.13,0,.26,0,.38-.02.02,0,.04-.02.11-.05.14-.82.03-1.64-.44-2.36-.61-.94-1.09-1.94-1.53-2.96-.28-.64-.62-1.23-1.16-1.68-.68-.57-1.11-1.29-1.4-2.12-.07-.2-.16-.39-.24-.57-.33.11-.64.19-.92.32-.21.1-.41.24-.56.41-.52.54-1.03,1.09-1.51,1.67-.49.58-1.11.79-1.84.68-.4-.06-.8-.15-1.19-.28-.87-.3-1.73-.27-2.58.02-.55.19-1.09.39-1.64.57-.15.05-.31.06-.51-.02.08-.08.14-.21.23-.25,1.12-.42,2.23-.92,3.47-.79.59.06,1.2.12,1.76.29.6.19,1.03.07,1.41-.41.37-.47.76-.93,1.17-1.37.31-.32.67-.59,1-.89.11-.1.22-.21.29-.33.1-.16.14-.36.25-.52.3-.48.31-.9-.03-1.41-.31-.45-.48-1-.67-1.52-.3-.82-.79-1.45-1.57-1.87-1.04-.56-1.89-1.32-2.43-2.4-.24-.48-.53-.93-.78-1.4-.14-.27-.33-.47-.55-.68-.28-.27-.48-.65-.64-1.01-.18-.4-.29-.84-.46-1.37-.18.36-.29.63-.45.87-.11.17-.28.4-.44.42-.5.06-1.02.05-1.53,0-.13,0-.28-.23-.36-.38-.07-.14-.05-.32-.09-.6-.14.24-.23.37-.3.52-.22.39-.42.8-.64,1.19-.41.7-1.01,1.11-1.83,1.11-.55,0-1.12,0-1.66-.11-1.02-.19-1.48-.86-1.38-1.89.05-.52.2-1.03.54-1.42.54-.63,1.12-1.23,1.69-1.84.41-.44.85-.84,1.25-1.29.25-.28.49-.6.45-1.09-.18.07-.33.12-.46.19-.53.28-1.06.57-1.59.84-.7.35-1.44.41-2.19.23-.15-.04-.38-.17-.38-.26,0-.16.11-.38.24-.46.35-.2.73-.35,1.11-.51.46-.19.92-.35,1.38-.54.17-.07.32-.18.53-.3-.52-.33-1-.27-1.48-.17-2.06.46-4.13.37-6.2.07-.25-.04-.5-.11-.74-.21-.42-.18-.52-.5-.23-.87.21-.27.46-.52.74-.7,1.4-.92,2.92-1.52,4.62-1.58.75-.03,1.5-.09,2.25-.1,1.4,0,1.92.37,2.37,1.7.21.63.35,1.28.53,1.95.76.1,1.36.61,2,1.01.63.4,1.23.84,1.85,1.27,1.33-2.47-.27-4.62-2.29-4.83-.3-.03-.6-.03-.89-.08-.45-.08-.47-.12-.39-.6,0-.06.02-.13.03-.23-.12-.06-.24-.15-.37-.19-1.13-.4-2.27-.76-3.39-1.2-.57-.22-1.09-.57-1.62-.89-.16-.09-.26-.26-.5-.51.27.05.41.07.54.11,1.09.38,2.18.77,3.27,1.16.61.22,1.17.51,1.61,1.01.3.34.76.32,1.19.29,0-.07,0-.14-.02-.14-.48-.17-.79-.46-.98-.97-.2-.51-.69-.82-1.16-1.07-1.72-.91-3.44-1.82-5.18-2.69-.33-.17-.48-.37-.56-.7-.2-.9-.4-1.8-.63-2.69-.06-.23-.2-.48-.39-.63-1.92-1.57-3.98-2.9-6.33-3.74-1.33-.47-2.68-.73-4.09-.75-.94,0-1.89-.02-2.83,0-1.33.03-1.35.08-1.61,1.38-.1.51-.11,1.01,0,1.52.14.6.21,1.22.3,1.84.11.81.38,1.54.92,2.16.4.46.56.99.54,1.6-.01.38.05.77.07,1.15.01.3.06.61.01.9-.27,1.55.08,3.02.53,4.47.09.28.21.57.36.82.46.77.95,1.53,1.42,2.29.09.15.18.29.25.45.53,1.38,1.08,2.75,1.57,4.14.26.75.55,1.47,1.04,2.12.82,1.1,1.54,2.27,1.91,3.61.03.1.07.2.12.3.98,1.83,1.73,3.77,2.87,5.52.63.96,1.4,1.79,2.24,2.55.96.87,2.12,1.25,3.39,1.36,1.09.09,2.17.21,3.26.32.94.1,1.88.13,2.81-.14.1-.03.23,0,.36,0-.06.3-.26.33-.45.33-.94.04-1.88.13-2.82.08-1.37-.07-2.73-.26-4.09-.38-1.66-.16-3-.96-4.16-2.1-1.16-1.13-2.08-2.46-2.92-3.82-.6-.96-1.31-1.79-2.15-2.53-.32-.28-.62-.6-.86-.94-.72-1.04-1.55-1.99-2.43-2.9-.5-.52-.84-1.12-1.11-1.79-.54-1.33-1.07-2.66-1.69-3.96-.39-.83-.87-1.62-1.39-2.38-.62-.89-.8-1.89-.86-2.92-.1-1.72.14-3.42.35-5.12.05-.41-.04-.85-.07-1.27-.04-.45-.09-.89-.13-1.33-.06-.77-.11-1.54-.16-2.3-.09-1.33-.09-2.65.14-3.97.02-.1.01-.21.02-.36-.45.12-.77.37-1.05.65-.42.43-.81.89-1.2,1.34-.6.7-.79,1.55-.83,2.44-.1,2.12-.49,4.21-.85,6.3-.24,1.39-.39,2.8-.34,4.22.01.4.03.83.16,1.2.42,1.24.65,2.53.86,3.82.15.9.47,1.74.99,2.48.73,1.04,1.29,2.17,1.89,3.28,1.67,3.1,3.68,5.93,6.49,8.13.86.67,1.61,1.48,2.42,2.21.36.33.75.64,1.12.97.72.63,1.5,1.12,2.46,1.31.48.1.95.29,1.38.52,1.13.6,2.35.9,3.59,1.17,2.07.44,4.14.92,6.19,1.44.8.2,1.57.55,2.34.87.18.07.38.24.46.41.5,1.08,1.15,2.06,1.9,2.97.02.03.02.08.04.16-.07.02-.14.07-.21.07-2.68.18-5.35.13-8.02-.24-1.89-.26-3.65-.91-5.36-1.73-.5-.24-1.03-.41-1.55-.58-.71-.24-1.44-.41-2.14-.68-.75-.29-1.24-.65-1.01-1.73.03-.14.04-.31-.02-.44-.27-.65-.54-1.3-.84-1.94-.16-.35-.36-.68-.55-1.01-.08-.14-.2-.27-.32-.4-.62-.65-1.25-1.29-1.88-1.94-.46-.47-.92-.96-1.4-1.41-1.36-1.26-2.55-2.66-3.53-4.24-.99-1.6-1.99-3.2-2.75-4.94-.24-.54-.56-1.07-.92-1.54-.93-1.21-1.4-2.58-1.65-4.06-.15-.86-.39-1.71-.66-2.54-.25-.75-.33-1.5-.3-2.28.04-1.48.21-2.95.58-4.39.43-1.66.65-3.36.89-5.06.06-.4.13-.8.18-1.21.1-.74.55-1.3.97-1.86.62-.83,1.32-1.59,2.29-2.02.26-.12.37-.31.47-.57.58-1.58,1.35-3.05,2.25-4.47.62-.97,1.24-1.95,1.88-2.91,2.73-4.05,6.48-6.79,11.04-8.45,3.26-1.18,6.62-1.72,10.08-1.72,1.31,0,2.61-.05,3.92-.06,3.11-.03,6.2.21,9.26.83,2.09.42,3.8,1.42,5.03,3.17.73,1.03,1.43,2.08,2.12,3.14.62.96.87,2,.57,3.13-.02.08,0,.17,0,.27l-.1.05h0ZM82.08,148.11v.46c0,.92.02,1.84,0,2.76-.01.87-.3,1.63-.92,2.27-.84.87-1.77,1.62-2.78,2.27-.71.46-1.49.76-2.31.94-2.2.5-4.43.79-6.68.89-1.07.05-2.13.08-3.2-.11-1.24-.21-2.31-.77-3.33-1.45-.7-.47-1.45-.82-2.27-1.03-.32-.08-.57-.04-.82.2-.29.28-.62.53-.93.79-.47.4-1.01.63-1.63.68-.12,0-.24.03-.47.06.33.31.6.55.84.8.87.92,1.88,1.62,3.04,2.11.43.18.87.38,1.27.61,1.28.73,2.57,1.45,3.83,2.23.6.37.6.88.12,1.4-.41.45-.93.69-1.52.76-2.12.26-4.19.02-6.19-.72-1.6-.59-2.82-1.61-3.56-3.16-.48-1.01-.93-2.02-1.39-3.04-.31-.7-.62-1.4-.92-2.1-.08.13-.07.23-.03.32.2.54.42,1.08.62,1.62.34.91.32,1.85.18,2.79-.06.37-.23.64-.65.67-.1,0-.19.04-.36.09.36.6.71,1.14,1,1.7.52.99,1.28,1.71,2.26,2.21.95.48,1.56,1.23,1.91,2.23.17.48.42.93.63,1.4.21-.04.35-.08.5-.09.58-.05,1.17-.11,1.69.21.49.3,1.01.45,1.57.53,1.62.2,3.04.85,4.25,1.95.33.3.67.6,1.01.89.35.31.76.45,1.23.47,1.15.07,2.31.12,3.46.26,1.09.14,2.1-.06,3.04-.58.65-.36,1.3-.77,1.84-1.28,1.03-.97,2-2,2.94-3.05,1.23-1.4,2.47-2.8,3.59-4.29,1.36-1.82,2.34-3.89,3.33-5.93.52-1.07.86-2.2.92-3.39.06-1.13.06-2.27.07-3.4,0-.97-.19-1.19-1.1-1.58-.79-.33-1.56-.7-2.32-1.09-.53-.28-1.06-.44-1.76-.3v.02h0ZM68.46,129.59c-.1.28-.18.48-.25.68-.61,1.68-1.38,3.27-2.56,4.64-1.94,2.26-3.8,4.59-5.79,6.8-1.27,1.42-2.71,2.67-4.06,4.02-1.41,1.41-2.81,2.82-4.2,4.25-.32.33-.58.72-.87,1.1.22.21.4.34.52.5.31.4.7.79.87,1.25.18.47.43.64.88.66.23,0,.47.05.7.07.58.04,1.16,0,1.73.11,1.16.2,2.31.44,3.45.72.52.13.91.08,1.35-.27.82-.65,1.68-1.27,2.58-1.8,1.27-.75,2.6-1.39,3.79-2.28.56-.42,1.26-.53,1.95-.54.94-.02,1.89-.02,2.83-.05,2-.06,3.97-.26,5.88-.9.93-.31,1.89-.56,2.83-.84.14-.04.27-.09.46-.16-.15-.35-.23-.69-.41-.97-.74-1.15-1.46-2.32-2.3-3.4-.85-1.1-1.82-2.11-2.77-3.13-.97-1.04-1.83-2.15-2.34-3.5-.11-.3-.23-.6-.36-.89-.52-1.17-1.01-2.36-1.58-3.51-.51-1.03-1.26-1.87-2.33-2.54v-.02h0ZM68.09,129.01c.03-.37.07-.73.07-1.09,0-.8-.44-1.43-.93-2-1.37-1.57-2.84-3.03-4.47-4.34-.81-.65-1.72-1.11-2.74-1.37-2.09-.53-4.22-.77-6.36-.84s-4.29-.04-6.43-.03c-2.37,0-4.68.39-6.97,1.03-3.96,1.12-7.45,3.05-10.34,5.98-2.32,2.35-4.15,5.07-5.68,7.99-.29.55-.53,1.11-.81,1.71.16.02.24.04.32.04,1.24-.03,2.48-.09,3.72-.1,1.49,0,2.94.25,4.35.74,2.05.71,3.86,1.83,5.58,3.14.16.12.33.24.59.43-.06-.23-.08-.33-.1-.43-.28-1.23-.62-2.45-.84-3.69-.32-1.82-.36-3.67-.07-5.5.26-1.65.75-3.26,1.37-4.81.26-.65.67-1.24,1.05-1.83.3-.46.77-.67,1.33-.64.49.03.99.04,1.47.12,1.07.17,2.12.15,3.18-.12.59-.15,1.23-.17,1.84-.22.62-.04,1.18.15,1.65.58.25.23.53.45.82.61.23.13.53.25.78.22,1.85-.21,3.68-.08,5.51.17.25.03.51.09.75.16.81.26,1.08.61.89,1.44-.26,1.11.29,2.09.23,3.16,1.05.21,2.05.16,3.02.1,2.31-.14,4.61-.35,6.92-.53.06,0,.12-.03.29-.07h.01ZM48.66,149.33c.09-.18.17-.33.23-.49.74-2.13,1.81-4.11,2.86-6.1.99-1.9,1.88-3.84,2.54-5.89.38-1.16.86-2.28,1.48-3.34.41-.72.74-1.49,1.06-2.27.18-.45.29-.94.05-1.41-1.12-.17-2.12.06-2.98.76-.73.59-1.44,1.21-2.14,1.84-.66.6-1.11,1.35-1.41,2.19-.23.67-.5,1.32-.76,1.97-.45,1.09-.93,2.16-1.36,3.26-.32.82-.52,1.67-.56,2.56-.07,1.87.1,3.72.29,5.58.06.53.17,1,.71,1.33h-.01ZM54.51,156.76c.88,1.45,1.73,2.88,2.62,4.3.82,1.31,2.01,2.17,3.46,2.63.75.23,1.54.33,2.33.43.38.05.96-.4,1.06-.72.15-.48-.28-.61-.52-.86-.03-.03-.07-.05-.1-.08-1.27-.92-2.58-1.77-4-2.45-1.08-.52-2.01-1.22-2.76-2.16-.5-.63-1.06-1.2-2.08-1.09h-.01ZM36.05,152.54c.23.1.39.21.57.24,1.29.23,2.59.38,3.89.23,1.2-.14,2.38-.48,3.71-.29-.45-.93-.91-1.71-1.65-2.29-.16-.12-.38-.2-.58-.22-1.82-.18-3.47.34-5,1.28-.38.23-.73.51-.94,1.05h0ZM52.27,153.73c.19.97,1.03,1.31,1.67,1.85-.13-.27-.26-.53-.4-.8.32-.14.54-.1.72.09.32.34.66.67.94,1.04.31.42.67.6,1.19.6,1.28,0,1.97-.93,2.88-1.66-2.32-.77-4.61-1.11-7-1.13h0ZM43.86,160.71c.14-.08.21-.1.24-.14.11-.13.22-.26.32-.4.69-1.01,1.24-2.1,1.66-3.24.17-.48.45-.75.96-.8.31-.03.62-.07,1.04-.12-.47-.39-.87-.72-1.22-1.02-.55.66-1.06,1.26-1.57,1.87-.37.44-.75.87-1.09,1.34-.4.55-.59,1.19-.52,1.87.02.21.12.41.19.65h0ZM51.14,156.46c.22.98.37,1.98.71,3.05.29-.91-.1-2.61-.71-3.05ZM62.34,181.68v-.2c-.58-.24-1.13-.07-1.67.18v.13c.55-.04,1.1-.07,1.65-.11,0,0,.02,0,.02,0ZM41.97,154.72c.03.06.06.11.08.17.3-.15.6-.29.9-.44-.02-.04-.04-.08-.05-.12-.31.13-.62.26-.93.39Z"/>
        <path class="cls-1" d="M31.8,83.93c.07.58.05,1.22.22,1.8.21.71.49,1.39.55,2.14.02.19.15.4.29.56.36.42.56.91.61,1.46.03.36.21.63.43.91.24.31.48.67.59,1.04.51,1.77.96,3.55,1.48,5.32.2.66.18,1.3.07,1.96-.12.74-.25,1.48-.34,2.22-.06.54-.31.9-.77,1.18-1.41.85-2.93,1.4-4.52,1.79-.47.12-.93.3-1.36.52-.54.28-1.1.5-1.71.52-1.73.06-3.47.1-5.2.14-1.22.03-2.44-.07-3.63-.37-.25-.06-.5-.11-.76-.13-1.23-.1-2.31-.59-3.31-1.28-.7-.48-1.28-1.06-1.68-1.82-.3-.57-.62-1.12-.92-1.69-.43-.79-.36-1.64-.15-2.45.37-1.41.78-2.8,1.25-4.18.21-.64.59-1.23.91-1.88-.13-.11-.29-.22-.42-.35-.3-.3-.62-.59-.87-.93-.28-.39-.58-.74-1.03-.93-.62-.26-.84-.71-.77-1.38.1-1.1.41-2.08,1.25-2.87,1.11-1.04,2.17-2.13,3.25-3.2,1.2-1.19,2.58-2.11,4.02-2.97,1.23-.73,2.55-.78,3.91-.65.23.02.47.07.7.08.55.02,1.1.07,1.57-.35.2-.17.5-.24.76-.33,1.13-.4,2.26-.81,3.4-1.16.52-.16,1.09-.21,1.64-.27.51-.05,1.02-.03,1.53-.06.4-.02.65.08.86.49.66,1.28.88,2.63.85,4.04-.02.86-.39,1.58-1.09,2.09-.48.35-1.01.63-1.61,1h0ZM14.02,91.4c.64-.74,1.26-1.47,1.91-2.18,1-1.09,1.72-2.33,2.17-3.74.26-.81.6-1.6.94-2.39.36-.83,1-1.36,1.86-1.65,1.17-.4,2.33-.86,3.5-1.27.47-.17.78-.48,1.03-.88-.27-.3-.58-.18-.87-.14-.78.1-1.54.07-2.29-.17-.5-.16-.96-.12-1.44.07-1.43.55-2.76,1.31-3.91,2.31-1.55,1.35-2.99,2.81-4.51,4.2-.81.74-1.17,1.64-1.23,2.72-.03.5.11.83.54,1.05.51.26.89.65,1.2,1.13.27.42.64.73,1.1.95h0ZM14.55,91.45l.12.14c.1-.05.23-.09.31-.17.39-.4.77-.8,1.15-1.21.52-.56,1-1.17,1.58-1.68.88-.78,1.83-1.49,2.73-2.24.33-.27.62-.59.91-.91.47-.53.9-1.09,1.37-1.62.43-.5.76-1.06,1.01-1.75-1.04.17-1.94.49-2.58,1.27-.52.63-1.04,1.27-1.43,1.97-.92,1.64-2.07,3.09-3.45,4.37-.61.56-1.13,1.22-1.7,1.83h-.02ZM26.13,78.87c1.56.94,2.28,2.54,3.46,3.72-.26-1.59-.58-3.15-1.58-4.47-.65.17-1.29.26-1.88.75ZM30.2,77.53c-.53.15-.99.28-1.47.41.78,1.07,1.5,2.06,2.23,3.06.04-.02.08-.04.12-.06-.29-1.11-.57-2.22-.88-3.41ZM32.4,77.32c-.38-.03-.7-.05-.99-.08.39.52.8,1.06,1.2,1.6.04-.02.08-.05.11-.07-.11-.49-.22-.98-.32-1.45ZM31.49,82.98c-.43-.51-.8-.93-1.16-1.35.08.58.09,1.16.37,1.69.27-.12.5-.21.79-.34ZM31.91,79.88c.18.7.33,1.27.51,1.95.34-.48.37-.91.32-1.36-.25-.18-.48-.35-.83-.6h0Z"/>
      </g>
    </g>
  </g>
</svg>