<?xml version="1.0" encoding="UTF-8"?>
<svg id="Layer_2" data-name="Layer 2" xmlns="http://www.w3.org/2000/svg" viewBox="0 0 204.47 195">
  <defs>
    <style>
      .cls-1 {
        fill: #fff;
        stroke: #fff;
        stroke-miterlimit: 10;
        stroke-width: .43px;
      }
    </style>
  </defs>
  <path class="cls-1" d="M83.56,97.43c-.04,3.4-.06,6.71-.1,10.02-.04,3.32-.22,6.64-.16,9.96.04,0,.08,0,.12.02.05-.3.11-.6.14-.91.46-4.25,2.12-7.94,5.01-11.08.33-.36.66-.72,1.02-1.05.42-.37.89-.62,1.48-.63.49,0,.84.21,1,.67.11.35.2.72.2,1.09,0,1.82-.03,3.64-.05,5.46-.03,1.35-.07,2.7-.11,4.05,0,.1.03.21.13.32.13-.68.25-1.37.37-2.05.47-2.6,1.64-4.88,3.31-6.9.66-.79,1.45-1.42,2.36-1.91.17-.09.35-.17.53-.25,1.05-.4,1.84-.03,2.08,1.08.13.58.16,1.21.11,1.81-.19,2.28-.45,4.56-.67,6.83-.19,1.94-.38,3.89-.55,5.84-.1,1.21-.15,2.42-.21,3.63v.47c.07.54.38.67.79.32.67-.58,1.32-1.17,1.98-1.74.1-.09.19-.22.32-.26.15-.05.32-.02.47-.02,0,.16,0,.33-.04.48,0,.06-.1.12-.16.16-.68.59-1.35,1.19-2.03,1.78-.39.35-.78.64-1.36.35s-.76-.75-.73-1.34c.09-1.66.15-3.32.29-4.98.24-2.59.55-5.18.81-7.76.14-1.32.26-2.65.33-3.98.03-.52-.02-1.06-.14-1.57-.15-.64-.49-.78-1.1-.51-1.07.46-1.94,1.18-2.67,2.07-1.68,2.08-2.75,4.44-3.19,7.08-.46,2.77-.75,5.54-.93,8.34-.04.51-.09,1.01-.16,1.52-.03.19-.07.39-.16.56-.05.09-.23.17-.34.16s-.26-.13-.29-.24c-.06-.2-.07-.42-.06-.64.05-3.32.08-6.66.15-9.98.05-2.38.13-4.77.16-7.16,0-.55-.04-1.1-.12-1.63-.08-.55-.31-.66-.82-.4-.27.14-.54.32-.76.54-2.98,2.99-4.92,6.51-5.47,10.73-.34,2.56-.55,5.13-.82,7.71-.02.21-.05.43-.11.63-.05.21-.22.37-.43.3-.14-.05-.28-.21-.34-.35-.06-.17-.04-.38-.05-.58-.17-5.34-.08-10.68.05-16.02.07-2.96.1-5.91.12-8.86,0-.54.29-.84.72-1.17h.08Z"/>
  <path class="cls-1" d="M74.27,65.51v.89c0,.43-.02.86-.05,1.29-.02.24-.14.41-.4.41s-.4-.16-.42-.47c-.03-.43,0-.86-.06-1.29-.04-.31-.16-.6-.25-.9-.17-.58.11-.91.72-.81.23.04.46.11.68.17,2.54.79,5.13,1.02,7.77.88,1.95-.11,3.9-.33,5.81-.79.53-.13,1.06-.28,1.59-.42.13-.04.26-.08.4-.09.42-.04.64.26.44.63-.14.26-.33.48-.51.71-2.15,2.73-4.67,5.07-7.66,6.86-.06.04-.12.09-.21.16.22.16.43.07.63.06,2.46-.06,4.85.22,7.1,1.26.67.31,1.32.68,1.93,1.11,2.66,1.9,3.53,4.91,2.35,7.95-.48,1.23-1.22,2.32-2.07,3.32-1,1.19-2.15,2.23-3.38,3.17-1.06.8-2.15,1.55-3.22,2.35-.77.57-1.54,1.14-2.27,1.76-2.51,2.15-4.56,4.72-6.48,7.39-.79,1.1-1.52,2.24-2.23,3.38-1.45,2.35-2.49,4.87-3.18,7.54-.05.17-.06.37-.16.49-.07.1-.26.19-.37.16s-.24-.21-.25-.33c0-.21.06-.42.11-.63.45-1.91,1.1-3.75,2.02-5.5,2.3-4.41,5.22-8.35,8.76-11.85,1.21-1.21,2.56-2.29,3.98-3.27,1.62-1.1,3.2-2.25,4.63-3.6,1.11-1.06,2.11-2.21,2.87-3.55.52-.93.88-1.93.95-2.99.16-2.27-.79-4.03-2.6-5.32-1.76-1.26-3.78-1.85-5.91-2.08-1.57-.16-3.13-.1-4.68.11-.28.04-.58.12-.84.25-1.48.68-2.99,1.24-4.56,1.7-.26.07-.54.16-.8.15-.16,0-.37-.16-.44-.29-.05-.1.06-.34.17-.45.16-.16.37-.27.58-.39,1.29-.75,2.7-1.15,4.15-1.4.85-.14,1.61-.45,2.35-.87,3.04-1.72,5.61-3.96,7.8-6.68.04-.05.07-.09.1-.15.02-.04.02-.07.05-.2-4.95,1.13-9.89,1.53-14.9.13l-.03.03h-.01Z"/>
  <path class="cls-1" d="M133.5,116.64c-.45,1.21-.91,2.36-1.55,3.45-.44.74-.94,1.44-1.59,2.03-1.04.93-2.04.79-2.67-.47-.26-.53-.36-1.15-.52-1.73-.04-.13-.05-.26-.08-.39-.06.03-.12.05-.12.05.04.62-.24,1.14-.58,1.62-.41.57-.82,1.15-1.32,1.63-.4.38-.91.67-1.42.91-.72.35-1.48.33-2.22.03-1.32-.55-2.39-1.4-3.13-2.64-.16-.27-.33-.55-.5-.82-.04,0-.07.03-.11.04,0,.18-.03.37-.03.56-.02,1.01-.05,2.04-.05,3.05,0,.28.05.58.09.86.05.27-.07.49-.31.54-.21.04-.39-.1-.43-.37-.03-.21-.02-.43-.02-.65.02-1.59.05-3.17.05-4.76,0-1.23-.04-2.46-.05-3.69,0-.27.03-.55.04-.82.06-3.09.12-6.18.2-9.28.04-1.41.14-2.81.21-4.22,0-.21.04-.42.31-.4.25,0,.31.2.3.42-.02.67-.04,1.33-.05,1.99-.1,3.56-.2,7.12-.29,10.68,0,.09.02.18.03.35.16-.11.26-.19.37-.26.48-.29.94-.64,1.46-.85.93-.37,1.52.17,1.32,1.14-.15.73-.49,1.37-.96,1.93-.6.71-1.27,1.38-1.91,2.07-.06.07-.14.13-.26.24.89,1.5,1.6,3.09,3.22,4,1.32.73,2.35.68,3.51-.31.98-.83,1.57-1.93,2.12-3.07.35-.72.5-1.43.43-2.25-.1-1.05-.06-2.11-.09-3.17,0-.42.08-.58.32-.56.24.02.32.21.34.57.09,2.01.17,4.03.33,6.03.04.48.25,1,.49,1.42.4.7.81.74,1.42.22.67-.56,1.14-1.28,1.59-2.02.89-1.48,1.35-3.11,1.75-4.77.13-.51.25-1.02.38-1.53.04-.13.05-.28.14-.38.07-.09.23-.19.33-.18.11,0,.25.13.29.24.05.14.05.31.04.47-.03.72-.09,1.44-.09,2.17,0,1.29-.02,2.58.03,3.87.06,1.73.1,3.44-.29,5.14-.28,1.25-.83,2.39-1.54,3.46-.71,1.07-1.73,1.7-2.96,1.95-1.19.25-2.38.48-3.59.58-3.57.29-7.15.3-10.73.07-2.79-.17-5.6-.11-8.39.03-1.15.05-2.31.09-3.46.14-1.82.07-3.63.15-5.45.22-.17,0-.36,0-.52-.04-.09-.03-.21-.15-.21-.23s.11-.22.2-.24c.18-.05.38-.05.58-.05,2.19-.09,4.38-.16,6.56-.26,3.05-.15,6.1-.28,9.16-.18,1.84.05,3.67.18,5.51.22,2.64.05,5.29-.04,7.91-.36.9-.11,1.8-.35,2.69-.57.93-.24,1.63-.82,2.16-1.61,1.08-1.58,1.63-3.33,1.71-5.23.05-1.21,0-2.43-.03-3.63,0-.79-.05-1.6-.07-2.39h-.02.02ZM117.65,117.98c.15-.06.21-.07.25-.11.62-.73,1.26-1.44,1.84-2.2.24-.32.37-.73.47-1.12.12-.47-.07-.62-.54-.46-.79.27-1.38.8-1.88,1.44-.08.1-.13.25-.13.37v2.07h0Z"/>
  <path class="cls-1" d="M102.13,82.06c-.05.07-.12.15-.16.23-1.28,2.25-2.56,4.49-3.83,6.74-.16.27-.28.56-.42.84-.1.2-.24.32-.47.22-.2-.09-.23-.27-.16-.45.11-.27.23-.54.37-.79,1.03-1.84,2.06-3.69,3.09-5.53.52-.92,1.05-1.84,1.55-2.77.16-.28.26-.61.3-.93.24-2.04.43-4.08.68-6.13.2-1.63.49-3.25,1.05-4.8.12-.33.26-.66.44-.96.28-.48.68-.86,1.2-1.09.56-.24,1.03-.15,1.44.29.56.58.77,1.3.72,2.1-.05.93-.32,1.81-.62,2.67-.8,2.32-1.95,4.47-3.14,6.62-.05.1-.12.2-.17.31-.97,1.75-.99,1.75-1.04,3.76-.05,1.82-.06,3.64-.12,5.46-.1,3.66-.22,7.31-.33,10.97,0,.27-.03.55,0,.82.02.29.05.58.15.87.05.17.19.4.33.43.12.03.35-.15.44-.29.82-1.26,1.77-2.44,2.4-3.82.05-.13.13-.25.22-.35.14-.16.3-.26.51-.13.19.12.16.29.08.47-.18.37-.33.76-.55,1.1-.68,1.05-1.37,2.09-2.07,3.13-.11.16-.26.3-.41.41-.54.37-1.17.25-1.45-.33-.19-.39-.3-.85-.36-1.29-.05-.52-.02-1.06,0-1.58.07-2.64.15-5.28.22-7.92.07-2.66.15-5.32.22-7.98v-.28l-.12-.03h0ZM103.46,78.16c1.44-2.63,2.85-5.2,3.57-8.07.12-.47.14-.97.16-1.45.02-.42-.16-.8-.41-1.13-.28-.38-.49-.41-.89-.15-.37.25-.65.58-.79.99-.25.66-.48,1.32-.66,2-.65,2.51-.8,5.09-1.09,7.65,0,.03.04.05.11.16Z"/>
  <path class="cls-1" d="M119.86,80.02v-1.1c-.08-3.08.1-6.14.45-9.19.06-.57.1-1.13.17-1.69.04-.25.08-.51.19-.73.17-.35.45-.35.82-.02-.36.36-.35.83-.39,1.29-.3,3.55-.67,7.09-.53,10.66v.69c.25-.03.42-.05.58-.07.26-.02.5-.05.76-.05.08,0,.22.12.24.2,0,.08-.07.22-.16.27-.11.07-.26.09-.39.12-.3.06-.61.11-1,.18v.63c.17,3.75.21,7.5.18,11.27-.02,1.76.08,3.51.14,5.28,0,.33.06.67.14.99.06.28.11.58.37.78.37-.1.6-.38.79-.67.74-1.1,1.52-2.18,2.16-3.34.83-1.51,1.52-3.09,2.28-4.63.21-.42.44-.83.67-1.24.05-.1.13-.23.22-.26.15-.07.34-.14.47-.09.09.03.17.24.18.38.02.15-.05.3-.07.46-.32,1.91-.61,3.83-.52,5.77,0,.29.05.58.1.88.14.89.71,1.47,1.48,1.84.26.12.61.12.9.06.86-.17,1.59-.63,2.27-1.17.17-.13.33-.29.52-.37.12-.05.28.03.43.05-.03.14,0,.34-.07.41-1,.95-2.13,1.66-3.54,1.77-.38.03-.73-.08-1.06-.27-1.04-.62-1.66-1.51-1.75-2.75-.08-1.06-.05-2.11.07-3.16.04-.34.06-.68.1-1.03-.05-.02-.08-.03-.13-.05-.09.18-.19.36-.27.54-.79,1.71-1.65,3.37-2.67,4.95-.33.51-.68,1-1.04,1.49-.14.19-.3.36-.47.53-.35.37-.73.68-1.28.53s-.73-.65-.8-1.13c-.14-.89-.26-1.78-.28-2.67-.05-2.35,0-4.69-.04-7.04-.05-2.78-.13-5.55-.2-8.34,0-.07-.02-.16-.04-.26-.25-.1-.48-.03-.74,0-.3.03-.61-.02-.9-.07-.07-.02-.18-.17-.17-.26,0-.09.12-.21.21-.25.14-.05.3-.05.46-.05.37-.02.73-.03,1.16-.05h0v-.02Z"/>
  <path class="cls-1" d="M109.93,122.51c-.66.27-1.23.52-1.81.75-.68.26-1.36.49-2.04.74-.07.03-.15.05-.23.05-.65.11-1.27.08-1.7-.5s-.25-1.15.05-1.72c.34-.66.86-1.16,1.44-1.6,1.27-.95,2.66-1.65,4.2-2.02.44-.1.67-.27.71-.75.07-.62.24-1.22.34-1.84.05-.33.08-.67.05-1-.04-.46-.29-.67-.75-.64-.85.04-1.59.37-2.25.9.03.22.4.37.11.61-.19.16-.69.17-.89,0-.2-.16-.21-.39-.08-.58.16-.22.33-.44.54-.6.68-.53,1.44-.85,2.3-.97,1.09-.15,1.81.47,1.76,1.56-.03.58-.17,1.16-.26,1.73-.08.58-.32,1.13-.2,1.73-.37.86-.33,1.8-.45,2.7-.08.56-.08,1.13-.05,1.7.03.59.27.76.86.62,1.18-.27,2.24-.81,3.23-1.49.17-.12.29-.31.45-.46.09-.09.21-.18.33-.21.28-.05.45.16.31.43-.13.24-.29.48-.5.63-.46.33-.94.64-1.45.88-.67.31-1.37.56-2.07.81-.22.07-.47.09-.69.09-.6,0-.99-.33-1.13-.91-.05-.18-.07-.38-.12-.68h0v.04ZM109.96,121.84c.11-.96.22-2,.34-3.03-.1-.02-.14-.05-.17-.04-.16.04-.3.07-.46.12-1.35.4-2.57,1.05-3.66,1.93-.39.31-.71.72-1.03,1.11-.15.17-.23.41-.29.63-.16.55.16.94.73.9.25-.02.51-.07.74-.16.88-.34,1.74-.7,2.61-1.05.37-.15.76-.26,1.2-.42h-.01Z"/>
  <path class="cls-1" d="M88.18,96.63c.02-1.63.47-3.12,1.56-4.36.57-.65,1.25-1.12,2.11-1.29,1.21-.24,2.19.19,2.97,1.1.66.78.96,1.7,1.06,2.68.17,1.78-.23,3.41-1.31,4.87-.43.58-.96,1.03-1.61,1.33-1.21.58-2.5.36-3.46-.58-.87-.86-1.21-1.94-1.33-3.11-.02-.21,0-.43,0-.65h.01ZM95.23,95.58c-.05-.45-.08-.89-.17-1.33-.16-.76-.46-1.45-1.01-2.01-.67-.67-1.45-.87-2.36-.55-.69.24-1.21.71-1.63,1.29-.92,1.28-1.27,2.71-1.14,4.26.07.87.31,1.69.85,2.4.83,1.09,2.06,1.31,3.21.58.5-.32.89-.75,1.21-1.25.67-1.03.98-2.16,1.04-3.39h0Z"/>
  <path class="cls-1" d="M108.49,97.39c0-1.44.33-2.8,1.24-3.94.34-.42.76-.79,1.21-1.08,1.09-.68,2.35-.54,3.32.28.68.58,1.1,1.32,1.33,2.16.49,1.84.27,3.61-.68,5.27-.36.61-.83,1.13-1.45,1.51-1.28.77-2.72.58-3.73-.51-.79-.86-1.12-1.91-1.24-3.04-.02-.21,0-.43,0-.65ZM115.12,96.73c0-.77-.09-1.52-.39-2.24-.12-.28-.26-.57-.44-.82-.95-1.37-2.59-1.45-3.69-.19-1.2,1.37-1.56,2.99-1.35,4.76.1.87.39,1.67.98,2.35.83.98,2.01,1.11,3.03.35.55-.4.94-.94,1.23-1.54.41-.84.61-1.73.63-2.66h0Z"/>
  <path class="cls-1" d="M83.28,88.9c.04-1.11.07-2.23.09-3.33,0-.53,0-1.06-.02-1.58-.02-.33-.05-.67-.13-.99-.23-.98-.72-1.31-1.71-1.07-.6.15-1.21.36-1.76.62-2.32,1.09-4.4,2.53-6.28,4.26-.36.33-.68.69-.99,1.09-.22.29-.4.62-.55.96-.2.49-.1.8.3,1.14.09.07.2.13.27.22.05.06.1.2.06.26-.05.08-.17.16-.26.17-.11,0-.23-.04-.33-.09-.68-.35-1-1.05-.75-1.77.16-.44.37-.88.65-1.23.45-.56.95-1.1,1.49-1.57,1.96-1.73,4.11-3.19,6.52-4.22.65-.27,1.31-.52,2.03-.54.96-.03,1.56.36,1.89,1.26.13.35.23.72.23,1.09.02,1.51-.02,3.01-.02,4.51,0,.49-.46.58-.64.89-.04-.03-.07-.05-.12-.07h.03Z"/>
  <path class="cls-1" d="M130.56,83.1c.28,0,.42.17.35.36-.06.16-.17.3-.27.45-.66.9-1.32,1.79-1.96,2.7-.16.22-.26.47-.33.73-.06.21-.19.33-.37.26-.14-.05-.29-.22-.31-.36-.03-.16.05-.36.15-.49.81-1.15,1.63-2.29,2.46-3.42.08-.12.24-.18.3-.23h-.02Z"/>
</svg>